<?xml version="1.0" standalone="no"?>
<!DOCTYPE svg PUBLIC "-//W3C//DTD SVG 1.1//EN" "http://www.w3.org/Graphics/SVG/1.1/DTD/svg11.dtd" >
<svg xmlns="http://www.w3.org/2000/svg" xmlns:xlink="http://www.w3.org/1999/xlink" version="1.1">
<metadata>
Created by FontForge 20201107 at Wed Jan  7 01:03:44 2015
 By 
Copyright (c) 2012 Silicon Andhra (fonts.siliconandhra.org). Copyright (c) 2010, Sebastian Kosch (sebastian@aldusleaf.org), with Reserved Font Name 'Crimson'
</metadata>
<defs>
<font id="Ramaraja" horiz-adv-x="485" >
  <font-face 
    font-family="Ramaraja"
    font-weight="400"
    font-stretch="normal"
    units-per-em="750"
    panose-1="0 0 0 0 0 0 0 0 0 0"
    ascent="600"
    descent="-150"
    x-height="288"
    cap-height="437"
    bbox="-726.861 -544 1260.05 741"
    underline-thickness="21"
    underline-position="-340"
    unicode-range="U+000D-25CC"
  />
<missing-glyph horiz-adv-x="438" 
 />
    <glyph glyph-name=".notdef" horiz-adv-x="438" 
 />
    <glyph glyph-name=".null" horiz-adv-x="0" 
 />
    <glyph glyph-name="nonmarkingreturn" unicode="&#xd;" horiz-adv-x="0" 
 />
    <glyph glyph-name="NULL" horiz-adv-x="0" 
 />
    <glyph glyph-name="NULL" horiz-adv-x="0" 
 />
    <glyph glyph-name="space" unicode=" " horiz-adv-x="150" 
 />
    <glyph glyph-name="exclam" unicode="!" horiz-adv-x="168" 
d="M137 42q0 -20 -14.5 -34.5t-34.5 -14.5t-35 14.5t-15 35.5t15 35t35 14t34.5 -15t14.5 -35zM60 412q13 12 29.5 12t29 -12t12.5 -33q0 -16 -7 -77l-12 -98q-5 -36 -8 -58q-4 -14 -14 -17q-2 0 -7 3t-8 8q-9 48 -18.5 137.5t-9.5 106t13 28.5z" />
    <glyph glyph-name="quotedbl" unicode="&#x22;" horiz-adv-x="221" 
d="M71 461q8 0 14 -7t6 -35.5t-8.5 -58.5t-11.5 -64q-2 -10 -14 -10q-4 0 -7.5 2.5t-3.5 6.5q-5 45 -14 74.5t-9 41.5t3 19.5t8 13.5q14 17 25 17h12zM180 461q8 0 13.5 -7t5.5 -35.5t-9.5 -58.5t-12.5 -64q-1 -5 -5.5 -7.5t-7.5 -2.5q-10 0 -10 9q-5 45 -14 74.5t-9 41.5
t3 19.5t8 13.5q14 17 25 17h13z" />
    <glyph glyph-name="numbersign" unicode="#" horiz-adv-x="331" 
d="M51 224q-4 0 -2 14q5 27 13 30h215q7 0 4 -14q-6 -28 -12 -30h-218zM33 98q-3 0 -3 6.5t2 14.5q7 21 12 23h215q4 0 4 -6.5t-1 -13.5q-5 -22 -12 -24h-217zM197 24q0 -2 -6 -5.5t-13 -3.5q-8 0 -8 3l52 324q2 5 5.5 6.5t10.5 1.5h8q1 0 3 -2zM90 24q0 -2 -5.5 -5.5
t-12.5 -3.5q-9 0 -9 3l52 324q3 8 14 8h11q1 0 3 -2z" />
    <glyph glyph-name="dollar" unicode="$" horiz-adv-x="271" 
d="M125.5 31q17.5 -11 32.5 -11t26 2.5t20 9.5q22 17 22 50q0 43 -65 86q-16 10 -31 20l-32 21q-58 39 -58 100q0 46 43 81q40 33 92 33q28 0 52.5 -6t53.5 -12q2 -25 3.5 -50.5t3.5 -54.5q-3 -3 -6 -3h-11q-8 0 -9 4q-5 33 -21 55q-29 41 -63 41q-18 0 -36 -12t-18 -43
q0 -46 92 -104q16 -10 32.5 -19.5t29.5 -22.5q31 -31 31 -86q0 -50 -43 -84q-41 -33 -95 -33q-52 0 -120 17q-7 22 -11 61.5t-4 45.5q2 3 9 6t11.5 3t6 -9t10 -26.5t22 -33t31 -26.5zM190 441q26 0 26 -5l-75 -462q-26 0 -26 6z" />
    <glyph glyph-name="percent" unicode="%" horiz-adv-x="382" 
d="M70 -3q-2 -3 -10.5 -6.5t-15.5 -3.5q-11 0 -11 8l341 422q9 9 23 9t14 -7zM319 181q-30 0 -34 -49q-1 -12 -1 -25.5t2.5 -29t7.5 -27.5q13 -30 35 -30q31 0 35 48q1 12 1 25.5t-2.5 29t-8.5 28.5q-14 30 -35 30zM399 172.5q29 -28.5 29 -70.5t-30 -72t-75 -30t-73.5 28.5
t-28.5 70.5t30 72t74.5 30t73.5 -28.5zM123 403q-30 0 -34 -48q-1 -13 -1 -26t2.5 -28.5t7.5 -28.5q13 -29 35 -29q31 0 35 47q1 13 1 26.5t-2.5 29t-8.5 28.5q-14 29 -35 29zM203 395q29 -28 29 -70q0 -41 -30 -73q-29 -30 -74.5 -30t-74 28.5t-28.5 70.5t30 72t74.5 30
t73.5 -28z" />
    <glyph glyph-name="ampersand" unicode="&#x26;" horiz-adv-x="441" 
d="M143 207q-26 -24 -26 -62q0 -35 21 -65q24 -32 67 -32q25 0 42 15zM171 381q-8 -19 -8 -41.5t12 -41t20 -29.5q22 11 32.5 27t10.5 33.5t-1.5 28t-6.5 20.5q-10 22 -30.5 22t-28.5 -19zM265 40q-45 -43 -114 -43q-45 0 -80 27q-39 31 -39 79q0 71 62 111q16 11 30 20
q-11 15 -24.5 35.5t-13.5 48t9 46.5t25 33q33 29 82.5 29t76.5 -21t27 -56q0 -58 -59 -91q-17 -9 -34 -16l92 -123q40 47 40 53.5t-4.5 8.5t-10 3t-11 0.5t-7 1.5t-1.5 10.5t2 9.5l45 -1q39 0 85 2q2 -1 1.5 -10t-2.5 -12h-8q-26 0 -38 -9q-7 -7 -26 -28q-33 -38 -47 -52
q2 -2 8 -9t13 -15q20 -19 27.5 -19t14 4t12 10t9.5 12t7 9q5 0 10 -3.5t7 -8.5q-1 -3 -10 -15.5t-23 -26.5q-34 -36 -60.5 -36t-42.5 12.5t-30 29.5z" />
    <glyph glyph-name="quotesingle" unicode="'" horiz-adv-x="148" 
d="M35.5 452.5q13.5 16.5 33 16.5t26.5 -14q-6 -90 -15 -145q-5 -7 -17 -12q-5 0 -8 4q-11 29 -22 59t-11 52.5t13.5 39z" />
    <glyph glyph-name="parenleft" unicode="(" horiz-adv-x="196" 
d="M38 84q-18 51 -18 117.5t18 117t43 86.5t52 58t45 30q2 -2 4.5 -9t1.5 -9q-10 -8 -25 -30.5t-29 -57.5q-36 -86 -36 -186q0 -99 36 -185q26 -64 54 -89q1 -2 -1.5 -8.5t-4.5 -8.5q-18 8 -45 29.5t-52 57.5t-43 87z" />
    <glyph glyph-name="parenright" unicode=")" horiz-adv-x="196" 
d="M150.5 318.5q17.5 -50.5 17.5 -117t-17.5 -117.5t-42.5 -87t-52 -57.5t-45 -29.5q-3 2 -5 8.5t-1 8.5q53 53 79 171q11 46 11 103q0 100 -35 186q-15 35 -30.5 57.5t-24.5 30.5q-1 2 1 9t5 9q18 -8 45 -30t52 -58t42.5 -86.5z" />
    <glyph glyph-name="asterisk" unicode="*" horiz-adv-x="295" 
d="M79 391q-8 14 -3 27q9 26 35 20q12 -2 19 -14.5t8.5 -21.5t1.5 -17.5v-17t2 -13.5l4 -7q2 -4 5 -4t7.5 5t7.5 12l6 14q10 25 19.5 35.5t23 10.5t21.5 -7.5t9 -20.5t-8.5 -23t-18 -14t-16.5 -6.5t-16 -4.5q-14 -5 -17 -11t-3 -9t6 -4q11 -5 26 -5q53 0 63 -27q5 -13 0 -23
t-17.5 -14.5t-25 1t-19 12t-11.5 13.5q-15 21 -27 27q-3 2 -5 0q-2 0 -3 -7t1 -15l4 -16q12 -44 -8 -60q-21 -17 -41 4q-9 9 -7.5 23t6 22t10.5 15q13 17 16 30v4q0 4 -1 6q-1 1 -8 -0.5t-14 -5.5l-14 -8q-41 -27 -61 -12q-23 17 -8 40q7 11 20.5 14.5t22.5 1.5t17 -5
q22 -8 34 -6q2 -1 4 0q3 0 5 4q0 2 -6.5 12.5t-19.5 18t-26 27.5z" />
    <glyph glyph-name="plus" unicode="+" horiz-adv-x="300" 
d="M200 13q-10 -8 -35 -8q-7 0 -7 6v130h-133q-4 0 -4 16.5t7 25.5h130v130q10 7 26 7t16 -6v-131h133q6 0 6 -14.5t-10 -27.5h-129v-128z" />
    <glyph glyph-name="comma" unicode="," horiz-adv-x="165" 
d="M12 -88q47 35 47 70q0 8 -5 13l-11 11q-16 14 -16 39t26 41q10 6 21 6q19 0 33 -11q9 -18 9 -42t-7.5 -46t-20.5 -41q-24 -36 -62 -56q-6 2 -10 7.5t-4 8.5z" />
    <glyph glyph-name="hyphen" unicode="-" horiz-adv-x="246" 
d="M41 131q-5 0 -5 9t10 36q38 2 68.5 4t56.5 2.5t32.5 1t6.5 -6.5q0 -18 -10 -38q-29 -2 -83 -4.5t-76 -3.5z" />
    <glyph glyph-name="period" unicode="." horiz-adv-x="161" 
d="M127 42q0 -20 -14.5 -34.5t-35 -14.5t-35 14.5t-14.5 35.5t14.5 35t35 14t35 -15t14.5 -35z" />
    <glyph glyph-name="slash" unicode="/" horiz-adv-x="274" 
d="M64 -9q-1 -4 -8.5 -9t-19.5 -5q-17 0 -17 5l195 506q4 8 11 11t18 3t12.5 -2t3.5 -3z" />
    <glyph glyph-name="zero" unicode="0" horiz-adv-x="348" 
d="M119 199q0 -75 19 -125q8 -23 19.5 -35.5t25.5 -12.5t25 15t18 41q13 48 13 130t-15 127.5t-43 45.5q-45 0 -58 -113q-4 -34 -4 -73zM34 202q0 46 12 84t32 66q43 60 103 60q61 0 101 -54q43 -57 43 -153q0 -86 -43 -147q-41 -60 -101 -60q-61 0 -103 54q-44 57 -44 150z
" />
    <glyph glyph-name="one" unicode="1" horiz-adv-x="240" 
d="M130 2q-42 0 -90 -5q-2 3 -2.5 12t2.5 13q21 0 31 4.5t11 7.5q5 12 5 62v222q0 22 -3 28.5t-9.5 6.5t-22 -4.5t-26.5 -10.5q-9 4 -9 9t-0.5 8t1.5 3l152 66h1q3 0 5 -5t3 -7q-6 -18 -6 -62v-254q0 -50 3 -57.5t8.5 -10t12.5 -4.5q12 -2 23 -2q3 -4 2.5 -13t-2.5 -12
q-48 5 -90 5z" />
    <glyph glyph-name="two" unicode="2" horiz-adv-x="327" 
d="M302 127q-8 -31 -23.5 -76.5t-16.5 -50.5h-240q-6 4 -6 12q19 21 36.5 39.5t33.5 37.5q36 41 63 84q42 66 42 123q0 31 -22 54q-20 22 -42.5 22t-36 -6.5t-23 -15t-15 -16t-7.5 -9.5q-2 0 -8 4t-6 12q12 27 43 51q40 32 89 32q48 0 81 -29q34 -30 34 -82q0 -56 -50 -115
q-71 -81 -124 -131h113q37 0 53 39q5 11 8 18t9.5 7t14.5 -4z" />
    <glyph glyph-name="three" unicode="3" horiz-adv-x="318" 
d="M90 228q97 21 97 74q0 31 -16 52t-46 21q-38 0 -72 -34q-7 2 -7 18q18 24 49 44.5t71 20.5q32 0 54.5 -14t33.5 -30t11 -39t-9 -39t-21 -28q-21 -21 -42 -28q57 -7 87 -52q12 -19 12 -51.5t-15.5 -60t-40.5 -46.5q-52 -40 -121 -40q-32 0 -55 8t-34 16q-8 13 -8 27
t9 25.5t24.5 11.5t25.5 -11t19 -21q23 -28 46 -28q62 0 62 93q0 39 -20 67q-20 29 -52 29q-10 0 -36 -6q-6 6 -6 15v6z" />
    <glyph glyph-name="four" unicode="4" horiz-adv-x="325" 
d="M262 3q-15 -6 -49 -6t-34 8v110h-168q-7 3 -7 16l227 285l7 6q2 3 5.5 3t11 -6.5t7.5 -11.5v-247h30q3 0 6 -8.5t3 -19.5t-6 -17h-33v-112zM179 308q-9 -11 -26.5 -34t-36.5 -46.5t-35 -43t-20 -24.5h118v148z" />
    <glyph glyph-name="five" unicode="5" horiz-adv-x="319" 
d="M144 209q-16 7 -42.5 7t-48.5 -9q-6 0 -6 13l3 13q2 13 6 32.5t8 42.5t8 45t7.5 40t4.5 26h117q36 0 61 7q2 -1 5.5 -2.5t3.5 -6t-3 -14t-8 -19.5q-11 -25 -14 -30q-69 -6 -103 -6h-40l-15 -77q32 8 63 8t54.5 -10t42.5 -27q42 -39 42 -90q0 -67 -55 -112
q-53 -44 -118 -44q-32 0 -55.5 8t-33.5 16q-8 10 -8 25.5t8.5 27t24 11.5t25.5 -11t18 -21q24 -28 47 -28q62 0 62 93q0 43 -31 73q-14 12 -30 19z" />
    <glyph glyph-name="six" unicode="6" horiz-adv-x="330" 
d="M121 216q-5 -21 -5 -56t2.5 -56.5t9.5 -39.5q14 -40 44 -40q19 0 32 25.5t13 58.5t-3 52.5t-10 34.5q-17 33 -50 33q-21 0 -33 -12zM280 409q-116 -48 -151 -158q27 16 52.5 16t47.5 -7t39 -22q36 -35 36 -101q0 -58 -44 -100q-42 -41 -96 -41q-55 0 -95 50
q-39 48 -39 108.5t23.5 106t59.5 83.5t82 57.5t80 24.5q7 -6 5 -17z" />
    <glyph glyph-name="seven" unicode="7" horiz-adv-x="305" 
d="M234 420l60 3q4 0 4 -7.5t-5 -16.5t-13 -26l-179 -378q-2 -2 -6 -2h-5q-14 0 -21.5 5.5t-7.5 10.5q37 56 98.5 176.5t84.5 168.5h-153q-30 0 -45 -37q-4 -10 -6 -15.5t-3 -6t-8.5 -1t-13.5 5.5q3 12 7.5 29.5l9 35t7.5 32.5t5 23h190z" />
    <glyph glyph-name="eight" unicode="8" horiz-adv-x="337" 
d="M143 182q-22 -28 -22 -79t30 -72q10 -7 29.5 -7t32 15.5t12.5 36.5t-8.5 37.5t-20.5 29t-24.5 22t-19.5 15.5l-6 3q-3 0 -3 -1zM195 249l4 2q14 22 14 70q0 42 -24 63q-8 7 -22.5 7t-25.5 -15.5t-11 -35t6.5 -34t15.5 -25.5q15 -18 35 -28q4 -4 8 -4zM172 418
q22 0 44.5 -6t39.5 -18q39 -28 39 -71q0 -32 -22.5 -56t-50.5 -35q-4 -2 2.5 -5.5t21.5 -14.5t30 -26q36 -36 36 -76q0 -50 -44 -83q-41 -31 -98 -31q-90 0 -123 55q-12 20 -12 45.5t7.5 41.5t19.5 28q20 22 57 34q2 1 -4 5.5t-18.5 15.5t-24.5 25q-27 35 -27 75q0 41 40 70
q37 27 87 27z" />
    <glyph glyph-name="nine" unicode="9" horiz-adv-x="328" 
d="M211 206q4 23 4 57t-2.5 55.5t-8.5 39.5q-16 40 -44 40q-20 0 -33 -25.5t-13 -58.5t3.5 -52.5t10.5 -35.5q17 -33 50 -33q18 0 33 13zM203 171q-30 -17 -54.5 -17t-46.5 7t-38 23q-36 33 -36 101q0 56 44 99q41 42 95 42q55 0 95 -50q40 -48 40 -108.5t-24 -106.5
t-60 -84t-82 -57t-80 -24q-7 6 -5 17q63 26 99 66.5t53 91.5z" />
    <glyph glyph-name="colon" unicode=":" horiz-adv-x="161" 
d="M135 234q0 -20 -14 -34.5t-34.5 -14.5t-35.5 15t-15 35.5t15 34.5t35.5 14t34.5 -15t14 -35zM135 42q0 -20 -14 -34.5t-34.5 -14.5t-35.5 14.5t-15 35.5t15 35t35.5 14t34.5 -15t14 -35z" />
    <glyph glyph-name="semicolon" unicode=";" horiz-adv-x="165" 
d="M31 237q0 20 15 34t35 14t33.5 -14t13.5 -34t-13.5 -36t-34 -16t-35 16t-14.5 36zM54.5 -45q6.5 14 6.5 27.5t-3.5 18.5t-7.5 10q-10 15 -10 24.5t2.5 17t8.5 15.5q15 20 42 20q20 0 26 -5q10 -27 10 -43.5t-3.5 -34.5t-7.5 -27.5t-15 -25t-24 -28.5q-28 -28 -44 -35h-1
q-5 0 -10 9t-5 12t6.5 8t14.5 14t14.5 23z" />
    <glyph glyph-name="less" unicode="&#x3c;" horiz-adv-x="329" 
d="M292 33l1 -3q0 -12 -5 -26t-6 -14h-1q-1 0 -2 1l-247 126q-12 6 -12 26q0 11 12 16l246 123q2 2 3 2q5 0 11 -38q0 -4 -2 -6l-209 -102l210 -104z" />
    <glyph glyph-name="equal" unicode="=" horiz-adv-x="300" 
d="M46 88q-3 0 -3 5.5t2 12.5q5 19 12 21h266q7 0 4 -12q-5 -22 -13 -27h-268zM46 183q-3 0 -3 5.5t2 12.5q5 19 12 21h266q7 0 4 -12q-5 -22 -13 -27h-268z" />
    <glyph glyph-name="greater" unicode="&#x3e;" horiz-adv-x="329" 
d="M48 -9l-3 -1q-2 0 -3.5 5.5t-3.5 12.5q-4 14 -4 22q0 4 2 4l211 104l-210 102q-3 3 -2 6q8 38 10 38t4 -2l247 -123q12 -5 12 -14q0 -22 -12 -28z" />
    <glyph glyph-name="question" unicode="?" horiz-adv-x="290" 
d="M60 7q-16 14 -16 35.5t14.5 35.5t34 14t34 -14t14.5 -34.5t-13.5 -35.5t-32.5 -15t-35 14zM100 141q-4 -12 -9 -12q-8 0 -16 8q-13 35 -13 65t17.5 47.5t38.5 31.5q67 43 67 70q0 11 -9 21.5t-22.5 10.5t-22 -6.5t-17.5 -14t-18 -14t-24 -6.5t-25.5 13.5t-10.5 26.5
q0 26 10 34q19 11 59 11q11 0 34 -5t45 -18q57 -34 57 -93q0 -53 -55 -85q-15 -9 -28.5 -17.5t-29.5 -18.5q-28 -16 -28 -35v-14z" />
    <glyph glyph-name="at" unicode="@" horiz-adv-x="329" 
d="M353 58q0 -22 15 -22q12 0 27 12t28 32q31 49 31 107q0 72 -37 117q-41 51 -123 51q-50 0 -92.5 -22t-73.5 -56.5t-48.5 -78t-17.5 -94t27 -92.5t62 -63q18 -11 29.5 -13.5t21.5 -4.5q0 -4 -9 -8.5t-17 -4.5q-12 0 -32.5 7.5t-41.5 24t-37 40.5q-35 52 -35 119
q0 48 19.5 96.5t55 87.5t84 63.5t101.5 24.5t88.5 -15t58.5 -41q46 -52 46 -134q0 -77 -44 -136q-20 -27 -46.5 -43.5t-53 -16.5t-46.5 13.5t-20 43.5v10q0 5 2 9q-25 -45 -64 -66q-15 -8 -28.5 -8t-25 3t-20.5 12q-20 20 -20 61.5t18.5 79.5t47.5 69t65.5 50.5t71.5 19.5
q45 0 72 -8l-37 -200q-2 -4 -2 -17v-9zM292 257q-39 0 -66 -51q-27 -49 -27 -108q0 -19 7.5 -27.5t18.5 -8.5q21 0 40.5 32t30.5 87l14 67q-5 5 -8 7t-10 2z" />
    <glyph glyph-name="A" unicode="A" horiz-adv-x="444" 
d="M139 -3q-51 6 -71.5 6t-71.5 -6q-2 2 -2.5 10.5t1.5 13.5q14 0 28.5 8.5t17.5 12.5q13 23 23 46l141 324q3 6 11 15.5t16 9.5t11 -5l135 -334q7 -16 10.5 -26.5t8 -21t12.5 -16t16 -8.5q11 -4 24 -4q2 -5 2.5 -14t-1.5 -11q-60 6 -97 6t-91 -6q-2 3 -2 14t2 11
q25 0 39 12q6 4 6 8q0 10 -20 55l-20 48l-3 3h-133q-2 0 -5 -3q-5 -10 -11 -25.5t-12 -29.5q-15 -33 -15 -42.5t7 -14t16 -7.5q16 -4 28 -4q3 -4 2.5 -13.5t-2.5 -11.5zM141 183q0 -3 35 -3h47q11 0 27 1l1 2v2l-54 129l-56 -129v-2z" />
    <glyph glyph-name="B" unicode="B" horiz-adv-x="398" 
d="M256 321q0 88 -55 88q-12 0 -21.5 -1t-11.5 -7q-4 -8 -4 -40v-116h35q25 0 41 19.5t16 56.5zM119 434l101 2q53 0 90 -24q44 -28 44 -81q0 -49 -53 -80q-12 -7 -17.5 -9t-5.5 -3t6.5 -2t25 -8.5t34.5 -22.5q41 -35 41 -79q0 -33 -19 -61t-49 -45.5t-66 -20.5t-60 -2.5
t-45 0.5h-122q-2 3 -2 12t2 12q4 0 17 2q22 3 26 10q5 12 5 62v243q0 48 -5 62q-7 10 -43 10q-2 4 -2 13t2 12q23 -2 48 -2h47zM164 72q0 -31 5 -37.5t17 -7.5t24.5 -1t25 4.5t22.5 15.5q24 23 24 70q0 69 -44 94q-16 9 -39 9h-35v-147z" />
    <glyph glyph-name="C" unicode="C" horiz-adv-x="425" 
d="M399 135q10 0 23 -8q0 -7 -7 -39q-14 -60 -20 -62q-32 -11 -65.5 -21t-80 -10t-87.5 16.5t-72 45.5q-67 63 -67 156q0 94 67 161q66 66 161 66q80 0 138 -12l22 -100q0 -3 -5.5 -6.5t-12 -3.5t-8.5 3q-11 34 -29 52q-37 39 -99 39q-66 0 -99 -55q-29 -48 -29 -125
q0 -86 33 -142q39 -66 109 -66q67 0 99 52q16 24 22 40.5t7 18.5z" />
    <glyph glyph-name="D" unicode="D" horiz-adv-x="481" 
d="M164.5 385q-0.5 -10 -0.5 -151v-149q0 -29 6 -44q3 -7 15.5 -11t25.5 -4q81 0 119 45.5t38 142.5q0 94 -47 146q-44 49 -120 49q-12 0 -21.5 -1t-12 -7t-3 -16zM119 434q43 0 101 2q115 0 184 -56q69 -58 69 -158q0 -112 -75 -170q-68 -54 -183 -54h-191q-2 3 -2 12t2 12
q4 0 17 2q22 3 26 10q5 12 5 62v243q0 48 -5 62q-7 10 -43 10q-2 4 -2 13t2 12q23 -2 48 -2h47z" />
    <glyph glyph-name="E" unicode="E" horiz-adv-x="403" 
d="M352 341q-4 -4 -11 -4q-12 0 -14 6q-11 27 -26 46.5t-46 19.5h-54q-12 0 -21.5 -1t-11.5 -7q-4 -8 -4 -40v-118q0 -7 29 -7h35q28 0 37 7t13 16t8 23q0 5 8.5 5t11.5 -3v-127q-3 -3 -11.5 -3t-9.5 6q-9 34 -22.5 39.5t-56 5.5t-42.5 -10v-110q0 -29 6 -44q6 -13 43 -13
h43q40 0 60.5 20.5t36.5 63.5q1 4 7 4q18 0 22 -4q-5 -13 -10 -28.5t-10 -30.5q-12 -31 -16 -54h-232l-90 -1q-2 3 -2 12t2 12q4 0 17 2q22 3 26 10q5 12 5 62v243q0 48 -5 62q-7 10 -43 10q-2 4 -2 13t2 12q23 -2 48 -2h47l214 4q7 -45 19 -97z" />
    <glyph glyph-name="F" unicode="F" horiz-adv-x="355" 
d="M352 341q-4 -4 -11 -4q-12 0 -14 6q-11 27 -26 46.5t-46 19.5h-54q-12 0 -21.5 -1t-11.5 -7q-4 -8 -4 -40v-121q0 -7 29 -7h35q28 0 37 7t13 16t8 23q0 5 8.5 5t11.5 -3v-127q-2 -2 -10.5 -2t-10.5 5q-9 34 -23 40q-10 5 -54 5t-44 -9v-97q0 -22 0.5 -37t3.5 -21.5
t8.5 -9t11.5 -4.5q11 -2 24 -2q2 -4 2 -13t-2 -12q-94 9 -188 0q-2 3 -2 12t2 13q21 0 31 4.5t12 7.5q5 12 5 62v243q0 48 -5 62q-7 10 -43 10q-2 4 -2 13t2 12q23 -2 48 -2h47l214 4q7 -45 19 -97z" />
    <glyph glyph-name="G" unicode="G" horiz-adv-x="446" 
d="M389 428l22 -100q0 -3 -5.5 -6.5t-12 -3.5t-8.5 3q-11 34 -28 52q-37 39 -98 39q-69 0 -102 -57q-28 -49 -28 -126q0 -82 35 -141q39 -64 105 -64q29 0 51 10q2 2 4 3.5t2 6.5v93q0 20 -8.5 25.5t-15.5 7.5q-12 2 -23 2q-2 0 -2.5 11t2.5 14q50 -4 96 -4t86 4
q2 -7 1.5 -16t-2.5 -9q-4 0 -17 -2.5t-17 -5.5q-9 -5 -9 -29v-70l4 -19q0 -8 -23 -18q-32 -11 -67 -22t-81.5 -11t-88 16.5t-72 45.5t-48.5 69t-18 86.5t18 88t49 72.5t72.5 49t88.5 18q80 0 138 -12z" />
    <glyph glyph-name="H" unicode="H" horiz-adv-x="446" 
d="M369 2q-43 0 -93 -5q-2 3 -2 12t2 13q21 0 31 4.5t11 7.5q5 12 5 62v109l-1 2v1q-18 1 -37 1h-69.5t-37 -0.5t-10.5 -1t-3 -0.5q-1 -1 -1 -2v-109q0 -22 0.5 -37t3.5 -21.5t8.5 -9t11.5 -4.5q11 -2 24 -2q2 -4 2 -13t-2 -12q-94 9 -188 0q-2 3 -2 12t2 13q21 0 31 4.5
t12 7.5q5 12 5 62v243q0 48 -5 62q-7 11 -43 11q-2 4 -2 13t2 12q50 -5 95 -5q43 0 93 5q2 -3 2 -12t-2 -13q-19 0 -30 -4t-12 -7q-5 -11 -5.5 -26t-0.5 -36v-94q0 -1 1 -1q3 -3 62.5 -3t95.5 2v1l1 2l-1 93q0 48 -5 62q-4 11 -42 11q-2 4 -2 13t2 12q50 -5 95 -5t92 5
q2 -3 2.5 -12t-2.5 -13q-19 0 -30 -4t-12 -7q-5 -14 -5 -62v-243q0 -50 3 -57.5t8.5 -10t12.5 -4.5q12 -2 23 -2q3 -4 2.5 -13t-2.5 -12q-47 5 -94 5z" />
    <glyph glyph-name="I" unicode="I" horiz-adv-x="219" 
d="M24 437q50 -5 95 -5q43 0 93 5q2 -3 2 -12t-2 -13q-19 0 -30 -4t-12 -7q-5 -11 -5.5 -26t-0.5 -36v-243q0 -22 0.5 -37t3.5 -21.5t8.5 -9t11.5 -4.5q11 -2 24 -2q2 -4 2 -13t-2 -12q-94 9 -188 0q-2 3 -2 12t2 13q21 0 31 4.5t12 7.5q5 12 5 62v243q0 48 -5 62
q-7 11 -43 11q-2 4 -2 13t2 12z" />
    <glyph glyph-name="J" unicode="J" horiz-adv-x="239" 
d="M124 432q46 0 93 5q2 -3 2.5 -12t-2.5 -13q-19 0 -30 -4t-12 -7q-5 -14 -5 -62v-245q0 -113 -52.5 -175.5t-143.5 -62.5q-9 0 -20.5 4t-16.5 8q-11 14 -11 29.5t12 29.5t25.5 14t23 -7t17.5 -15.5t15 -15.5t19 -7t20.5 15t12.5 41q6 39 6 137v250q0 48 -5 62
q-4 11 -42 11q-2 4 -2 13t2 12q50 -5 94 -5z" />
    <glyph glyph-name="K" unicode="K" horiz-adv-x="494" 
d="M24 437q50 -5 95 -5q43 0 93 5q2 -3 2 -12t-2 -13q-19 0 -30 -4t-12 -7q-5 -11 -5.5 -26t-0.5 -36v-117q50 40 67 58l29 28q30 31 59 68q6 8 6 22.5t-37 14.5q-6 12 -1 24l86 -5q35 0 82 5q2 -4 1.5 -12t-3.5 -11q-21 0 -43 -10t-31 -19l-124 -128q-5 -6 -2 -11l119 -160
q31 -40 70 -55q24 -9 39 -9q2 -4 1.5 -13.5t-1.5 -11.5q-28 -2 -76 -2t-73.5 16t-37.5 33l-116 155q-3 3 -7 3t-7 -4v-102q0 -22 0.5 -37t3.5 -21.5t8.5 -9t11.5 -4.5q11 -2 24 -2q2 -4 2 -13t-2 -12q-94 9 -188 0q-2 3 -2 12t2 13q21 0 31 4.5t12 7.5q5 12 5 62v243
q0 48 -5 62q-7 11 -43 11q-2 4 -2 13t2 12z" />
    <glyph glyph-name="L" unicode="L" horiz-adv-x="362" 
d="M119 432q43 0 93 5q2 -3 2 -12t-2 -13q-19 0 -30 -4t-12 -7q-5 -11 -5.5 -26t-0.5 -36v-254q0 -29 6 -44q6 -13 43 -13h43q40 0 60.5 20.5t36.5 63.5q1 4 7 4q18 0 22 -4q-5 -13 -10 -28.5t-10 -30.5q-12 -31 -16 -54h-232l-90 -1q-2 3 -2 12t2 12q4 0 17 2q22 3 26 10
q5 12 5 62v243q0 48 -5 62q-7 11 -43 11q-2 4 -2 13t2 12q50 -5 95 -5z" />
    <glyph glyph-name="M" unicode="M" horiz-adv-x="583" 
d="M75 103l11 280q0 16 -10 21q-19 8 -36 8q-3 5 -2 14.5t2 10.5q23 -1 36 -2.5t36 -1.5l69 4l125 -280l2 -1q3 0 3 4l28 70q59 147 72 204h9l31 -1h13q15 0 95 4q2 -2 3.5 -11.5t-0.5 -13.5q-5 0 -17.5 -2t-17.5 -6q-10 -7 -9 -25.5t2 -52t2.5 -73.5t2.5 -80.5t3 -66.5
q3 -56 9 -72q2 -9 33 -12h8q6 -14 1 -25q-60 6 -92 6t-101 -6q-2 2 -2.5 11t1.5 14q21 0 32.5 4.5t13.5 7.5q5 12 5 23v41l-6 203q0 44 -6 44q-2 0 -3 -4l-116 -315q-7 -14 -15.5 -20.5t-12.5 -6.5t-6 1l-148 345q-2 -51 -2.5 -83t-1.5 -58q-3 -74 -4 -101q-2 -45 2 -60
q2 -12 47 -19q9 -2 11 -2q2 -4 2.5 -12t-1.5 -13l-40 4t-37.5 2t-86.5 -6q-6 12 -1 24q21 0 37 9t18 13t3.5 12t2.5 17l2 18t1 13z" />
    <glyph glyph-name="N" unicode="N" horiz-adv-x="494" 
d="M21 423.5q0 11.5 2 13.5q16 -1 34 -3t44.5 -2t68.5 5q18 -41 148 -195q33 -40 63 -78q2 3 2 11v139q0 57 -7 85q-7 14 -54 14q-1 0 -1.5 10t1.5 15q23 -2 40.5 -4t40.5 -2t83 6q1 -3 1 -12t-3 -14q-25 0 -38.5 -5t-15.5 -9t-3 -14t-2 -22q-2 -24 -2 -46v-224q0 -54 3 -93
q-2 -2 -8 -2h-9q-10 0 -20 15l-269 331v-239q0 -40 7 -64q5 -12 44 -17q8 -1 10 -1q3 -5 3 -13.5t-1 -11.5q-60 6 -83 6t-40.5 -2t-40.5 -4q-2 5 -1.5 15t1.5 10q21 0 36 6t18 12q7 16 7 66v233q0 57 -20 65q-18 8 -36 8q-3 0 -3 11.5z" />
    <glyph glyph-name="O" unicode="O" horiz-adv-x="497" 
d="M294.5 392q-25.5 20 -58.5 20t-53 -16t-32 -40q-22 -45 -22 -116q0 -87 29 -146q36 -72 103 -72q55 0 82 56q23 46 23 115q0 88 -30 147q-16 32 -41.5 52zM247 440q44 0 84.5 -17.5t72 -48t50 -71.5t18.5 -87t-18.5 -86.5t-50 -71t-72 -48t-84.5 -17.5q-88 0 -155 65
q-32 31 -50.5 71.5t-18.5 86.5t18.5 87t50.5 71q67 66 155 66z" />
    <glyph glyph-name="P" unicode="P" horiz-adv-x="388" 
d="M212 -3q-94 9 -188 0q-2 3 -2 12t2 13q21 0 31 4.5t12 7.5q5 12 5 62v243q0 48 -5 62q-7 10 -43 10q-2 4 -2 13t2 12q23 -2 48 -2h47l101 2q64 0 107 -31q45 -32 45 -87q0 -56 -42 -94q-38 -35 -90 -35q-18 0 -30 6t-15.5 9.5t-5 12.5t1.5 9q7 -3 29.5 -3t38 24
t15.5 52.5t-5 47t-15 31.5q-23 31 -53 31q-12 0 -21.5 -1t-11.5 -7q-4 -8 -4 -40v-265q0 -22 0.5 -37t3.5 -21.5t8.5 -9t11.5 -4.5q11 -2 24 -2q2 -4 2 -13t-2 -12z" />
    <glyph glyph-name="Q" unicode="Q" horiz-adv-x="481" 
d="M513 -43q7 0 7 -12v-4q-27 -14 -63.5 -24.5t-65 -10.5t-52.5 11.5t-47 27t-46.5 31.5t-50.5 24q-72 18 -121 78q-51 62 -51 138q0 46 18.5 87t50.5 71q67 66 155 66q44 0 84.5 -17.5t72 -48t50 -71.5t18.5 -82.5t-12.5 -75t-33.5 -61.5q-44 -57 -111 -79q23 -11 39.5 -21
t31.5 -18q33 -15 76 -15q20 0 33.5 3t17.5 3zM294.5 392q-25.5 20 -58.5 20t-53 -16t-32 -40q-22 -45 -22 -116q0 -87 29 -146q36 -72 103 -72q55 0 82 56q23 46 23 115q0 88 -30 147q-16 32 -41.5 52z" />
    <glyph glyph-name="R" unicode="R" horiz-adv-x="490" 
d="M119 434l101 2q101 0 134 -68q11 -23 11 -48t-9.5 -43t-23.5 -33q-27 -28 -57 -35l96 -123q30 -39 71 -55q22 -9 38 -9q3 -4 2 -13.5t-2 -11.5q-28 -2 -76 -2t-73 16t-38 33l-107 143q-2 2 -5.5 6t-6.5 4h-10v-101q0 -22 0.5 -37t3.5 -21.5t8.5 -9t11.5 -4.5q11 -2 24 -2
q2 -4 2 -13t-2 -12q-94 9 -188 0q-2 3 -2 12t2 13q21 0 31 4.5t12 7.5q5 12 5 62v243q0 48 -5 62q-7 10 -43 10q-2 4 -2 13t2 12q23 -2 48 -2h47zM257 374q-19 35 -56 35q-12 0 -21.5 -1t-11.5 -7q-4 -8 -4 -40v-138h31q29 0 50.5 24t21.5 66.5t-10 60.5z" />
    <glyph glyph-name="S" unicode="S" horiz-adv-x="315" 
d="M167 21q24 0 43 14.5t19 49.5q0 30 -37 63q-15 14 -32 25t-32 21.5t-32.5 22.5t-31.5 27q-29 33 -29 79q0 49 45 85q42 34 96 34q29 0 54.5 -6t55.5 -12q3 -26 4.5 -53t3.5 -57q-4 -4 -7 -4q-19 0 -20 5q-5 33 -27 63q-26 36 -61 36q-20 0 -38 -12t-18 -45q0 -43 95 -106
q16 -11 33.5 -22.5t31.5 -26.5q32 -36 32 -87q0 -53 -45 -88q-43 -34 -98 -34q-58 0 -126 18q-10 53 -12.5 79t-3.5 33q2 3 9.5 6t12.5 3t6 -5q5 -32 34 -67q34 -39 75 -39z" />
    <glyph glyph-name="T" unicode="T" horiz-adv-x="419" 
d="M302 -3q-94 9 -188 0q-2 3 -2 12t2 13q21 0 31 4.5t11 7.5q5 10 5.5 25t0.5 37v309h-62q-25 0 -45.5 -26t-24.5 -58q-2 -3 -7 -3q-14 0 -19 5l18 121q2 1 2.5 1.5t5 0.5t9.5 -2t12 -4q21 -6 47 -6h219q37 0 59 10q5 2 9.5 2t8.5 -2l18 -121q-5 -5 -15 -5t-11 3
q-6 34 -21 52q-25 32 -50 32h-61v-309q0 -50 5 -62q4 -12 43 -12q2 -4 2 -13t-2 -12z" />
    <glyph glyph-name="U" unicode="U" horiz-adv-x="482" 
d="M318 437q58 -5 81.5 -5t41 2t37.5 3q2 -3 2 -12t-2 -13q-26 0 -37.5 -5t-13.5 -10q-9 -25 -9 -80v-128q0 -95 -55 -148q-49 -47 -126 -47q-42 0 -79 14.5t-58.5 41t-30 62t-8.5 87.5v140q0 21 -0.5 36t-3.5 22t-8.5 9t-12.5 4q-12 2 -23 2q-2 4 -2 13t2 12q50 -5 94 -5
t94 5q2 -3 2 -12t-2 -13q-18 0 -30 -4t-13 -7q-5 -14 -5 -62v-121q0 -34 2.5 -60.5t13 -50.5t24 -36.5t27.5 -18.5q20 -10 45 -10t44 9t34 29q34 44 34 124v112q0 56 -9 81q-3 7 -18 10q-18 5 -32 5q-2 4 -2 13t2 12z" />
    <glyph glyph-name="V" unicode="V" horiz-adv-x="464" 
d="M184 412q-40 0 -40 -17q0 -13 16 -50l98 -222q27 65 45.5 113.5t24.5 64.5q15 37 18.5 46.5t8.5 24t5 25.5q0 7 -16 11q-22 4 -37 4q-2 4 -2 13t2 12q58 -5 79 -5t37 2t36 3q2 -3 2.5 -12t-2.5 -13q-38 0 -46 -11q-10 -14 -27 -55l-137 -326q-4 -9 -14.5 -18t-16 -9
t-6.5 2.5t-3 6.5l-144 335q-6 14 -12 29t-11.5 26.5t-22 15.5t-22.5 4q-3 4 -2.5 13t2.5 12q47 -5 94 -5q43 0 93 5q2 -3 2 -12t-2 -13z" />
    <glyph glyph-name="W" unicode="W" horiz-adv-x="619" 
d="M479 437q58 -5 79.5 -5t37.5 2t36 3q2 -3 2 -12t-2 -13q-38 0 -47 -11q-17 -27 -27 -55l-108 -320q-5 -12 -12.5 -22.5t-14.5 -10.5t-12 9l-109 274l-84 -247q-6 -18 -13 -27t-12 -9t-10 9l-119 335q-10 28 -23 54q-6 13 -22 17t-23 4q-3 4 -2.5 13t2.5 12q50 -5 94.5 -5
t92.5 5q2 -3 2.5 -12t-2.5 -13q-40 0 -40 -17q0 -8 5.5 -22t10.5 -28l65 -179l88 246q3 10 9 17.5t10.5 7.5t8.5 -11l113 -285l64 203q14 36 14 53q0 7 -16 10q-21 5 -36 5q-2 4 -2 13t2 12z" />
    <glyph glyph-name="X" unicode="X" horiz-adv-x="466" 
d="M11 412q-3 0 -3 12t3 13q96 -4 107 -4t91 4q1 -3 1 -14t-3 -11q-33 0 -35 -13q0 -7 6 -15l73 -111q12 16 27.5 34.5t29.5 35.5q31 40 31 48.5t-16 14.5t-33 6q-3 0 -3 8q0 15 2 17q43 -5 87.5 -5t79.5 5q2 -3 2 -14t-2.5 -11t-10 -0.5t-18.5 -3.5q-27 -9 -46 -30
l-112 -134q57 -87 79.5 -119.5t35.5 -51.5t18.5 -25.5t15.5 -12t20 -8.5q15 -5 29 -5q2 -5 2 -12.5t-2 -12.5q-40 4 -97 4t-113 -4q-3 3 -2 14t3.5 11t8.5 1t12 3q16 7 16 14q0 4 -2 8l-88 132q-27 -33 -61.5 -82.5t-34.5 -54.5t6 -9t14 -7q13 -5 35 -5q6 -12 2 -25
q-34 4 -83 4t-89 -4q-2 3 -2 12t2 13q28 0 46 9.5t26 20.5l117 161l-92 141q-9 14 -18.5 29t-15 18.5t-12 5.5t-13.5 3t-12.5 1.5t-8.5 0.5z" />
    <glyph glyph-name="Y" unicode="Y" horiz-adv-x="413" 
d="M196 2q-43 0 -93 -5q-2 3 -2 12t2 13q21 0 31 4.5t11 7.5q5 12 5 62v95q0 5 -47 91q-53 97 -59 109q-8 12 -23.5 16.5t-21.5 4.5q-3 4 -2.5 13t2.5 12q47 -5 94 -5q43 0 93 5q2 -3 2 -12t-2 -13q-40 0 -40 -17q0 -3 4 -11l80 -146q3 -3 83 143q3 9 3 14.5t-6.5 8.5
t-14.5 5q-12 3 -28 3q-2 4 -2 13t2 12q60 -5 78.5 -5t34.5 2t36 3q2 -3 2 -12t-2 -13q-37 0 -49 -16q-26 -40 -67 -107q-56 -95 -56 -102l-1 -91q0 -50 3 -57.5t8.5 -10t12.5 -4.5q12 -2 23 -2q3 -4 2.5 -13t-2.5 -12q-48 5 -94 5z" />
    <glyph glyph-name="Z" unicode="Z" horiz-adv-x="419" 
d="M230 433q55 0 153 7q2 -1 4.5 -9t2.5 -11t-11.5 -20.5t-29.5 -45t-41 -62.5l-47 -70q-56 -84 -128 -191h143q38 0 63 23q22 24 35 58q0 4 7 4q18 0 22 -4q-4 -13 -9.5 -28t-10.5 -30q-13 -40 -16 -53h-23l-96 -1h-218q-3 2 -7.5 8.5t-4.5 12t2 7.5l252 375h-121
q-62 0 -84 -59q-6 -16 -12 -31q0 -4 -7 -4q-17 0 -20 3l23 125q16 -4 60 -4h119z" />
    <glyph glyph-name="bracketleft" unicode="[" horiz-adv-x="220" 
d="M49 493q0 15 13 15q88 0 135 11q4 0 4 -6.5t-2.5 -11.5t-3.5 -5q-15 -8 -38 -11.5t-37 -6.5v-528q14 -3 37 -6.5t38 -11.5q6 -6 6 -17q0 -6 -4 -6q-43 10 -135 10q-13 2 -13 16v558z" />
    <glyph glyph-name="backslash" unicode="\" horiz-adv-x="293" 
d="M18 498q2 4 17 4t20 -10q56 -141 88 -221t50 -125.5t32 -81.5t23 -58t9 -23.5t-5.5 -4t-11.5 -2.5q-16 0 -21 12z" />
    <glyph glyph-name="bracketright" unicode="]" horiz-adv-x="227" 
d="M5 519q47 -11 135 -11q6 0 9 -5t3 -10v-558q0 -14 -12 -16q-93 0 -135 -10q-4 0 -4 6q0 11 6 17q15 8 38 11.5t37 6.5v528q-14 3 -37 6.5t-38 11.5q-1 0 -3.5 5t-2.5 11.5t4 6.5z" />
    <glyph glyph-name="asciicircum" unicode="^" horiz-adv-x="247" 
d="M110 432q7 10 14 10t16 -16t18.5 -33t18.5 -33q21 -39 43 -72q0 -5 -4 -8t-9 -3q-31 29 -50.5 51.5t-33.5 38.5q-14 -16 -27 -31q-23 -26 -58 -59q-4 0 -8.5 3t-4.5 8q33 54 43 71l20 34t22 39z" />
    <glyph glyph-name="underscore" unicode="_" horiz-adv-x="321" 
d="M10 -28q-8 0 -2 21q2 6 3.5 11t3.5 5h297q2 0 2 -6t-6 -27q-4 -8 -4 -4h-294z" />
    <glyph glyph-name="grave" unicode="`" horiz-adv-x="164" 
d="M44 409.5q-15 15.5 -15 22.5t6.5 14t18.5 7q24 0 30.5 -8.5t17 -23t20.5 -29.5q21 -32 21 -35.5t-3.5 -7.5t-7 -4t-19.5 10.5t-35 24.5t-34 29.5z" />
    <glyph glyph-name="a" unicode="a" horiz-adv-x="303" 
d="M148 41q13 0 20.5 5.5t7.5 8.5v92q-11 -5 -22.5 -9.5t-23.5 -12.5q-22 -15 -21.5 -40t13.5 -34.5t26 -9.5zM296 51q5 -3 5 -9t-3 -12q-6 -6 -21 -16q-27 -18 -45 -18t-32.5 10.5t-19.5 22.5q-14 -14 -39.5 -24t-39.5 -10t-30 7t-27 18q-25 25 -25 50t10.5 39.5t22 18
t27 9.5t33.5 13q23 8 64 24v31q0 25 -11 45.5t-29 20.5t-25.5 -16t-10.5 -33q-8 -35 -39 -35q-13 0 -23.5 8.5t-10.5 18.5q0 14 9 32q11 11 36 24q51 26 91.5 26t69 -28t28.5 -73v-123q0 -14 5 -20.5t11.5 -6.5t11.5 3z" />
    <glyph glyph-name="b" unicode="b" horiz-adv-x="334" 
d="M35 22q8 18 8 78v268q0 22 -3 28.5t-8 8.5t-12 3q-15 4 -21 4q-2 0 -2.5 9.5t2.5 11.5q56 5 90.5 15.5t36.5 10.5q7 -2 10 -12q-7 -28 -7 -66v-107q0 -2 0.5 -6.5t4 -2t11 7.5l16.5 11q20 12 43 12t48 -10.5t44 -29.5q39 -39 39 -100q0 -75 -56 -120q-49 -41 -121 -41
q-26 0 -48 7.5t-37 7.5t-22 -5q-2 0 -9 6.5t-7 10.5zM165 247q-20 0 -34 -14q-2 -2 -2 -6v-162q0 -17 11.5 -29t29.5 -12t30.5 9.5t21.5 24.5q18 32 18 71q0 68 -22 93t-53 25z" />
    <glyph glyph-name="c" unicode="c" horiz-adv-x="281" 
d="M271 82q8 -2 8 -8v-10q0 -6 -13.5 -20t-29.5 -24q-37 -26 -71.5 -26t-59.5 9.5t-44 27.5q-42 40 -42 101q0 62 52 112q53 52 120 52q47 0 67 -12q13 -13 13 -29.5t-10 -30t-26 -13.5t-25 10.5t-17 19.5q-18 20 -45 20q-20 0 -34 -30q-12 -26 -12 -61t9 -58t23 -37
q26 -26 59 -26t50 11t28 22z" />
    <glyph glyph-name="d" unicode="d" horiz-adv-x="330" 
d="M222 11v11q0 4 -3 2t-11 -7t-19 -10q-51 -23 -95 -1q-45 21 -64 72q-10 25 -10 60.5t18.5 66t45.5 50.5t56.5 29.5t51.5 9.5t27 -1q3 0 3 15v60q0 21 -4 32q-3 6 -18.5 9t-21.5 3q-2 0 -2 9.5t2 11.5q56 5 91 15.5t37.5 10t5.5 -4.5t3 -7q-7 -28 -7 -66v-310
q0 -8 0.5 -14t5.5 -11q6 -6 30 -6q2 -4 2 -10.5t-4 -11.5q-18 -1 -51 -9q-59 -14 -64 -14t-5 16zM180 37q14 0 28 9t14 15v170q0 9 -15 19.5t-33.5 10.5t-29.5 -8.5t-18 -22.5q-12 -27 -12 -75.5t17.5 -83t48.5 -34.5z" />
    <glyph glyph-name="e" unicode="e" horiz-adv-x="287" 
d="M106 186q2 0 13.5 0.5t25.5 1.5q32 1 46 3q9 1 9 11.5t-2 22.5t-7 21q-11 22 -28.5 22t-27.5 -9.5t-17 -22.5q-12 -26 -12 -50zM264 168q-60 -5 -158 -8q0 -61 34 -90q26 -21 56.5 -21t47.5 11t28 22q8 -2 8 -11t-3.5 -14.5t-13.5 -16t-25 -20.5q-38 -26 -73 -26t-60 9.5
t-44 27.5q-41 39 -41 101q0 64 44 112q47 51 102 51q59 0 90 -35q26 -28 26 -65q0 -11 -5 -19t-13 -8z" />
    <glyph glyph-name="f" unicode="f" horiz-adv-x="206" 
d="M107 2q-41 0 -91 -5q-2 3 -2 12t2 13q21 0 31 4.5t12 7.5q5 12 5 62v155h-47q-3 2 -3 9q8 12 21 22h29v10q0 63 50 118q21 24 44.5 37.5t41.5 13.5q19 0 43 -7q8 -5 17 -11.5t9 -21t-8.5 -29t-24.5 -14.5t-25.5 8.5t-20.5 17.5t-25 9q-8 0 -14 -15.5t-6 -38.5
q0 -29 3 -77h77q4 0 4 -9.5t-15 -21.5h-64v-155q0 -50 3 -57.5t8.5 -10t12.5 -4.5q12 -2 23 -2q3 -4 2.5 -13t-2.5 -12q-47 5 -90 5z" />
    <glyph glyph-name="g" unicode="g" horiz-adv-x="315" 
d="M292 242q-27 2 -34 3t-7 -1q14 -21 14 -44t-9 -41t-26 -31q-36 -30 -85 -30q-19 0 -34 3q-5 -5 -10.5 -10t-5.5 -11.5t10 -11t25.5 -4.5t41 0.5t45.5 -1t36.5 -10t27.5 -19.5q21 -21 21 -47t-15 -51t-40 -42q-54 -38 -122 -38q-49 0 -79.5 21t-30.5 55q0 20 18.5 37.5
t37.5 26.5q-17 5 -28.5 24.5t-11.5 40.5q0 16 55 48q-29 11 -45.5 33.5t-16.5 47.5t9.5 42.5t25.5 31.5q34 28 85 28q45 0 70 -16q2 -2 4 -2l83 8q7 -4 7 -7.5t-5.5 -16.5t-10.5 -16zM98 -9q-11 -14 -11 -29q0 -33 22 -51t51.5 -18t44.5 5.5t24 13.5q15 13 15 35t-21 33
t-53 11h-72zM141 268q-32 0 -36 -42q-1 -12 -1 -24.5t2.5 -27t7.5 -26.5q13 -26 37 -26q32 0 33 44q1 11 1 23t-2 26.5t-7 26.5q-12 26 -35 26z" />
    <glyph glyph-name="h" unicode="h" horiz-adv-x="381" 
d="M185 -3q-47 5 -86.5 5t-89.5 -5q-2 3 -2 12t2 13q21 0 31 4.5t11 7.5q5 10 5.5 25t0.5 37v272q0 22 -3 28.5t-8.5 8.5t-11.5 3q-14 4 -21 4q-2 0 -2.5 9.5t2.5 11.5q67 7 117 23q9 3 10 3q7 -2 10 -12q-2 -12 -4 -23q-3 -15 -3 -44v-138q2 0 7 5.5t16 14t24 16.5
q29 16 54 16t42.5 -9.5t27.5 -28.5q17 -34 17 -117v-43q0 -50 3 -57.5t8.5 -10t12.5 -4.5q12 -2 23 -2q2 -4 2 -13t-2 -12q-50 5 -86.5 5t-86.5 -5q-2 3 -2 12t2 13q30 0 34 11q6 13 6 63v52q0 93 -44 93q-19 0 -33 -9q-25 -18 -25 -28v-108q0 -50 3 -57.5t8 -10t11 -4.5
q10 -2 20 -2q3 -4 2.5 -13t-2.5 -12z" />
    <glyph glyph-name="i" unicode="i" horiz-adv-x="185" 
d="M159 283q-2 -5 -7 -37v-150q0 -50 3 -57.5t8 -10t11 -4.5q10 -2 21 -2q2 -4 2 -13t-2 -12q-50 5 -86 5q-41 0 -91 -5q-2 3 -2 12t2 13q21 0 31 4.5t12 7.5q5 12 5 62v86q0 8 -2 24t-4 20q-7 13 -42 13q-2 1 -1.5 10.5t2.5 9.5q38 3 74 14.5t55 20.5q3 -1 7 -5t4 -6z
M55 407q0 20 13.5 33.5t33.5 13.5t34 -13.5t14 -33.5t-14 -34t-34 -14t-33.5 14t-13.5 34z" />
    <glyph glyph-name="j" unicode="j" horiz-adv-x="168" 
d="M-1 -144q-10 5 -10 10t1 5.5t11.5 8t22.5 26.5q32 51 32 136v140q0 8 -2 24t-4 20q-5 10 -34 12q-6 1 -7.5 1.5t-1.5 10t2 9.5q38 3 74 14.5t55 20.5q4 -1 7.5 -5t3.5 -6q-2 -4 -4 -17t-2.5 -22t-0.5 -23v-142q0 -102 -32 -146q-22 -31 -59 -55q-33 -22 -52 -22z
M59.5 372q-14.5 14 -14.5 34.5t14.5 34.5t34.5 14t34.5 -14t14.5 -34.5t-14.5 -34.5t-34.5 -14t-34.5 14z" />
    <glyph glyph-name="k" unicode="k" horiz-adv-x="369" 
d="M270 287h23q9 0 75 3q3 -5 2 -13t-4 -10q-45 -6 -60.5 -17t-38.5 -32.5t-53 -48.5q43 -50 61.5 -69.5t32 -34.5t24.5 -23.5t20 -12.5q12 -5 34 -5q3 -6 2 -12.5t-2 -7.5q-21 -8 -59 -8q-64 0 -98 39q-34 34 -78 89q-2 2 -2.5 3t-5.5 6v-37q0 -50 3 -57.5t8.5 -10
t11.5 -4.5q11 -2 24 -2q2 -4 2 -13t-2 -12q-50 5 -90.5 5t-90.5 -5q-2 3 -2 12t2 13q21 0 31 4.5t11 7.5q5 10 5.5 25t0.5 37v272q0 22 -3 28.5t-8.5 8.5t-11.5 3q-14 4 -21 4q-2 0 -2.5 9.5t2.5 11.5q67 7 117 23q9 3 10 3q7 -2 10 -12q-2 -12 -4 -23q-3 -15 -3 -44
l-1 -224q16 6 50 34.5t45.5 41.5t11.5 18.5t-5 8t-12 4.5q-12 4 -25 4q-2 5 -1.5 13t3.5 10q16 -1 31 -2t30 -1z" />
    <glyph glyph-name="l" unicode="l" horiz-adv-x="171" 
d="M190 -3q-50 5 -90.5 5t-90.5 -5q-2 3 -2 12t2 13q21 0 31 4.5t11 7.5q5 10 5.5 25t0.5 37v272q0 22 -3 28.5t-8.5 8.5t-11.5 3q-14 4 -21 4q-2 0 -2.5 9.5t2.5 11.5q67 7 117 23q9 3 10 3q7 -2 10 -12q-2 -12 -4 -23q-3 -15 -3 -44v-284q0 -50 3 -57.5t8.5 -10t11.5 -4.5
q11 -2 24 -2q2 -4 2 -13t-2 -12z" />
    <glyph glyph-name="m" unicode="m" horiz-adv-x="561" 
d="M109 2q-41 0 -91 -5q-2 3 -2 12t2 13q21 0 31 4.5t12 7.5q5 12 5 62v86q0 8 -2 24t-4 20q-7 13 -42 13q-2 1 -1.5 10.5t2.5 9.5q38 3 74 14.5t55 20.5q3 -1 7 -5t3 -6q-4 -17 -5 -29t0 -12t2 1t3 2q14 16 34 28q35 21 62.5 21t46 -12t30.5 -44q2 0 7 5.5t17.5 14.5
t27.5 17q36 19 60.5 19t42 -9.5t26.5 -28.5q17 -34 17 -117v-43q0 -22 0.5 -37t3.5 -21.5t8.5 -9t12.5 -4.5q10 -2 23 -2q2 -4 2 -13t-2 -12q-50 5 -86.5 5t-86.5 -5q-2 3 -2 12t2 13q6 0 19 2.5t15 9.5q5 10 5.5 25t0.5 37v52q0 63 -24 85q-8 8 -19.5 8t-22.5 -4t-20 -9
q-21 -13 -21 -23v-4q3 -29 3 -62v-43q0 -50 3 -57.5t8.5 -10t12.5 -4.5q10 -2 22 -2q2 -4 2 -13t-2 -12q-50 5 -89 5q-34 0 -84 -5q-2 3 -2 12t2 13q7 0 20.5 2.5t16.5 11.5q4 11 4 60v52q0 93 -44 93q-19 0 -33 -9q-25 -18 -25 -28v-108q0 -50 3 -57.5t8 -10t11 -4.5
q10 -2 21 -2q2 -4 2 -13t-2 -12q-50 5 -86 5z" />
    <glyph glyph-name="n" unicode="n" horiz-adv-x="373" 
d="M109 2q-41 0 -91 -5q-2 3 -2 12t2 13q21 0 31 4.5t12 7.5q5 12 5 62v86q0 8 -2 24t-4 20q-7 13 -42 13q-2 1 -1.5 10.5t2.5 9.5q38 3 74 14.5t55 20.5q3 0 7 -4.5t3.5 -6.5t-1 -7.5t-2.5 -13.5q-5 -20 -2 -20q1 0 2 1t3 2q14 16 34 28q35 21 60.5 21t43 -9.5t27.5 -28.5
q17 -34 17 -117v-43q0 -50 3 -57.5t8.5 -10t12.5 -4.5q12 -2 23 -2q3 -4 2.5 -13t-2.5 -12q-47 5 -90 5q-33 0 -83 -5q-2 3 -2 12t2 13q7 0 20 2.5t16 11.5q4 11 4 60v52q0 93 -44 93q-19 0 -33 -9q-25 -18 -25 -28v-108q0 -50 3 -57.5t8 -10t11 -4.5q10 -2 21 -2
q2 -4 2 -13t-2 -12q-50 5 -86 5z" />
    <glyph glyph-name="o" unicode="o" horiz-adv-x="330" 
d="M166 268q-45 0 -50 -74q-2 -20 -2 -40t3.5 -43.5t12.5 -42.5q19 -45 51 -45q47 0 53 73q1 19 1 39t-4 44t-13 43q-19 46 -52 46zM174 295q34 0 62.5 -11t49.5 -31q43 -42 43 -105q0 -62 -45 -108q-43 -45 -109 -45q-69 0 -112 43t-43 105q0 61 44 107q44 45 110 45z" />
    <glyph glyph-name="p" unicode="p" horiz-adv-x="344" 
d="M97 -139q-43 0 -90 -5q-2 3 -2.5 12t2.5 13q19 0 30 4t12 7q5 14 5 62v228q0 8 -2 24t-4 20q-5 10 -34 12q-6 1 -7.5 1.5t-1.5 10t2 9.5q38 3 74 14.5t55 20.5q4 -1 7.5 -5t3 -6.5t-3 -8t-2.5 -11t1 -7t9 7.5t27 20.5t42 11.5t46.5 -12t40.5 -32q35 -40 35 -98
q0 -71 -54 -118q-47 -41 -108 -41q-14 0 -25 3t-13 3t-2 -11v-36q0 -48 5 -62q4 -11 42 -11q3 -4 2.5 -13t-2.5 -12q-48 5 -90 5zM140 63q0 -20 14 -29.5t26.5 -9.5t23.5 6t20 19q23 31 23 82t-15 83.5t-56 32.5q-18 0 -27 -8t-9 -10v-166z" />
    <glyph glyph-name="q" unicode="q" horiz-adv-x="330" 
d="M354 -144q-50 5 -90.5 5t-90.5 -5q-2 3 -2 12t2 13q19 0 30 4t12 7q5 14 5 62v57q0 3 -0.5 7t-3.5 1.5t-11 -6.5t-19 -8q-50 -19 -92 1q-45 21 -64 70q-10 24 -10 57t16 63.5t41 52.5q51 45 120 45q19 0 41 -7.5t37 -7.5t23 5q16 -11 16 -17q-8 -24 -8 -75v-238
q0 -21 0.5 -36t3.5 -22t8.5 -9t11.5 -3q11 -3 24 -3q2 -4 2 -13t-2 -12zM194 256q-9 4 -24.5 4t-26.5 -9t-17 -23q-12 -26 -12 -57t3.5 -53t10.5 -40q18 -41 53 -41q18 0 28.5 7t10.5 9v174q0 9 -8.5 17t-17.5 12z" />
    <glyph glyph-name="r" unicode="r" horiz-adv-x="294" 
d="M109 2q-41 0 -91 -5q-2 3 -2 12t2 13q21 0 31 4.5t12 7.5q5 12 5 62v86q0 8 -2 24t-4 20q-7 13 -42 13q-2 1 -1.5 10.5t2.5 9.5q38 3 74 14.5t55 20.5q3 -1 7 -5t3.5 -6t-1.5 -9t-2 -15.5t-2 -16.5t-1 -10.5t2 -3t2 0.5q18 30 30 42q26 24 53 24q30 0 41 -11
q8 -12 8 -26.5t-3 -24t-9 -17.5q-12 -17 -28 -17q-9 0 -15.5 6t-12 11t-11 9.5t-14.5 4.5t-17 -6.5t-14 -15.5q-12 -18 -12 -32v-80q0 -50 3 -57.5t8 -10t11 -4.5q10 -2 21 -2q2 -4 2 -13t-2 -12q-50 5 -86 5z" />
    <glyph glyph-name="s" unicode="s" horiz-adv-x="244" 
d="M29 94q0 5 10 5t14 -7q7 -39 30 -57q17 -14 38 -14t31 11t10 24t-6.5 21.5t-16 14.5t-21.5 12q-44 20 -74 48q-20 19 -20 48.5t12 46.5t30 28q34 21 81 21q23 0 40 -4.5t34 -8.5q6 -25 10 -51t4 -30.5t-9 -4.5t-15 6q-8 29 -18 42q-21 24 -52 24q-17 0 -27.5 -9
t-10.5 -24t6.5 -24t16 -15.5t21.5 -11.5t24 -10.5t25 -12.5t23 -17q23 -23 23 -53.5t-11 -47.5t-29 -28q-34 -21 -90 -21q-23 0 -44 5.5t-34 8.5q-2 14 -3 36.5t-1.5 34t-0.5 14.5z" />
    <glyph glyph-name="t" unicode="t" horiz-adv-x="213" 
d="M2 260q8 11 21 22h29v35q19 17 36.5 36t32.5 34q6 4 11 3.5t6 -3.5v-105h75q4 0 4 -9.5t-15 -21.5h-64v-163q0 -50 36 -50q11 0 22 6.5t13 8.5q4 -4 4 -7q0 -9 -3.5 -13t-10 -10t-15.5 -12q-26 -16 -43.5 -16t-33 4.5t-27.5 16.5q-28 25 -28 76v159h-47q-3 2 -3 9z" />
    <glyph glyph-name="u" unicode="u" horiz-adv-x="343" 
d="M187 259q65 5 128 35q4 -1 8 -5t4 -6q-2 -5 -5 -26.5t-3 -35.5v-150q0 -8 0.5 -14t5.5 -11q6 -6 30 -6q2 -4 2 -10.5t-4 -11.5q-20 -1 -65 -12t-48 -11q-6 0 -6 16v11q0 4 -2 3q-45 -28 -93 -28q-65 0 -81 73q-4 22 -4 45v67q0 8 -2 24t-4 20q-5 10 -34 12q-6 1 -7.5 1.5
t-1.5 10t2 9.5q38 3 74 14.5t55 20.5q4 -1 7.5 -5t3.5 -6q-2 -4 -4 -17t-2.5 -22t-0.5 -23v-76q0 -53 10 -80.5t41 -27.5q14 0 28.5 8t14.5 16v121q0 8 -2 24t-4 20q-6 13 -42 13q-2 1 -2 10.5t3 9.5z" />
    <glyph glyph-name="v" unicode="v" horiz-adv-x="344" 
d="M213 292q28 -4 68.5 -4t68.5 4q2 -2 2.5 -11t-2.5 -13q-23 0 -36.5 -7.5t-16.5 -14.5l-102 -216q-19 -37 -29 -37q-3 0 -8 5l-118 245q-7 15 -22.5 20t-19.5 5q-3 4 -2.5 12.5t2.5 11.5q7 -1 30.5 -2t36 -1.5t47 -0.5t58.5 4q3 -2 3 -11.5t-3 -12.5q-6 0 -18 -4
q-21 -6 -21 -14v-4q0 -3 2 -6l68 -130l52 116q7 18 7 24t-6.5 10t-15.5 6q-14 2 -25 2q-2 2 -2 11.5t2 12.5z" />
    <glyph glyph-name="w" unicode="w" horiz-adv-x="511" 
d="M-2 292q26 -4 87 -4t85 4q3 -2 3 -11.5t-3 -12.5q-6 0 -18 -4q-21 -6 -21 -14v-4q0 -3 2 -6l64 -126q11 27 20 48q23 54 23 59q0 13 -6 22q-8 14 -22.5 19.5t-18.5 5.5q-4 4 -3.5 12.5t2.5 11.5q40 -4 94 -4t78 4q3 -2 3 -11.5t-3 -12.5q-6 0 -18 -4q-21 -6 -21 -14v-4
q0 -3 2 -6l55 -121l45 107q7 18 7 24t-6.5 10t-15.5 6q-14 2 -25 2q-2 2 -2 11.5t2 12.5q30 -4 65 -4t67 4q2 -2 2 -11t-2 -13q-22 0 -32 -7t-13 -14l-97 -218q-9 -20 -18.5 -28t-13.5 -8t-9 5q-15 38 -28 70.5t-25 63t-20 50.5q-21 -54 -66 -153q-8 -20 -18 -28t-14 -8
t-9 5l-116 245q-8 15 -23 20t-19 5q-3 4 -2.5 12.5t2.5 11.5z" />
    <glyph glyph-name="x" unicode="x" horiz-adv-x="363" 
d="M9 292q40 -4 95 -4t79 4q3 -2 3 -11.5t-3 -12.5q-16 0 -23.5 -5.5t-7.5 -8.5q0 -4 6 -10l43 -54q7 8 16 17.5t17 18.5q17 19 17 24.5t-6.5 9.5t-14.5 6q-13 2 -25 2q-3 2 -3 11.5t2 12.5q30 -4 54.5 -4t37 0.5t24 1t20.5 1.5t13 1q2 -2 2 -11t-2 -13q-34 0 -55 -21
l-34 -38t-42 -47l94 -118q10 -14 25 -18t19 -4q4 -5 3.5 -13.5t-2.5 -11.5q-20 3 -46 3.5t-61.5 1t-68.5 -4.5q-2 3 -2 12.5t2 12.5q6 0 19 3t13 11q0 2 -2 4.5t-4 5.5l-47 57q-7 -8 -16.5 -17.5t-17.5 -18.5q-21 -22 -21 -27.5t6.5 -9.5t14.5 -6q13 -2 26 -2q2 -3 2 -12
t-2 -13q-35 5 -57.5 5t-35.5 -0.5t-25 -1.5t-21.5 -1.5t-13.5 -1.5q-2 3 -2 12t2 13q9 0 26.5 5.5t29.5 16.5q24 23 41.5 42.5t41.5 44.5l-87 116q-10 13 -25.5 17t-19.5 4q-4 4 -3.5 12.5t2.5 11.5z" />
    <glyph glyph-name="y" unicode="y" horiz-adv-x="343" 
d="M213 292q28 -4 68.5 -4t68.5 4q2 -2 2.5 -11t-2.5 -13q-23 0 -36.5 -7.5t-16.5 -14.5l-134 -283q-29 -56 -66 -86q-26 -21 -49 -21t-34.5 10.5t-11.5 27t15 28.5q39 0 64 9t45 43q10 15 23 46l-109 223q-7 15 -22.5 20t-19.5 5q-3 4 -2.5 12.5t2.5 11.5q7 -1 30.5 -2
t36 -1.5t47 -0.5t58.5 4q3 -2 3 -11.5t-3 -12.5q-6 0 -18 -4q-21 -6 -21 -14v-4q0 -3 2 -6l68 -130l52 116q7 18 7 24t-6.5 10t-15.5 6q-14 2 -25 2q-2 2 -2 11.5t2 12.5z" />
    <glyph glyph-name="z" unicode="z" horiz-adv-x="286" 
d="M23 188q6 26 12 98q11 -1 21 -2q22 -2 42 -2h91q45 0 85 6q2 -5 2 -10v-6l-161 -242h76q27 0 47 24q17 19 22 43q2 5 8 5q10 0 17 -7q-13 -45 -26 -95h-235q-6 3 -6 10.5t2 11.5l148 229h-26l-42 1q-31 0 -47 -42q-4 -11 -7 -20q0 -5 -11.5 -5t-11.5 3z" />
    <glyph glyph-name="braceleft" unicode="{" horiz-adv-x="210" 
d="M69 280q0 13 -3 23.5t-6 21.5q-9 33 -9 53.5t14.5 43.5t34.5 40.5t41 28t33 11.5q2 0 4.5 -6.5t-0.5 -11.5q-15 -7 -28 -23q-23 -30 -23 -53.5t3 -33.5t6 -19q9 -27 9 -52q0 -38 -32 -71q-13 -14 -27 -21.5t-23 -7.5q9 0 23 -7.5t27 -20.5q32 -32 32 -71q0 -27 -6 -44
t-9 -27t-3 -27t5.5 -30.5t13.5 -23.5q15 -20 32 -30q3 -4 0.5 -10.5t-4.5 -6.5q-12 1 -33 11.5t-41 27.5q-49 42 -49 89q0 17 6 38t9 32t3 24q0 26 -18.5 44t-39.5 25q-2 2 -2 6.5t2 8.5q21 6 39.5 24.5t18.5 44.5z" />
    <glyph glyph-name="bar" unicode="|" horiz-adv-x="127" 
d="M84 -71q0 -7 -31 -10q-4 0 -4 1v580q-2 2 4 5q12 3 26 3q2 0 3.5 -1.5t1.5 -2.5v-575z" />
    <glyph glyph-name="braceright" unicode="}" horiz-adv-x="194" 
d="M125 280q0 -26 19 -44.5t39 -24.5q2 -2 2 -6v-6q0 -2 -2 -3q-20 -7 -39 -25t-19 -44q0 -14 6 -35t9 -32.5t3 -32t-14.5 -43.5t-34.5 -40t-40.5 -27.5t-32.5 -11.5q-2 0 -4.5 6.5t-0.5 10.5q32 18 46 54q6 13 6 30t-3 27t-7 19q-9 23 -9 52q0 40 33 71q29 28 49 28
q-21 0 -49 29q-33 32 -33 71q0 28 6.5 44.5t9.5 26.5t3 27t-5.5 30.5t-13.5 24.5q-16 21 -33 28q-2 5 0.5 11.5t4.5 6.5q12 -1 32.5 -11.5t40.5 -28.5q49 -42 49 -88q0 -18 -9 -49.5t-9 -44.5z" />
    <glyph glyph-name="asciitilde" unicode="~" horiz-adv-x="352" 
d="M172 180q-17 7 -36.5 14.5t-41 7.5t-37 -11.5t-21.5 -19.5q-4 2 -4 8.5t7 18t19 21.5q26 23 52 23q36 0 85 -23q17 -7 36.5 -14.5t41 -7.5t37 11.5t21.5 19.5q4 0 4 -7.5t-7 -19t-18 -21.5q-28 -22 -53.5 -22t-46.5 7.5t-38 14.5z" />
    <glyph glyph-name="nbsp" unicode="&#xa0;" horiz-adv-x="150" 
 />
    <glyph glyph-name="cent" unicode="&#xa2;" horiz-adv-x="281" 
d="M41 74.5q-11 25.5 -11 56.5t14 60.5t38 52.5q53 52 120 52q43 0 67 -12q13 -13 13 -29.5t-10.5 -30t-26 -13.5t-24.5 10.5t-17 19.5q-18 20 -45 20q-20 0 -34 -30q-12 -26 -12 -61t9 -58t23 -37q26 -26 59 -26t50 11t28 22q3 -1 5.5 -4.5t2.5 -9.5t-3.5 -11.5t-13.5 -16
t-25 -20.5q-38 -26 -73 -26t-60 9.5t-44 27.5t-30 43.5zM187 317q23 0 23 -5l-55 -337q-19 0 -23 6z" />
    <glyph glyph-name="copyright" unicode="&#xa9;" horiz-adv-x="423" 
d="M279 169q9 0 12 -3q0 -11 -5 -26t-6 -15q-13 -5 -28.5 -11t-34.5 -6q-42 0 -69 24.5t-27 68.5t30 72q29 27 69 27q14 0 29.5 -4t27.5 -6l9 -41q0 -4 -6.5 -4t-7 2.5t-3.5 8.5t-9 12q-13 15 -33 15t-30 -7t-16 -18q-12 -22 -12 -53.5t13.5 -56t42.5 -24.5q23 0 33 9.5
t15 21.5t6 14zM65 204q0 -31 12 -58.5t32 -47.5q44 -44 106 -44q61 0 107 44q44 43 44 107q0 63 -44 106q-46 44 -107 44q-62 0 -106 -44t-44 -107zM35 205q0 75 52.5 127.5t127.5 52.5q74 0 128 -53q53 -51 53 -127t-53 -127q-54 -53 -128 -53q-75 0 -127.5 52.5
t-52.5 127.5z" />
    <glyph glyph-name="registered" unicode="&#xae;" horiz-adv-x="438" 
d="M174 330l40 1q25 0 43 -13t18 -36q0 -21 -29 -38q-7 -4 -11 -5q7 -10 15 -19q12 -14 26 -30.5t25 -20t12 -3.5q2 -2 1 -6.5t-1 -5.5l-29 -1q-16 0 -25.5 6.5t-18.5 17.5l-39 53q-4 4 -5 4h-4v-54q0 -5 2 -8q2 -7 17 -7q2 -2 2 -5.5t-2 -5.5q-8 2 -19 2h-34.5t-23.5 -2
q-1 2 -1 5.5t1 5.5q2 0 9 1.5t8.5 5t1.5 8.5v111q0 19 -1 23q-2 5 -18 5q-1 2 -1 6t1 6q9 -1 20 -1h20zM234 280q0 16 -7 27t-16 11q-15 0 -18 -3q-1 -3 -1 -16v-52h11q13 0 22 8.5t9 24.5zM65 238q0 -62 44 -106t106 -44q61 0 107 44q44 43 44 106q0 62 -44.5 106.5
t-106.5 44.5q-63 0 -106 -45q-44 -45 -44 -106zM35 238q0 38 14 71t39 57q52 53 127 53q74 0 128 -53q53 -51 53 -127t-53 -127q-54 -53 -128 -53q-75 0 -127.5 52.5t-52.5 126.5z" />
    <glyph glyph-name="acute" unicode="&#xb4;" horiz-adv-x="165" 
d="M126 446q7 -7 7 -14t-15.5 -22.5t-34 -29.5t-35 -24.5t-19.5 -10.5t-7 4t-4 6t6 12.5t16 24.5q16 26 40 55q4 6 21.5 6t24.5 -7z" />
    <glyph glyph-name="onequarter" unicode="&#xbc;" horiz-adv-x="495" 
d="M440 1q-15 -3 -20 -3h-20q-17 0 -17 5v58h-101q-8 4 -8 11l144 177q4 6 7.5 6t9 -4t5.5 -9v-151h19q6 0 6 -10l-3 -20h-22v-60zM383 173l-68 -82h68v82zM171 -7q-5 -10 -24 -15q-12 -2 -12 5l228 455q7 10 20.5 13t15.5 -4zM138 410q-8 -20 -8 -56v-126q0 -29 6 -35
q9 -10 32 -10q1 0 0.5 -8t-0.5 -9l-66 3q-32 0 -68 -3q-2 2 -2 9.5t2 7.5q5 0 16.5 2.5t14.5 6.5t5.5 18t2.5 19v108q0 31 -13 31q-5 0 -14.5 -4t-15.5 -6q-2 0 -4.5 4.5t-2.5 8.5t1 5q22 9 53 23q49 24 50.5 24t5.5 -5.5t5 -7.5z" />
    <glyph glyph-name="onehalf" unicode="&#xbd;" horiz-adv-x="507" 
d="M298 -1q-1 1 -5 9q28 31 38 43t19.5 23.5t23.5 30.5q29 37 29 73q0 20 -13 31t-27 11t-22 -4.5t-14 -10.5t-9.5 -11.5t-4.5 -6.5q-1 0 -5.5 2t-4.5 8q16 33 55 51q14 7 31 7q35 0 55.5 -17t20.5 -48t-17 -53.5t-34 -38.5q-35 -32 -65 -52h74q15 0 21.5 12.5t9.5 19t5 7
t6 0.5t8 -2q-2 -7 -6 -20t-8 -26.5t-7 -24.5l-5 -13h-149zM156 -7q-5 -10 -24 -15q-7 -1 -9 2q-2 1 -2 3l227 455q7 10 20.5 13t15.5 -4zM138 410q-8 -20 -8 -56v-126q0 -29 6 -35q9 -10 32 -10q1 0 0.5 -8t-0.5 -9l-66 3q-32 0 -68 -3q-2 2 -2 9.5t2 7.5q5 0 16.5 2.5
t14.5 6.5t5.5 18t2.5 19v108q0 31 -13 31q-5 0 -14.5 -4t-15.5 -6q-2 0 -4.5 4.5t-2.5 8.5t1 5q22 9 53 23q49 24 50.5 24t5.5 -5.5t5 -7.5z" />
    <glyph glyph-name="threequarters" unicode="&#xbe;" horiz-adv-x="504" 
d="M116.5 382.5q-10.5 10.5 -30 10.5t-40.5 -21q-2 0 -6.5 3t-3.5 8q11 15 34 28t39.5 13t27.5 -3t21 -9q22 -16 22 -44q0 -26 -18 -41q-12 -9 -30 -12q17 0 33 -11q34 -24 34 -55q0 -41 -39 -65q-33 -22 -77 -22q-38 0 -55 14q-6 9 -6 17t5.5 15.5t14.5 7.5q16 0 28 -20
q10 -16 30 -16q40 0 40 54q0 23 -14 40.5t-34 17.5h-9q-7 0 -12 -2q-4 8 -4 10q0 6 2 8q35 5 51 26q7 9 7 23.5t-10.5 25zM447 1q-15 -3 -19 -3h-22q-17 0 -17 5v58h-101q-8 4 -8 11l145 177q4 6 7.5 6t9 -4t5.5 -9v-151h19q6 0 6 -10l-3 -20h-22v-60zM389 173l-67 -82h67
v82zM178 -7q-5 -10 -25 -15q-7 -1 -9 2q-2 1 -2 3l228 455q7 10 23 13q5 2 8.5 0t3.5 -4z" />
    <glyph glyph-name="Adieresis" unicode="&#xc4;" horiz-adv-x="439" 
d="M256 526q0 19 13 31.5t32 12.5t32 -12.5t13 -31.5t-13 -32t-32 -13t-32 13t-13 32zM108 526q0 19 12.5 31.5t31.5 12.5t32 -12.5t13 -31.5t-13 -32t-32 -13t-31.5 13t-12.5 32zM135 -3q-51 6 -71.5 6t-71.5 -6q-2 2 -2.5 10.5t1.5 13.5q14 0 28.5 8.5t17.5 12.5
q13 23 23 46l141 324q3 6 11 15.5t16 9.5t11 -5l135 -334q7 -16 10.5 -26.5t8 -21t12.5 -16t16 -8.5q11 -4 24 -4q2 -5 2.5 -14t-1.5 -11q-60 6 -97 6t-91 -6q-2 3 -2 14t2 11q25 0 39 12q6 4 6 8q0 10 -20 55l-20 48q-3 3 -4 3h-132q-2 0 -5 -3q-5 -10 -11 -25.5t-12 -29.5
q-15 -33 -15 -42.5t7 -14t16 -7.5q16 -4 28 -4q3 -4 2.5 -13.5t-2.5 -11.5zM137 183q0 -3 35 -3h47q11 0 27 1l1 2v2l-54 129l-56 -129v-2z" />
    <glyph glyph-name="Aring" unicode="&#xc5;" horiz-adv-x="434" 
d="M193 501q0 -15 10 -25.5t24.5 -10.5t25 10.5t10.5 25.5t-10.5 25.5t-25 10.5t-24.5 -10.5t-10 -25.5zM162 501q0 27 19.5 46t46 19t45.5 -19t19 -46t-19 -46t-45.5 -19t-46 19t-19.5 46zM135 -3q-51 6 -70.5 6t-73.5 -6q-2 2 -2.5 10.5t1.5 13.5q12 0 28 8.5t18 12.5
q10 15 23 46l141 324q3 6 11 15.5t16 9.5t11 -5l136 -334q6 -16 9.5 -26.5t8 -21t12.5 -16t16 -8.5q11 -4 24 -4q2 -5 2.5 -14t-1.5 -11q-60 6 -97 6t-91 -6q-2 3 -2 14t2 11q25 0 39 12q6 4 6 8q0 10 -14.5 43t-24.5 60l-5 3q-19 1 -35 0.5t-28 -0.5h-69q-2 0 -5 -3
q-5 -10 -9 -20t-8 -19.5t-8 -19.5q-13 -36 -13 -42t7.5 -10.5t16.5 -7.5q16 -4 27 -4q3 -4 3 -13.5t-2 -11.5zM136 183q0 -3 36 -3h46q11 0 27 1l1 2q0 1 1 2l-55 129l-56 -129v-2z" />
    <glyph glyph-name="Ccedilla" unicode="&#xc7;" horiz-adv-x="427" 
d="M226 -40q13 22 20 39h22q-1 -3 -3 -5.5t-6 -10.5l16 1q14 0 24.5 -10t10.5 -29.5t-18 -37t-50 -17.5q-23 0 -35 12q-2 4 -2 11.5t2 7.5q2 -2 12 -6.5t24.5 -4.5t21.5 6.5t7 14.5q0 23 -19 23q-8 0 -18 -4q-2 0 -5.5 3.5t-3.5 6.5zM399 135q12 0 23 -8q0 -7 -7 -39
q-14 -60 -20 -62q-31 -11 -64.5 -21t-80 -10t-87.5 16.5t-72 45.5q-67 63 -67 156q0 94 67 161q66 66 161 66q79 0 137 -12q1 -3 4.5 -18t7.5 -32q11 -47 11 -50t-5.5 -6.5t-12 -3.5t-9.5 3q-7 30 -26 50q-39 41 -101 41q-65 0 -100 -55q-29 -48 -29 -125q0 -84 34 -142
q38 -66 108 -66q68 0 101 52q15 24 21 40.5t6 18.5z" />
    <glyph glyph-name="Eacute" unicode="&#xc9;" horiz-adv-x="397" 
d="M153 485.5q-3 5.5 -3 7.5t8 11t20 21q42 42 56 48q3 1 7.5 1t11 -1.5t12.5 -4.5q14 -7 14 -18t-17.5 -23t-39 -22.5t-40.5 -17.5t-22.5 -7t-6.5 5.5zM352 341q-4 -4 -11 -4q-12 0 -14 6q-11 27 -26 46.5t-46 19.5h-54q-12 0 -21.5 -1t-11.5 -7q-4 -8 -4 -40v-118
q0 -7 29 -7h35q28 0 37 7t13 16t8 23q0 5 8.5 5t11.5 -3v-127q-3 -3 -11.5 -3t-9.5 6q-9 34 -22.5 39.5t-56 5.5t-42.5 -10v-110q0 -29 6 -44q6 -13 43 -13h43q40 0 60.5 20.5t36.5 63.5q1 4 7 4q18 0 22 -4q-5 -13 -10 -28.5t-10 -30.5q-12 -31 -16 -54h-232l-90 -1
q-2 3 -2 12t2 12q4 0 17 2q22 3 26 10q5 12 5 62v243q0 48 -5 62q-7 10 -43 10q-2 4 -2 13t2 12q23 -2 48 -2h47l214 4q7 -45 19 -97z" />
    <glyph glyph-name="Ntilde" unicode="&#xd1;" horiz-adv-x="490" 
d="M315.5 523q15.5 0 25.5 5t17 11t11 11.5t6.5 6t4 -3t1.5 -8.5q0 -13 -13 -29q-26 -32 -61 -32q-19 0 -32.5 5.5t-27.5 13.5t-27 15t-27 7q-21 0 -40 -16q-7 -6 -11 -12t-7 -7q-2 0 -3.5 4t-1.5 9q0 13 13 29q26 32 57 32t65.5 -20.5t50 -20.5zM21 423.5q0 11.5 2 13.5
q16 -1 34 -3t44.5 -2t68.5 5q18 -41 148 -195q33 -40 63 -78q2 3 2 11v139q0 57 -7 85q-7 14 -54 14q-1 0 -1.5 10t1.5 15q23 -2 40.5 -4t40.5 -2t83 6q1 -3 1 -12t-3 -14q-25 0 -38.5 -5t-15.5 -9t-3 -14t-2 -22q-2 -24 -2 -46v-224q0 -54 3 -93q-2 -2 -8 -2h-9
q-10 0 -20 15l-269 331v-239q0 -40 7 -64q5 -12 44 -17q8 -1 10 -1q3 -5 3 -13.5t-1 -11.5q-60 6 -83 6t-40.5 -2t-40.5 -4q-2 5 -1.5 15t1.5 10q21 0 36 6t18 12q7 16 7 66v233q0 57 -20 65q-18 8 -36 8q-3 0 -3 11.5z" />
    <glyph glyph-name="multiply" unicode="&#xd7;" horiz-adv-x="336" 
d="M256 40q-4 -4 -8 0l-92 92l-94 -94q-6 -3 -16 11t-12 21l92 92l-92 91q1 8 8 17q15 20 21 14l93 -93l93 94q5 5 12 -3q13 -13 16 -29l-92 -91l92 -91q-2 -10 -21 -31z" />
    <glyph glyph-name="divide" unicode="&#xf7;" horiz-adv-x="317" 
d="M230 285q0 -17 -12.5 -30t-31 -13t-31 12.5t-12.5 31t12.5 31t31 12.5t31 -13.5t12.5 -30.5zM230 41q0 -17 -12.5 -30t-31 -13t-31 13t-12.5 31t12.5 30.5t31 12.5t31 -13.5t12.5 -30.5zM32 147q-3 0 -3 5.5t1 12.5q4 17 12 20h297q7 0 4 -12q-6 -24 -13 -26h-298z" />
    <glyph glyph-name="uni0214" unicode="&#x214;" horiz-adv-x="20" 
 />
    <glyph glyph-name="uni021C" unicode="&#x21c;" horiz-adv-x="16" 
 />
    <glyph glyph-name="uni0950" unicode="&#x950;" horiz-adv-x="799" 
d="M413 741l51 -52l-51 -48l-49 53zM296 663q43 -59 105.5 -59t104.5 59l65 -55q-63 -69 -130 -69q-98 0 -168 107zM528 403q26 -14 26 -64v-86q0 -88 54 -88q45 0 76 42.5t31 106.5t-28 103t-71 39q-58 0 -88 -53zM61 350q25 -134 88.5 -213t148.5 -79q46 0 77.5 32.5
t31.5 81.5q0 83 -70 157q-39 -53 -86 -74l-34 79q113 33 113 108q0 55 -69 55q-50 0 -106 -29l-33 79q52 22 96 22q67 0 107 -41t40 -111q0 -24 -11 -53l14 -14q62 62 122 62h6q4 0 10 -3q20 119 118 119q125 0 125 -207q0 -105 -38.5 -165.5t-106.5 -60.5q-45 0 -65 30
t-20 101v35q0 65 -35 65q-32 0 -75 -31q62 -83 62 -154.5t-40.5 -108t-110.5 -36.5q-106 0 -191 98q-43 49 -65 110t-29 139z" />
    <glyph glyph-name="uni0964" unicode="&#x964;" horiz-adv-x="112" 
d="M62 0h-65v298h65v-298z" />
    <glyph glyph-name="uni0965" unicode="&#x965;" horiz-adv-x="248" 
d="M198 0h-67v298h67v-298zM62 0h-65v298h65v-298z" />
    <glyph glyph-name="U0C01" unicode="&#xc01;" horiz-adv-x="272" 
d="M176 49q6 0 14 -5t10.5 -15t-3.5 -19t-25 -10q-70 0 -113.5 41.5t-43.5 116t43 122.5q44 47 110 45q20 -2 29.5 -9t7.5 -15t-17 -8q-62 0 -98 -43q-25 -31 -25 -81t33.5 -83.5t77.5 -36.5z" />
    <glyph glyph-name="U0C02" unicode="&#xc02;" horiz-adv-x="396" 
d="M346 160q0 -37 -14.5 -66.5t-39.5 -50.5q-50 -43 -127 -43t-122.5 40.5t-45.5 118.5q0 66 51 117q48 48 120 48q66 0 122 -46q56 -48 56 -118zM280 146q11 18 11 44t-10.5 45.5t-28.5 32.5q-36 27 -83 27q-49 0 -83 -28q-42 -33 -42 -76q0 -47 36 -73q33 -22 82 -22
q87 0 118 50z" />
    <glyph glyph-name="U0C03" unicode="&#xc03;" horiz-adv-x="193" 
d="M120 308q23 -17 23 -50t-23 -50t-49.5 -18.5t-49 15.5t-22.5 51t22.5 51t49 17.5t49.5 -16.5zM123 117.5q20 -18.5 20 -49t-19.5 -49t-51.5 -18.5t-52 18.5t-20 48t17.5 49t51.5 19.5t54 -18.5zM97 226q13 8 13 25.5t-13 26.5t-29 9t-29 -9t-13 -25t13 -25.5t29 -9.5
t29 8zM113 73q0 17 -13 25.5t-29 8.5t-29 -9.5t-13 -26t13 -25t29 -8.5t29 9t13 26z" />
    <glyph glyph-name="U0C05" unicode="&#xc05;" horiz-adv-x="545" 
d="M495 199q0 -105 -76 -156q-67 -43 -171 -43t-170 43q-78 51 -78 140q0 65 39 111.5t105 46.5q31 0 60.5 -16.5t29.5 -49.5t-18 -51.5t-40 -23.5q-44 -9 -73 14q-19 14 -23 42q-3 26 7 38q-47 -28 -45 -81q1 -32 21.5 -62t58 -43t137.5 -13q121 0 180 61q22 22 22 56
t-18 52.5t-40 22.5t-39.5 -7.5t-17.5 -40.5q0 -27 30 -55q6 -5 7 -5v-24h-234q-23 0 -23 15t23 15h180q-30 16 -44.5 33t-14.5 41q0 40 27.5 60t62.5 20t59 -11t41 -30q35 -41 35 -99zM162.5 242.5q10.5 9.5 10.5 29.5t-10.5 30t-23 8.5t-22.5 -12.5t-10 -30.5t10 -28
t22.5 -7.5t23 10.5z" />
    <glyph glyph-name="U0C06" unicode="&#xc06;" horiz-adv-x="544" 
d="M493 146q-3 -41 -26.5 -69t-58.5 -45q-67 -32 -145 -32q-175 0 -239 98q-24 37 -24 92q0 61 44 104q41 42 102 48q34 2 60 -14q32 -19 32 -56q1 -30 -20.5 -49.5t-51.5 -24t-54 11.5q-40 27 -25 85q-18 -13 -32.5 -34.5t-14.5 -52.5t23.5 -54.5t56.5 -36.5
q55 -22 128 -22q107 0 161 37q23 15 25 42q-14 -13 -33.5 -15t-43.5 -4h-211q-8 0 -12 4.5t-4 10t4.5 10.5t13.5 5l200 -3q8 0 19 0.5t24 -0.5q-43 4 -67 26t-24 56q2 41 28 60t59 19q57 0 81 -52q10 -23 7.5 -48.5t-17.5 -41.5q18 -5 27 -22t8 -33zM166.5 241
q11.5 11 11 32.5t-10.5 29.5t-22 8.5t-24 -11t-10.5 -31t12.5 -29t21.5 -10t22 10.5zM439 264q-1 14 -11.5 29.5t-27.5 15.5q-7 0 -21.5 -9t-15 -35t9.5 -39t24 -13.5t29 11t13 40.5z" />
    <glyph glyph-name="U0C07" unicode="&#xc07;" horiz-adv-x="448" 
d="M15 205q-15 0 -15 33q0 38 31 67q30 28 65 30.5t62 -14t38 -42.5q15 34 44 46.5t55 9.5q51 -4 75.5 -39.5t24.5 -87t-44 -120.5q47 -58 47 -82q0 -11 -8.5 -18.5t-19.5 -8t-21 6t-12 22.5q0 1 -12 56q-82 -64 -173 -64q-55 0 -86.5 25.5t-36 55t8.5 49t35 31.5
q39 21 103 21t133 -51q26 18 35.5 41t4.5 43t-21.5 34t-44.5 14q-38 0 -64 -23q-11 -9 -13.5 -24.5t-13.5 -15t-11 17.5t-14 28t-33 15q-40 8 -74 -5q-36 -14 -31 -35q1 -5 -3.5 -10.5t-10.5 -5.5zM282 113q-49 43 -117 43q-43 0 -72 -16q-11 -6 -11 -14q-1 -14 20 -22.5
t62 -8.5q71 0 118 18z" />
    <glyph glyph-name="U0C08" unicode="&#xc08;" horiz-adv-x="641" 
d="M68 222q37 69 110 95q-22 11 -35.5 19t-22.5 19q-20 18 -5.5 39.5t38.5 21.5q20 0 45 -31q11 -13 21 -26t18 -22q41 37 72.5 64.5t55.5 52t40 32t42 -4.5q16 -8 20 -23t-21 -32q-39 -28 -75 -49q-48 -29 -90 -55q35 -10 70 -38.5t49 -62.5h130q20 22 16.5 35t-16.5 17
t-28.5 -1.5t-19.5 -20.5q-9 -14 -20.5 -9.5t-9.5 18.5q4 27 23.5 42t43 15t40.5 -9t23 -26q9 -19 1 -42t-25 -37q22 -15 26.5 -37t-2 -40t-23.5 -31t-39 -13t-36.5 10.5t-19.5 25.5q-14 36 14 67h-70q13 -84 -47 -139q-26 -23 -60.5 -34.5t-71.5 -11.5t-71.5 15.5
t-58.5 41.5t-35 60t-4 69h-35q-28 0 -28 18t29 18h42zM354 221q-15 38 -47.5 58t-73.5 20q-63 0 -103 -45q-13 -14 -18 -33h242zM537 120q9 7 9 21t-5 29t-23 15t-24.5 -16.5t-6.5 -29t9.5 -19.5t20.5 -7t20 7zM108 185q2 -44 44 -69q32 -20 81 -20q39 0 77 22q43 25 47 67
h-249z" />
    <glyph glyph-name="U0C09" unicode="&#xc09;" horiz-adv-x="530" 
d="M455 263q13 0 19 -5.5t6 -12t-6.5 -11.5t-18.5 -5h-358q-24 -44 -15 -85q5 -19 20.5 -33.5t44.5 -15.5q31 -3 52 18.5t31 59.5h22q4 -39 30 -61t65 -22q57 0 79 44q-14 -20 -40 -26.5t-48.5 1t-30 30t1.5 43.5q8 21 30 32.5t51 3.5q67 -20 65 -88q-1 -59 -33.5 -94.5
t-91.5 -35.5q-26 0 -53 11t-39 38q-14 -30 -43 -39.5t-49 -9.5q-55 0 -86 37.5t-30.5 95.5t26.5 96h-33q-11 0 -16.5 5.5t-4.5 11.5t6.5 11.5t17.5 5.5h56q73 65 142 67q0 5 -5 26q-10 44 -10.5 56t11 19.5t25.5 7t24 -8.5t7 -26t-7.5 -35.5t-8.5 -39.5q39 -3 90 -29
q15 -8 10 -19.5t-23 -3.5q-59 23 -97 23q-58 0 -114 -37h329zM352.5 180q-10.5 -7 -10 -20.5t11.5 -20t23.5 -6t23.5 7t11 19.5t-11 20t-24.5 7t-24 -7z" />
    <glyph glyph-name="U0C0A" unicode="&#xc0a;" horiz-adv-x="693" 
d="M265 337l-10 78q0 18 12 25.5t26.5 6.5t26 -9.5t8 -25t-11 -30.5t-24.5 -49q35 -9 58.5 -18.5t23.5 -25.5q0 -10 -7 -13t-21.5 6.5t-45.5 18t-49 8.5t-34 -3t-32 -9q-41 -15 -52 -28h451q10 9 16 13.5t2.5 17t-12.5 18.5t-20 5q-24 -2 -32 -19q-6 -14 -18.5 -15.5
t-12.5 16.5q0 32 20 48t50.5 15t49.5 -24q36 -46 -15 -93q31 -24 31 -53t-20.5 -48.5t-46.5 -19.5t-42.5 11.5t-22 28.5t-0.5 35.5t23 29.5h-434q-18 -24 -18 -66q0 -27 23.5 -51t51.5 -24t43.5 13t24 27.5t13 27.5t10.5 13q8 0 11.5 -12t12.5 -27.5t27 -28.5t50 -15
q63 -2 89 42q-30 -29 -58.5 -29t-48 15t-20 43.5t21.5 44.5t50 16q38 -2 61.5 -30t23.5 -64q0 -59 -32.5 -94.5t-88.5 -35.5q-77 0 -101 51q-43 -51 -99 -51q-54 0 -87 40q-30 36 -30 91.5t28 103.5h-28q-29 0 -29 16q0 19 30 19h57q51 54 111 63q-20 40 -31 80
q-6 15 5.5 24t25.5 9.5t26.5 -8t11.5 -27.5q-3 -18 -5.5 -36.5t-5.5 -36.5q13 4 39 -1zM550 168.5q5 -8.5 21.5 -8.5t23.5 10.5t5.5 22t-10.5 22t-25 10.5q-7 -5 -13 -15.5t-6.5 -21.5t4.5 -19.5zM418.5 147.5q11.5 7.5 11.5 14.5t-12 16t-26.5 12.5t-26 -2t-11.5 -25
t11.5 -24t26.5 -2t26.5 10z" />
    <glyph glyph-name="U0C0B" unicode="&#xc0b;" horiz-adv-x="940" 
d="M307 0q-77 0 -99 55q-14 -24 -43 -39.5t-55 -15.5q-44 0 -77 26t-33 71q0 51 40 75q18 10 40.5 16.5t44.5 12.5q27 10 37 23t5 25t-21 20.5t-39.5 8.5t-48 -13.5t-24.5 -40.5q0 -7 -5.5 -12t-12.5 -4q-16 3 -16 36q0 45 32.5 65t73.5 20t68 -25q21 -17 26 -45
t-10.5 -47.5t-39.5 -28.5t-47.5 -16t-40.5 -15t-15 -22q1 -22 22.5 -30t35.5 -8q33 0 59.5 19t31.5 49q3 14 14.5 13t14.5 -12q6 -30 25 -49.5t48 -19.5q49 0 74 38q20 35 14 72q-7 41 -42 61q-12 6 -66 11q-15 3 -26.5 12t-8.5 27q3 7 12.5 13.5t32.5 3.5q38 -4 71 -26
q30 -19 46 -52.5t20 -71t-5 -74.5t-26 -60q-36 -46 -87 -46zM878.5 218.5q11.5 -32.5 11.5 -64.5t-7.5 -58.5t-22.5 -47.5q-35 -48 -93 -48q-43 0 -73.5 22.5t-44.5 59.5q-11 -37 -44.5 -59.5t-65.5 -22.5t-55.5 10.5t-41 28t-29 37.5t-11.5 47l6 26q7 14 17 29q1 -6 1 -12
v-20q4 -29 32 -42q29 -12 55 -12t44.5 7.5t32.5 18.5q33 28 33 64q0 23 -14.5 41.5t-34.5 30.5q-41 23 -85 18q-18 -5 -28 25q-2 6 -2 15q0 18 32.5 18t65.5 -14t54 -37t28.5 -44t12 -41t8 -38t12.5 -32q22 -32 81 -32q39 0 70 26t31 64q0 23 -13.5 41.5t-34.5 30.5
q-41 23 -86 18q-15 -3 -23 10.5t-8 24.5q0 23 37 23t67.5 -15t52 -39.5t33 -57z" />
    <glyph glyph-name="U0C0C" unicode="&#xc0c;" horiz-adv-x="593" 
d="M15 205q-15 0 -15 33q0 38 31 67q30 28 65 30.5t62 -14t38 -42.5q15 34 44 46.5t55 9.5q51 -4 75.5 -39.5t24.5 -81.5t-22.5 -76t-52 -53.5t-58.5 -48t-38 -51.5t-3.5 -50t24.5 -39.5t40.5 -23.5t63.5 -6q62 -1 91 12.5t44.5 43.5t16 67.5t-13.5 63.5q-5 10 -15 16
t-23.5 3t-20 11.5t-4 24t15 10.5t22.5 -2q23 -6 40 -26q26 -32 33.5 -78t-1 -84t-27 -67t-38.5 -44.5t-53 -26.5t-83.5 -9.5t-83.5 13.5t-55 31q-55 46 -53 107q2 37 20.5 70t45.5 56q41 34 108 81q45 32 34 75q-5 21 -21.5 35t-44.5 14q-38 0 -64 -23q-11 -9 -13.5 -24.5
t-13.5 -15t-11 17.5t-14 28t-33 15q-40 8 -74 -5q-36 -14 -31 -35q1 -5 -3.5 -10.5t-10.5 -5.5z" />
    <glyph glyph-name="U0C0E" unicode="&#xc0e;" horiz-adv-x="475" 
d="M183 480q108 0 186 -94q43 -52 52 -143q9 -96 -23 -161q-16 -34 -44.5 -56.5t-70.5 -24.5q-6 0 -19.5 -0.5t-28.5 3.5q-37 10 -53 45q-16 -30 -47 -41t-61 -4.5t-52 30t-22 63t21.5 63t51.5 30.5q40 6 71 -13q13 -8 20.5 -18t14 -20t15.5 -20t31.5 -20.5t54.5 -6.5
t58.5 27t37.5 52.5t10 62.5q0 63 -44 120q-30 37 -71 58t-80 14q-14 -2 -31.5 -1t-20.5 23q-4 32 44 32zM63.5 104.5q11.5 -9.5 34 -9.5t34 11.5t9.5 24.5t-15.5 23t-36.5 7.5t-32 -13t-7 -22.5t13.5 -21.5z" />
    <glyph glyph-name="U0C0F" unicode="&#xc0f;" horiz-adv-x="475" 
d="M183 480q108 0 186 -94q43 -52 52 -143q9 -96 -23 -161q-16 -34 -44.5 -56.5t-70.5 -24.5q-6 0 -19.5 -0.5t-28.5 3.5q-37 10 -53 45q-16 -30 -47 -41t-61 -4.5t-52 30t-22 63t21.5 63t51.5 30.5q40 6 71 -13q13 -8 20.5 -18t14 -20t15.5 -20t31.5 -20.5t54.5 -6.5
t58.5 27t37.5 52.5t10 62.5q0 63 -44 120q-30 37 -71 58t-80 14q-14 -2 -31.5 -1t-20.5 23q-4 32 44 32zM63.5 104.5q11.5 -9.5 34 -9.5t34 11.5t9.5 24.5t-15.5 23t-36.5 7.5t-32 -13t-7 -22.5t13.5 -21.5zM133 563q16 0 25.5 -8.5t10 -19t-6 -21t-23 -13t-26 -11.5
t-14.5 -22q-15 -42 3 -68q3 -4 3 -9.5t-5.5 -6.5t-12.5 5q-18 11 -26.5 41t-2 58.5t25.5 51.5t49 23z" />
    <glyph glyph-name="U0C10" unicode="&#xc10;" horiz-adv-x="479" 
d="M207 292q30 45 98 45q58 0 93 -47q31 -43 31 -85.5t-6.5 -78t-22.5 -63.5q-34 -63 -114 -63q-29 0 -60 13t-43 40q-9 -22 -32.5 -37.5t-50.5 -15.5q-45 0 -72.5 28t-27.5 70t27.5 66t59 24t50 -5.5t32.5 -18.5q16 -13 23 -25t14 -21q17 -20 50 -23q105 -10 131 51
q7 16 7 34q0 43 -25 64q-22 21 -59 22q-55 3 -80 -26q-6 -7 -8 -18t-5 -15t-11 -4q-12 0 -16 20.5t-27 32.5t-49.5 12.5t-50 -10.5t-28.5 -33q-8 -22 -21.5 -19.5t-13.5 24.5q0 47 33 78t80 31q23 0 51 -13.5t43 -33.5zM58 101q13 -9 35.5 -9t36.5 11t15 23.5t-12 23.5
t-36 11t-37.5 -9t-14.5 -25.5t13 -25.5z" />
    <glyph glyph-name="U0C12" unicode="&#xc12;" horiz-adv-x="483" 
d="M375 199q8 -1 20.5 -10.5t22.5 -28t12 -40.5q6 -44 -19 -78q-33 -39 -90 -42q-47 0 -71.5 14.5t-31.5 36.5q-11 -26 -41.5 -38.5t-59.5 -12.5q-48 0 -82.5 26t-34.5 78q0 70 88 94q56 16 72.5 25.5t16.5 26t-21.5 28t-47 12t-46 -9.5t-20.5 -30q0 -10 -3 -20t-21 -10
t-18 26.5t9.5 43.5t26.5 28q31 23 72 24.5t69 -19t34.5 -46.5t-4.5 -50q-14 -31 -75 -47q-46 -12 -69 -30q-14 -10 -12.5 -22t12 -19.5t25.5 -10.5q33 -8 52 -4q29 1 42 14t19.5 27t9.5 26.5t16 14t17 -11t8 -28.5t14 -30t30 -14q48 0 67 9q19 13 21 36q2 19 -11 29
q-18 11 -12 25q6 9 14 8z" />
    <glyph glyph-name="U0C13" unicode="&#xc13;" horiz-adv-x="483" 
d="M375 199q8 -1 20.5 -10.5t22.5 -28t12 -40.5q6 -44 -19 -78q-33 -39 -90 -42q-47 0 -71.5 14.5t-31.5 36.5q-11 -26 -41.5 -38.5t-59.5 -12.5q-48 0 -82.5 26t-34.5 78q0 70 88 94q56 16 72.5 25.5t16.5 26t-21.5 28t-47 12t-46 -9.5t-20.5 -30q0 -10 -3 -20t-21 -10
t-18 26.5t9.5 43.5t26.5 28q31 23 72 24.5t69 -19t34.5 -46.5t-4.5 -50q-14 -31 -75 -47q-46 -12 -69 -30q-14 -10 -12.5 -22t12 -19.5t25.5 -10.5q33 -8 52 -4q29 1 42 14t19.5 27t9.5 26.5t16 14t17 -11t8 -28.5t14 -30t30 -14q48 0 67 9q19 13 21 36q2 19 -11 29
q-18 11 -12 25q6 9 14 8zM56 385q0 28 22 44t48 16t42.5 -14.5t21.5 -36.5q5 -39 -11 -40q-11 -3 -11 9q-2 18 -17 27t-29 6q-25 -2 -24 -20.5t11 -33.5q-15 -5 -28 -5q-7 0 -16 16.5t-9 31.5z" />
    <glyph glyph-name="U0C14" unicode="&#xc14;" horiz-adv-x="505" 
d="M375 199q8 -1 20.5 -10.5t22.5 -28t12 -40.5q6 -44 -19 -78q-33 -39 -90 -42q-47 0 -71.5 14.5t-31.5 36.5q-11 -26 -41.5 -38.5t-59.5 -12.5q-48 0 -82.5 26t-34.5 78q0 70 88 94q56 16 72.5 25.5t16.5 26t-21.5 28t-47 12t-46 -9.5t-20.5 -30q0 -10 -3 -20t-21 -10
t-18 26.5t9.5 43.5t26.5 28q31 23 72 24.5t69 -19t34.5 -46.5t-4.5 -50q-14 -31 -75 -47q-46 -12 -69 -30q-14 -10 -12.5 -22t12 -19.5t25.5 -10.5q33 -8 52 -4q29 1 42 14t19.5 27t9.5 26.5t16 14t17 -11t8 -28.5t14 -30t30 -14q48 0 67 9q19 13 21 36q2 19 -11 29
q-18 11 -12 25q6 9 14 8zM367 484q52 0 77 -44q21 -39 3 -80q-19 -44 -65 -42q-35 0 -53 28q-16 25 -3 60h-110q14 -19 8 -46q-5 -30 -37 -36q-36 -7 -145 -7q-15 0 -15 12.5t15 13.5h96q30 1 39.5 9.5t9.5 27.5q0 7 -11 16.5t-38 9.5h-125q-4 0 -8.5 1t-4.5 8v59q0 7 4 8.5
t10 1.5h353zM352 380q2 -15 12 -22t22 -6.5t21.5 9t9 23t-11 20t-22 5.5t-21.5 -7.5t-10 -21.5z" />
    <glyph glyph-name="U0C15" unicode="&#xc15;" horiz-adv-x="346" 
d="M343 400q-48 -31 -97.5 -63t-99.5 -56q-11 4 -31 11t-40 18q-52 27 -52 53q0 15 12.5 27.5t30.5 9.5q25 -2 48 -32q9 -12 17.5 -24.5t16.5 -21.5q53 48 74 68q39 39 85 79q18 17 35.5 15t26.5 -15q16 -21 5 -37.5t-31 -31.5zM281.5 146q16.5 -16 16.5 -45.5t-14.5 -48
t-36.5 -30.5q-40 -22 -96 -22q-76 0 -115 30.5t-33 109.5h26q3 -46 109 -46t106 33q0 12 -22.5 19t-53 11.5t-60.5 8.5t-46 9q-26 10 -42.5 24t-16.5 39t15.5 41t37.5 26q43 19 88.5 19t88.5 -19q48 -23 58 -62q3 -10 -1 -15.5t-10 -6.5q-16 -2 -24 10q-19 22 -55 32
t-71.5 8.5t-61.5 -12.5t-26 -30q0 -15 29.5 -23t59.5 -13.5t57.5 -8.5t52 -12.5t41 -25.5z" />
    <glyph glyph-name="U0C16" unicode="&#xc16;" horiz-adv-x="483" 
d="M368 298.5q35 -26.5 48.5 -60.5t15 -73.5t-10.5 -75.5t-38 -62t-61 -27t-62 11t-55 44q-11 -18 -47 -37q-35 -18 -62 -18q-47 3 -71 27.5t-24 54.5q-1 30 21.5 54t69.5 21q52 -4 106 -32q22 34 20.5 67.5t-19 59.5t-48.5 39t-69 5q26 6 51 -14q26 -20 26 -48.5t-25.5 -46
t-56 -17.5t-53.5 17t-23 53t27 58.5t62 27t68 -5t55 -34.5q38 -38 40 -86t-16 -93q85 -34 129 7q17 15 24.5 42t1.5 50.5t-21 41t-36.5 21.5t-45.5 3q-28 -2 -33 33q-3 26 34 24q43 -4 78 -30.5zM240 -56q0 -17 -13 -25.5t-27.5 -8.5t-27.5 8.5t-13 25.5q0 27 44 81
q37 -50 37 -81zM83 212q9 8 9 23.5t-9 23t-20.5 8.5t-21 -7t-9.5 -23.5t9.5 -23.5t21 -8.5t20.5 7.5zM49 112q0 -20 51 -20q20 0 39.5 3.5t26.5 8.5q-7 8 -31 18q-17 11 -51.5 11t-34.5 -21z" />
    <glyph glyph-name="U0C17" unicode="&#xc17;" horiz-adv-x="381" 
d="M364 428q-113 -78 -198 -121q-10 4 -30 11t-40 18q-52 26 -52 54q0 14 12 27q24 24 57 -1q18 -14 33 -36.5t23 -31.5q22 21 41 38.5t36 34.5q25 24 82 74q18 18 35.5 15.5t26.5 -15.5q16 -21 4.5 -37.5t-30.5 -29.5zM331 122q0 -52 -8 -78t-17.5 -35t-28 -9.5t-33.5 8.5
t-21 26t8 41q34 60 34 110q0 82 -53 111q-18 11 -45.5 11t-46.5 -10t-30 -26q-20 -29 -20 -85t40 -113q17 -26 4 -49q-15 -24 -45 -24q-18 0 -34.5 11.5t-23.5 35.5t-9.5 53t0.5 58q7 62 33 102q49 73 133 73q74 0 123 -61q40 -50 40 -150z" />
    <glyph glyph-name="U0C18" unicode="&#xc18;" horiz-adv-x="686" 
d="M320 419q-48 -32 -97.5 -63.5t-100.5 -56.5q-10 4 -30.5 11t-40.5 18q-51 26 -51 53q0 15 12.5 27.5t28.5 10.5t28 -11t22 -21.5t18.5 -24.5t16.5 -21q31 27 62 57q37 35 95 89q20 17 37 15t26 -15q15 -20 4 -37t-30 -31zM213 -56q0 -17 -13 -25.5t-28 -8.5t-28 8.5
t-13 25.5q0 30 46 81q36 -48 36 -81zM359 274q43 -50 43 -117t-33 -109q-19 -25 -47 -36t-56.5 -9.5t-54 14.5t-38.5 35q-13 -26 -31.5 -39t-52.5 -12.5t-61.5 29t-26.5 71.5q3 47 29 70t56 21q64 -3 97 -65q12 -20 41 -28.5t60 -3t55 28t24 64t-33.5 66.5t-77.5 22
q-18 -2 -28 6t-11 20.5t6.5 20t33.5 5.5q68 -5 106 -54zM123 150.5q-13 10.5 -34 10.5t-33 -10.5t-13 -23.5t9 -23t36 -10t38.5 10t11 23t-14.5 23.5zM635 127.5q-1 -20.5 -12 -51.5t-44.5 -53.5t-65.5 -22.5t-55.5 10.5t-41 28t-29 37.5t-11.5 47l6 26q7 14 17 29
q1 -6 1 -12l2 -14q2 -17 12.5 -30t23.5 -19q24 -11 49.5 -11t44 7.5t32.5 18.5q33 28 33 64q0 46 -47 74q-42 26 -87 21q-11 -1 -23 11q-7 7 -7 20t7.5 17.5t32.5 4.5t58 -14t54 -37t30 -44t13.5 -40.5t6 -33t0.5 -34z" />
    <glyph glyph-name="U0C19" unicode="&#xc19;" horiz-adv-x="465" 
d="M394 166q19 -26 20 -54.5t-11.5 -54t-38 -41.5t-59.5 -16q-63 0 -96 51q-31 -51 -97 -51q-50 0 -81 26t-31 75q0 44 27 63q13 9 30 14t40.5 13.5t47.5 20.5t24 26q0 21 -21 29.5t-38 8.5q-65 0 -74 -46q0 -22 -18 -22t-18 37t31 59t73 22q68 0 99 -61h63q-32 46 -32 65.5
t13 28.5t28.5 9.5t28.5 -8.5t13 -24t-8.5 -31t-22.5 -40h51q15 0 15 -24t-15 -24h-141q-13 -21 -62 -40q-59 -23 -73 -33q-13 -9 -14.5 -20t8.5 -20q7 -8 28 -11t43.5 0.5t43 16t26.5 36.5q3 11 5.5 15.5t9 6t10.5 -5.5t8 -16q13 -30 28 -42t37 -12t37 4.5t25 13.5
q23 21 12 50z" />
    <glyph glyph-name="U0C1A" unicode="&#xc1a;" horiz-adv-x="510" 
d="M452 131q0 -54 -30.5 -92.5t-88.5 -38.5q-29 0 -55 13t-40 42q-30 -55 -87 -55q-46 0 -70 24t-28 56.5t12.5 66.5t51.5 54q-12 -5 -31.5 -13.5t-37.5 -11.5q-48 -9 -48 28.5t40 37.5h126v-30q-14 -11 -29 -23t-26 -32.5t0.5 -42.5t41.5 -22t50.5 21t21.5 46q0 15 13 15.5
t15 -15.5q10 -25 30 -46t51 -21t48 18.5t19.5 44.5t-6.5 54t-26.5 45.5t-37 26t-39.5 13.5q-29 6 -65 6h-6q-8 2 -10 15q-4 10 27 10q103 0 158.5 -49t55.5 -145zM417 421q-17 -13 -66 -45q-119 -81 -131 -76q-6 3 -32 12t-44 20q-47 26 -47 51q0 15 12.5 28t30.5 10
q32 -2 68 -57q8 -13 16 -22q22 21 40 38.5t36 34.5q42 40 81 74q19 18 36 15.5t28 -15.5q15 -21 3.5 -38t-31.5 -30z" />
    <glyph glyph-name="U0C1B" unicode="&#xc1b;" horiz-adv-x="510" 
d="M452 131q0 -54 -30.5 -92.5t-88.5 -38.5q-29 0 -55 13t-40 42q-30 -55 -87 -55q-46 0 -70 24t-28 56.5t12.5 66.5t51.5 54q-12 -5 -31.5 -13.5t-37.5 -11.5q-48 -9 -48 28.5t40 37.5h126v-30q-14 -11 -29 -23t-26 -32.5t0.5 -42.5t41.5 -22t50.5 21t21.5 46q0 15 13 15.5
t15 -15.5q10 -25 30 -46t51 -21t48 18.5t19.5 44.5t-6.5 54t-26.5 45.5t-37 26t-39.5 13.5q-29 6 -65 6h-6q-8 2 -10 15q-4 10 27 10q103 0 158.5 -49t55.5 -145zM277 -53q0 -17 -13 -25.5t-28 -8.5t-28 8.5t-13 25.5q0 27 45 80q37 -45 37 -80zM417 421q-17 -13 -66 -45
q-119 -81 -131 -76q-6 3 -32 12t-44 20q-47 26 -47 51q0 15 12.5 28t30.5 10q32 -2 68 -57q8 -13 16 -22q22 21 40 38.5t36 34.5q42 40 81 74q19 18 36 15.5t28 -15.5q15 -21 3.5 -38t-31.5 -30z" />
    <glyph glyph-name="U0C1C" unicode="&#xc1c;" horiz-adv-x="466" 
d="M396 165q16 -21 18 -49t-10.5 -54t-37 -44t-54 -18t-44.5 4.5t-25 12.5t-18 17l-16 18q-14 -22 -37 -37t-71 -15t-74.5 26t-26.5 75q0 51 40 73q18 9 40.5 15.5t47.5 15t34.5 21.5t5.5 23.5t-19.5 18.5t-38 8t-45.5 -10.5t-27 -35.5q-6 -21 -20 -21q-18 0 -18 36t31 58.5
t73 22.5t64 -16t41 -46q28 -39 72 -39q28 0 44 10.5t18.5 23.5t-9.5 24.5t-35 14t-31.5 2.5t-11.5 11t6.5 17t24.5 6q59 0 91.5 -21.5t33.5 -59.5q0 -33 -34 -56q-33 -22 -61 -22t-60 8.5t-58 45.5q-5 -26 -28.5 -36t-50 -16.5t-48 -15.5t-21.5 -30.5t17.5 -30t42 -8.5
t52 14t34 40.5t18 23t14.5 -22.5q4 -29 28.5 -42t44 -13t33 4.5t23.5 13.5q22 21 10 51z" />
    <glyph glyph-name="U0C1D" unicode="&#xc1d;" horiz-adv-x="865" 
d="M612 -47q0 -17 -13 -25.5t-28 -8.5t-28 8.5t-13 25.5q0 27 46 81q36 -48 36 -81zM369 420q-110 -77 -196 -121q-11 4 -31 11t-40 18q-53 28 -53 54q0 16 13 28t29 10.5t28 -11t22 -21.5t18.5 -25t15.5 -22q32 28 64 59q60 58 87 82q42 38 70 7q16 -21 4.5 -38t-31.5 -31z
M351 165q0 -78 -47 -121.5t-125 -43.5q-74 0 -125 42q-54 44 -54 115.5t51 120.5q52 48 120.5 48t124 -48t55.5 -113zM172 92q71 0 106 41q13 16 17 42q3 26 -6.5 51.5t-31.5 43.5q-37 28 -83.5 28t-83.5 -29q-39 -24 -39 -83q0 -51 43 -76q33 -18 78 -18zM803.5 218.5
q11.5 -32.5 11.5 -64.5t-8 -58.5t-23 -47.5q-35 -48 -92 -48q-43 0 -73.5 22.5t-45.5 59.5q-10 -37 -44 -59.5t-65.5 -22.5t-55 10.5t-41 28t-29.5 37.5t-12 47l7 26q4 13 17 29q1 -6 1 -12l1 -14q3 -17 13.5 -30t23.5 -19q24 -11 49.5 -11t43.5 7.5t32 18.5q33 26 33 64
q0 23 -14 41.5t-35 30.5q-41 23 -85 18q-13 -4 -23 13q-7 13 -7 24.5t8 16t32.5 4.5t58 -14t54 -37t28.5 -44t12.5 -41t8 -38t13.5 -32q21 -32 79 -32q39 0 70.5 26t31.5 64q0 23 -14 41.5t-34 30.5q-41 23 -86 18q-16 -3 -23.5 10.5t-7.5 24.5q0 23 37 23q72 0 119 -54
q22 -25 33.5 -57.5z" />
    <glyph glyph-name="U0C1E" unicode="&#xc1e;" horiz-adv-x="600" 
d="M395 196q-4 -48 -44 -108q47 -61 47 -83q0 -12 -8 -18.5t-18 -6.5q-27 -2 -34 28l-12 56q-80 -64 -174 -64q-43 0 -72 19.5t-41 46t-3 54t44.5 44.5t89.5 17q74 0 141 -51q26 19 38 60q11 39 -11 57.5t-50 17t-51 -14.5q-30 -16 -30 -36q0 -14 -12.5 -14t-12.5 16
q0 24 -24 36t-52 12t-52 -12t-24 -32q0 -11 -6 -14q-18 -8 -22 13q-4 20 0 37q10 41 42 62q24 16 53.5 17.5t52 -13t48.5 -43.5q11 30 41 44.5t62 11t58.5 -24.5t33.5 -64h70q-34 48 -34 66q0 36 45 36q38 0 38 -35q0 -19 -31 -67h53q11 0 13.5 -6.5t2.5 -19t-1.5 -18.5
t-14.5 -6h-139zM282 113q-49 43 -117 43h-22q-33 0 -51 -14q-10 -8 -9 -22q3 -19 25 -22.5t47 -3.5q37 -2 75.5 6t51.5 13z" />
    <glyph glyph-name="U0C1F" unicode="&#xc1f;" horiz-adv-x="513" 
d="M425 255q23 -31 30.5 -75t-3.5 -84t-40 -68t-69 -28t-66.5 18t-37.5 38q-15 -22 -39.5 -39t-62.5 -17t-68 19.5t-47 51.5q-32 74 -12 149q23 90 116 109q-6 12 -12.5 30t-10.5 29t-6 18q-3 20 10.5 29.5t31 9.5t32 -9.5t10.5 -24.5q-9 -32 -28 -82q40 -2 56 -20
q17 -15 20.5 -35.5t-4 -38.5t-23 -32.5t-36.5 -17.5q-23 -6 -46 4t-33 35q-13 28 3 58q-20 -21 -29 -52.5t-4 -62.5t24 -53t53.5 -22t58 23.5t34.5 57.5h16q10 -34 29 -57.5t52 -23.5q67 0 88 46q8 18 8 41.5t-11 43t-28 33.5q-39 32 -79 30q-23 -1 -30 5.5t-7 17.5
q0 20 33 20q72 0 127 -74zM121.5 289.5q-11.5 -8.5 -11.5 -30t13 -32t28 -7.5q28 4 28 39q0 17 -9.5 28t-23 11t-25 -8.5z" />
    <glyph glyph-name="U0C20" unicode="&#xc20;" horiz-adv-x="400" 
d="M370 421q-48 -32 -97 -63.5t-100 -57.5q-11 4 -31 11t-40 19q-51 29 -51 53q0 16 12 28.5t28.5 10.5t28 -11t22 -21.5t19 -25t16.5 -21.5q22 20 40 37.5t35 34.5q36 35 82 75q20 17 36.5 14.5t25.5 -14.5q16 -21 5 -38t-31 -31zM145.5 227.5q9.5 10.5 27 10.5t26.5 -10.5
t9 -23t-9 -22.5t-26.5 -10t-27 10t-9.5 22.5t9.5 23zM350 165q0 -78 -47.5 -121.5t-124.5 -43.5q-74 0 -126 42t-52 119q0 70 50.5 118.5t121.5 48.5q32 0 64 -12.5t57 -34.5q57 -50 57 -116zM295 192q0 28 -10.5 46.5t-28.5 31.5q-37 28 -83 28q-49 0 -85 -28
q-38 -31 -40 -79q-6 -50 34 -76q32 -21 86 -21q127 0 127 98z" />
    <glyph glyph-name="U0C21" unicode="&#xc21;" horiz-adv-x="476" 
d="M403 424q-105 -74 -196 -121q-11 4 -31 11t-41 18q-52 27 -52 54q0 16 12.5 28t28.5 10t28 -11t22.5 -21t18.5 -25t16 -23q22 21 41 38.5t36 34.5q47 45 82 76q18 17 35 14t27 -14q16 -21 4 -38t-31 -31zM403 203.5q23 -31.5 23 -81t-33.5 -86t-88.5 -36.5
q-30 0 -54 10.5t-45 44.5q-10 -30 -37.5 -42.5t-53.5 -12.5t-47.5 11.5t-36.5 30.5q-30 40 -30 93q0 83 63 138.5t152 55.5q102 0 144 -42q4 -4 1 -11q-7 -14 -22 -10q-7 3 -12 8q-26 26 -121 26q-54 0 -103 -34q-51 -35 -51 -91q0 -33 18 -58t52 -25q54 0 70 68q4 17 14 17
q8 0 12 -16q7 -34 31.5 -51.5t59.5 -17.5t53.5 13t25.5 29q-13 -16 -35 -22.5t-43.5 -2.5t-37.5 18.5t-16 36t7 33.5t18 20q23 17 50 17q50 1 73 -30.5zM317.5 152q8.5 -9 25 -8.5t24 10.5t7 21.5t-10 20.5t-25.5 8t-23.5 -11t-6.5 -21t9.5 -20z" />
    <glyph glyph-name="U0C22" unicode="&#xc22;" horiz-adv-x="476" 
d="M403 424q-105 -74 -196 -121q-11 4 -31 11t-41 18q-52 27 -52 54q0 16 12.5 28t28.5 10t28 -11t22.5 -21t18.5 -25t16 -23q22 21 41 38.5t36 34.5q47 45 82 76q18 17 35 14t27 -14q16 -21 4 -38t-31 -31zM403 203.5q23 -31.5 23 -81t-33.5 -86t-88.5 -36.5
q-30 0 -54 10.5t-45 44.5q-10 -30 -37.5 -42.5t-53.5 -12.5t-47.5 11.5t-36.5 30.5q-30 40 -30 93q0 83 63 138.5t152 55.5q102 0 144 -42q4 -4 1 -11q-5 -13 -21 -10q-6 3 -11.5 7.5t-11.5 8.5q-37 18 -111 18q-54 0 -103 -34q-51 -35 -51 -91q0 -33 18 -58t52 -25
q54 0 70 68q4 17 14 17q8 0 12 -16q7 -34 31.5 -51.5t59.5 -17.5t53.5 13t25.5 29q-13 -16 -35 -22.5t-43.5 -2.5t-37.5 18.5t-16 36t7 33.5t18 20q23 17 50 17q50 1 73 -30.5zM317.5 152q8.5 -9 25 -8.5t24 10.5t7 21.5t-10 20.5t-25.5 8t-23.5 -11t-6.5 -21t9.5 -20z
M244 -52q0 -17 -13 -25.5t-28 -8.5t-28 8.5t-13 25.5q0 29 45 81q37 -49 37 -81z" />
    <glyph glyph-name="U0C23" unicode="&#xc23;" horiz-adv-x="511" 
d="M43 160q-43 10 -43 62q2 49 42 78q40 28 88 20q62 -7 88 -51q13 26 42 39t62 13q64 0 101.5 -46t37.5 -113q0 -48 -20 -84q-42 -78 -113 -78q-61 0 -88 40q-11 18 -13 39t6.5 42t28 34t41 13.5t40 -10.5t25 -30t5.5 -35t-9 -31q-16 -31 -47 -35q48 0 78 39q26 32 26 78
t-29 74.5t-76.5 28.5t-72.5 -22q-8 -10 -12 -21.5t-6.5 -15t-9.5 -3.5t-9.5 3.5t-3.5 9.5q-5 18 -15 27q-22 18 -77 18q-27 0 -44 -9t-22.5 -21t1.5 -23.5t21.5 -14t28.5 -2t34 -0.5q19 -3 19 -16.5t-19 -13.5h-47q-24 -3 -33 -14t-5 -22q9 -33 54 -35q19 -1 38 4t36.5 16
t26.5 5.5t9 -16.5q-3 -38 -36 -59.5t-69.5 -21.5t-69.5 22.5t-33 64.5q0 52 43 73zM307.5 53.5q8.5 10.5 8 28.5t-10.5 26.5t-20.5 8.5t-19.5 -9t-8.5 -28t10.5 -28t21 -9t19.5 10.5z" />
    <glyph glyph-name="U0C24" unicode="&#xc24;" horiz-adv-x="465" 
d="M393 426q-109 -71 -190 -115q-12 -7 -16 -5l-18 9q-63 22 -87 50q-9 11 -9 25t12 26.5t28.5 10.5t28 -11t22 -21.5t19 -25t16.5 -21.5q22 20 40 37.5t35 34.5q36 35 82 75q20 17 36.5 14.5t26.5 -14.5q15 -21 4 -37.5t-30 -31.5zM403 221q16 -27 11 -64q-10 -72 -57 -109
q-56 -48 -150 -48q-86 0 -141 36q-66 42 -66 123q0 46 32 79q35 34 80 34q30 0 56.5 -14.5t29.5 -48.5q1 -35 -26.5 -52t-58.5 -13t-46 27.5t-5 57.5q-25 -31 -12 -69q12 -36 47 -52q25 -11 53.5 -12.5t56 -1.5t58.5 3.5t56 16.5q56 28 49 93q-3 -21 -18 -38
q-21 -25 -51.5 -26t-45.5 17.5t-15.5 39.5t9.5 38t30 26t49 1q-34 31 -112 36q-18 1 -34 7q-10 4 -7 15t29 11q57 5 104 -16q15 -5 31.5 -20.5t23 -25t6.5 -19.5q18 -5 34 -32zM290 218q-5 -11 2 -23t19.5 -13t22.5 5.5t15 18t-5 24.5q-7 12 -18 12t-21 -6.5t-15 -17.5z
M139 205q0 17 -8.5 27t-22.5 10q-9 -2 -17 -10t-5 -28q1 -16 9.5 -25t18.5 -6q25 2 25 32z" />
    <glyph glyph-name="U0C25" unicode="&#xc25;" horiz-adv-x="482" 
d="M250 -52q0 -16 -13 -24.5t-28 -8.5t-28 8t-13 25q0 26 45 82q37 -48 37 -82zM440.5 455q-11.5 -17 -44.5 -39q-115 -79 -184 -112q-9 4 -29.5 11t-40.5 17q-52 27 -52 54q0 16 12 29t28.5 10t28 -12t22 -20.5t19 -24.5t16.5 -22q22 19 40 36.5t36.5 35t37 35.5t40.5 38
q39 35 67 2q15 -21 3.5 -38zM253 234q0 -14 -11.5 -23.5t-26 -9.5t-24 9.5t-9.5 23.5t9.5 24t24 10t26 -10t11.5 -24zM213 56q-30 -56 -90.5 -56t-91.5 36.5t-31 87t17 87t46 62.5q61 55 147 55t153 -59q69 -58 69 -139q0 -48 -32 -89t-84 -41q-72 0 -103 56zM312 94
q29 1 45.5 19t18.5 45t-11 55.5t-44 50.5q-52 36 -109 36t-107 -35q-26 -18 -39 -47.5t-11.5 -56.5t17.5 -47t51.5 -20t57.5 20t24 61h20q8 -40 26.5 -61.5t60.5 -19.5z" />
    <glyph glyph-name="U0C26" unicode="&#xc26;" horiz-adv-x="482" 
d="M440.5 455q-11.5 -17 -44.5 -39q-115 -79 -184 -112q-9 4 -29.5 11t-40.5 17q-52 27 -52 54q0 16 12 29t28.5 10t28 -12t22 -20.5t19 -24.5t16.5 -22q22 19 40 36.5t36.5 35t37 35.5t40.5 38q39 35 67 2q15 -21 3.5 -38zM213 56q-30 -56 -90.5 -56t-91.5 36.5t-31 87
t17 87t46 62.5q61 55 147 55t153 -59q69 -58 69 -139q0 -48 -32 -89t-84 -41q-72 0 -103 56zM312 94q29 0 45.5 18.5t18.5 45.5t-11 55.5t-44 50.5q-52 36 -109 36t-107 -35q-26 -18 -39 -47.5t-11.5 -56.5t17.5 -47t51.5 -20t57.5 20t24 61h20q8 -40 26.5 -61.5t60.5 -19.5
z" />
    <glyph glyph-name="U0C27" unicode="&#xc27;" horiz-adv-x="482" 
d="M250 -52q0 -16 -13 -24.5t-28 -8.5t-28 8t-13 25q0 26 45 82q37 -48 37 -82zM440.5 455q-11.5 -17 -44.5 -39q-115 -79 -184 -112q-9 4 -29.5 11t-40.5 17q-52 27 -52 54q0 16 12 29t28.5 10t28 -12t22 -20.5t19 -24.5t16.5 -22q22 19 40 36.5t36.5 35t37 35.5t40.5 38
q39 35 67 2q15 -21 3.5 -38zM213 56q-30 -56 -90.5 -56t-91.5 36.5t-31 87t17 87t46 62.5q61 55 147 55t153 -59q69 -58 69 -139q0 -48 -32 -89t-84 -41q-72 0 -103 56zM312 94q29 0 45.5 18.5t18.5 45.5t-11 55.5t-44 50.5q-52 36 -109 36t-107 -35q-26 -18 -39 -47.5
t-11.5 -56.5t17.5 -47t51.5 -20t57.5 20t24 61h20q8 -40 26.5 -61.5t60.5 -19.5z" />
    <glyph glyph-name="U0C28" unicode="&#xc28;" horiz-adv-x="456" 
d="M341 428q-39 -26 -79 -53.5t-64 -40.5t-29 -17q-18 -14 -38 -4q-73 26 -98 51q-12 12 -12 27t12 27t28.5 10t28 -11t22 -21.5t19 -24.5t16.5 -21q22 19 40 36.5t37 34.5q53 49 81 76q19 16 35.5 13.5t27.5 -13.5q15 -21 3.5 -38t-30.5 -31zM211 335q52 -2 92.5 -20.5
t65 -49t31 -74t-8.5 -90t-43 -74t-66 -27.5t-58.5 14.5t-35.5 33.5q-9 13 -21 36t-28 42.5t-34 30.5t-37 1t-19.5 -32.5t25.5 -44.5q17 -15 33 -26.5t10 -32.5q-7 -18 -25.5 -20.5t-39 7.5t-36.5 33t-16 57.5t15.5 55t42 29t58.5 -3t56 -34.5q29 -32 50.5 -43t45.5 -9
q37 1 59.5 25t26 56.5t-12.5 64.5t-54 47q-40 18 -119 21q-11 1 -20 1t-15 3q-19 8 1 18q16 8 38.5 8t38.5 -3z" />
    <glyph glyph-name="U0C2A" unicode="&#xc2a;" horiz-adv-x="452" 
d="M320 417q-47 -32 -96.5 -64t-101.5 -57q-10 4 -30.5 11.5t-40.5 17.5t-35.5 24t-15.5 29.5t12.5 28.5t28.5 10.5t28 -12t22 -21.5t18.5 -24.5t16.5 -21.5q22 19 40.5 37t36.5 34.5t37 35t43 40.5q20 17 37 15t27 -15q16 -21 4 -38t-31 -30zM273 0q-30 0 -52.5 6.5
t-47.5 44.5q-12 -20 -32.5 -35.5t-50.5 -15.5q-45 0 -67 28.5t-22.5 63t20.5 64.5t66 32q38 3 66 -22q16 -13 22.5 -26t14.5 -23t22.5 -17.5t53 -8t68 19.5t29.5 72q-2 44 -34.5 72t-76.5 28h-12q-15 0 -19.5 6.5t-4.5 17.5q0 21 30 21q67 0 111.5 -53t44.5 -118.5t-35 -111
t-94 -45.5zM52 102.5q10 -10.5 37 -10.5t40.5 10t13 23t-15 23.5t-38 10.5t-35 -10.5t-12 -23t9.5 -23z" />
    <glyph glyph-name="U0C2B" unicode="&#xc2b;" horiz-adv-x="452" 
d="M211 -52q0 -16 -13 -24.5t-28 -8.5t-28 8t-13 25q0 26 45 82q37 -48 37 -82zM320 416q-109 -76 -198 -121q-10 4 -30.5 11t-40.5 18q-51 28 -51 54q0 16 12.5 28.5t28.5 10.5t28 -11.5t22 -21.5t18.5 -24.5t16.5 -21.5q22 19 40.5 37t36.5 34.5t37 35t43 40.5
q20 17 37 14.5t27 -14.5q16 -21 4 -38t-31 -31zM273 0q-30 0 -52.5 6.5t-47.5 44.5q-12 -20 -32.5 -35.5t-50.5 -15.5q-45 0 -67 28.5t-22.5 63t20.5 64.5t66 32q38 3 66 -22q16 -13 22.5 -26t14.5 -23t22.5 -17.5t53 -8t68 19.5t29.5 72q-2 44 -34.5 72t-76.5 28h-12
q-15 0 -19.5 6.5t-4.5 17.5q0 21 30 21q67 0 111.5 -53t44.5 -118.5t-35 -111t-94 -45.5zM52 102.5q10 -10.5 37 -10.5t40.5 10t13 23t-15 23.5t-38 10.5t-35 -10.5t-12 -23t9.5 -23z" />
    <glyph glyph-name="U0C2C" unicode="&#xc2c;" horiz-adv-x="479" 
d="M307 0q-77 0 -99 55q-14 -24 -43 -39.5t-55 -15.5q-44 0 -77 26t-33 71q0 51 40 75q18 10 40.5 16.5t44.5 12.5q27 10 37 23t5 25t-21 20.5t-39.5 8.5t-48 -13.5t-24.5 -40.5q0 -7 -5.5 -12t-12.5 -4q-16 3 -16 36q0 45 32.5 65t73.5 20t68 -25q21 -17 26 -45
t-10.5 -47.5t-39.5 -28.5t-47.5 -16t-40.5 -15t-15 -22q1 -22 22.5 -30t35.5 -8q33 0 59.5 19t31.5 49q3 14 14.5 13t14.5 -12q6 -30 25 -49.5t48 -19.5q49 0 74 38q20 35 14 72q-7 41 -42 61q-12 6 -66 11q-15 3 -26.5 12t-8.5 27q3 7 12.5 13.5t32.5 3.5q38 -4 71 -26
q30 -19 46 -52.5t20 -71t-5 -74.5t-26 -60q-36 -46 -87 -46z" />
    <glyph glyph-name="U0C2D" unicode="&#xc2d;" horiz-adv-x="476" 
d="M240 -52q0 -16 -13 -24.5t-27.5 -8.5t-27.5 8t-13 25q0 29 44 82q37 -50 37 -82zM467 407q-117 -79 -176 -111q-19 -10 -29.5 -8t-23 9t-28.5 15t-30 16q-33 21 -33 41q0 14 13 27q30 32 77 -22q10 -11 18.5 -24t16.5 -22q22 20 40.5 37.5t36.5 34.5t37.5 34.5t43.5 39.5
q18 19 36 16t27 -16q24 -33 -26 -67zM307 0q-77 0 -99 55q-14 -24 -43 -39.5t-55 -15.5q-44 0 -77 26t-33 71q0 51 40 75q18 10 40.5 16.5t44.5 12.5q27 10 37 23t5 25t-21 20.5t-39.5 8.5t-48 -13.5t-24.5 -40.5q0 -7 -5.5 -12t-12.5 -4q-16 3 -16 36q0 45 32.5 65t73.5 20
t68 -25q21 -17 26 -45t-10.5 -47.5t-39.5 -28.5t-47.5 -16t-40.5 -15t-15 -22q1 -22 22.5 -30t35.5 -8q33 0 59.5 19t31.5 49q3 14 14.5 13t14.5 -12q6 -30 25 -49.5t48 -19.5q49 0 74 38q32 57 0 108q-11 17 -29 27q-18 12 -61 19q-6 1 -14 3t-14.5 3.5t-10 5.5t-0.5 17
q3 7 10 12t41 -1.5t63.5 -26t46.5 -52t21 -69t-5 -72t-26 -58.5q-36 -46 -87 -46z" />
    <glyph glyph-name="U0C2E" unicode="&#xc2e;" horiz-adv-x="686" 
d="M378 452q-11 -17 -42 -38q-101 -67 -164 -102q-20 -10 -30.5 -8.5t-22.5 9t-28.5 15t-30.5 16.5q-33 21 -33 38t12.5 30t28.5 10.5t28 -11.5t21.5 -21t18 -25t16.5 -22q22 21 41 38.5t37 34.5q24 24 81 74q18 18 35.5 15.5t26.5 -15.5q16 -21 5 -38zM402 153
q0 -63 -34 -105t-99 -48q-49 0 -79 24q-13 11 -18 28q-5 -27 -35 -42q-20 -10 -49 -10q-41 3 -64.5 30.5t-23.5 68.5t24.5 64t61.5 23q74 0 92 -59q7 -19 31 -26t46 -7t42 5.5t35 17.5q33 26 29 68q-4 52 -68 87q-61 32 -146 32q-12 0 -12 3.5t3 9.5q2 7 24 7q134 0 189 -44
q51 -40 51 -127zM52 102.5q12 -10.5 38.5 -10.5t38 10.5t10.5 23t-15 23t-36 10.5t-34 -10.5t-13 -23t11 -23zM635 127.5q-1 -20.5 -12 -51.5t-44.5 -53.5t-65.5 -22.5t-55.5 10.5t-41 28t-29 37.5t-11.5 47l6 26q7 14 17 29q1 -6 1 -12l2 -14q2 -17 12.5 -30t23.5 -19
q24 -11 49.5 -11t44 7.5t32.5 18.5q33 28 33 64q0 46 -47 74q-42 26 -87 21q-11 -1 -23 11q-7 7 -7 20t7.5 17.5t32.5 4.5t58 -14t54 -37t30 -44t13.5 -40.5t6 -33t0.5 -34z" />
    <glyph glyph-name="U0C2F" unicode="&#xc2f;" horiz-adv-x="865" 
d="M582 417q-41 -28 -84.5 -57t-89.5 -52q-21 -10 -30.5 -8t-22 9t-28.5 14t-31 15q-33 20 -33 42q0 15 13 27.5t29 9.5q25 -2 49 -31q10 -13 18.5 -26t16.5 -22q84 80 158 148q18 17 35 14.5t28 -14.5q15 -21 3.5 -37.5t-31.5 -31.5zM580 159q0 -158 -135 -159
q-38 1 -73 22.5t-47 67.5q-23 -39 -65 -64.5t-83 -25.5t-72.5 11.5t-54.5 32.5q-50 46 -50 121q0 74 48 121q49 47 121.5 47t114.5 -47t50 -113q10 -33 39 -56t66.5 -23t67.5 27t30 71.5t-34 70.5t-75 33q-17 4 -28 3q-36 -3 -43 12q-1 5 4.5 11t10.5 6h22q83 0 134.5 -43
t51.5 -126zM274 142q12 18 12.5 44t-10.5 46t-29 34q-63 46 -129 17q-41 -18 -57 -55q-8 -19 -8 -40.5t11 -39.5t28 -30q35 -23 70 -23q78 0 112 47zM803 79q-11 -34 -45 -56.5t-66 -22.5t-55 10.5t-41 27.5q-41 40 -41 85l7 26q3 10 16 29q2 -6 2 -12l1 -14q6 -35 38 -50
q21 -10 47.5 -10t44.5 7.5t33 18.5q32 26 32 64q0 46 -47 74q-42 26 -87 21q-8 -1 -13.5 3.5t-8.5 7.5q-8 6 -8 19.5t8 18t32.5 4.5t58 -14t54 -37t29.5 -44t13.5 -40.5t6.5 -32.5q4 -44 -11 -83z" />
    <glyph glyph-name="U0C30" unicode="&#xc30;" horiz-adv-x="401" 
d="M400.5 447q-11.5 -17 -42.5 -39q-99 -70 -159 -103q-20 -10 -32 -7.5t-24.5 10t-29 15t-30.5 15.5q-34 21 -34 38.5t12.5 30t30.5 9.5q15 -1 26.5 -10.5t22 -21.5t19 -25t15.5 -22q23 20 41 38t36 34.5t37 35t41 38t39 17t27 -14.5q16 -21 4.5 -38zM351 165
q0 -78 -47.5 -121.5t-125.5 -43.5q-75 0 -125 42q-53 44 -53 115.5t51 120.5q52 48 121.5 48t122.5 -48q56 -49 56 -113zM296 194q0 24 -10 43.5t-28 32.5q-39 28 -85 28q-45 0 -85 -28q-40 -30 -40 -76q0 -43 40 -72q36 -27 84 -27q49 0 84 25q39 28 40 74z" />
    <glyph glyph-name="U0C31" unicode="&#xc31;" horiz-adv-x="544" 
d="M238 48q-40 -48 -100 -48q-65 0 -104 53q-34 47 -34 115q0 62 37 106q41 50 99 50q36 0 66.5 -17t30.5 -57q0 -24 -14 -40t-34 -24t-42 -6.5t-39 11.5t-24 30.5t2 51.5q-46 -26 -46 -81q0 -43 30.5 -70t73.5 -28q22 0 41 1.5t30 10t15.5 18t12 8t11 -10t14.5 -14.5
q14 -11 35 -13t30.5 -1t23.5 1t34 6.5t35 19.5q36 30 36 67t-18 59.5t-43 22.5t-39 -13t-14 -36q0 -31 52 -53q15 -6 15 -15.5t-6 -11t-12 -1.5l-280 -1q-6 -2 -13.5 3t-7.5 11q0 14 21 14h215q-59 32 -59 74t30.5 63t67.5 21q57 0 92 -44.5t35 -101.5q0 -73 -41 -124
q-44 -54 -110 -54t-105 48zM160 225.5q9 12.5 9 28.5t-10 26t-22 10t-22 -10t-10 -29.5t9 -28.5t23 -9t23 12.5z" />
    <glyph glyph-name="U0C32" unicode="&#xc32;" horiz-adv-x="472" 
d="M422 178q0 -86 -65 -136q-56 -46 -147.5 -46t-149.5 49q-63 51 -63 142q0 60 35 96q20 21 50.5 31.5t60 8t50.5 -19t21 -47.5t-23 -52.5t-56 -21.5q-39 0 -61 29q-20 29 -5 65q-37 -32 -34 -69q3 -55 45 -85t119 -30t121 18.5t57.5 48t6 57.5t-32.5 47t-59 16
q-14 -2 -24.5 3t-10.5 20q0 22 33 22q56 0 95 -45q37 -48 37 -101zM145 225.5q10 8.5 10 27.5t-9.5 30t-22.5 11t-22 -10t-9 -29.5t10 -28.5t21.5 -9t21.5 8.5z" />
    <glyph glyph-name="U0C33" unicode="&#xc33;" horiz-adv-x="433" 
d="M496 451q-11 -17 -42 -39q-80 -56 -164 -101q-17 -9 -27.5 -8.5t-24 8t-30 15.5t-30.5 16q-32 21 -32 38.5t12 30.5t28.5 10.5t28 -12t22 -21.5t19 -24.5t16.5 -21.5q22 19 40 36.5t36.5 34.5t37 35.5t40.5 38t39 17.5t28 -15q14 -21 3 -38zM276 121q17 -15 15 -49
q-2 -33 -19 -48.5t-36.5 -19.5t-46.5 -4t-43 12.5t-22.5 28.5t-4.5 31t7 22q-86 20 -115 72q-11 20 -11 53.5t23.5 61.5t53.5 39q62 21 109 -7q26 -15 32 -37.5t-4 -38.5q-24 -36 -75 -36q-16 0 -29 8.5t-20 22.5q-14 30 9 66q-11 -3 -20 -14.5t-11 -27.5q-11 -40 19 -70
q35 -37 103 -37q34 0 59 7.5t34 12.5q22 14 30.5 37t2.5 44q-12 30 -42 45q-6 4 -12 6t-10.5 4t-7 3t-5.5 3q0 2 6 8.5t25 9.5q45 2 78.5 -24t33.5 -68t-29.5 -78t-76.5 -38zM166 263q0 32 -27 32q-10 0 -18.5 -8.5t-8.5 -24.5t9 -22.5t19 -6.5q11 -2 18.5 8t7.5 22z
M220.5 46.5q8.5 10.5 5.5 22.5q-5 25 -39 25q-14 0 -25 -8t-10.5 -23t14 -23.5t30 -6t25 13z" />
    <glyph glyph-name="U0C35" unicode="&#xc35;" horiz-adv-x="452" 
d="M378 452q-11 -17 -42 -38q-101 -67 -164 -102q-20 -10 -30.5 -8.5t-22.5 9t-28.5 15t-30.5 16.5q-33 21 -33 38t12.5 30t28.5 10.5t28 -11.5t21.5 -21t18 -25t16.5 -22q22 21 41 38.5t37 34.5q24 24 81 74q18 18 35.5 15.5t26.5 -15.5q16 -21 5 -38zM402 153
q0 -63 -34 -105t-99 -48q-49 0 -79 24q-13 11 -18 28q-5 -27 -35 -42q-20 -10 -49 -10q-41 3 -64.5 30.5t-23.5 68.5t24.5 64t61.5 23q74 0 92 -59q7 -19 31 -26t46 -7t42 5.5t35 17.5q33 26 29 68q-4 52 -68 87q-61 32 -146 32q-12 0 -12 3.5t3 9.5q2 7 24 7q134 0 189 -44
q51 -40 51 -127zM52 102.5q12 -10.5 38.5 -10.5t38 10.5t10.5 23t-15 23t-36 10.5t-34 -10.5t-13 -23t11 -23z" />
    <glyph glyph-name="U0C36" unicode="&#xc36;" horiz-adv-x="342" 
d="M328 421q-113 -75 -175 -109q-20 -10 -30.5 -8.5t-23 9t-28.5 14.5t-30 15q-33 21 -33 39t12 30.5t28.5 10.5t28 -11t22 -21.5t19 -25.5t16.5 -22q22 21 40 38.5t36.5 34.5t37 35t40.5 38q39 33 67 2q15 -21 3.5 -38t-30.5 -31zM125 328q74 7 119 -11q26 -10 38 -27.5
t10 -36.5t-16.5 -35.5t-41.5 -23.5q43 -35 43 -94q0 -45 -32 -72.5t-77 -27.5q-63 0 -89 44q-9 16 -9 35.5t7 38t21 36.5q30 38 77 46q-11 12 -32 21t-43 8.5t-28.5 -21.5t-0.5 -42q3 -10 -7.5 -19t-24 -11t-26 7.5t-12.5 33t9 40t24 26.5q37 25 69 17q43 -8 60 -16
q25 -14 50 -31q50 27 43 53q-12 37 -131 37q-18 0 -18 13.5t18 11.5zM233 125q4 41 -34 49q-16 3 -33 -8t-18.5 -30t10.5 -30q25 -25 58 -7q15 8 17 26z" />
    <glyph glyph-name="U0C37" unicode="&#xc37;" horiz-adv-x="454" 
d="M320 416q-109 -76 -198 -121q-10 4 -30.5 11t-40.5 18q-51 28 -51 54q0 16 12.5 28.5t28.5 10.5t28 -11.5t22 -21.5t18.5 -24.5t16.5 -21.5q22 19 40.5 37t36.5 34.5t37 35t43 40.5q20 17 37 14.5t27 -14.5q16 -21 4 -38t-31 -31zM269 0q-60 0 -92 49q-15 -27 -44 -38.5
t-59 -6.5t-52.5 28t-21.5 64q3 39 27.5 65t57.5 25t48.5 -15.5t27 -31.5t21.5 -31t27 -14t32 -1.5t29 1.5q32 5 53 25t31 50q10 40 -8 73q-24 39 -69 41q-12 0 -25.5 5.5t-11.5 19.5q2 20 30 20q41 0 69.5 -18.5t44 -47.5t19 -65t-6.5 -71q-3 -16 -6 -30t2.5 -27t13 -21
t16.5 -15q21 -18 21 -34.5t-7 -24.5t-18 -9q-25 -2 -40 25q-10 15 -14 53q-18 -21 -43.5 -32t-51.5 -11zM57 99q13 -5 26 -6.5t24 2.5t17 11q17 17 3 37q-6 10 -21 14.5t-30 3t-25.5 -11.5t-7.5 -27q1 -18 14 -23z" />
    <glyph glyph-name="U0C38" unicode="&#xc38;" horiz-adv-x="453" 
d="M320 416q-109 -76 -198 -121q-10 4 -30.5 11t-40.5 18q-51 28 -51 54q0 16 12.5 28.5t28.5 10.5t28 -11.5t22 -21.5t18.5 -24.5t16.5 -21.5q22 19 40.5 37t36.5 34.5t37 35t43 40.5q20 17 37 14.5t27 -14.5q16 -21 4 -38t-31 -31zM231 312q0 25 29.5 21.5t56 -16.5
t45.5 -35q60 -67 28 -176q-19 -63 -64 -91q-23 -15 -59 -15t-60.5 26t-42.5 57t-34.5 56.5t-35.5 24t-28 -8.5t-12 -17q-4 -20 15 -46q8 -8 17.5 -16t17.5 -16q21 -19 12 -35q-13 -21 -34.5 -21t-35.5 9t-24 23q-22 32 -22 69.5t20 61t47.5 28.5t56.5 -8t49 -40
q18 -27 45.5 -41t52 -14t46 14t32 34.5t11 45.5t-9 47t-30.5 37.5t-47.5 18t-34 7t-7.5 16.5z" />
    <glyph glyph-name="U0C39" unicode="&#xc39;" horiz-adv-x="648" 
d="M320 416q-109 -76 -198 -121q-10 4 -30.5 11t-40.5 18q-51 28 -51 54q0 16 12.5 28.5t28.5 10.5t28 -11.5t22 -21.5t18.5 -24.5t16.5 -21.5q22 19 40.5 37t36.5 34.5t37 35t43 40.5q20 17 37 14.5t27 -14.5q16 -21 4 -38t-31 -31zM355 274q48 -54 48 -119t-33 -107
q-36 -48 -96 -48t-100 52q-26 -52 -84 -52q-42 0 -64.5 29t-22.5 70t24.5 64.5t62.5 23.5q18 0 44 -9t37 -37.5t38.5 -38.5t54 -10t48 16.5t30.5 40t6.5 48.5t-17.5 45q-21 32 -70 32q-11 0 -17.5 10.5t-6 23.5t8 23.5t26.5 10.5h238q41 0 63 -25.5t23.5 -56.5t-18 -57
t-59.5 -28q-20 0 -35 10.5t-23.5 26t-8.5 32.5t12 30h-109zM55.5 102q12.5 -8 38.5 -8t37 10t9.5 22.5t-15 23t-35.5 10.5q-43 0 -46 -37q-1 -13 11.5 -21zM538.5 221.5q10.5 7.5 10.5 21.5t-10.5 23.5t-22.5 10.5t-22 -6t-10 -24t10 -24t22 -8t22.5 6.5z" />
    <glyph glyph-name="uni0C3D" unicode="&#xc3d;" horiz-adv-x="619" 
d="M22 127.5q23 20.5 68 20.5q128 0 191 16q37 9 46.5 31t-6.5 43.5t-53 37.5t-84.5 16t-76.5 -11.5t-47 -29.5t-36 -11t-23 19.5t8.5 23.5t40.5 21q54 21 126 21t119.5 -23t64 -58t0 -65t-68.5 -44.5t-100 -16t-108 -1.5q-21 0 -31 -8t-12 -17.5t0.5 -24.5t33.5 -15l494 1
l1 -53h-509q-22 0 -36 8.5t-19.5 19t-5.5 45t23 55z" />
    <glyph glyph-name="U0C3E" unicode="&#xc3e;" horiz-adv-x="141" 
d="M10 369q114 0 124 -84q2 -39 -16.5 -60t-46.5 -23.5t-43.5 10t-21.5 29t-4.5 32.5t6.5 22h-427q-10 0 -20.5 8t-10.5 27.5t8.5 28.5t34.5 10h417zM81.5 241.5q10.5 6.5 10.5 21.5t-9.5 23.5t-22 8.5t-23 -7t-10.5 -22t10 -22t22 -8t22.5 5.5z" />
    <glyph glyph-name="U0C3F" unicode="&#xc3f;" horiz-adv-x="3" 
d="M-323.5 400.5q-4.5 -14.5 -20.5 -27t-35 -19t-32 -6.5q-31 0 -59.5 17t-28.5 52q0 55 65 77q28 10 62 4.5t58 -20.5t35.5 -39t11.5 -43q-1 -59 -57 -84q-34 -16 -65 -17t-61 7q-75 18 -75 41q0 16 14 16q4 0 23 -8.5t43 -16.5t49 -8t50 15q35 15 35 55q0 17 -5 32
q-3 -13 -7.5 -27.5zM-365 442q-48 0 -63 -25q-6 -9 -6 -17q0 -20 30 -18q22 7 31.5 27t7.5 33z" />
    <glyph glyph-name="U0C40" unicode="&#xc40;" horiz-adv-x="3" 
d="M-291 513l-22 -1q0 12 -12.5 21.5t-25.5 9.5q-27 0 -31 -13.5t6 -31.5q2 -3 -2 -5.5t-10 -4.5q-16 -5 -19 -2q-19 16 -19 46t22 46t47 16t46 -15t23 -36.5t-3 -29.5zM-323.5 400.5q-4.5 -14.5 -20.5 -27t-35 -19t-32 -6.5q-31 0 -59.5 17t-28.5 52q0 55 65 77
q28 10 62 4.5t58 -20.5t35.5 -39t11.5 -43q-1 -59 -57 -84q-34 -16 -65 -17t-61 7q-75 18 -75 41q0 16 14 16q4 0 23 -8.5t43 -16.5t49 -8t50 15q35 15 35 55q0 17 -5 32q-3 -13 -7.5 -27.5zM-365 442q-48 0 -63 -25q-6 -9 -6 -17q0 -20 30 -18q22 7 31.5 27t7.5 33z" />
    <glyph glyph-name="U0C41" unicode="&#xc41;" horiz-adv-x="224" 
d="M-122 96l-2 19v24q0 1 1 9t1 17q1 15 5 30q9 -59 46.5 -81t94.5 -22t84 25.5t27 56t-15.5 52t-38.5 36.5t-47 22t-40 3t-24.5 1.5t-9 14t9 16t29.5 7.5q91 -2 140 -70q25 -32 30 -76.5t-9 -84t-48 -67.5t-80 -28t-87 24t-67 72z" />
    <glyph glyph-name="U0C42" unicode="&#xc42;" horiz-adv-x="432" 
d="M44 276l-26 -2h-12q-10 0 -10 20v41q0 17 10 17h286q38 0 64 -23.5t26 -60.5t-17 -60t-45.5 -24.5t-44 8t-22 24t-4 31t15.5 29.5h-136q48 -41 48 -127q0 -68 -37 -108.5t-105 -40.5q-48 0 -100 39q-29 21 -47 55q-21 38 -2 68q13 -31 46 -48q47 -25 109 -18q44 6 70 30
q14 13 18 34q7 38 -11.5 69t-51.5 47h-22zM286.5 265.5q-9.5 -8.5 -8.5 -24.5t11.5 -22.5t22.5 -6t21.5 9t9.5 23.5t-11 22t-23.5 7t-22 -8.5z" />
    <glyph glyph-name="U0C43" unicode="&#xc43;" horiz-adv-x="187" 
d="M140 -39q0 -187 -162 -187q-50 0 -85 27q-57 44 -47 107q8 45 47 70q19 13 45.5 14t45.5 -17.5t19 -43.5t-13 -41t-31 -22t-36.5 -0.5t-31.5 24.5q15 -51 83 -51q56 0 91 46q38 49 27 126q-8 54 -43 127q-26 58 -49 95.5t-35.5 48.5t-9.5 21.5t10.5 15.5t14 6t11.5 -3
q10 -8 15 -21q16 -21 63 -105q51 -96 67 -190q4 -28 4 -47zM-39 -65q0 22 -27 22q-11 0 -22 -4.5t-15 -11.5q4 -14 15 -21.5t21.5 -8.5t19 5t8.5 19z" />
    <glyph glyph-name="U0C44" unicode="&#xc44;" horiz-adv-x="310" 
d="M140 -39q0 -187 -162 -187q-50 0 -85 27q-57 44 -47 107q8 45 47 70q19 13 45.5 14t45.5 -17.5t19 -43.5t-13 -41t-31 -22t-36.5 -0.5t-31.5 24.5q15 -51 83 -51q56 0 91 46q26 34 23.5 92.5t-21.5 117t-45 106t-47 60.5q-15 8 -15 29q0 14 7 21q18 13 27 4
q5 -4 8.5 -9.5t7.5 -11.5q72 -103 107 -213q23 -69 23 -122zM-39 -65q0 22 -27 22q-11 0 -22 -4.5t-15 -11.5q4 -14 15 -21.5t21.5 -8.5t19 5t8.5 19zM235 306.5q24 -17.5 28.5 -55t-16.5 -58t-44.5 -23t-38.5 5t-24 21.5q-20 31 -2 67h-165q-15 0 -18.5 6.5t-3.5 24
t5.5 23.5t26.5 6h173q55 0 79 -17.5zM217 210.5q8 7.5 8 22t-12.5 25t-34.5 8.5q-10 -6 -14 -17t-4 -16q0 -19 12.5 -26.5t24.5 -5.5t20 9.5z" />
    <glyph glyph-name="U0C46" unicode="&#xc46;" horiz-adv-x="3" 
d="M-135 373q0 -74 -86 -74h-85q-13 0 -19.5 4.5t-5.5 10.5t7.5 11t17.5 5h82q17 0 26 8t9 17.5t-8 17.5t-27 8l-222 -1q-19 0 -22 9.5t-3 33.5q0 37 11 39q6 1 13 1h195q85 0 108 -45q9 -18 9 -45z" />
    <glyph glyph-name="U0C47" unicode="&#xc47;" horiz-adv-x="3" 
d="M-135 373q0 -74 -86 -74h-85q-13 0 -19.5 4.5t-5.5 10.5t7.5 11t17.5 5h82q17 0 26 8t9 17.5t-8 17.5t-27 8l-222 -1q-19 0 -22 9.5t-3 33.5q0 37 11 39q6 1 13 1h195q85 0 108 -45q9 -18 9 -45zM-212 459q-13 -3 -19.5 -3.5t-20.5 7.5q-15 14 -16.5 31t6 32t23 24.5
t41 9.5t40.5 -18t19 -28t2 -15t-6 -8.5t-9 -3.5t-11 7.5t-14.5 14.5t-21.5 4t-19 -11.5t-6.5 -18t3 -16.5t9.5 -8z" />
    <glyph glyph-name="U0C48" unicode="&#xc48;" horiz-adv-x="8" 
d="M-135 373q0 -74 -86 -74h-85q-13 0 -19.5 4.5t-5.5 10.5t7.5 11t17.5 5h82q17 0 26 8t9 17.5t-8 17.5t-27 8l-222 -1q-19 0 -22 9.5t-3 33.5q0 37 11 39q6 1 13 1h195q85 0 108 -45q9 -18 9 -45zM-225 -99q10 0 16 -8.5t7 -18.5q1 -27 -23 -27h-285q-46 0 -67 19
q-15 13 -18.5 32t2 37.5t20 32.5t34.5 15q36 2 57 -22q7 -10 9 -28.5t-5 -31.5h253zM-553 -74q2 -13 11 -17t15 -4q24 3 24 21q1 10 -7.5 16.5t-18 6.5t-17 -6.5t-7.5 -16.5z" />
    <glyph glyph-name="U0C4A" unicode="&#xc4a;" horiz-adv-x="65" 
d="M-207 420q24 35 106 35q68 0 102 -38q15 -17 18 -40t-3.5 -44.5t-23.5 -36t-43 -11.5q-39 2 -55 31q-6 13 -6 27t8 27q-61 0 -88 -40h-21q-25 42 -96 42q-54 0 -54 -22q0 -16 36 -24q22 -6 42 -6q8 -2 11.5 -6.5t1.5 -8t-10 -7.5q-9 -4 -45 3t-51 16q-26 14 -32 37
t4.5 45t35 38.5t57.5 17.5q74 2 106 -35zM-71 319.5q7 -8.5 22.5 -7.5t22 11t5.5 21t-9.5 19.5t-22 7.5t-19.5 -10.5t-6 -21t7 -20z" />
    <glyph glyph-name="U0C4B" unicode="&#xc4b;" horiz-adv-x="65" 
d="M-55 450q-13 -4 -19.5 -4t-20.5 6q-14 15 -16 32.5t5.5 32.5t23.5 24.5t40.5 9.5t39.5 -18t19 -28.5t2 -15.5t-6 -9q-9 -7 -18 5q-7 8 -15.5 15t-21.5 3.5t-18.5 -11.5t-6.5 -17.5t2.5 -17t9.5 -7.5zM-207 420q24 35 106 35q68 0 102 -38q15 -17 18 -40t-3.5 -44.5
t-23.5 -36t-43 -11.5q-39 2 -55 31q-6 13 -6 27t8 27q-61 0 -88 -40h-21q-25 42 -96 42q-54 0 -54 -22q0 -16 36 -24q22 -6 42 -6q8 -2 11.5 -6.5t1.5 -8t-10 -7.5q-9 -4 -45 3t-51 16q-26 14 -32 37t4.5 45t35 38.5t57.5 17.5q74 2 106 -35zM-71 319.5q7 -8.5 22.5 -7.5
t22 11t5.5 21t-9.5 19.5t-22 7.5t-19.5 -10.5t-6 -21t7 -20z" />
    <glyph glyph-name="U0C4C" unicode="&#xc4c;" horiz-adv-x="110" 
d="M53 436q24 -24 24 -58.5t-22.5 -55t-55.5 -20.5t-46.5 26.5t-1.5 54.5h-111q15 -19 10 -43q-6 -27 -35 -37q-26 -11 -59 -9.5t-51 1.5t-21.5 3.5t-3.5 8t4 9t10 4.5h68q26 0 38.5 9.5t11.5 22t-14 22t-36 9.5h-151q-4 0 -8.5 1t-4.5 9v58q0 7 4 8t11 1h378q38 0 62 -24z
M-14 379q-9 -7 -8.5 -22t10 -22t21.5 -6.5t21.5 9t9 22.5t-11 20.5t-22 6t-20.5 -7.5z" />
    <glyph glyph-name="U0C4D" unicode="&#xc4d;" horiz-adv-x="66" 
d="M-307 346q0 27 22 39q-15 6 -23 23t-8 33q1 44 30 62t68 18h215q30 0 35.5 -14t5.5 -23v-18q0 -31 -41 -31h-228q-24 0 -24 -16q0 -19 24 -19h100q26 0 27 -17q0 -9 -6 -12.5t-25.5 -3.5t-42 0.5t-40 -1t-28 -6t-10 -13t11 -11.5t22.5 -6q31 -6 36 -15q6 -15 -25 -15
q-61 0 -85 21q-11 9 -11 25z" />
    <glyph glyph-name="U0C55" unicode="&#xc55;" horiz-adv-x="245" 
d="M68 393q-37 33 -37 83q0 19 8 33q31 55 99 55q66 0 100 -78l-47 -19q-13 19 -25.5 30t-31 11t-33.5 -11.5t-15 -29.5q0 -35 37 -69z" />
    <glyph glyph-name="U0C56" unicode="&#xc56;" horiz-adv-x="3" 
d="M-42 -99q10 0 16 -8.5t6 -18.5q2 -27 -22 -27h-247q-47 0 -65 16q-32 30 -20 72q17 46 60 48q30 2 52 -22q8 -10 10 -28.5t-6 -31.5h216zM-332 -74q2 -21 26 -21q23 3 23 21q2 10 -6.5 16.5t-18.5 6.5t-17 -6.5t-7 -16.5z" />
    <glyph glyph-name="U0C58" unicode="&#xc58;" horiz-adv-x="510" 
d="M330 590q31 -29 22 -70q-11 -51 -86 -51h-241q-12 0 -18.5 8.5t-6.5 19.5t6.5 19.5t18.5 8.5h210q-8 12 -6 30t10 29q17 24 46.5 22t44.5 -16zM445 489q15 -21 3.5 -38t-31.5 -30q-17 -13 -66 -45q-119 -81 -131 -76q-6 3 -32 12t-44 20q-47 26 -47 51q0 15 12.5 28
t30.5 10q32 -2 68 -57q8 -13 16 -22q22 21 40 38.5t36 34.5q42 40 81 74q19 18 36 15.5t28 -15.5zM452 131q0 -54 -30.5 -92.5t-88.5 -38.5q-29 0 -55 13t-40 42q-30 -55 -87 -55q-46 0 -70 24t-28 56.5t12.5 66.5t51.5 54q-12 -5 -31.5 -13.5t-37.5 -11.5q-48 -9 -48 28.5
t40 37.5h126v-30q-14 -11 -29 -23t-26 -32.5t0.5 -42.5t41.5 -22t50.5 21t21.5 46q0 15 13 15.5t15 -15.5q10 -25 30 -46t51 -21t48 18.5t19.5 44.5t-6.5 54t-26.5 45.5t-37 26t-39.5 13.5q-29 6 -65 6h-6q-8 2 -10 15q-4 10 27 10q103 0 158.5 -49t55.5 -145zM299 532
q9 4 9.5 15.5t-6.5 18t-17.5 6.5t-18 -6.5t-7.5 -16.5q0 -19 24 -21q7 0 16 4z" />
    <glyph glyph-name="U0C59" unicode="&#xc59;" horiz-adv-x="466" 
d="M396 165l-28 -4q12 -30 -10 -51q-19 -18 -47.5 -18t-53 13t-28.5 42q-3 19 -14.5 22.5t-18 -23t-34 -40.5t-52 -14t-42 8.5t-17.5 30t21.5 30.5t48 15.5t50 16.5t28.5 36q26 -37 58 -45.5t52.5 -8.5t37 6t31.5 16q34 23 33.5 58.5t-33 57t-91.5 21.5q-15 0 -24.5 -6
t-6.5 -17t11.5 -11t31.5 -2.5t35 -14t9.5 -24.5t-18.5 -23.5t-43 -10.5q-45 0 -73 39q-19 30 -41 46t-64 16t-73 -22.5t-31 -58.5t18 -36q14 0 20 21q4 25 27 35.5t45.5 10.5t38 -8t19.5 -18.5t-5.5 -23.5t-34.5 -21.5t-47.5 -15t-40.5 -15.5q-40 -22 -40 -72t26.5 -76
t74.5 -26t71 15t37 37l16 -18t18 -17q21 -17 60 -17t63.5 18t37 44t10.5 54t-18 49zM330 484q30 -31 22 -70q-4 -19 -18 -32q-21 -21 -68 -21h-241q-12 0 -18.5 8.5t-6.5 19.5t6.5 19.5t18.5 8.5h210q-8 13 -6 30.5t10 28.5q19 25 47.5 23.5t43.5 -15.5zM299 424q9 4 9.5 16
t-6.5 18t-17.5 6t-18 -6t-7.5 -16q0 -21 24 -21q7 -1 16 3z" />
    <glyph glyph-name="U0C60" unicode="&#xc60;" horiz-adv-x="1122" 
d="M307 0q-77 0 -99 55q-14 -24 -43 -39.5t-55 -15.5q-44 0 -77 26t-33 71q0 51 40 75q18 10 40.5 16.5t44.5 12.5q27 10 37 23t5 25t-21 20.5t-39.5 8.5t-48 -13.5t-24.5 -40.5q0 -7 -5.5 -12t-12.5 -4q-16 3 -16 36q0 45 32.5 65t73.5 20t68 -25q21 -17 26 -45
t-10.5 -47.5t-39.5 -28.5t-47.5 -16t-40.5 -15t-15 -22q1 -22 22.5 -30t35.5 -8q33 0 59.5 19t31.5 49q3 14 14.5 13t14.5 -12q6 -30 25 -49.5t48 -19.5q49 0 74 38q20 35 14 72q-7 41 -42 61q-12 6 -66 11q-15 3 -26.5 12t-8.5 27q3 7 12.5 13.5t32.5 3.5q38 -4 71 -26
q30 -19 46 -52.5t20 -71t-5 -74.5t-26 -60q-36 -46 -87 -46zM948 331q112 0 122 -84q2 -39 -15.5 -60t-44.5 -23t-42.5 9.5t-23 26t-7.5 31t7 26.5h-226q-11 0 -22 8t-11 27.5t8.5 29t34.5 9.5h220zM997 198q29 0 33 28q0 16 -10 23.5t-21.5 8.5t-21.5 -7t-10 -23.5t9 -22.5
t21 -7zM719 257q-30 26 -30 49.5t37 23.5t67.5 -15t52.5 -39q44 -51 44 -127q0 -59 -30 -101q-35 -48 -93 -48q-43 0 -73.5 22.5t-44.5 59.5q-11 -37 -44.5 -59.5t-65.5 -22.5t-55.5 10.5t-41 28t-29 37.5t-11.5 47l6 26q7 14 17 29q1 -6 1 -12l2 -14q2 -17 12.5 -30
t23.5 -19q24 -11 49.5 -11t44 7.5t32.5 18.5q33 28 33 64q0 23 -14.5 41.5t-34.5 30.5q-41 23 -85 18q-18 -5 -28 25q-2 6 -2 15q0 18 32.5 18t65.5 -14t54 -37t28.5 -44t12 -41t8 -38t12.5 -32q22 -32 81 -32q39 0 70 26t31 64q0 23 -13.5 41.5t-32.5 25.5t-38 7.5t-51 0.5
z" />
    <glyph glyph-name="U0C61" unicode="&#xc61;" horiz-adv-x="754" 
d="M703 62q3 -23 -6.5 -43t-22.5 -30t-35.5 -10t-38 9t-23 23.5t-5.5 31t15 29.5h-149q-15 0 -15 19v26q0 16 15 19h177q37 0 61 -18t27 -56zM665 42q0 15 -11 22.5t-23 6.5t-22 -9.5t-8.5 -24.5t11.5 -22.5t22 -5.5t21.5 9.5t9.5 23.5zM15 205q-15 0 -15 33q0 38 31 67
q30 28 65 30.5t62 -14t38 -42.5q15 34 44 46.5t55 9.5q51 -4 75.5 -39.5t24.5 -81.5t-22.5 -76t-52 -53.5t-58.5 -48t-38 -51.5t-3.5 -50t24.5 -39.5t40.5 -23.5t63.5 -6q62 -1 91 12.5t44.5 43.5t16 67.5t-13.5 63.5q-11 21 -38 19q-14 -3 -20.5 11.5t-4 24t15 10.5
t22.5 -2q23 -6 40 -26q26 -32 33.5 -78t-1 -84t-27 -67t-38.5 -44.5t-53 -26.5t-83.5 -9.5t-83.5 13.5t-55 31q-55 46 -53 107q2 37 20.5 70t45.5 56q41 34 108 81q45 32 34 75q-5 21 -21.5 35t-44.5 14q-38 0 -64 -23q-11 -9 -13.5 -24.5t-13.5 -15t-11 17.5t-14 28t-33 15
q-40 8 -74 -5q-36 -14 -31 -35q1 -5 -3.5 -10.5t-10.5 -5.5z" />
    <glyph glyph-name="uni0C62" unicode="&#xc62;" horiz-adv-x="4" 
d="M-109 -224q-8 -36 -42 -55t-69 -16q-39 0 -70 21q-31 22 -27 54q2 25 30 51t62 49q25 17 20 42q-2 10 -11 17.5t-18 7.5q-39 0 -43 -25q-1 -7 -7 -7t-6 8.5t-7 14t-17 7.5q-17 3 -36 -2q-17 -7 -15 -17q0 -7 -8 -9.5t-8 17.5t15.5 34t33 15t30.5 -7.5t20 -21.5
q10 32 49 29q26 -3 38 -20.5t12 -40.5t-11 -38t-25.5 -27t-28 -23.5t-19.5 -28.5q-7 -27 10.5 -39.5t44 -14t45.5 8t28 23t9 29t-6 25.5q-10 17 -21 21q-7 3 -3 10q7 13 30 -8q14 -16 20 -39.5t1 -44.5z" />
    <glyph glyph-name="uni0C63" unicode="&#xc63;" horiz-adv-x="75" 
d="M45 -178q0 -20 -5 -29q-12 -21 -36 -21t-33 19.5t7 35.5h-81q43 -43 26 -100q-14 -47 -51 -67t-79 -18q-48 0 -81 25q-35 26 -33 65q2 29 34.5 59.5t73.5 57.5q15 11 20.5 24.5t3 25t-13 20t-19.5 8.5t-16.5 -0.5t-15.5 -4.5q-18 -8 -20 -23q-3 -8 -9 -9t-6 9.5t-8.5 17
t-20.5 9.5q-24 5 -42 -4q-22 -7 -18 -20q0 -2 -3 -5.5t-6 -4t-6.5 3.5t-3.5 16q0 24 19 40q38 32 75 10q16 -10 22 -26q9 21 26 28t33 6q30 -3 44 -24t14 -48t-13 -44.5t-30 -31.5t-33 -28t-21 -33q-9 -33 11.5 -48t55.5 -16t58.5 15t30.5 37.5t-1 43.5t-33 34h-11
q-10 0 -10 12v23q0 11 10 11h145q21 0 34.5 -14.5t15.5 -36.5zM17 -204q5 5 5 13.5t-6 13t-13 4.5t-13 -5t-4 -16q0 -9 5.5 -13t13 -3t12.5 6z" />
    <glyph glyph-name="U0C66" unicode="&#xc66;" horiz-adv-x="396" 
d="M346 160q0 -37 -14.5 -66.5t-39.5 -50.5q-50 -43 -127 -43t-122.5 40.5t-45.5 118.5q0 66 51 117q48 48 120 48q66 0 122 -46q56 -48 56 -118zM280 146q11 18 11 44t-10.5 45.5t-28.5 32.5q-36 27 -83 27q-49 0 -83 -28q-42 -33 -42 -76q0 -47 36 -73q33 -22 82 -22
q87 0 118 50z" />
    <glyph glyph-name="U0C67" unicode="&#xc67;" horiz-adv-x="443" 
d="M393 121q0 -50 -17 -90q-6 -14 -15 -22q-13 -10 -34.5 -10t-39 8.5t-24.5 25t10 42.5q39 56 39 110q0 83 -61 113q-22 10 -55 10q-65 0 -89.5 -36.5t-24.5 -88.5t48 -112q19 -24 3 -47.5t-52 -23.5q-52 0 -69 47q-17 48 -10 111q6 60 38 102q60 74 159 74q86 0 144 -61
q50 -53 50 -152z" />
    <glyph glyph-name="U0C68" unicode="&#xc68;" horiz-adv-x="677" 
d="M420 0h-371q-10 0 -21 8t-11 26q-2 23 3.5 40.5t29.5 19.5l362 -3q46 0 77 4.5t50 18.5q36 25 36 67q2 63 -44 107q-43 43 -107 49q-49 4 -83 -33q33 11 61 -8q32 -21 32 -58q0 -24 -13.5 -38t-35 -20t-46 1t-38.5 30.5t-5.5 62.5t37.5 65q37 37 96 37q21 0 53 -10
q99 -28 127 -110q18 -51 11.5 -103.5t-34.5 -85.5q-55 -67 -166 -67zM364 218q32 2 33 18t-14 28.5t-34.5 13t-26.5 -26.5q-2 -11 10 -22.5t32 -10.5z" />
    <glyph glyph-name="U0C69" unicode="&#xc69;" horiz-adv-x="363" 
d="M295 43q-42 -43 -147 -43q-43 0 -75 9q-73 21 -73 74q0 21 15 32.5t37 11.5t36.5 -11.5t14.5 -31.5t-15 -39q7 -24 55 -26q36 -1 62 25.5t22 59.5q-6 40 -83 56q-8 1 -8 8q0 5 8 9l15 5q50 21 50 62q0 60 -66 60q-16 -1 -29 -3t-26 -12q16 -6 22 -20t2.5 -29.5t-15 -27.5
t-32.5 -12t-36 13.5t-15 34.5q0 38 38.5 59.5t99 21.5t92.5 -21.5t39.5 -49t-7.5 -52t-49 -32.5q46 -8 71 -40q15 -21 15 -46.5t-18 -44.5z" />
    <glyph glyph-name="U0C6A" unicode="&#xc6a;" horiz-adv-x="327" 
d="M277 281q0 -56 -35 -85q-42 -34 -105.5 -34t-107.5 41q-21 22 -25.5 56.5t6.5 61.5q11 26 48 26q26 0 38 -13t-5 -27q-31 -33 -31 -61.5t17.5 -48.5t62.5 -19q46 -1 64 19.5t18 48t-30 58.5q-13 14 -7 24t18.5 15t28.5 4.5t26 -7.5t14.5 -28t4.5 -31zM218.5 23.5
q-33.5 -23.5 -81 -23.5t-77 22.5t-29.5 63t32.5 66.5t75.5 26q42 0 76 -24q37 -27 37 -67t-33.5 -63.5zM191 64q26 11 26 40t-24 43.5t-52 14.5t-54 -15.5t-26 -42.5t23 -39t52 -12t55 11z" />
    <glyph glyph-name="U0C6B" unicode="&#xc6b;" horiz-adv-x="528" 
d="M417 238q-1 17 -14 23.5t-27.5 5t-25.5 -11t-8 -24.5q1 -19 16 -29t29 -7q34 6 30 43zM328 0q-30 -3 -33 12t20 20q23 7 55 17.5t45.5 24t15.5 25t-2 23.5q-7 21 -29 38q-36 -47 -172 -107q-55 -24 -105 -39t-75 -14q1 5 14 11.5t34 16.5q74 34 105 53q59 15 103 43.5
t59 47.5q-35 0 -68 38q-25 28 -22 67q5 40 30.5 56.5t58.5 16.5t58.5 -19.5t36 -46.5t6 -55t-27.5 -44q28 -24 38 -60q12 -42 -13 -70q-23 -28 -72 -41q-33 -10 -60 -14zM30 55q54 2 82 39t28 91.5t-24 85.5t-74 31q-20 0 -31 3.5t-10 22.5q0 23 39 28q76 8 133 -49
q53 -51 53 -132q0 -62 -30 -103q-53 -72 -161 -72q-35 8 -35 23q0 12 11 22t19 10z" />
    <glyph glyph-name="U0C6C" unicode="&#xc6c;" horiz-adv-x="406" 
d="M83 255q0 -35 27 -35q25 -2 45 1t50 2t37.5 -5.5t7.5 -17.5t-8 -18t-29 -5h-99q-17 0 -24 -13t-7 -28.5t8.5 -29.5t22.5 -14h185q42 0 53 -19q4 -8 3.5 -17t-0.5 -13.5t-0.5 -11t-6.5 -13.5q-14 -17 -49 -17h-166q-91 0 -121 59q-11 21 -11 41.5t2.5 35t8.5 26.5t13 22
t18 14q-14 9 -18 31.5t3.5 45.5t28.5 39t56 15h81q18 0 27.5 -1t9.5 -16t-8.5 -18.5t-28.5 -3.5h-84q-11 -2 -19 -14t-8 -22z" />
    <glyph glyph-name="U0C6D" unicode="&#xc6d;" horiz-adv-x="350" 
d="M14 52q-14 19 -14 48.5t16 46.5t40.5 25.5t51 11.5t56.5 8.5t60.5 20t30.5 31.5t-26 29t-62 13t-71.5 -8.5t-55.5 -33.5q-8 -12 -24 -10q-6 1 -10.5 6.5t-1.5 15.5q13 42 60 62q37 19 84 19q51 0 83 -14t47.5 -30t15.5 -41t-17 -46t-43 -31q-16 -5 -46.5 -8t-61 -8.5
t-53 -12.5t-22.5 -19q0 -33 106.5 -33t110.5 46h26q6 -78 -34 -109t-116 -31q-88 0 -130 52z" />
    <glyph glyph-name="U0C6E" unicode="&#xc6e;" horiz-adv-x="443" 
d="M393 212q0 -99 -50 -151q-57 -61 -144 -61q-99 0 -159 73q-47 60 -38 161q5 69 38 88q18 12 41 12q36 0 52 -24t-3 -49q-48 -60 -48 -112t24.5 -88t89.5 -36q61 0 90 37q26 32 26 85t-39 110q-17 25 -10 42.5t24.5 26.5t39 8.5t34.5 -10.5q15 -13 25 -53q7 -28 7 -59z
" />
    <glyph glyph-name="U0C6F" unicode="&#xc6f;" horiz-adv-x="406" 
d="M299 330q36 0 49 -16q7 -7 7 -18t0.5 -19.5t-3.5 -16.5q-12 -20 -53 -20h-185q-14 0 -22.5 -13.5t-8.5 -29t7 -29t24 -13.5h99q21 0 29 -5.5t8 -18.5t-7.5 -17.5t-37.5 -4.5t-50 2t-40.5 1.5t-26 -12.5t-5.5 -23t8 -22.5t19 -14.5h84q20 0 28.5 -2.5t8.5 -17.5t-9.5 -17
t-27.5 -2h-81q-35 -1 -56 16.5t-28.5 39.5t-3.5 44t18 32q-20 7 -31 35t-11 55.5t10.5 48t28.5 33.5q35 25 93 25h166z" />
    <glyph glyph-name="uni0C78" unicode="&#xc78;" horiz-adv-x="492" 
d="M346 160q0 -37 -14.5 -66.5t-39.5 -50.5q-50 -43 -127 -43t-122.5 40.5t-45.5 118.5q0 66 51 117q48 48 120 48q66 0 122 -46q56 -48 56 -118zM280 146q11 18 11 44t-10.5 45.5t-28.5 32.5q-36 27 -83 27q-49 0 -83 -28q-42 -33 -42 -76q0 -47 36 -73q33 -22 82 -22
q87 0 118 50zM422.5 -27.5q-19.5 -32.5 -55.5 -48t-61 -26.5q-50 -24 -73 -35q-12 -3 -20.5 1.5t-10.5 11.5q-7 20 9 30q10 6 56 26t83 34q22 9 26 28t-4.5 36t-26 26t-37.5 -1q-22 -22 -39 -30t-21 -9l-14 44l74 30q38 14 67 -2.5t45 -43.5q22 -39 2.5 -71.5z" />
    <glyph glyph-name="uni0C79" unicode="&#xc79;" horiz-adv-x="144" 
d="M35 467l59 5v-467l-59 -5v467z" />
    <glyph glyph-name="uni0C7A" unicode="&#xc7a;" horiz-adv-x="363" 
d="M242 -46h-69q0 7 4 28q1 13 7 41t12 72q-6 -4 -18.5 -12.5t-27.5 -16.5q-35 -18 -67 -18t-48.5 10.5t-24.5 27.5q-15 35 -7 88l27 151h54l-27 -151q-9 -49 8.5 -65.5t51.5 -16.5q29 0 67 26q10 7 15 12l44 195h70z" />
    <glyph glyph-name="uni0C7B" unicode="&#xc7b;" horiz-adv-x="552" 
d="M196 91q-58 -48 -122 -48q-45 0 -65 37q-16 29 -6 92l27 153h54l-28 -153q-9 -51 9 -68t45 -17q39 0 81 33q-4 20 1 52l29 153h55l-30 -153q-8 -50 10 -68q16 -17 48 -17q27 0 65 27q9 7 14 12l46 199h73l-73 -377h-72q0 6 3 23q9 42 21 120q-8 -8 -32 -23
q-41 -25 -84 -25q-51 0 -69 48z" />
    <glyph glyph-name="uni0C7C" unicode="&#xc7c;" horiz-adv-x="554" 
d="M31 278l235 1h130q63 0 108 -1l-20 -74h-475z" />
    <glyph glyph-name="uni0C7D" unicode="&#xc7d;" horiz-adv-x="619" 
d="M22 133.5q23 19.5 68 19.5q128 0 191 16q38 8 47.5 29t-6.5 42t-53.5 36t-85 15t-76.5 -11t-47 -28t-36 -10.5t-23 19.5q-5 11 8.5 21.5t40.5 20.5q56 20 127 20t119 -22t64.5 -55.5t0 -62.5t-69 -42.5t-100.5 -15t-108 -1.5q-21 0 -31 -8t-12 -17t3 -17.5t36 -9.5h490
v-72h-509q-44 0 -56 32q-5 16 -5 49t23 52.5z" />
    <glyph glyph-name="uni0C7E" unicode="&#xc7e;" horiz-adv-x="621" 
d="M281.5 241q19.5 -13 19.5 -39t-19 -38t-47.5 -15.5t-62.5 -3t-62.5 -2.5t-47.5 -13.5t-19 -27.5q3 -19 22.5 -22.5t50.5 -3.5l455 -2v-74h-482q-38 0 -67 34q-23 28 -23 61.5t19 50t47.5 24t62 8t62.5 1.5t47.5 5.5t18.5 19.5t-18.5 20t-47.5 6t-62.5 0t-62 3t-47.5 16.5
t-19 39t19 38t47.5 14.5t62 2t62.5 0t47.5 9.5t18.5 31.5t-30.5 30.5t-76.5 7.5t-72 -9.5t-44 -12.5q-19 -5 -28.5 4.5t9.5 28.5q26 11 56.5 18.5t90.5 7.5t98 -23.5t38 -53.5t-19 -44t-47.5 -20t-62.5 -6t-62.5 -0.5t-47 -5.5t-18.5 -20q0 -12 19.5 -15t48 -4t62.5 -1.5
t63 -6t48.5 -18.5z" />
    <glyph glyph-name="uni0C7F" unicode="&#xc7f;" horiz-adv-x="605" 
d="M253 -41q-54 6 -97.5 29.5t-77 56t-52.5 74.5q-41 94 3 197q13 28 35 57t50 47q67 43 128 14q40 -18 50 -55.5t-4 -72t-47 -53.5t-77 0q-41 19 -51 57q-10 37 9 75q-36 -30 -55 -79t-12 -88t27.5 -71.5t47 -57t57 -42.5t73 -30.5t82.5 -11.5q81 2 138 57q19 21 23 49
t1.5 41t4 21t15.5 10t18 -2t11 -24.5t-6.5 -48t-40.5 -68.5q-22 -27 -62 -48t-88.5 -30t-102.5 -3zM250 316q16 28 8 50.5t-28 31.5q-18 10 -37.5 8t-38 -22t-13.5 -48t25.5 -39.5t44 -9t39.5 28.5z" />
    <glyph glyph-name="afii61664" unicode="&#x200c;" horiz-adv-x="96" 
d="M0 -259v832h43v-832h-43z" />
    <glyph glyph-name="afii301" unicode="&#x200d;" horiz-adv-x="186" 
d="M0 -259v832h161v-39h-118v-793h-43z" />
    <glyph glyph-name="endash" unicode="&#x2013;" horiz-adv-x="299" 
d="M38 134q3 43 10 43h280q4 0 4 -7.5t-2 -21.5q-4 -20 -9 -20h-279q-1 -1 -2.5 0.5t-1.5 5.5z" />
    <glyph glyph-name="emdash" unicode="&#x2014;" horiz-adv-x="506" 
d="M38 134q3 43 10 43h534q4 0 4 -7.5t-2.5 -21t-3.5 -16.5l-2 -3q-1 -1 -2 -1h-534q-1 -1 -2.5 0.5t-1.5 5.5z" />
    <glyph glyph-name="quoteleft" unicode="&#x2018;" horiz-adv-x="159" 
d="M36 320q-10 15 -10 42t10.5 45.5t23.5 31t25 19.5t14 7q9 0 14 -12q-30 -17 -35 -30t-5 -23q0 -14 9.5 -25.5t14 -16.5t4.5 -14.5t-12 -20t-22 -10.5q-22 0 -31 7z" />
    <glyph glyph-name="quoteright" unicode="&#x2019;" horiz-adv-x="152" 
d="M100 459q10 -15 10 -42t-10.5 -45.5t-23.5 -31.5t-24.5 -20t-13.5 -7q-11 0 -14 12q29 18 34 31t5 22q0 18 -23 43q-4 5 -4 14.5t12 20t22 10.5q18 0 30 -7z" />
    <glyph glyph-name="quotedblleft" unicode="&#x201c;" horiz-adv-x="267" 
d="M134 320q-10 15 -10 42t10.5 45.5t23.5 31t25 19.5t14 7q9 0 14 -12q-30 -17 -35 -30t-5 -23q0 -19 23 -42q5 -5 5 -14.5t-12 -20t-29 -10.5q-15 0 -24 7zM36 319q-10 15 -10 42t10.5 45.5t23.5 31.5t25 20t14 7q9 0 14 -12q-30 -18 -35 -31t-5 -22q0 -15 9.5 -26.5
t14 -16.5t4.5 -14.5t-12 -20t-22 -10.5q-19 0 -31 7z" />
    <glyph glyph-name="quotedblright" unicode="&#x201d;" horiz-adv-x="263" 
d="M100 459q10 -15 10 -42t-10.5 -45.5t-23.5 -31.5t-24.5 -20t-13.5 -7q-11 0 -14 12q29 18 34 31t5 22q0 18 -23 43q-4 5 -4 14.5t12 20t22 10.5q18 0 30 -7zM206 440q7 -39 -6 -62.5t-26 -36.5t-25 -20t-14 -7q-9 0 -14 12q30 18 35 31t5 22q0 19 -23 42q-5 5 -5 14.5
t12 20.5t29 11q14 0 24 -8q5 -6 8 -19z" />
    <glyph glyph-name="ellipsis" unicode="&#x2026;" horiz-adv-x="499" 
d="M494 42q0 -20 -14.5 -34.5t-35 -14.5t-35 14.5t-14.5 35.5t14.5 35t35 14t35 -15t14.5 -35zM310 42q0 -20 -14.5 -34.5t-34.5 -14.5t-35 14.5t-15 35.5t15 35t35 14t34.5 -15t14.5 -35zM127 42q0 -20 -14.5 -34.5t-35 -14.5t-35 14.5t-14.5 35.5t14.5 35t35 14t35 -15
t14.5 -35z" />
    <glyph glyph-name="uni20B9" unicode="&#x20b9;" horiz-adv-x="429" 
d="M1 417v58h368v-58h-116q17 -6 36 -32.5t20 -58.5h59v-34h-60q-2 -74 -50 -104q-44 -29 -118 -27q18 -6 52.5 -28.5t73 -46.5t76.5 -48t68 -41v-22h-115q-8 5 -31.5 23t-52.5 40t-61 46t-58.5 43.5t-43.5 32.5l-16 13v31q137 -6 184 36q25 21 30 52h-214v34h214
q0 39 -23.5 64t-50.5 26l-39 1h-132z" />
    <glyph glyph-name="uni2103" unicode="&#x2103;" horiz-adv-x="424" 
d="M508 131v-66q-70 -70 -169 -70t-168.5 71.5t-69.5 172t71 173.5q67 72 167 72q85 0 145 -50v-83h-3l-18 27q-46 67 -122.5 67t-124.5 -67q-44 -60 -44 -139.5t44 -139.5q50 -65 123 -65q96 0 165 97h4zM148 483.5q0 23.5 -15 42.5t-35.5 19t-35.5 -19t-15 -42.5t15 -42.5
t35.5 -19t35.5 19t15 42.5zM148 534q21 -21 21 -51.5t-21 -51t-50.5 -20.5t-50.5 20.5t-21 51t21 51.5t50.5 21t50.5 -21z" />
    <glyph glyph-name="uni2109" unicode="&#x2109;" horiz-adv-x="343" 
d="M148 483.5q0 23.5 -15 42.5t-35.5 19t-35.5 -19t-15 -42.5t15 -42.5t35.5 -19t35.5 19t15 42.5zM148 534q21 -21 21 -51.5t-21 -51t-50.5 -20.5t-50.5 20.5t-21 51t21 51.5t50.5 21t50.5 -21zM411 211q-43 9 -95 9h-50v-125q0 -53 10 -95h-82q7 47 7 95v288q0 49 -7 94
h217v-48q-54 9 -95 9h-47q-3 -42 -3 -55v-124h50q35 0 95 10v-58z" />
    <glyph glyph-name="trademark" unicode="&#x2122;" horiz-adv-x="318" 
d="M135 119q3 9 5 28l7 71v26h22q2 -10 9 -25l33 -72l34 72q2 5 4 11t5 14h23q-1 -4 -1 -8v-18l6 -71l6 -28h-29q2 4 2 9v9q0 8 -1 10l-5 57l-27 -59q-6 -14 -8 -26h-22q-2 14 -9 26l-26 59l-5 -57v-20q0 -4 1 -8h-24zM63 119q4 14 4 28v81h-8q-14 0 -27 -3v19h93v-19
q-13 3 -28 3h-7v-81q0 -18 2 -28h-29z" />
    <glyph glyph-name="onethird" unicode="&#x2153;" horiz-adv-x="512" 
d="M171 -7q-5 -10 -24 -15q-12 -2 -12 5l228 455q7 10 20.5 13t15.5 -4zM138 410q-8 -20 -8 -56v-126q0 -29 6 -35q9 -10 32 -10q1 0 0.5 -8t-0.5 -9l-66 3q-32 0 -68 -3q-2 2 -2 9.5t2 7.5q5 0 16.5 2.5t14.5 6.5t5.5 18t2.5 19v108q0 31 -13 31q-5 0 -14.5 -4t-15.5 -6
q-2 0 -4.5 4.5t-2.5 8.5t1 5q22 9 53 23q49 24 50.5 24t5.5 -5.5t5 -7.5zM391.5 219q-10.5 11 -30 11t-41.5 -22q-10 5 -9 11q11 15 34 28t39 13t27 -3t21 -9q23 -15 23 -43q0 -26 -19 -41q-11 -9 -29 -13q16 0 33 -11t25.5 -23.5t8.5 -33t-11 -37t-28 -26.5
q-35 -22 -77 -22q-38 0 -55 14q-6 8 -6 17t5 16.5t14 7.5q15 0 29 -21q10 -16 29 -16q40 0 40 54q0 23 -13.5 41t-33.5 18h-9q-7 0 -12 -2q-4 8 -4 10l1 8q36 5 53 25q6 9 6 23.5t-10.5 25.5z" />
    <glyph glyph-name="arrowleft" unicode="&#x2190;" horiz-adv-x="421" 
d="M158 279q23 -8 23 -17q0 -4 -11 -15l-61 -60h375q1 0 3 -2t2 -4l-5 -38q-3 -6 -5 -4h-371l24 -23q27 -26 38 -37t11 -16t-10 -10t-13 -5q-1 1 -32 27t-104 74q-5 1 -5 11t5 16q43 25 80 54.5t46 38.5z" />
    <glyph glyph-name="arrowup" unicode="&#x2191;" horiz-adv-x="244" 
d="M154 4q0 -4 -11 -4t-23 3t-15 6v372l-22 -25l-37 -37q-11 -11 -16.5 -11t-10 10t-4.5 13q1 1 27 32t74 104q1 4 8 4q13 0 19 -5q25 -43 54.5 -80t38.5 -46l10 -10q-1 -3 -6.5 -12.5t-10.5 -9.5t-15.5 11t-36.5 37l-23 24v-376z" />
    <glyph glyph-name="arrowright" unicode="&#x2192;" horiz-adv-x="439" 
d="M19 181q0 6 5 6h375l-23 23q-27 26 -38 37t-11 16q0 8 23 16l10 -10q15 -15 54 -44.5t72 -48.5q5 -6 5 -16t-5 -11q-73 -48 -104 -74t-32 -27q-3 0 -13 5t-10 10t11.5 16t37.5 37l24 23h-371q-2 -2 -5 4z" />
    <glyph glyph-name="arrowdown" unicode="&#x2193;" horiz-adv-x="256" 
d="M15 141q8 23 17 23q5 0 15.5 -11.5t36.5 -37.5l23 -24v376q0 4 7.5 4t20.5 -2q19 -3 19 -5l2 -2v-372l22 25q26 26 37 37.5t15 11.5q6 0 11 -10.5t5 -13.5q-1 -1 -27.5 -32t-73.5 -104q-3 -4 -12 -4t-15 5q-30 50 -57 83.5t-36 42.5z" />
    <glyph glyph-name="uni25CC" unicode="&#x25cc;" horiz-adv-x="519" 
d="M434.5 -38.5q-10.5 12.5 -10.5 27t10.5 25.5t26 11t27 -11t11.5 -25.5t-11.5 -27t-27 -12.5t-26 12.5zM187.5 387q-10.5 11 -10.5 26.5t10.5 26.5t26.5 11t27 -11t11 -26.5t-11 -26.5t-27 -11t-26.5 11zM524 50q-12 11 -12 26.5t12 26.5t27.5 11t26.5 -11t11 -26.5
t-11 -26.5t-26.5 -11t-27.5 11zM97.5 297.5q-11.5 11.5 -11.5 26.5t11.5 25.5t27 10.5t26.5 -10.5t11 -25.5t-11 -26.5t-26.5 -11.5t-27 11.5zM187.5 -38.5q-10.5 12.5 -10.5 27t10.5 25.5t26.5 11t27 -11t11 -25.5t-11 -27t-27 -12.5t-26.5 12.5zM434.5 387
q-10.5 11 -10.5 26.5t10.5 26.5t26 11t27 -11t11.5 -26.5t-11.5 -26.5t-27 -11t-26 11zM524 297.5q-12 11.5 -12 26.5t12 25.5t27.5 10.5t26.5 -10.5t11 -25.5t-11 -26.5t-26.5 -11.5t-27.5 11.5zM97.5 50q-11.5 11 -11.5 26.5t11.5 26.5t27 11t26.5 -11t11 -26.5t-11 -26.5
t-26.5 -11t-27 11zM558 173.5q-11 11.5 -11 27t11 26.5t27 11t27 -11t11 -26.5t-11 -27t-27 -11.5t-27 11.5zM64 173.5q-11 11.5 -11 27t11 26.5t26 11t27 -11t12 -26.5t-12 -27t-27 -11.5t-26 11.5zM310 -72q-11 11 -11 26.5t11 27t26.5 11.5t27.5 -11.5t12 -27t-12 -26.5
t-27.5 -11t-26.5 11zM299 448q0 16 11 27t26.5 11t27.5 -11t12 -27t-12 -27.5t-27.5 -11.5t-26.5 11.5t-11 27.5z" />
    <glyph glyph-name="U0C15_U0C3E.abvs" horiz-adv-x="548" 
d="M373 347q115 0 122 -84q3 -41 -16 -61.5t-47 -22.5t-44 10t-22 29t-4 32.5t7 21.5h-337q-10 0 -21 8.5t-11 28t8.5 28.5t34.5 9zM443.5 219.5q10.5 6.5 11 21.5t-9.5 23.5t-23 8.5t-23 -7t-10 -22t9.5 -22.5t22 -8t23 6zM318 146q16 -16 16 -45.5t-14.5 -48t-36.5 -30.5
q-40 -22 -86 -22t-75.5 7t-49.5 23q-39 34 -33 110h26q5 -46 111 -46t106 33q0 12 -22.5 19t-53.5 11.5t-60.5 8.5t-45.5 9q-26 10 -43.5 24t-17.5 39t15.5 41t38.5 26q44 19 90 19t90 -21t56 -60q4 -20 -11 -22q-18 -3 -26 10q-19 22 -55 32t-71.5 8.5t-61.5 -12.5t-26 -30
q0 -15 30.5 -23t60.5 -13.5t57 -8.5t51.5 -12.5t40.5 -25.5z" />
    <glyph glyph-name="U0C16_U0C3E.abvs" horiz-adv-x="651" 
d="M598 261q3 -39 -16 -59.5t-47 -23.5t-44.5 9.5t-22 29.5t-3.5 32.5t7 22.5h-195q-11 0 -22 7.5t-11 27t8.5 28.5t34.5 11h187q82 0 110 -43q11 -17 14 -42zM556 240q0 15 -9.5 23.5t-22 8.5t-23 -7.5t-10.5 -22.5t10 -22t22.5 -7.5t22.5 6t10 21.5zM368 298.5
q35 -26.5 48.5 -60.5t15 -73.5t-10.5 -75.5t-38 -62t-61 -27t-62 11t-55 44q-11 -18 -47 -37q-35 -18 -62 -18q-47 3 -71 27.5t-24 54.5q-1 30 21.5 54t69.5 21q52 -4 106 -32q22 34 20.5 67.5t-19 59.5t-48.5 39t-69 5q26 6 51 -14q26 -20 26 -48.5t-25.5 -46t-56 -17.5
t-53.5 17t-23 53t27 58.5t62 27t68 -5t55 -34.5q38 -38 40 -86t-16 -93q85 -34 129 7q17 15 24.5 42t1.5 47.5t-21 34.5q-33 32 -84 32q-14 0 -21 12.5t-10 22.5q-3 26 34 24q43 -4 78 -30.5zM240 -56q0 -17 -13 -25.5t-27.5 -8.5t-27.5 8.5t-13 25.5q0 27 44 81
q37 -50 37 -81zM83 212q9 8 9 23.5t-9 23t-20.5 8.5t-21 -7t-9.5 -23.5t9.5 -23.5t21 -8.5t20.5 7.5zM49 112q0 -20 51 -20q20 0 39.5 3.5t26.5 8.5q-7 8 -31 18q-17 11 -51.5 11t-34.5 -21z" />
    <glyph glyph-name="U0C17_U0C3E.abvs" horiz-adv-x="548" 
d="M373 347q115 0 122 -84q3 -41 -16 -61.5t-47 -22.5t-44 10t-22 29t-4 32.5t7 21.5h-337q-10 0 -21 8.5t-11 28t8.5 28.5t34.5 9zM443.5 219.5q10.5 6.5 11 21.5t-9.5 23.5t-23 8.5t-23 -7t-10 -22t9.5 -22.5t22 -8t23 6zM322 194.5q9 -34.5 9 -58.5t-0.5 -40.5
t-3.5 -32.5q-8 -41 -19.5 -52t-30 -11.5t-33.5 8.5t-21 26t9 43t21 59.5t-1.5 64t-27.5 51t-55 20.5t-55 -21t-26.5 -51.5t-1 -65t18.5 -54t14 -32.5t-5 -24q-15 -24 -45 -24q-18 0 -34.5 11.5t-24.5 36.5q-13 44 -10 90.5t22.5 84t55 62t85 24.5t80.5 -15t50.5 -40
t28.5 -59.5z" />
    <glyph glyph-name="U0C18_U0C3E.abvs" horiz-adv-x="855" 
d="M320 419q-48 -32 -97.5 -63.5t-100.5 -56.5q-10 4 -30.5 11t-40.5 18q-51 26 -51 53q0 15 12.5 27.5t28.5 10.5t28 -11t22 -21.5t18.5 -24.5t16.5 -21q31 27 62 57q37 35 95 89q20 17 37 15t26 -15q15 -20 4 -37t-30 -31zM213 -56q0 -17 -13 -25.5t-28 -8.5t-28 8.5
t-13 25.5q0 30 46 81q36 -48 36 -81zM359 274q43 -50 43 -117t-33 -109q-19 -25 -47 -36t-56.5 -9.5t-54 14.5t-38.5 35q-13 -26 -31.5 -39t-52.5 -12.5t-61.5 29t-26.5 71.5q3 47 29 70t56 21q64 -3 97 -65q12 -20 41 -28.5t60 -3t55 28t24 64t-33.5 70.5t-77.5 25
q-18 -1 -28 7t-11 16.5t6.5 16t33.5 5.5q68 -5 106 -54zM123 150.5q-13 10.5 -34 10.5t-33 -10.5t-13 -23.5t9 -23t36 -10t38.5 10t11 23t-14.5 23.5zM803 255q2 -39 -19 -62t-53 -23q-39 0 -60 32q-9 14 -8.5 31t14.5 32h-223q-15 0 -18.5 7t-3.5 25t5 23t27 5h233
q104 0 106 -70zM716 266q-18 -12 -18 -35q0 -11 10 -19.5t24 -8.5t23 8.5t8 19.5q-3 30 -47 35zM635 127.5q-1 -20.5 -12 -51.5t-44.5 -53.5t-65.5 -22.5t-55.5 10.5t-41 28t-29 37.5t-11.5 47l6 26q7 14 17 29q1 -6 1 -12l2 -14q2 -17 12.5 -30t23.5 -19q24 -11 49.5 -11
t44 7.5t32.5 18.5q33 28 33 64q0 23 -12.5 42t-34.5 30t-46 11h-41q-11 -1 -23 17q-7 10 -7 22t7.5 16.5t32.5 4.5t58 -11.5t54 -34.5t30 -44t13.5 -40.5t6 -33t0.5 -34z" />
    <glyph glyph-name="U0C19_U0C3E.abvs" horiz-adv-x="589" 
d="M413 346q114 0 124 -83q2 -41 -17.5 -61.5t-47 -22.5t-43.5 10t-21.5 29t-3.5 32.5t7 21.5h-169q-11 0 -22 8.5t-11 28t8.5 28.5t34.5 9h161zM484.5 219.5q10.5 6.5 10.5 21.5t-9.5 23.5t-22 8.5t-23 -7t-10.5 -22t10 -22.5t22 -8t22.5 6zM394 166q19 -26 20 -54.5
t-11.5 -54t-38 -41.5t-59.5 -16q-63 0 -96 51q-31 -51 -97 -51q-50 0 -81 26t-31 75q0 41 27 60q13 9 30 15.5t40.5 15t47.5 20.5t24 26q0 21 -21 29.5t-38 8.5q-65 0 -74 -46q0 -22 -18 -22t-18 37t31 59t73 22q38 0 66 -22q29 -23 33 -57h63q-16 22 -24 32.5t-8 24
t13 23.5t28.5 10t28.5 -9.5t13 -24t-8.5 -24.5t-22.5 -32h51q9 0 14 -7t5 -15t-5 -15t-14 -7h-141q-6 -13 -23.5 -20.5t-38.5 -13t-41 -11t-32.5 -14.5t-14 -20t8.5 -20q7 -8 28 -11t43.5 0.5t43 16t26.5 36.5q3 11 5.5 15.5t9 6t10.5 -5.5t8 -16q13 -30 28 -42t37 -12
t37 4.5t25 13.5q23 21 12 50z" />
    <glyph glyph-name="U0C1A_U0C3E.abvs" horiz-adv-x="652" 
d="M476 347q116 0 123 -84q3 -41 -16.5 -61.5t-47.5 -22.5t-43.5 10t-21.5 29t-4 32.5t7 21.5h-307q-10 0 -20.5 8.5t-10.5 28t8.5 28.5t34.5 9zM547.5 219.5q10.5 6.5 10.5 21.5t-10 23.5t-22.5 8.5t-22.5 -7t-10 -22t9.5 -22.5t22 -8t23 6zM237 298q111 0 162 -45
q33 -28 46.5 -71t5.5 -83.5t-37 -69.5t-81 -29q-29 0 -55 13t-40 42q-30 -55 -87 -55q-46 0 -70 24t-28 56.5t12.5 66.5t51.5 54q-12 -5 -31.5 -13.5t-37.5 -11.5q-48 -9 -48 28.5t40 37.5h126v-30q-14 -11 -29 -23t-26 -32.5t0.5 -42.5t41.5 -22t50.5 21t21.5 46
q0 15 13 15.5t15 -15.5q10 -25 30 -46t51 -21t48.5 15t21 36.5t-5 45.5t-25.5 41t-37.5 25.5t-41.5 12.5t-40 4h-28q-5 0 -8 1q-5 0 -9 16q-4 9 28 9z" />
    <glyph glyph-name="U0C1B_U0C3E.abvs" horiz-adv-x="652" 
d="M476 347q116 0 123 -84q3 -41 -16.5 -61.5t-47.5 -22.5t-43.5 10t-21.5 29t-4 32.5t7 21.5h-307q-10 0 -20.5 8.5t-10.5 28t8.5 28.5t34.5 9zM547.5 219.5q10.5 6.5 10.5 21.5t-10 23.5t-22.5 8.5t-22.5 -7t-10 -22t9.5 -22.5t22 -8t23 6zM237 298q111 0 162 -45
q33 -28 46.5 -71t5.5 -83.5t-37 -69.5t-81 -29q-29 0 -55 13t-40 42q-30 -55 -87 -55q-46 0 -70 24t-28 56.5t12.5 66.5t51.5 54q-12 -5 -31.5 -13.5t-37.5 -11.5q-48 -9 -48 28.5t40 37.5h126v-30q-14 -11 -29 -23t-26 -32.5t0.5 -42.5t41.5 -22t50.5 21t21.5 46
q0 15 13 15.5t15 -15.5q10 -25 30 -46t51 -21t48.5 15t21 36.5t-5 45.5t-25.5 41t-37.5 25.5t-41.5 12.5t-40 4h-28q-5 0 -8 1q-5 0 -9 16q-4 9 28 9zM277 -53q0 -17 -13 -25.5t-28 -8.5t-28 8.5t-13 25.5q0 27 45 80q37 -45 37 -80z" />
    <glyph glyph-name="U0C1C_U0C3E.abvs" horiz-adv-x="632" 
d="M456 347q114 0 124 -84q2 -41 -17.5 -61.5t-47.5 -22.5t-43.5 10t-21 29t-4 32.5t7.5 21.5h-190q-11 0 -21 8.5t-10 28t8.5 28.5t34.5 9zM527.5 219.5q10.5 6.5 10.5 21.5t-9.5 23.5t-22 8.5t-23 -7t-10.5 -22t10 -22.5t22 -8t22.5 6zM396 165q16 -21 18 -49t-10.5 -54
t-37 -44t-54 -18t-44.5 4.5t-25 12.5t-18 17l-16 18q-14 -22 -37 -37t-71 -15t-74.5 26t-26.5 75q0 51 40 73q18 9 40.5 15.5t47.5 15t34.5 21.5t5.5 23.5t-19.5 18.5t-38 8t-45.5 -10.5t-27 -35.5q-6 -21 -20 -21q-18 0 -18 36t31 58.5t73 22.5t64 -16t41 -46
q28 -41 81 -50q22 -3 38 2t19 17.5t-8 25.5t-34.5 13t-32.5 1t-12 12t8 14t27 0q47 -4 70.5 -25.5t24.5 -45t-17 -43t-51 -19.5q-78 -2 -123 63q-5 -26 -28.5 -36t-50 -16.5t-48 -15.5t-21.5 -30.5t17.5 -30t42 -8.5t52 14t34 40.5t18 23t14.5 -22.5q4 -29 28.5 -42t44 -13
t33 4.5t23.5 13.5q22 21 10 51z" />
    <glyph glyph-name="U0C1D_U0C3E.abvs" horiz-adv-x="1022" 
d="M846 347q114 0 124 -84q2 -41 -17.5 -61.5t-47.5 -22.5t-43.5 10t-21 29t-4 32.5t7.5 21.5h-238q-11 0 -22 8.5t-11 28t8.5 28.5t34.5 9zM917.5 219.5q10.5 6.5 10.5 21.5t-9.5 23.5t-22 8.5t-23 -7t-10.5 -22t10 -22.5t22 -8t22.5 6zM612 -47q0 -17 -13 -25.5t-28 -8.5
t-28 8.5t-13 25.5q0 27 46 81q36 -48 36 -81zM369 420q-110 -77 -196 -121q-11 4 -31 11t-40 18q-53 28 -53 54q0 16 13 28t29 10.5t28 -11t22 -21.5t18.5 -25t15.5 -22q32 28 64 59q60 58 87 82q42 38 70 7q16 -21 4.5 -38t-31.5 -31zM612 287q0 24 35 24t66.5 -14
t54.5 -38q47 -51 47 -124q0 -54 -30.5 -94.5t-91.5 -40.5q-43 0 -72.5 23.5t-47.5 59.5q-10 -36 -42 -59.5t-68 -23.5q-56 0 -92.5 38.5t-36.5 92.5v20q4 20 14 40q2 -8 4.5 -24t12 -33t30 -29.5t54 -12.5t57 18.5t32.5 45t1.5 55t-42 53.5t-74.5 25t-40 14q0 25 38 25
q69 0 118 -51q28 -29 34.5 -61.5t13.5 -59.5t26 -45.5t70 -18.5t72.5 28t15 62t-39 62t-86.5 28q-33 0 -33 15zM351 165q0 -78 -47 -121.5t-125 -43.5q-74 0 -125 42q-54 44 -54 115.5t51 120.5q52 48 120.5 48t124 -48t55.5 -113zM172 92q71 0 106 41q13 16 17 42
q3 26 -6.5 51.5t-31.5 43.5q-37 28 -83.5 28t-83.5 -29q-39 -24 -39 -83q0 -51 43 -76q33 -18 78 -18z" />
    <glyph glyph-name="U0C1E_U0C3E.abvs" horiz-adv-x="756" 
d="M581 346q115 0 122 -83q3 -41 -16 -61.5t-47 -22.5t-44 10t-22 29t-4 32.5t7 21.5h-148q-12 0 -22.5 8.5t-10.5 28t8.5 28.5t34.5 9h142zM651.5 219.5q10.5 6.5 11 21.5t-9.5 23.5t-23 8.5t-23 -7t-10 -22t9.5 -22.5t22 -8t23 6zM395 187q-2 -25 -12.5 -47t-31.5 -52
q47 -61 47 -83q0 -12 -8 -18.5t-18 -6.5q-27 -2 -34 28l-12 56q-80 -64 -174 -64q-43 0 -72 19.5t-41 46t-3 54t44.5 44.5t89.5 17q74 0 141 -51q26 19 38 60q11 39 -11 57.5t-50 17t-51 -14.5q-30 -16 -30 -36q0 -14 -12.5 -14t-12.5 16q0 24 -24 36t-52 12t-52 -12
t-24 -32q0 -11 -6 -14q-18 -8 -22 13q-4 20 0 37q10 41 42 62q24 16 53.5 17.5t52 -13t48.5 -43.5q11 30 41 46t62 12t58.5 -28t33.5 -74h70q-34 48 -34 67q0 36 45 36q38 0 38 -35q0 -20 -31 -68h34q10 0 12.5 -5.5t2.5 -18t-1 -18.5t-14 -6h-120zM282 113q-49 43 -117 43
h-22q-33 0 -51 -14q-10 -8 -9 -22q3 -19 25 -22.5t47 -3.5q37 -2 75.5 6t51.5 13z" />
    <glyph glyph-name="U0C1F_U0C3E.abvs" horiz-adv-x="671" 
d="M495 347q113 0 124 -84q2 -41 -17.5 -61.5t-47.5 -22.5t-43.5 10t-21 29t-4 32.5t7.5 21.5h-210q-10 0 -20.5 8.5t-10.5 28t8.5 28.5t34.5 9zM566.5 219.5q10.5 6.5 10.5 21.5t-9.5 23.5t-22 8.5t-23 -7t-10.5 -22t10 -22.5t22 -8t22.5 6zM269 295q0 14 37 14t70 -19.5
t54 -50.5t28 -70t-3 -76.5t-39.5 -65t-78.5 -27.5q-34 0 -60.5 18t-37.5 38q-15 -22 -39.5 -39t-62.5 -17t-68 19.5t-47 51.5q-32 74 -12 149q23 90 116 109q-8 15 -17.5 42t-12 40.5t11 22t30.5 8.5t30 -10t9 -26q-7 -30 -12.5 -43t-11.5 -34q40 -2 56 -20
q17 -15 20.5 -35.5t-4 -38.5t-23 -32.5t-36.5 -17.5q-23 -6 -46 4t-33 35q-13 28 3 58q-20 -21 -29 -52.5t-4 -62.5t24 -53t53.5 -22t58 23.5t34.5 57.5h16q10 -34 29 -57.5t55.5 -23.5t58.5 14t29 34.5t0.5 44t-21 43.5t-38 32.5t-48.5 11t-32 5t-7 18.5zM121.5 289.5
q-11.5 -8.5 -11.5 -30t13 -32t28 -7.5q28 4 28 39q0 17 -9.5 28t-23 11t-25 -8.5z" />
    <glyph glyph-name="U0C20_U0C3E.abvs" horiz-adv-x="544" 
d="M369 347q115 0 122 -84q3 -41 -16 -61.5t-47 -22.5t-44 10t-22 29t-4 32.5t7 21.5h-333q-11 0 -21.5 7.5t-10.5 27t8.5 29.5t34.5 10zM439.5 219.5q10.5 6.5 11 21.5t-9 23.5t-22.5 8.5t-23.5 -7t-10.5 -22t9.5 -22.5t22 -8t23 6zM147 221q9 10 26.5 10t26 -10t8.5 -23
t-8.5 -23.5t-26 -10.5t-26.5 10.5t-9 23.5t9 23zM90 278q35 22 83.5 22t85 -22t57.5 -55t25.5 -72t-12 -72.5t-53.5 -56t-98.5 -22.5t-100 22t-55 56t-13 72t24.5 72t56 56zM116 107.5q28 -13.5 64 -13.5t62.5 14.5t38 37t6.5 48.5t-26 44q-38 34 -88.5 34t-78.5 -28
q-28 -26 -31 -52.5t11 -48.5t42 -35.5z" />
    <glyph glyph-name="U0C21_U0C3E.abvs" horiz-adv-x="606" 
d="M432 347q115 0 122 -84q2 -41 -16.5 -61.5t-46.5 -22.5t-43.5 10t-21.5 29t-4 32.5t7 21.5h-394q-12 0 -22 8.5t-10 28t8 28.5t34 9zM503 219.5q10 6.5 10 21.5t-9.5 23.5t-22 8.5t-23 -7t-10.5 -22t10 -22.5t22.5 -8t22.5 6zM403 203.5q23 -31.5 23 -81t-33.5 -86
t-88.5 -36.5q-30 0 -54 10.5t-45 44.5q-10 -30 -37.5 -42.5t-50.5 -12.5q-57 0 -87 28t-30 74.5t17.5 82.5t46.5 61q62 54 145 54q48 0 82.5 1t56.5 -16q6 -4 9.5 -8t1.5 -12q-3 -13 -20 -9q-48 16 -94 16h-40q-62 0 -113 -47q-19 -18 -31 -40.5t-10.5 -42t18.5 -33.5
t52 -17q21 -2 41.5 16t28.5 52q4 17 14 17q8 0 12 -16q7 -34 31.5 -51.5t59.5 -17.5t53.5 13t25.5 29q-13 -16 -35 -22.5t-43.5 -2.5t-37.5 18.5t-16 36t7 33.5t18 20q23 17 50 17q50 1 73 -30.5zM317.5 152q8.5 -9 25 -8.5t24 10.5t7 21.5t-10 20.5t-25.5 8t-23.5 -11
t-6.5 -21t9.5 -20z" />
    <glyph glyph-name="U0C22_U0C3E.abvs" horiz-adv-x="606" 
d="M432 347q115 0 122 -84q2 -41 -16.5 -61.5t-46.5 -22.5t-43.5 10t-21.5 29t-4 32.5t7 21.5h-394q-12 0 -22 8.5t-10 28t8 28.5t34 9zM503 219.5q10 6.5 10 21.5t-9.5 23.5t-22 8.5t-23 -7t-10.5 -22t10 -22.5t22.5 -8t22.5 6zM403 203.5q23 -31.5 23 -81t-33.5 -86
t-88.5 -36.5q-30 0 -54 10.5t-45 44.5q-10 -30 -37.5 -42.5t-50.5 -12.5q-57 0 -87 28t-30 74.5t17.5 82.5t46.5 61q62 54 145 54q48 0 82.5 1t56.5 -16q6 -4 9.5 -8t1.5 -12q-3 -13 -20 -9q-48 16 -94 16h-40q-62 0 -113 -47q-19 -18 -31 -40.5t-10.5 -42t18.5 -33.5
t52 -17q21 -2 41.5 16t28.5 52q4 17 14 17q8 0 12 -16q7 -34 31.5 -51.5t59.5 -17.5t53.5 13t25.5 29q-13 -16 -35 -22.5t-43.5 -2.5t-37.5 18.5t-16 36t7 33.5t18 20q23 17 50 17q50 1 73 -30.5zM317.5 152q8.5 -9 25 -8.5t24 10.5t7 21.5t-10 20.5t-25.5 8t-23.5 -11
t-6.5 -21t9.5 -20zM244 -52q0 -17 -13 -25.5t-28 -8.5t-28 8.5t-13 25.5q0 29 45 81q37 -49 37 -81z" />
    <glyph glyph-name="U0C23_U0C3E.abvs" horiz-adv-x="656" 
d="M603 263q3 -41 -16 -61.5t-47 -22.5t-44 10t-22 29t-4 32.5t7 21.5h-208q-12 0 -22 8.5t-10 28t8 28.5t34 9l202 1q79 0 109 -43q11 -17 13 -41zM551.5 219.5q10.5 6.5 10.5 21.5t-10 23.5t-22.5 8.5t-22.5 -7t-10 -22t9.5 -22.5t22 -8t23 6zM43 160q-43 10 -43 62
q2 49 42 78q40 28 88 20q62 -7 88 -51q13 26 42 39t62 13q64 0 101.5 -46t37.5 -113q0 -48 -20 -84q-42 -78 -113 -78q-61 0 -88 40q-11 18 -13 39t6.5 42t28 34t41 13.5t40 -10.5t25 -30t5.5 -35t-9 -31q-16 -31 -47 -35q48 0 78 39q26 32 26 78t-29 74.5t-76.5 28.5
t-72.5 -22q-8 -10 -12 -21.5t-6.5 -15t-9.5 -3.5t-9.5 3.5t-3.5 9.5q-5 18 -15 27q-22 18 -77 18q-27 0 -44 -9t-22.5 -21t1.5 -23.5t21.5 -14t28.5 -2t34 -0.5q19 -3 19 -16.5t-19 -13.5h-47q-24 -3 -33 -14t-5 -22q9 -33 54 -35q19 -1 38 4t36.5 16t26.5 5.5t9 -16.5
q-3 -38 -36 -59.5t-69.5 -21.5t-69.5 22.5t-33 64.5q0 52 43 73zM307.5 53.5q8.5 10.5 8 28.5t-10.5 26.5t-20.5 8.5t-19.5 -9t-8.5 -28t10.5 -28t21 -9t19.5 10.5z" />
    <glyph glyph-name="U0C24_U0C3E.abvs" horiz-adv-x="614" 
d="M438 347q114 0 124 -84q2 -41 -17.5 -61.5t-46.5 -22.5t-43.5 10t-22.5 29t-4 32.5t7 21.5h-267q-11 0 -21.5 7.5t-10.5 28t8.5 29.5t34.5 9zM509.5 219.5q10.5 6.5 10.5 21.5t-10 23.5t-22 8.5t-22.5 -7t-10.5 -22t9.5 -22.5t22 -8t23 6zM369 234q41 -27 43 -83
q2 -59 -46 -102q-54 -49 -159 -49q-142 0 -189 78q-18 29 -18 62t8.5 53t23.5 35q35 35 80 35q30 0 56.5 -15t29.5 -49q1 -34 -26.5 -51.5t-58.5 -13.5t-46 28t-5 58q-26 -33 -13 -65t48 -47q25 -11 53.5 -12.5t58.5 -1.5t63 1.5t58 16.5q35 19 40 75q-3 -21 -21 -41.5
t-48.5 -22t-48.5 20.5q-12 16 -11 35t11.5 34.5t30 25t45.5 7.5q-35 33 -124 26q-17 -2 -22 1q-4 1 -6.5 7.5t-0.5 13.5q5 17 34 17.5t54.5 0t42 -5t27 -12t18.5 -18.5q18 -23 18 -42zM290 198q-5 -11 2 -22.5t19.5 -13t22.5 5t15 18.5t-5 25q-7 11 -18 11t-21 -6.5
t-15 -17.5zM139 196q0 16 -8.5 26.5t-22.5 8.5q-9 0 -17 -8.5t-5 -28.5q1 -16 9.5 -24.5t18.5 -7.5q25 3 25 34z" />
    <glyph glyph-name="U0C25_U0C3E.abvs" horiz-adv-x="606" 
d="M432 347q115 0 122 -84q2 -41 -16.5 -61.5t-46.5 -22.5t-43.5 10t-21.5 29t-4 32.5t7 21.5h-394q-12 0 -22 8.5t-10 28t8 28.5t34 9zM503 219.5q10 6.5 10 21.5t-9.5 23.5t-22 8.5t-23 -7t-10.5 -22t10 -22.5t22.5 -8t22.5 6zM250 -52q0 -16 -13 -24.5t-28 -8.5t-28 8
t-13 25q0 26 45 82q37 -48 37 -82zM241.5 238.5q11.5 -9.5 11.5 -24t-11.5 -23.5t-26 -9t-24 9t-9.5 23.5t9.5 24t24 9.5t26 -9.5zM213 56q-30 -56 -90.5 -56t-91.5 36.5t-31 87t17 84.5t46 56q58 44 150 44q34 0 72.5 -13.5t71 -37.5t54 -56.5t21.5 -63t-8.5 -54
t-23.5 -42.5q-32 -41 -84 -41q-72 0 -103 56zM312 94q32 0 50 26q27 37 1 82q-23 40 -81 60q-30 10 -68.5 10t-67.5 -10t-49 -25q-40 -30 -44 -71q-2 -26 15.5 -49t50 -23t57.5 12t29 50h20q9 -29 27 -46.5t60 -15.5z" />
    <glyph glyph-name="U0C26_U0C3E.abvs" horiz-adv-x="606" 
d="M432 347q115 0 122 -84q2 -41 -16.5 -61.5t-46.5 -22.5t-43.5 10t-21.5 29t-4 32.5t7 21.5h-394q-12 0 -22 8.5t-10 28t8 28.5t34 9zM503 219.5q10 6.5 10 21.5t-9.5 23.5t-22 8.5t-23 -7t-10.5 -22t10 -22.5t22.5 -8t22.5 6zM213 56q-30 -56 -90.5 -56t-91.5 36.5
t-31 87t17 84.5t46 56q58 44 150 44q34 0 72.5 -13.5t71 -37.5t54 -56.5t21.5 -63t-8.5 -54t-23.5 -42.5q-32 -41 -84 -41q-72 0 -103 56zM312 94q32 0 50 26q27 37 1 82q-23 40 -81 60q-30 10 -68.5 10t-67.5 -10t-49 -25q-40 -30 -44 -71q-2 -26 15.5 -49t50 -23t57.5 12
t29 50h20q9 -29 27 -46.5t60 -15.5z" />
    <glyph glyph-name="U0C27_U0C3E.abvs" horiz-adv-x="606" 
d="M432 347q115 0 122 -84q2 -41 -16.5 -61.5t-46.5 -22.5t-43.5 10t-21.5 29t-4 32.5t7 21.5h-394q-12 0 -22 8.5t-10 28t8 28.5t34 9zM503 219.5q10 6.5 10 21.5t-9.5 23.5t-22 8.5t-23 -7t-10.5 -22t10 -22.5t22.5 -8t22.5 6zM250 -52q0 -16 -13 -24.5t-28 -8.5t-28 8
t-13 25q0 26 45 82q37 -48 37 -82zM213 56q-30 -56 -90.5 -56t-91.5 36.5t-31 87t17 84.5t46 56q58 44 150 44q34 0 72.5 -13.5t71 -37.5t54 -56.5t21.5 -63t-8.5 -54t-23.5 -42.5q-32 -41 -84 -41q-72 0 -103 56zM312 94q32 0 50 26q27 37 1 82q-23 40 -81 60
q-30 10 -68.5 10t-67.5 -10t-49 -25q-40 -30 -44 -71q-2 -26 15.5 -49t50 -23t57.5 12t29 50h20q9 -29 27 -46.5t60 -15.5z" />
    <glyph glyph-name="U0C28_U0C3E.abvs" horiz-adv-x="578" 
d="M525 263q3 -41 -16 -61.5t-47 -22.5t-44 10t-22 29t-4 32.5t7 21.5h-286q-12 0 -22 8.5t-10 28t8 28.5t34 9l280 1q79 0 109 -43q11 -17 13 -41zM473.5 219.5q10.5 6.5 10.5 21.5t-10 23.5t-22.5 8.5t-22.5 -7t-10 -22t9.5 -22.5t22 -8t23 6zM183 300q11 0 25 -1t27 -3
t23.5 -5.5t20.5 -8.5t21 -10q48 -24 67 -69.5t14 -90t-32.5 -78.5t-66 -34t-59 14.5t-35.5 33.5q-9 13 -21 36t-28 42.5t-34 30.5t-37 1t-19.5 -32.5t25.5 -44.5q17 -15 33 -26.5t10 -32.5q-7 -18 -25.5 -20.5t-39 7.5t-36.5 33t-16 57.5t15.5 55t42 29t58.5 -3t56 -34.5
q29 -32 50.5 -43t45.5 -9q37 1 53 22.5t12 48.5t-25 55q-30 37 -84 47q-15 3 -32 3t-31 2q-26 0 -36.5 4.5t-7.5 9t11 8.5q14 8 31 8q13 -2 24 -2z" />
    <glyph glyph-name="U0C2A_U0C3E.abvs" horiz-adv-x="645" 
d="M471 346q115 0 122 -83q2 -41 -16.5 -61.5t-46.5 -22.5t-43.5 10t-21.5 29t-4 32.5t7 21.5h-385q-10 0 -21 8.5t-11 28t8.5 28.5t34.5 9h377zM542 219.5q10 6.5 10 21.5t-9.5 23.5t-22 8.5t-23 -7t-10.5 -22t10 -22.5t22.5 -8t22.5 6zM140 455q0 23 47 23t88.5 -20.5
t73 -54t51.5 -77t26 -83t2 -81t-19.5 -77.5t-44.5 -60.5t-73 -24.5q-26 0 -58.5 11t-49.5 38q-14 -22 -40 -35.5t-49 -13.5q-41 0 -67.5 28t-26.5 67t26.5 67t63.5 28t63 -22q15 -12 24 -25t19 -24q20 -24 64 -27q52 -1 82 23.5t39 63t-1 83.5t-35 83t-64 64t-90 26
q-6 0 -15.5 -1t-17.5 0q-18 1 -18 21zM148 125q-8 10 -22 22.5t-35 13t-32.5 -9t-11.5 -24.5q-2 -19 13 -25.5t28 -6.5t32 7t28 23z" />
    <glyph glyph-name="U0C2B_U0C3E.abvs" horiz-adv-x="645" 
d="M221 -52q0 -16 -13 -24.5t-28 -8.5t-28 8t-13 25q0 29 44 82q38 -50 38 -82zM471 346q115 0 122 -83q2 -41 -16.5 -61.5t-46.5 -22.5t-43.5 10t-21.5 29t-4 32.5t7 21.5h-385q-10 0 -21 8.5t-11 28t8.5 28.5t34.5 9h377zM542 219.5q10 6.5 10 21.5t-9.5 23.5t-22 8.5
t-23 -7t-10.5 -22t10 -22.5t22.5 -8t22.5 6zM140 455q0 23 47 23t88.5 -20.5t73 -54t51.5 -77t26 -83t2 -81t-19.5 -77.5t-44.5 -60.5t-73 -24.5q-26 0 -58.5 11t-49.5 38q-14 -22 -40 -35.5t-49 -13.5q-41 0 -67.5 28t-26.5 67t26.5 67t63.5 28t63 -22q15 -12 24 -25
t19 -24q20 -24 64 -27q52 -1 82 23.5t39 63t-1 83.5t-35 83t-64 64t-90 26q-6 0 -15.5 -1t-17.5 0q-18 1 -18 21zM148 125q-8 10 -22 22.5t-35 13t-32.5 -9t-11.5 -24.5q-2 -19 13 -25.5t28 -6.5t32 7t28 23z" />
    <glyph glyph-name="U0C2C_U0C3E.abvs" horiz-adv-x="626" 
d="M573 263q3 -41 -16 -61.5t-47 -22.5t-43.5 10t-21.5 29t-4 32.5t7 21.5h-189q-11 0 -22 8.5t-11 28t8.5 28.5t34.5 9l182 1q82 0 110 -43q11 -17 12 -41zM522.5 219.5q10.5 6.5 10.5 21.5t-10 23.5t-22 8.5t-22.5 -7t-10.5 -22t9.5 -22.5t22 -8t23 6zM307 0q-77 0 -99 55
q-14 -24 -43 -39.5t-55 -15.5q-44 0 -77 26t-33 71q0 51 40 75q18 10 40.5 16.5t44.5 12.5q27 10 37 23t5 25t-21 20.5t-39.5 8.5t-48 -13.5t-24.5 -40.5q0 -7 -5.5 -12t-12.5 -4q-16 3 -16 36q0 45 32.5 65t73.5 20t68 -25q21 -17 26 -45t-10.5 -47.5t-39.5 -28.5
t-47.5 -16t-40.5 -15t-15 -22q1 -22 22.5 -30t35.5 -8q33 0 59.5 19t31.5 49q3 14 14.5 13t14.5 -12q6 -30 25 -49.5t51 -19.5t52 19t26.5 45.5t-1.5 53.5q-14 43 -67 56q-22 6 -35 6t-26 2t-10 24q3 7 9.5 12.5t28.5 1.5q90 -20 124 -78q37 -62 18 -132q-18 -65 -66 -90
q-21 -12 -47 -12z" />
    <glyph glyph-name="U0C2D_U0C3E.abvs" horiz-adv-x="626" 
d="M573 263q3 -41 -16 -61.5t-47 -22.5t-43.5 10t-21.5 29t-4 32.5t7 21.5h-189q-11 0 -22 8.5t-11 28t8.5 28.5t34.5 9l182 1q82 0 110 -43q11 -17 12 -41zM522.5 219.5q10.5 6.5 10.5 21.5t-10 23.5t-22 8.5t-22.5 -7t-10.5 -22t9.5 -22.5t22 -8t23 6zM307 0q-77 0 -99 55
q-14 -24 -43 -39.5t-55 -15.5q-44 0 -77 26t-33 71q0 51 40 75q18 10 40.5 16.5t44.5 12.5q27 10 37 23t5 25t-21 20.5t-39.5 8.5t-48 -13.5t-24.5 -40.5q0 -7 -5.5 -12t-12.5 -4q-16 3 -16 36q0 45 32.5 65t73.5 20t68 -25q21 -17 26 -45t-10.5 -47.5t-39.5 -28.5
t-47.5 -16t-40.5 -15t-15 -22q1 -22 22.5 -30t35.5 -8q33 0 59.5 19t31.5 49q3 14 14.5 13t14.5 -12q6 -30 25 -49.5t51 -19.5t51.5 19t26 45t-2.5 54q-13 40 -66 56q-21 6 -34 6t-26 2t-10 24q3 7 9.5 12.5t28.5 1.5q40 -9 73.5 -30t51 -50t21.5 -63q10 -71 -34 -127
q-31 -42 -83 -42zM240 -52q0 -16 -13 -24.5t-27.5 -8.5t-27.5 8t-13 25q0 29 44 82q37 -50 37 -82z" />
    <glyph glyph-name="U0C2E_U0C3E.abvs" horiz-adv-x="855" 
d="M378 452q-11 -17 -42 -38q-161 -107 -184 -110q-14 -2 -25 3.5l-21 10.5q-25 14 -32 17q-18 11 -32.5 22.5t-14.5 26.5t12.5 28t28.5 10.5t28 -11.5t21.5 -21t18 -25t16.5 -22q22 21 41 38.5t37 34.5q24 24 81 74q18 18 35.5 15.5t26.5 -15.5q16 -21 5 -38zM402 153
q0 -63 -34 -105t-99 -48q-49 0 -79 24q-13 11 -18 28q-5 -27 -35 -42q-20 -10 -49 -10q-41 3 -64.5 30.5t-23.5 68.5t24.5 64t61.5 23q74 0 92 -59q7 -19 31 -26t46 -7t42 5.5t35 17.5q33 26 29 68q-4 52 -68 87q-61 32 -146 32q-12 0 -12 3.5t3 9.5q2 7 24 7q134 0 189 -44
q51 -40 51 -127zM52 102.5q12 -10.5 38.5 -10.5t38 10.5t10.5 23t-15 23t-36 10.5t-34 -10.5t-13 -23t11 -23zM803 255q2 -39 -19 -62t-53 -23q-39 0 -60 32q-9 14 -8.5 31t14.5 32h-223q-15 0 -18.5 7t-3.5 25t5 23t27 5h233q104 0 106 -70zM716 266q-18 -12 -18 -35
q0 -11 10 -19.5t24 -8.5t23 8.5t8 19.5q-3 30 -47 35zM635 127.5q-1 -20.5 -12 -51.5t-44.5 -53.5t-65.5 -22.5t-55.5 10.5t-41 28t-29 37.5t-11.5 47l6 26q7 14 17 29q1 -6 1 -12l2 -14q2 -17 12.5 -30t23.5 -19q24 -11 49.5 -11t44 7.5t32.5 18.5q33 28 33 64
q0 23 -12.5 42t-34.5 30t-46 11h-41q-11 -1 -23 17q-7 10 -7 22t7.5 16.5t32.5 4.5t58 -11.5t54 -34.5t30 -44t13.5 -40.5t6 -33t0.5 -34z" />
    <glyph glyph-name="U0C2F_U0C3E.abvs" horiz-adv-x="1035" 
d="M615 447q-12 -17 -43 -39q-65 -45 -163 -101q-14 -8 -27 -8t-25.5 5t-24 13t-23.5 14q-18 11 -31.5 22.5t-13.5 26t13 27.5t28.5 10.5t28 -12t22 -21t18 -24.5t16.5 -22q22 21 41 38.5t37 34.5q24 24 81 74q18 18 35 15.5t27 -15.5q16 -21 4 -38zM581 159
q0 -158 -130 -158q-43 0 -77.5 18.5t-47.5 68.5q-23 -37 -64.5 -62.5t-82.5 -25.5t-73 11.5t-56 32.5q-50 47 -50 121t48 121q49 47 122 47t115.5 -47t49.5 -113q11 -33 39.5 -56t66 -23t67.5 27t30 71.5t-33.5 70.5t-75.5 33q-17 3 -27 2q-37 -1 -43 13q-2 5 3.5 10t10.5 7
h22q83 0 134.5 -44t51.5 -125zM287 186q4 46 -39 79q-37 29 -84 29q-48 -4 -80 -34q-29 -28 -29 -70q0 -45 39 -72q35 -24 70 -24q45 0 80 19q43 23 43 73zM984 255q1 -39 -19.5 -62t-53.5 -23q-38 0 -59 32q-10 14 -9 31t15 32h-224q-14 0 -18 7t-4 25t5.5 23t27.5 5h232
q104 0 107 -70zM897 266q-18 -12 -18 -35q0 -11 9.5 -19.5t24 -8.5t23.5 8.5t8 19.5q-3 30 -47 35zM815.5 127.5q-0.5 -20.5 -11.5 -51.5t-45 -53.5t-65.5 -22.5t-55 10.5t-41 28t-29.5 37.5t-12 47l7 26q4 12 17 29q1 -6 1 -12l1 -14q3 -17 13.5 -30t23.5 -19
q24 -11 49.5 -11t44 7.5t32.5 18.5q32 27 32 64q0 23 -12 42t-34.5 30t-45.5 11h-42q-7 -1 -13 5.5t-10 11.5q-6 8 -6 21t7.5 17.5t32.5 4.5t58 -11.5t53.5 -34.5t30 -44t14 -40.5t5.5 -33t0.5 -34z" />
    <glyph glyph-name="U0C30_U0C3E.abvs" horiz-adv-x="548" 
d="M495 263q3 -41 -16 -61.5t-47 -22.5t-43.5 10t-21.5 29t-4 32.5t7 21.5h-338q-10 0 -21 8.5t-11 28t8.5 28.5t34.5 9l330 1q82 0 110 -43q11 -17 12 -41zM444.5 219.5q10.5 6.5 10.5 21.5t-10 23.5t-22 8.5t-22.5 -7t-10.5 -22t9.5 -22.5t22 -8t23 6zM351 148
q0 -78 -47.5 -113t-125.5 -35q-122 0 -164 78q-14 27 -14 64t13.5 66.5t36.5 49.5q52 44 122 44q68 0 122 -43q57 -44 57 -111zM296 177q0 47 -40 73q-34 22 -84 22q-46 0 -82 -24q-17 -11 -29 -29.5t-13 -41t10 -39t28 -26.5q35 -18 84.5 -18t86.5 16.5t39 66.5z" />
    <glyph glyph-name="U0C31_U0C3E.abvs" horiz-adv-x="695" 
d="M642 263q3 -41 -16 -61.5t-47 -22.5t-44 10t-22 29t-4 32.5t7 21.5h-218q-11 0 -22 8.5t-11 28t8.5 28.5t34.5 9l212 1q79 0 108 -43q12 -17 14 -41zM590.5 219.5q10.5 6.5 10.5 21.5t-10 23.5t-22.5 8.5t-22.5 -7t-10 -22t9.5 -22.5t22 -8t23 6zM238 48
q-40 -48 -100 -48q-65 0 -104 53q-34 47 -34 115q0 62 37 106q41 50 99 50q36 0 66.5 -17t30.5 -57q0 -24 -14 -40t-34 -24t-42 -6.5t-39 11.5t-24 30.5t2 51.5q-46 -26 -46 -81q0 -43 30.5 -70t73.5 -28q22 0 41 1.5t30 10t15.5 18t12 8t11 -10t14.5 -14.5q14 -11 35 -13
t30.5 -1t23.5 1t34 6.5t35 19.5q36 30 36 67t-18 59.5t-43 22.5t-39 -13t-14 -36q0 -31 52 -53q15 -6 15 -15.5t-6 -11t-12 -1.5l-280 -1q-6 -2 -13.5 3t-7.5 11q0 14 21 14h215q-59 32 -59 74t30.5 63t67.5 21q57 0 92 -44.5t35 -101.5q0 -73 -41 -124q-44 -54 -110 -54
t-105 48zM160 225.5q9 12.5 9 28.5t-10 26t-22 10t-22 -10t-10 -29.5t9 -28.5t23 -9t23 12.5z" />
    <glyph glyph-name="U0C32_U0C3E.abvs" horiz-adv-x="636" 
d="M461 347q113 0 123 -84q2 -41 -16.5 -61.5t-46.5 -22.5t-44.5 10t-22.5 29t-4 32.5t8 21.5h-180q-10 0 -21 7t-11 28t8.5 30t34.5 9zM531.5 219.5q10.5 6.5 10.5 21.5t-9.5 23.5t-22 8.5t-23 -7t-10.5 -22t10 -22.5t22 -8t22.5 6zM295 298q56 0 88 -28t39.5 -68
t-7.5 -82.5t-52 -72.5q-59 -47 -148.5 -47t-152 50.5t-62.5 140.5q0 57 36 98q20 20 50.5 30.5t59.5 7.5t50.5 -19.5t21.5 -47.5t-23 -52.5t-55 -21.5q-38 0 -60 28q-23 30 -7 65q-34 -31 -34 -68q3 -54 45 -84t116 -30t119 16.5t56.5 42.5t4.5 51.5t-29.5 44t-56.5 20
t-33 20.5q0 7 8.5 6.5t25.5 -0.5zM149 230.5q10 8.5 10 27t-9.5 30t-21.5 11.5t-21.5 -10t-9.5 -30t10 -28.5t21 -8.5t21 8.5z" />
    <glyph glyph-name="U0C33_U0C3E.abvs" horiz-adv-x="587" 
d="M534 263q3 -41 -16 -61.5t-47 -22.5t-43.5 10t-21.5 29t-4 32.5t7 21.5h-159q-24 0 -24 33q0 24 4 33t30 9h152q82 0 110 -43q11 -17 12 -41zM483.5 219.5q10.5 6.5 10.5 21.5t-10 23.5t-22 8.5t-22.5 -7t-10.5 -22t9.5 -22.5t22 -8t23 6zM372 204q1 -31 -25 -56t-71 -27
q17 -15 15 -49q-2 -33 -19 -48.5t-36.5 -19.5t-46.5 -4t-43 12.5t-22.5 28.5t-4.5 31t7 22q-86 20 -115 72q-11 20 -11 53.5t23.5 61.5t53.5 39q62 21 109 -7q26 -15 32 -37.5t-4 -38.5q-24 -36 -75 -36q-16 0 -29 8.5t-20 22.5q-14 30 9 66q-11 -3 -20 -14.5t-11 -27.5
q-11 -40 19 -70q35 -37 103 -37q34 0 59 7.5t34 12.5q50 32 33 64q-16 33 -70 39q-8 1 -5.5 7.5t-0.5 7.5q0 3 3.5 1.5t36.5 -3.5t61.5 -17t30.5 -64zM166 263q0 32 -27 32q-10 0 -18.5 -8.5t-8.5 -24.5t9 -22.5t19 -6.5q11 -2 18.5 8t7.5 22zM220.5 46.5q8.5 10.5 5.5 22.5
q-5 25 -39 25q-14 0 -25 -8t-10.5 -23t14 -23.5t30 -6t25 13z" />
    <glyph glyph-name="U0C35_U0C3E.abvs" horiz-adv-x="597" 
d="M422 347q112 0 123 -84q2 -41 -16.5 -61.5t-46.5 -22.5t-44.5 10t-22.5 29t-4 32.5t8 21.5h-297q-14 0 -23 11.5t-9 25t9.5 25.5t33.5 12zM492.5 219.5q10.5 6.5 10.5 21.5t-9.5 23.5t-22 8.5t-23 -7t-10.5 -22t10 -22.5t22 -8t22.5 6zM402 134q-4 -122 -133 -134
q-49 0 -79 24q-13 11 -18 28q-5 -27 -35 -42q-20 -10 -49 -10q-41 3 -64.5 30.5t-23.5 68.5t24.5 64t66.5 23t66 -25q15 -14 19.5 -26t11 -21t20.5 -14.5t48 -5.5q42 -2 73 15.5t32.5 56.5t-37.5 63q-68 43 -177 43q-11 0 -11.5 3t2 9.5t24.5 6.5q101 0 150 -17.5t69.5 -57
t20.5 -82.5zM52 102.5q12 -10.5 38.5 -10.5t38 10.5t10.5 23t-15 23t-36 10.5t-34 -10.5t-13 -23t11 -23z" />
    <glyph glyph-name="U0C36_U0C3E.abvs" horiz-adv-x="500" 
d="M447 263q3 -41 -16 -61.5t-47 -22.5t-44 10t-22 29t-4 32.5t7 21.5h-238q-14 0 -23 11.5t-9 25t9.5 25.5t33.5 12l231 1q79 0 109 -43q11 -17 13 -41zM395.5 219.5q10.5 6.5 10.5 21.5t-10 23.5t-22.5 8.5t-22.5 -7t-10 -22t9.5 -22.5t22 -8t23 6zM244 298
q26 -11 38 -28.5t10 -36.5t-16.5 -35t-41.5 -24q27 -22 37.5 -48.5t4.5 -54.5t-34 -49.5t-80.5 -21.5t-74.5 26.5t-15.5 60t34.5 60.5t69 34q-11 11 -32 20.5t-39 9.5q-26 -2 -32.5 -22.5t-0.5 -41.5q3 -11 -7.5 -20t-24 -11t-26 8t-12.5 33.5t9 38.5t24 25q35 23 69 19
q35 -2 55.5 -12t31 -17.5t23.5 -16.5q25 13 31.5 26.5t1.5 24.5q-9 22 -51 27h-70q-17 0 -17 14q0 12 17 10q23 3 57 7.5t62 -5.5zM218 89.5q15 7.5 16 26t-11 29t-28.5 11.5t-31 -6.5t-16 -26.5t11.5 -28t28.5 -11t30.5 5.5z" />
    <glyph glyph-name="U0C37_U0C3E.abvs" horiz-adv-x="636" 
d="M461 347q113 0 123 -84q2 -41 -16.5 -61.5t-46.5 -22.5t-44.5 10t-22.5 29t-4 32.5t8 21.5h-345q-14 0 -23 11.5t-10 25t9.5 25.5t33.5 12zM531.5 219.5q10.5 6.5 10.5 21.5t-9.5 23.5t-22 8.5t-23 -7t-10.5 -22t10 -22.5t22 -8t22.5 6zM447 38q30 -13 30 -37
q1 -14 -10 -25.5t-28 -14.5q-38 -3 -65 52q-7 14 -10 26q-48 -41 -104 -37q-54 3 -82 45q-9 -20 -33.5 -33.5t-62 -13.5t-60 28t-22.5 65.5t24.5 65t69.5 28.5q26 1 50.5 -13.5t36.5 -44.5q38 -35 76 -35q52 0 79.5 28.5t34 70t-6 89t-40.5 85.5q-31 38 -76 59
q-47 21 -66 13q-17 -6 -31.5 -3t-16.5 19q-4 23 47.5 23t92.5 -22.5t78 -69.5q28 -34 40 -64t16 -61.5t2 -66.5t-4 -77q-3 -26 2 -43.5t39 -35.5zM144 121q-2 14 -21.5 25t-37 11t-27 -10.5t-10.5 -22t9.5 -21t29.5 -9.5q44 0 57 27z" />
    <glyph glyph-name="U0C38_U0C3E.abvs" horiz-adv-x="617" 
d="M564 263q3 -41 -16 -61.5t-47 -22.5t-44 10t-22 29t-4 32.5t7 21.5h-344q-15 0 -24 11.5t-9.5 25t10 25.5t33.5 12l338 1q79 0 108 -43q12 -17 14 -41zM512.5 219.5q10.5 6.5 10.5 21.5t-10 23.5t-22.5 8.5t-22.5 -7t-10 -22t9.5 -22.5t22 -8t23 6zM116 458q0 22 48.5 22
t97.5 -32.5t82 -84.5q38 -58 48 -145q10 -90 -21 -149q-36 -69 -114 -69q-33 0 -53.5 25.5t-37.5 56.5q-15 31 -32 57t-47 26q-36 0 -36 -36q0 -22 33.5 -56t33.5 -31q9 -19 -7.5 -30.5t-34.5 -11.5t-31.5 11t-24.5 27q-20 33 -20 67q0 65 43 86q41 21 83 -5q23 -14 52 -43
t44 -39t29 -10q34 0 56.5 18t33 46.5t10 64.5t-13.5 72q-28 79 -99 122q-30 17 -44.5 18.5t-33.5 -0.5q-44 -1 -44 23z" />
    <glyph glyph-name="U0C39_U0C3E.abvs" horiz-adv-x="648" 
d="M519 341q-12 -3 -18 -5t-20 6q-16 14 -18 31.5t5.5 33t23 26t41 10.5t40.5 -18.5t19.5 -30t3 -16.5t-5.5 -8q-13 -6 -20.5 4.5t-15.5 17t-21.5 4t-19.5 -11t-7 -18.5q-1 -23 13 -25zM320 416q-109 -76 -198 -121q-10 4 -30.5 11t-40.5 18q-51 28 -51 54q0 16 12.5 28.5
t28.5 10.5t28 -11.5t22 -21.5t18.5 -24.5t16.5 -21.5q22 19 40.5 37t36.5 34.5t37 35t43 40.5q20 17 37 14.5t27 -14.5q16 -21 4 -38t-31 -31zM355 274q48 -54 48 -119t-33 -107q-36 -48 -96 -48t-100 52q-26 -52 -84 -52q-42 0 -64.5 29t-22.5 70t24.5 64.5t62.5 23.5
q18 0 44 -9t37 -37.5t38.5 -38.5t54 -10t48 16.5t30.5 40t6.5 48.5t-17.5 45q-21 32 -70 32q-11 0 -17.5 10.5t-6 23.5t8 23.5t26.5 10.5h238q41 0 63 -25.5t23.5 -56.5t-18 -57t-59.5 -28q-20 0 -35 10.5t-23.5 26t-8.5 32.5t12 30h-109zM55.5 102q12.5 -8 38.5 -8t37 10
t9.5 22.5t-15 23t-35.5 10.5q-43 0 -46 -37q-1 -13 11.5 -21zM538.5 221.5q10.5 7.5 10.5 21.5t-10.5 23.5t-22.5 10.5t-22 -6t-10 -24t10 -24t22 -8t22.5 6.5z" />
    <glyph glyph-name="U0C15_U0C3E_U0C37_U0C4D.akhn" horiz-adv-x="548" 
d="M354 -83q20 -12 16.5 -28t-22.5 -19q-17 -2 -28 18q-8 17 -8 37q-10 -15 -26 -22.5t-34 -7.5q-32 0 -65 37q-34 -35 -73 -35q-26 0 -51 21.5t-25 45.5t14 24q6 0 11 -6.5t11 -13.5q15 -20 40 -20q39 0 73 35q14 -19 28 -28.5t40 -9.5q35 0 49 34q1 9 9 9t11 -9
q2 -12 6.5 -33t23.5 -29zM373 347q115 0 122 -84q3 -41 -16 -61.5t-47 -22.5t-44 10t-22 29t-4 32.5t7 21.5h-337q-10 0 -21 8.5t-11 28t8.5 28.5t34.5 9zM443.5 219.5q10.5 6.5 11 21.5t-9.5 23.5t-23 8.5t-23 -7t-10 -22t9.5 -22.5t22 -8t23 6zM318 146q16 -16 16 -45.5
t-14.5 -48t-36.5 -30.5q-40 -22 -86 -22t-75.5 7t-49.5 23q-39 34 -33 110h26q5 -46 111 -46t106 33q0 12 -22.5 19t-53.5 11.5t-60.5 8.5t-45.5 9q-26 10 -43.5 24t-17.5 39t15.5 41t38.5 26q44 19 90 19t90 -21t56 -60q4 -20 -11 -22q-18 -3 -26 10q-19 22 -55 32
t-71.5 8.5t-61.5 -12.5t-26 -30q0 -15 30.5 -23t60.5 -13.5t57 -8.5t51.5 -12.5t40.5 -25.5z" />
    <glyph glyph-name="U0C15_U0C3F.abvs" horiz-adv-x="345" 
d="M185 365q-35 -21 -55.5 -21t-35.5 5t-28 13q-28 17 -28 53q0 56 65 76q28 9 62 3.5t57.5 -20.5t35 -38.5t11.5 -41.5q0 -60 -57 -86q-83 -34 -179 10q-23 10 -23 23q0 15 16 15q3 0 21.5 -9t42.5 -16t50 -7t46 10q39 20 39 59q0 14 -4 32q-3 -14 -8 -28t-28 -32zM170 438
q-47 0 -62 -23q-5 -9 -5 -17.5t6.5 -14.5t26 -1.5t28.5 24.5t6 32zM279 146q16 -16 16 -45.5t-14.5 -48t-36.5 -30.5q-40 -22 -95 -22q-75 0 -114.5 30.5t-34.5 109.5h26q5 -46 111 -46t106 33q0 12 -22.5 19t-53.5 11.5t-60.5 8.5t-45.5 9q-26 10 -43.5 24t-17.5 39
t15.5 41t38.5 26q44 19 90 19t90 -21t56 -60q4 -20 -12 -22q-17 -3 -25 10q-19 22 -55 32t-71.5 8.5t-61.5 -12.5t-26 -30q0 -15 30.5 -23t60.5 -13.5t57 -8.5t51.5 -12.5t40.5 -25.5z" />
    <glyph glyph-name="U0C16_U0C3F.abvs" horiz-adv-x="496" 
d="M240 -56q0 -17 -13 -25.5t-27.5 -8.5t-27.5 8.5t-13 25.5q0 27 44 81q37 -50 37 -81zM235 101q18 -9 58.5 -9t66 27t34.5 64.5t4.5 79t-18.5 71.5q-25 52 -63 83q-40 35 -108 39q7 -10 7 -35t-24 -42.5t-54.5 -17.5t-53.5 19.5t-23 49.5q0 46 65 72q92 20 172 -29
q67 -40 108 -121q40 -75 40 -162q0 -70 -36 -127q-17 -28 -44.5 -45.5t-63.5 -17.5q-55 0 -98 55q-42 -55 -105 -55q-99 0 -99 84q0 41 29 58.5t69 17.5t96 -33q9 9 17.5 31.5t8.5 36.5q0 45 -34 79t-79 34q-28 0 -38 -5q34 0 57 -16q29 -18 29 -45q2 -30 -22 -48.5
t-47.5 -21.5t-42 5t-31 25.5t-12.5 45.5q0 39 32.5 62.5t73 23.5t65.5 -13t46 -38q38 -45 38 -101q0 -22 -6 -45t-14 -36zM173 402.5q9 9.5 9 21.5q0 20 -3 30q-17 2 -31 -7q-26 -17 -26 -31t9 -20.5t21 -4.5t21 11.5zM84 218q10 9 10 23t-10.5 22.5t-25 8.5t-22 -10
t-7.5 -21.5t7 -21.5t22.5 -10t25.5 9zM166 105q-41 30 -78 30q-10 0 -25 -4.5t-15 -17.5q0 -21 59 -21q28 0 59 13z" />
    <glyph glyph-name="U0C17_U0C3F.abvs" horiz-adv-x="394" 
d="M287 278q88 -95 35 -259q-10 -16 -32 -17q-44 -4 -66 23q-10 13 0 31q18 30 32 56.5t17 62.5q6 56 -27 91q-32 37 -74.5 39t-75.5 -37q-33 -40 -16 -110q11 -44 46 -106q0 -26 -14.5 -37t-32 -13t-33 2.5t-19.5 11.5q-27 39 -27 89q0 121 83 195q-22 9 -34.5 29.5
t-12.5 48.5t21 44.5t49.5 21t60 -1t51.5 -16.5q42 -22 55.5 -56.5t13.5 -91.5zM133 326q26 7 45 7q44 0 82 -28q-3 34 -26 61t-57 27q-36 0 -55 -20q-8 -9 -6.5 -21.5t17.5 -25.5z" />
    <glyph glyph-name="U0C18_U0C3F.abvs" horiz-adv-x="726" 
d="M151 365q-9 -6 -27.5 -12.5t-33.5 -6.5t-30 4t-28 13q-28 19 -28 52q0 56 65 76q28 9 62 3.5t57.5 -20t35 -38.5t11.5 -42q0 -60 -57 -85q-61 -27 -130 -9q-26 7 -37 12.5t-11 19.5t14 14q4 0 11 -4t31.5 -11t50.5 -7t45.5 11t29 24t9.5 30.5t-4 35.5q-2 -14 -7.5 -28
t-28.5 -32zM136 439q-48 0 -62 -24q-6 -9 -6 -17.5t6.5 -14t21.5 -3.5q24 6 33.5 26t6.5 33zM251 -56q0 -17 -13 -25.5t-28 -8.5t-28 8.5t-13 25.5q0 27 45 81q37 -46 37 -81zM398 274q43 -53 43 -117.5t-34 -108.5q-20 -25 -48 -36t-55.5 -9.5t-53 14.5t-39.5 35
q-12 -26 -31 -39t-45 -13t-42 8t-29 22q-27 29 -24.5 73.5t28.5 67.5t56 21q64 -3 97 -65q12 -20 41 -28.5t59.5 -3t54.5 28t24 64t-33 70.5t-77 25q-18 -1 -28 7t-11 16.5t7 16t34 5.5q64 -5 106 -54zM161 150.5q-13 10.5 -34.5 10.5t-33 -10.5t-13 -23.5t9 -23t36.5 -10
t38.5 10t11 23t-14.5 23.5zM664 79q-11 -34 -45 -56.5t-66 -22.5t-55.5 10.5t-41 28t-29 37.5t-11.5 47l6 26q7 14 17 29q2 -6 2 -12l1 -14q3 -17 13 -30t23 -19q24 -11 50 -11t44 7.5t32 18.5q33 26 33 64q0 46 -47 74q-42 26 -87 21q-8 -1 -13.5 3.5t-9.5 7.5
q-7 6 -7 19.5t8 18t32.5 4.5t57.5 -14t54 -37t30 -44t13.5 -40.5t5.5 -32.5q5 -44 -10 -83z" />
    <glyph glyph-name="U0C19_U0C3F.abvs" horiz-adv-x="475" 
d="M339 378q-9 -6 -26 -12t-30 -6q-31 0 -61 16.5t-30 51.5q0 56 65 76q29 9 63 3.5t57 -20.5t35.5 -38.5t11.5 -41.5q0 -60 -57 -86q-63 -26 -130 -8q-26 7 -40.5 14t-14.5 20q0 16 16 16q2 0 12.5 -6t34.5 -13t50 -7t45.5 10t27.5 22.5t11 25.5q7 29 -3 43q-3 -14 -8 -28
t-29 -32zM279 443q-22 -13 -22 -33q0 -8 7.5 -14t26 -1.5t28 24.5t7.5 32q-30 0 -47 -8zM394 166q19 -26 20 -54.5t-11.5 -54t-38 -41.5t-59.5 -16q-63 0 -96 51q-31 -51 -97 -51q-50 0 -81 26t-31 75q0 57 65 79q51 18 77.5 31t26.5 27q0 21 -21 29.5t-38 8.5
q-65 0 -74 -46q0 -22 -18 -22t-18 37t31 59t69 22t67 -18t36 -52h63q-16 22 -24 32.5t-8 22t13 17t28.5 4.5t28.5 -7.5t13 -16t-8.5 -20t-22.5 -32.5h51q15 0 15 -24.5t-15 -24.5h-141q-8 -13 -24.5 -21t-37 -14.5t-40.5 -12.5q-45 -13 -48 -35q-1 -11 9 -20q7 -8 28 -11
t43.5 0.5t43 16t26.5 36.5q3 11 5.5 15.5t9 6t10.5 -5.5t8 -16q13 -30 28 -42t37 -12t37 4.5t25 13.5q23 21 12 50z" />
    <glyph glyph-name="U0C1A_U0C3F.abvs" horiz-adv-x="511" 
d="M53 105q0 57 65 94q-12 -1 -37 -11t-35.5 -14t-18.5 -4q-27 0 -27 29q0 40 42 40h127q-1 -5 -1 -28q-59 -42 -59 -71q0 -19 10 -34t29 -15q33 0 55.5 15.5t26.5 48.5q0 10 0.5 16t11 6t12 -6t3.5 -16q7 -28 28.5 -46t48.5 -18q35 0 54.5 37t19.5 80.5t-11 76t-33 57.5
q-44 52 -125 52q7 -13 7 -31q-3 -41 -31.5 -53t-58 -7.5t-47.5 19.5t-18 39.5t15.5 45.5t49.5 28q61 15 116.5 3t97.5 -46.5t66.5 -90t24.5 -128.5q0 -67 -27 -115q-33 -57 -96 -61q-29 0 -55 14t-41 45q-20 -33 -46.5 -46t-52.5 -10q-36 1 -63 29t-27 76zM172 386
q-21 -9 -19 -30.5t20 -26.5t30.5 7t13.5 24t-3.5 19.5t-15.5 10.5t-26 -4z" />
    <glyph glyph-name="U0C1B_U0C3F.abvs" horiz-adv-x="511" 
d="M53 105q0 57 65 94q-12 -1 -37 -11t-35.5 -14t-18.5 -4q-27 0 -27 29q0 40 42 40h127q-1 -5 -1 -28q-59 -42 -59 -71q0 -19 10 -34t29 -15q33 0 55.5 15.5t26.5 48.5q0 10 0.5 16t11 6t12 -6t3.5 -16q7 -28 28.5 -46t48.5 -18q35 0 54.5 37t19.5 80.5t-11 76t-33 57.5
q-44 52 -125 52q7 -13 7 -31q-3 -41 -31.5 -53t-58 -7.5t-47.5 19.5t-18 39.5t15.5 45.5t49.5 28q61 15 116.5 3t97.5 -46.5t66.5 -90t24.5 -128.5q0 -67 -27 -115q-33 -57 -96 -61q-29 0 -55 14t-41 45q-20 -33 -46.5 -46t-52.5 -10q-36 1 -63 29t-27 76zM172 386
q-21 -9 -19 -30.5t20 -26.5t30.5 7t13.5 24t-3.5 19.5t-15.5 10.5t-26 -4zM278 -53q0 -16 -13 -24.5t-28 -8.5t-28 8t-13 25q0 30 46 80q36 -48 36 -80z" />
    <glyph glyph-name="U0C1C_U0C3F.abvs" horiz-adv-x="497" 
d="M320 0q-63 0 -99 52q-23 -25 -46 -38.5t-66.5 -13.5t-76 28t-32.5 71t22 62q22 22 54 30t61 17t36.5 22t1 24.5t-24 20t-34 8.5t-29.5 -3.5t-24 -11.5q-27 -18 -27 -39q0 -13 -17 -13q-19 0 -19 30q0 41 35 67q33 23 75 21q45 -1 72 -26q13 -12 25.5 -26t26.5 -26
q32 -27 70.5 -27t68 29t29.5 71q0 23 -19.5 40.5t-41.5 19.5q14 -11 12 -33.5t-17 -37.5q-28 -28 -60.5 -28t-56.5 20t-21 50q1 29 19 48.5t44 28.5t56 7.5t55 -12.5q28 -15 46.5 -39.5t23.5 -55t-2.5 -60t-25.5 -51.5q-38 -47 -101 -47q-28 0 -57.5 15t-43.5 39
q-7 -38 -74 -54q-90 -21 -90 -46q0 -17 27 -29q22 -10 41 -10q75 0 89 58q3 16 14 17t18 -16q22 -59 88 -59q42 0 59 29q7 11 7 28q-2 19 13 19q17 0 26 -30q5 -18 5 -41q-6 -48 -37 -73.5t-78 -25.5zM263.5 325q6.5 -5 14.5 -5q19 2 34 23q12 21 0 40q-18 0 -36.5 -14
t-18.5 -26.5t6.5 -17.5z" />
    <glyph glyph-name="U0C1D_U0C3F.abvs" horiz-adv-x="864" 
d="M615 -38q0 -15 -13 -23.5t-28 -8.5t-28 7.5t-13 24.5q0 28 44 81q38 -50 38 -81zM351 155q0 -72 -49 -115q-49 -40 -123 -40t-126.5 44t-52.5 118q0 88 83 140q-47 19 -47 61q0 28 19.5 45.5t49 23.5t62.5 0t60.5 -22.5t43 -46.5t10.5 -71q70 -54 70 -137zM147 321l27 3
q42 0 78 -15q1 33 -19.5 52.5t-46.5 24.5t-48 -3.5t-22 -28.5t31 -33zM260 266q-35 30 -84.5 30t-88.5 -31t-39 -77q0 -45 41 -72q41 -26 89 -22q42 0 80 26q41 29 41 72t-39 74zM802 218.5q12 -32.5 12 -64.5t-8 -58.5t-24 -47.5q-34 -48 -92 -48q-43 0 -73.5 22.5
t-44.5 59.5q-10 -37 -44 -59.5t-66 -22.5t-55.5 10.5t-41 28t-29 37.5t-11.5 47l6 26q7 14 17 29q2 -6 2 -12v-20q3 -39 62 -50q17 -4 34 -4t35 7.5t33 18.5q32 26 32 64q0 23 -14.5 41.5t-34.5 30.5q-41 23 -85 18q-13 -3 -22 13q-8 13 -8 24.5t8 16t32.5 4.5t57.5 -14
t54 -37t29 -44t12.5 -41t7.5 -38t13 -32q23 -32 80 -32q39 0 70 26t31 64q0 23 -13.5 41.5t-33.5 30.5q-40 23 -87 18q-15 -3 -23 10.5t-8 24.5q0 23 37 23t67.5 -15t52 -39.5t33.5 -57z" />
    <glyph glyph-name="U0C1E_U0C3F.abvs" horiz-adv-x="647" 
d="M512 372q-9 -8 -28 -14.5t-32 -6.5q-31 0 -59.5 17.5t-28.5 51.5q0 57 65 77q29 10 63 4q69 -12 93 -60q12 -24 12 -42q-2 -58 -58 -84q-33 -16 -63.5 -16t-47 3t-29.5 5t-17.5 10.5t0.5 17.5t10.5 9t10.5 1t22 -7.5t42.5 -8t45.5 11t29.5 24t9.5 27.5q0 23 -5 38
q-2 -13 -6.5 -26.5t-28.5 -31.5zM452 435q-11 -5 -17 -14t-6 -17.5t7 -14.5t23 -4q22 6 31.5 27t7.5 33q-29 0 -46 -10zM395 196q-4 -48 -44 -108q47 -61 47 -83q0 -12 -8 -18.5t-18 -6.5q-27 -2 -34 28l-12 56q-80 -64 -174 -64q-43 0 -72 19.5t-41 46t-3 54t44.5 44.5
t89.5 17q74 0 141 -51q26 19 38 60q11 39 -11 57.5t-50 17t-51 -14.5q-30 -16 -30 -36q0 -14 -12.5 -14t-12.5 16q0 24 -24 36t-52 12t-52 -12t-24 -32q0 -11 -6 -14q-18 -8 -22 13q-4 20 0 37q10 41 42 62q24 16 53.5 17.5t52 -13t48.5 -43.5q11 30 41 44.5t62 11
t58.5 -24.5t33.5 -64h70q-16 22 -19 28t-9 17q-7 17 5 27.5t32.5 10.5t34 -10t5.5 -25l-6 -12q-2 -4 -5 -8t-7.5 -10.5t-12.5 -17.5h53q11 0 13.5 -6.5t2.5 -19t-1.5 -18.5t-14.5 -6h-139zM282 113q-49 43 -117 43h-22q-33 0 -51 -14q-10 -8 -9 -22q3 -19 25 -22.5t47 -3.5
q37 -2 75.5 6t51.5 13z" />
    <glyph glyph-name="U0C1F_U0C3F.abvs" horiz-adv-x="513" 
d="M367 348q-10 -7 -28.5 -13.5t-31.5 -6.5q-31 0 -60 17.5t-29 50.5q0 58 67 77q27 11 61 5t58 -21t35.5 -39t11.5 -42q-1 -59 -57 -85q-35 -16 -50 -18q-26 -2 -59 8q-26 6 -32 9.5t-6 9.5q0 20 12 17q2 0 0 0.5t-2.5 0.5t1.5 -0.5t21 -6.5q47 -15 93 9q35 19 35 56
q0 15 -5 31q-3 -13 -7.5 -26.5t-27.5 -32.5zM307 412q-12 -5 -18 -14t-6 -17.5t7.5 -14.5t22.5 -5q22 7 32 27.5t7 32.5q-28 0 -45 -9zM300 308q80 -8 122 -58q61 -73 26 -170q-18 -49 -61 -70q-22 -10 -53 -10t-57.5 18t-37.5 38q-15 -22 -39.5 -39t-62.5 -17t-68 19.5
t-47 51.5q-32 74 -12 149q23 90 116 109q-6 12 -12.5 30t-10.5 29t-6 18q-3 20 10.5 29.5t31 9.5t32 -9.5t10.5 -24.5q-9 -32 -28 -82q40 -2 56 -20q17 -15 20.5 -35.5t-4 -38.5t-23 -32.5t-36.5 -17.5q-23 -6 -46 4t-33 35q-13 28 3 58q-20 -21 -29 -52.5t-4 -62.5t24 -53
t53.5 -22t58 23.5t34.5 57.5h16q10 -34 29 -57.5t57.5 -23.5t63 21.5t28 51t-14.5 57.5q-22 38 -80 51q-35 8 -46 13t-15 12q-4 17 35 10zM121.5 289.5q-11.5 -8.5 -11.5 -30t13 -32t28 -7.5q28 4 28 39q0 17 -9.5 28t-23 11t-25 -8.5z" />
    <glyph glyph-name="U0C20_U0C3F.abvs" horiz-adv-x="401" 
d="M198.5 229q10.5 -9 10.5 -23.5t-10.5 -25t-24.5 -10.5t-25 10.5t-11 25t11 23.5t25 9t24.5 -9zM351 155q0 -73 -51 -115q-48 -40 -121 -40q-75 0 -125 43q-54 46 -54 119q0 89 83 141q-47 17 -47 61q0 27 24 47.5t59.5 26t73.5 -7.5t66 -50q30 -40 22 -88q70 -54 70 -137
zM174 324q40 0 79 -13q3 31 -33 62q-26 20 -64 15q-16 -2 -27.5 -10.5t-11.5 -23.5q0 -20 31 -32zM288.5 144.5q11.5 17.5 11.5 48.5t-22.5 56t-55 37t-69 7.5t-61.5 -23.5q-50 -41 -44 -84q5 -52 48 -75q31 -17 81 -17q45 0 81 22q19 11 30.5 28.5z" />
    <glyph glyph-name="U0C21_U0C3F.abvs" horiz-adv-x="476" 
d="M261 372q-9 -7 -27 -13.5t-33 -6.5q-33 0 -58 17q-29 20 -29 52q0 56 65 77q29 9 63 3t58 -20q22 -14 34 -38t12 -43q0 -59 -57 -84q-60 -28 -130 -9q-26 6 -40.5 12.5t-14.5 18.5q0 16 16 16q2 0 12.5 -5t34.5 -12t50 -7q48 0 75 35q10 13 10 30.5t-4 36.5
q-3 -15 -8 -28.5t-29 -31.5zM201 437q-22 -15 -22 -33q0 -20 29 -18q23 7 32.5 27t6.5 33q-25 0 -46 -9zM403 203.5q23 -31.5 23 -81t-33.5 -86t-88.5 -36.5q-30 0 -54 10.5t-45 44.5q-10 -30 -37.5 -42.5t-53.5 -12.5t-47.5 11.5t-36.5 30.5q-30 40 -30 93q0 83 63 138.5
t152 55.5q102 0 144 -42q4 -4 1 -11q-5 -13 -21 -10q-6 3 -11.5 7.5t-11.5 8.5q-37 18 -111 18q-54 0 -103 -34q-51 -35 -51 -91q0 -33 18 -58t52 -25q54 0 70 68q4 17 14 17q8 0 12 -16q7 -34 31.5 -51.5t59.5 -17.5t53.5 13t25.5 29q-13 -16 -35 -22.5t-43.5 -2.5
t-37.5 18.5t-16 36t7 33.5t18 20q23 17 50 17q50 1 73 -30.5zM317.5 152q8.5 -9 25 -8.5t24 10.5t7 21.5t-10 20.5t-25.5 8t-23.5 -11t-6.5 -21t9.5 -20z" />
    <glyph glyph-name="U0C22_U0C3F.abvs" horiz-adv-x="476" 
d="M261 372q-9 -7 -27 -13.5t-33 -6.5q-33 0 -58 17q-29 20 -29 52q0 56 65 77q29 10 63 4.5t57 -20.5t35 -39t12 -43q0 -59 -57 -84q-61 -29 -130 -8q-26 7 -40.5 13.5t-14.5 20.5t14 14q4 0 14.5 -5t34.5 -13t50 -8t45 11q40 22 40 59q0 13 -4 32q-3 -13 -8 -27.5
t-29 -32.5zM201 437q-22 -15 -22 -33q0 -20 29 -18q23 7 32.5 27t6.5 33q-29 0 -46 -9zM403 203.5q23 -31.5 23 -81t-33.5 -86t-88.5 -36.5q-30 0 -54 10.5t-45 44.5q-10 -30 -37.5 -42.5t-53.5 -12.5t-47.5 11.5t-36.5 30.5q-30 40 -30 93q0 83 63 138.5t152 55.5
q102 0 144 -42q4 -4 1 -11q-5 -13 -21 -10q-6 3 -11.5 7.5t-11.5 8.5q-37 18 -111 18q-54 0 -103 -34q-51 -35 -51 -91q0 -33 18 -58t52 -25q54 0 70 68q4 17 14 17q8 0 12 -16q7 -34 31.5 -51.5t59.5 -17.5t53.5 13t25.5 29q-13 -16 -35 -22.5t-43.5 -2.5t-37.5 18.5
t-16 36t7 33.5t18 20q23 17 50 17q50 1 73 -30.5zM317.5 152q8.5 -9 25 -8.5t24 10.5t7 21.5t-10 20.5t-25.5 8t-23.5 -11t-6.5 -21t9.5 -20zM244 -52q0 -17 -13 -25.5t-28 -8.5t-28 8.5t-13 25.5q0 29 45 81q37 -49 37 -81z" />
    <glyph glyph-name="U0C23_U0C3F.abvs" horiz-adv-x="511" 
d="M357 363q-9 -7 -27.5 -13.5t-31.5 -6.5q-32 0 -60.5 17t-28.5 52q0 55 65 77q29 10 62.5 4t58 -20.5t36 -39t11.5 -42.5q-1 -60 -57 -84q-60 -28 -130 -8q-26 6 -32 11.5t-8.5 13t2.5 11.5t11 4t32.5 -9t52 -9t45.5 11t30 24.5t10 27.5q0 16 -5 38q-3 -13 -7.5 -27
t-28.5 -32zM343 437q-46 0 -63 -25q-6 -9 -6 -17.5t7.5 -13.5t22.5 -4q22 6 32 26.5t7 33.5zM43 160q-43 10 -43 62q2 49 42 78q40 28 88 20q62 -7 88 -51q13 26 42 39t62 13q64 0 101.5 -46t37.5 -113q0 -48 -20 -84q-42 -78 -113 -78q-61 0 -88 40q-11 18 -13 39t6.5 42
t28 34t41 13.5t40 -10.5t25 -30t5.5 -35t-9 -31q-16 -31 -47 -35q48 0 78 39q26 32 26 78t-29 74.5t-76.5 28.5t-72.5 -22q-8 -10 -12 -21.5t-6.5 -15t-9.5 -3.5t-9.5 3.5t-3.5 9.5q-5 18 -15 27q-22 18 -77 18q-27 0 -44 -9t-22.5 -21t1.5 -23.5t21.5 -14t28.5 -2t34 -0.5
q19 -3 19 -16.5t-19 -13.5h-47q-24 -3 -33 -14t-5 -22q9 -33 54 -35q19 -1 38 4t36.5 16t26.5 5.5t9 -16.5q-3 -38 -36 -59.5t-69.5 -21.5t-69.5 22.5t-33 64.5q0 52 43 73zM307.5 53.5q8.5 10.5 8 28.5t-10.5 26.5t-20.5 8.5t-19.5 -9t-8.5 -28t10.5 -28t21 -9t19.5 10.5z
" />
    <glyph glyph-name="U0C24_U0C3F.abvs" horiz-adv-x="480" 
d="M400 259q30 -26 30 -74.5t-17.5 -83.5t-46.5 -57q-58 -44 -148.5 -44t-148.5 38q-69 43 -69 124q0 69 35 101t84 32t67 -21t15.5 -46t-22.5 -45.5t-49 -19t-49.5 16.5t-20.5 45q0 15 8 27q-36 -26 -24 -72q5 -20 18 -37q37 -49 147 -49q79 0 130 33q57 39 52 98
q-18 -30 -42.5 -43t-48.5 -11.5t-38.5 15.5t-18.5 32.5t3 36.5t30 29q37 18 98 -5q-10 55 -57.5 96t-96.5 45q4 -42 -13 -66q-15 -23 -43 -27.5t-52 6.5q-24 9 -33 26.5t-5 36.5q7 44 47 64q44 23 112 7q60 -14 105 -48q44 -37 57.5 -81t4.5 -79zM149 357q22 -4 33 23
q10 21 4 40q-21 -3 -34 -13q-12 -11 -16.5 -28.5t13.5 -21.5zM369 252q-22 13 -39 13t-25.5 -8.5t-9 -19.5t6.5 -19.5t22 -8.5q23 0 45 43zM107 265q-14 -8 -16 -32q0 -13 6.5 -23.5t19 -9.5t17.5 11t4.5 21.5t-8.5 21.5t-23 11z" />
    <glyph glyph-name="U0C25_U0C3F.abvs" horiz-adv-x="482" 
d="M250 -48q0 -17 -13 -25.5t-28 -8.5t-28 8.5t-13 25.5q0 25 45 80q37 -48 37 -80zM239 259.5q12 -9.5 12 -24t-12 -24.5t-26 -10t-24 10t-10 24.5t10 24t24 9.5t26 -9.5zM213 57q-31 -57 -90 -57t-91 36.5t-32 93.5q0 122 112 177q-37 25 -33 65q7 52 64 68q49 14 99 -7
q82 -38 82 -134q45 -27 76.5 -70t31.5 -98q0 -51 -30 -89q-33 -42 -85 -42q-36 0 -64 17.5t-40 39.5zM175 326q11 3 46.5 3t70.5 -16q-2 33 -27.5 56.5t-57.5 23.5q-50 0 -50 -39q0 -17 18 -28zM123 95q69 0 82 82h20q9 -31 30 -56.5t54 -25.5t52 22.5t19 52.5q0 55 -59 94
q-49 36 -107.5 36t-108.5 -34q-24 -18 -38 -46.5t-14 -56.5t17 -48t53 -20z" />
    <glyph glyph-name="U0C26_U0C3F.abvs" horiz-adv-x="482" 
d="M213 57q-31 -57 -90 -57t-91 36.5t-32 93.5q0 122 112 177q-37 25 -33 65q7 52 64 68q49 14 99 -7q82 -38 82 -134q45 -27 76.5 -70t31.5 -98q0 -51 -30 -89q-33 -42 -85 -42q-36 0 -64 17.5t-40 39.5zM175 326q11 3 46.5 3t70.5 -16q-2 33 -27.5 56.5t-57.5 23.5
q-50 0 -50 -39q0 -17 18 -28zM123 95q69 0 82 82h20q9 -31 30 -56.5t54 -25.5t52 22.5t19 52.5q0 55 -59 94q-49 36 -107.5 36t-108.5 -34q-24 -18 -38 -46.5t-14 -56.5t17 -48t53 -20z" />
    <glyph glyph-name="U0C27_U0C3F.abvs" horiz-adv-x="482" 
d="M250 -48q0 -17 -13 -25.5t-28 -8.5t-28 8.5t-13 25.5q0 25 45 80q37 -48 37 -80zM213 57q-31 -57 -90 -57t-91 36.5t-32 93.5q0 122 112 177q-37 25 -33 65q7 52 64 68q49 14 99 -7q82 -38 82 -134q45 -27 76.5 -70t31.5 -98q0 -51 -30 -89q-33 -42 -85 -42
q-36 0 -64 17.5t-40 39.5zM175 326q11 3 46.5 3t70.5 -16q-2 33 -27.5 56.5t-57.5 23.5q-50 0 -50 -39q0 -17 18 -28zM123 95q69 0 82 82h20q9 -31 30 -56.5t54 -25.5t52 22.5t19 52.5q0 55 -59 94q-49 36 -107.5 36t-108.5 -34q-24 -18 -38 -46.5t-14 -56.5t17 -48t53 -20z
" />
    <glyph glyph-name="U0C28_U0C3F.abvs" horiz-adv-x="449" 
d="M399 192q0 -70 -28 -124q-35 -68 -98 -68q-74 0 -112 83q-14 29 -33 47t-36.5 24t-30 -0.5t-12.5 -23.5t9.5 -28.5t21 -22t22 -18.5t11.5 -13q14 -28 -9 -42q-9 -6 -22 -6t-25 5q-57 27 -57 95q0 39 17 58t42 21.5t54.5 -8t53.5 -30t44 -33t39 -13.5q37 0 64 28.5
t36 66.5q20 84 -15 132q-52 84 -154 86q7 -9 6 -29t-10 -35.5t-28.5 -24t-40.5 -6t-38 15t-24 35.5t1.5 40.5t23.5 29.5q30 24 65 24q47 -3 89.5 -14.5t78.5 -40.5q95 -75 95 -211zM153 408q-18 0 -30.5 -7.5t-18 -18t-3 -21t14 -15.5t22 0t16.5 16t6 23.5t-7 22.5z" />
    <glyph glyph-name="U0C2A_U0C3F.abvs" horiz-adv-x="484" 
d="M148 339q-10 -6 -28.5 -12.5t-33.5 -6.5t-29.5 4t-27.5 13q-29 20 -29 52q0 56 65 76q29 9 62.5 3.5t57.5 -20t36 -38.5t10 -42q0 -60 -56 -85q-61 -28 -131 -9q-26 7 -35 12.5t-9 16.5q0 18 14 15q5 0 10 -3t29 -10t50 -7t45.5 11t29.5 24t10 27q0 24 -5 39
q-2 -13 -7.5 -27.5t-27.5 -32.5zM134 413q-47 0 -63 -24q-6 -9 -6 -17.5t7 -14t23 -3.5q22 6 31 26t8 33zM304 0q-30 0 -52 6.5t-47 44.5q-11 -19 -32.5 -35t-51.5 -16q-43 0 -66 28.5t-23 63.5q-1 35 20.5 64.5t67.5 31.5q37 5 66 -22q15 -13 21.5 -26t14.5 -23t22.5 -17.5
t53.5 -7.5t68 20.5t28.5 67.5t-33.5 75t-78 28q-10 0 -23 3t-12 22q0 20 30 20q68 0 113 -55q43 -51 43 -116t-34 -111t-96 -46zM117 94q31 -2 44.5 8.5t12.5 23t-14.5 23t-37 10.5t-35.5 -10t-12.5 -22.5t10 -22.5t32.5 -10z" />
    <glyph glyph-name="U0C2B_U0C3F.abvs" horiz-adv-x="484" 
d="M242 -52q0 -16 -13 -24.5t-28 -8.5t-28 8t-13 25q0 26 45 82q37 -48 37 -82zM148 339q-10 -6 -28.5 -12.5t-33.5 -6.5t-29.5 4t-27.5 13q-29 20 -29 52q0 56 65 76q29 9 62.5 3.5t57.5 -20t36 -38.5t10 -42q0 -60 -56 -85q-61 -28 -131 -9q-26 7 -35 12.5t-9 16.5
q0 18 14 15q5 0 10 -3t29 -10t50 -7t45.5 11t29.5 24t10 27q0 24 -5 39q-2 -13 -7.5 -27.5t-27.5 -32.5zM134 413q-47 0 -63 -24q-6 -9 -6 -17.5t7 -14t23 -3.5q22 6 31 26t8 33zM304 0q-30 0 -52 6.5t-47 44.5q-11 -19 -32.5 -35t-51.5 -16q-43 0 -66 28.5t-23 63.5
q-1 35 20.5 64.5t67.5 31.5q37 5 66 -22q15 -13 21.5 -26t14.5 -23t22.5 -17.5t53.5 -7.5t68 20.5t28.5 67.5t-33.5 75t-78 28q-10 0 -23 3t-12 22q0 20 30 20q68 0 113 -55q43 -51 43 -116t-34 -111t-96 -46zM117 94q31 -2 44.5 8.5t12.5 23t-14.5 23t-37 10.5t-35.5 -10
t-12.5 -22.5t10 -22.5t32.5 -10z" />
    <glyph glyph-name="U0C2C_U0C3F.abvs" horiz-adv-x="496" 
d="M105 92q83 0 98 57q0 8 9.5 10t13.5 -8q33 -59 81 -59q40 0 72 40q30 37 30 80q-1 86 -49.5 136.5t-135.5 59.5q7 -10 7 -35.5t-24 -41t-53 -15.5t-53 15.5t-24 49.5t24.5 50.5t59 22t69.5 0.5q83 -13 130 -60q31 -29 51 -66q35 -65 35 -142q0 -72 -28 -124
q-15 -27 -40.5 -44.5t-61.5 -17.5q-70 0 -100 51q-18 -28 -52 -39.5t-55 -11.5t-40.5 6.5t-34.5 17.5q-34 27 -34 68q0 44 44 65q18 9 39.5 15t41.5 13q43 13 43 39q0 16 -13 23.5t-31.5 8t-36.5 -4t-27 -11.5q-21 -11 -26 -40q-3 -8 -12 -8q-22 -2 -21.5 29t19.5 48t45 23
t54.5 3t48.5 -14q37 -21 35 -53t-39 -50q-4 -4 -21.5 -9t-38.5 -11.5t-37 -15t-16 -21.5t14 -21t40 -8zM187 404q-24 4 -45 -25q-9 -12 -4.5 -22t15.5 -13t22.5 2.5t16.5 18.5q10 30 -5 39z" />
    <glyph glyph-name="U0C2D_U0C3F.abvs" horiz-adv-x="496" 
d="M105 92q83 0 98 57q0 8 9.5 10t13.5 -8q33 -59 81 -59q40 0 72 40q30 37 30 80q-1 86 -49.5 136.5t-135.5 59.5q7 -10 7 -35.5t-24 -41t-53 -15.5t-53 15.5t-24 49.5t24.5 50.5t59 22t69.5 0.5q83 -13 130 -60q31 -29 51 -66q35 -65 35 -142q0 -72 -28 -124
q-15 -27 -40.5 -44.5t-61.5 -17.5q-70 0 -100 51q-18 -28 -52 -39.5t-55 -11.5t-40.5 6.5t-34.5 17.5q-34 27 -34 68q0 44 44 65q18 9 39.5 15t41.5 13q43 13 43 39q0 16 -13 23.5t-31.5 8t-36.5 -4t-27 -11.5q-21 -11 -26 -40q-3 -8 -12 -8q-22 -2 -21.5 29t19.5 48t45 23
t54.5 3t48.5 -14q37 -21 35 -53t-39 -50q-4 -4 -21.5 -9t-38.5 -11.5t-37 -15t-16 -21.5t14 -21t40 -8zM187 404q-24 4 -45 -25q-9 -12 -4.5 -22t15.5 -13t22.5 2.5t16.5 18.5q10 30 -5 39zM252 -52q0 -16 -13 -24.5t-28 -8.5t-28 8t-13 25q0 29 44 82q38 -50 38 -82z" />
    <glyph glyph-name="U0C2E_U0C3F.abvs" horiz-adv-x="701" 
d="M398 289.5q17 -49.5 17 -92t-7.5 -76t-23.5 -60.5q-35 -61 -105 -61q-33 0 -60.5 15.5t-40.5 37.5q-29 -53 -88 -53q-38 0 -64 29t-26 63.5t17 55.5t41 30.5t50.5 6t43 -20t25.5 -28t19 -21.5q23 -21 56 -21t55 11t37 29q32 38 32 95q0 78 -51 118t-129 44
q15 -45 -8 -68.5t-58 -23.5t-58 19t-23 45.5t12 41t29 23.5q28 15 79.5 15t99.5 -20t80 -52t49 -81.5zM105 356q0 -13 9 -21.5t21.5 -7t21.5 10.5q23 23 7 56q-33 11 -52 -14q-7 -11 -7 -24zM144 126q-14 31 -54 31q-22 0 -34 -9.5t-12.5 -22t10 -22t30.5 -9.5t39 8t21 24z
M650.5 127.5q-0.5 -20.5 -11.5 -51.5t-45 -53.5t-65.5 -22.5t-55 10.5t-41 28t-29.5 37.5t-12 47l7 26q4 13 17 29q1 -6 1 -12l1 -14q3 -17 13.5 -30t23.5 -19q24 -11 49.5 -11t43.5 7.5t33 18.5q32 26 32 64q0 47 -46 74q-43 26 -88 21q-8 -1 -17 6q-13 11 -13 24.5t8 18
t32.5 4.5t58 -14t54 -37t30 -44t14 -40.5t5.5 -33t0.5 -34z" />
    <glyph glyph-name="U0C2F_U0C3F.abvs" horiz-adv-x="865" 
d="M304 43.5q-47 -43.5 -125 -43.5q-74 0 -125 42q-54 44 -54 119q0 71 46 118q48 50 126 50q76 0 128 -48q51 -47 51 -120.5t-47 -117zM172 92q71 0 106 41q13 16 17 43t-4.5 49t-25.5 37q-36 33 -90 33q-56 0 -95 -37q-42 -41 -27 -94q8 -35 41 -53.5t78 -18.5z
M803.5 218.5q11.5 -32.5 11.5 -64.5t-8 -58.5t-23 -47.5q-35 -48 -92 -48q-43 0 -73.5 22.5t-45.5 59.5q-10 -37 -44 -59.5t-65.5 -22.5t-55 10.5t-41 28t-29.5 37.5t-12 47l7 26q4 13 17 29q1 -6 1 -12v-20q3 -39 61 -50q18 -4 35 -4t35 7.5t32 18.5q33 26 33 64
q0 23 -14 41.5t-35 30.5q-41 23 -85 18q-13 -4 -23 13q-7 13 -7 24.5t8 16t32.5 4.5t58 -14t54 -37t28.5 -44t12.5 -41t8 -38t13.5 -32q21 -32 79 -32q39 0 70.5 26t31.5 64q0 23 -14 41.5t-34 30.5q-41 23 -86 18q-16 -3 -23.5 10.5t-7.5 24.5q0 23 37 23q72 0 119 -54
q22 -25 33.5 -57.5z" />
    <glyph glyph-name="U0C30_U0C3F.abvs" horiz-adv-x="401" 
d="M351 155q0 -73 -51 -115q-48 -40 -121 -40q-75 0 -125 43q-54 46 -54 119q0 89 83 141q-47 17 -47 61q0 28 34 55q34 24 76 19t74 -24q72 -42 61 -122q70 -54 70 -137zM174 324q40 0 79 -13q3 31 -33 62q-26 20 -64 15q-16 -2 -27.5 -10.5t-11.5 -23.5q0 -20 31 -32z
M288.5 144.5q11.5 17.5 11.5 48.5t-22.5 56t-55 37t-69 7.5t-61.5 -23.5q-50 -41 -44 -84q5 -52 48 -75q31 -17 81 -17q45 0 81 22q19 11 30.5 28.5z" />
    <glyph glyph-name="U0C31_U0C3F.abvs" horiz-adv-x="544" 
d="M403 365q-9 -6 -28 -12.5t-33 -6.5t-30 4t-28 13q-29 22 -29 52q0 54 66 76q29 9 62 3q70 -11 93 -58q11 -24 11 -42q-1 -61 -57 -85q-61 -27 -130 -9q-39 10 -39 28q0 5 3.5 11.5t11.5 3.5q33 -13 65 -19t67 13q35 20 35 56q0 16 -5 32q-3 -14 -7.5 -28t-27.5 -32z
M389 439q-25 0 -41.5 -7.5t-22 -16.5t-5.5 -17.5t7 -14t23 -3.5q22 6 31.5 26t7.5 33zM238 48q-40 -48 -100 -48q-65 0 -104 53q-34 47 -34 115q0 62 37 106q41 50 99 50q36 0 66.5 -17t30.5 -57q0 -24 -14 -40t-34 -24t-42 -6.5t-39 11.5t-24 30.5t2 51.5q-46 -26 -46 -81
q0 -43 30.5 -70t73.5 -28q22 0 41 1.5t30 10t15.5 18t12 8t11 -10t14.5 -14.5q14 -11 35 -13t30.5 -1t23.5 1t34 6.5t35 19.5q36 30 36 67t-18 59.5t-43 22.5t-39 -13t-14 -36q0 -31 52 -53q15 -6 15 -15.5t-6 -11t-12 -1.5l-280 -1q-6 -2 -13.5 3t-7.5 11q0 14 21 14h215
q-59 32 -59 74t30.5 63t67.5 21q57 0 92 -44.5t35 -101.5q0 -73 -41 -124q-44 -54 -110 -54t-105 48zM160 225.5q9 12.5 9 28.5t-10 26t-22 10t-22 -10t-10 -29.5t9 -28.5t23 -9t23 12.5z" />
    <glyph glyph-name="U0C32_U0C3F.abvs" horiz-adv-x="483" 
d="M433 227q0 -100 -59 -164q-57 -63 -162 -63q-91 0 -150 49q-62 53 -62 141q0 58 37.5 96.5t96.5 38.5q32 0 57 -20t26 -49.5t-14.5 -47.5t-38 -24.5t-46.5 0.5t-40 30q-7 11 -9.5 30.5t5.5 33.5q-35 -23 -35 -73q0 -55 57 -85q45 -24 107 -26q76 -4 133 40q60 47 60 119
q0 84 -58 141q-34 34 -101 40q16 -30 -3 -59q-9 -14 -26 -23t-41 -9t-47.5 17t-19 50t31.5 53.5t56 22.5q95 8 170 -67t75 -192zM158 374q7 -6 19.5 -3.5t19 10.5t9.5 17.5t3 18.5t-1 15q-34 -9 -50 -26q-7 -7 -7 -16.5t7 -15.5zM105.5 270.5q-2.5 -15.5 2 -30t15 -19t20 -2
t14.5 12.5q12 24 -15 50q-12 13 -28 12q-6 -8 -8.5 -23.5z" />
    <glyph glyph-name="U0C33_U0C3F.abvs" horiz-adv-x="463" 
d="M42 294q36 28 89 28q60 0 88 -36q10 -13 10 -34t-22 -36.5t-47.5 -16.5t-42 7t-23.5 23q-13 32 14 69q-21 -6 -40 -24t-19 -39q0 -63 82 -80q83 -18 146 6q36 13 61 41t34 61t-1 67.5t-42 60.5q-42 31 -98 39q4 -43 -20 -64.5t-58 -23.5q-28 -2 -52 18t-22 49q7 59 82 69
q31 4 64.5 -1.5t55.5 -15.5q48 -18 76 -49q36 -35 46 -78t-1 -83t-41.5 -72.5t-78.5 -47.5q21 -26 23 -50t-11 -42t-38 -28.5t-50 -10.5t-42.5 7t-27.5 19q-24 29 -1 69q-50 2 -91 33q-44 34 -44 84.5t42 81.5zM194 430q-15 7 -30.5 1.5t-24 -16.5t-6 -21.5t10.5 -15.5
q22 -15 41 2q10 7 12 23t-3 27zM163.5 232.5q10.5 6.5 10.5 21t-6.5 26.5t-18.5 16q-16 -4 -24.5 -15.5t-8.5 -25t8.5 -21t18.5 -8t20.5 6zM221 78q-1 9 -11.5 13.5t-23 3.5t-22 -8.5t-9.5 -23t11.5 -23.5t24.5 -6.5t23 12.5t7 32z" />
    <glyph glyph-name="U0C35_U0C3F.abvs" horiz-adv-x="465" 
d="M178 55q-31 -55 -88 -55q-38 0 -64 30t-26 68t25.5 63t65 25t61 -18.5t35.5 -42.5q30 -22 66 -22q56 0 89.5 37t33.5 91q0 77 -49 123t-127 52q17 -55 -22 -80q-17 -11 -40.5 -13t-43.5 5q-28 12 -37 35t-0.5 46t35 40t78 16.5t98.5 -21.5t80 -56q67 -74 67 -190
q0 -76 -30 -124q-38 -64 -105.5 -64t-101.5 55zM174 378q0 13 -6 29q-22 9 -38.5 -4.5t-19 -32t13 -25.5t29.5 -1q19 8 21 34zM144 127q-14 33 -54 32q-24 0 -35 -10.5t-11 -22.5t11 -21.5t31.5 -9.5t38 9t19.5 23z" />
    <glyph glyph-name="U0C36_U0C3F.abvs" horiz-adv-x="388" 
d="M173 483q25 -1 49.5 -6t51 -22t43 -41.5t19 -54t-17.5 -59.5q-20 -34 -65 -66q58 -53 58 -110.5t-33.5 -90.5t-81 -33t-77 28.5t-29.5 71.5q0 99 100 142q-20 22 -41.5 31t-37.5 4.5t-26 -23.5t-7 -54q1 -18 -10.5 -29t-26.5 -10.5t-28 14t-13 50t31 63.5t72 27
t68.5 -16.5t58.5 -42.5q33 22 53.5 49.5t17.5 56.5t-28 52t-55 20q12 -15 11.5 -33t-9.5 -32t-25 -23t-34 -9t-35 3.5t-30 11.5q-29 19 -27 60q1 29 17.5 44.5t39 21.5t47.5 5zM199 403q0 17 -11 25.5t-23.5 8.5t-23.5 -8.5t-11 -26t11 -26t23.5 -8.5t23.5 9t11 26zM163 107
q11 -15 36.5 -15t39.5 14.5t17 34.5t-6.5 41t-31.5 34q-28 -12 -44.5 -32t-19 -41t8.5 -36z" />
    <glyph glyph-name="U0C37_U0C3F.abvs" horiz-adv-x="493" 
d="M148 346q-9 -7 -27 -13.5t-33 -6.5q-53 0 -80 38q-8 13 -8 31q0 55 66 77q29 10 62.5 4.5t58.5 -21.5q24 -14 35.5 -38t10.5 -43q0 -59 -56 -84q-34 -16 -68.5 -16t-50.5 4l-24 6q-34 8 -34 23q0 17 22 14q8 -1 17 -4.5t24 -7.5t41 -4.5t46 10.5q40 23 40 58q0 8 -2 15
l-3 18q-3 -13 -8 -27.5t-29 -32.5zM88 411q-22 -15 -22 -33q0 -9 7.5 -14t22.5 -4q22 7 31 27t8 33q-30 0 -47 -9zM269 0q-60 0 -92 49q-15 -27 -44 -38.5t-59 -6.5t-52.5 28t-21.5 64q3 39 27.5 65t57.5 25t48.5 -15.5t27 -31.5t21.5 -31t27 -14t32 -1.5t29 1.5q32 5 53 25
t31 50q10 40 -8 73q-24 39 -69 41q-12 0 -25.5 5.5t-11.5 19.5q2 20 30 20q41 0 69.5 -18.5t44 -47.5t19 -65t-6.5 -71q-3 -16 -6 -30t2.5 -27t13 -21t16.5 -15q21 -18 21 -34.5t-7 -24.5t-18 -9q-25 -2 -40 25q-10 15 -14 53q-18 -21 -43.5 -32t-51.5 -11zM57 99
q13 -5 26 -6.5t24 2.5t17 11q17 17 3 37q-6 10 -21 14.5t-30 3t-25.5 -11.5t-7.5 -27q1 -18 14 -23z" />
    <glyph glyph-name="U0C38_U0C3F.abvs" horiz-adv-x="466" 
d="M148 346q-9 -7 -27 -13.5t-33 -6.5q-53 0 -80 38q-8 13 -8 31q0 55 66 77q29 10 62.5 4.5t58.5 -21.5q24 -14 35.5 -38t10.5 -43q0 -59 -56 -84q-34 -16 -68.5 -16t-50.5 4l-24 6q-34 8 -34 23q0 17 22 14q8 -1 17 -4.5t24 -7.5t41 -4.5t46 10.5q40 23 40 58q0 8 -2 15
l-3 18q-3 -13 -8 -27.5t-29 -32.5zM88 411q-22 -15 -22 -33q0 -9 7.5 -14t22.5 -4q22 7 31 27t8 33q-30 0 -47 -9zM244 312q0 25 29.5 21.5t55.5 -16.5t46 -35q60 -66 27 -176q-18 -63 -62 -91q-24 -15 -60 -15t-60.5 26t-43.5 57t-34.5 56.5t-34.5 24t-28 -8.5t-11 -17
q-5 -20 14 -46q8 -8 17.5 -16t18.5 -16q20 -19 11 -35q-13 -21 -34.5 -21t-36 9t-25.5 23q-23 31 -23 69t20.5 61.5t49 28.5t57.5 -8t49 -40q18 -27 45.5 -41t52 -14t46 14t32 34.5t11 45.5t-9 47t-30.5 37.5t-47.5 18t-34 7t-7.5 16.5z" />
    <glyph glyph-name="U0C39_U0C3F.abvs" horiz-adv-x="648" 
d="M355 274q48 -54 48 -119t-33 -107q-36 -48 -96 -48t-100 52q-26 -52 -84 -52q-42 0 -64.5 29t-22.5 70t24.5 64.5t62.5 23.5q18 0 44 -9t37 -37.5t38.5 -38.5t54 -10t48 16.5t30.5 40t6.5 48.5t-17.5 45q-21 32 -70 32q-11 0 -17.5 10.5t-6 23.5t8 23.5t26.5 10.5h238
q41 0 63 -25.5t23.5 -56.5t-18 -57t-59.5 -28q-20 0 -35 10.5t-23.5 26t-8.5 32.5t12 30h-109zM55.5 102q12.5 -8 38.5 -8t37 10t9.5 22.5t-15 23t-35.5 10.5q-43 0 -46 -37q-1 -13 11.5 -21zM538.5 221.5q10.5 7.5 10.5 21.5t-10.5 23.5t-22.5 10.5t-22 -6t-10 -24t10 -24
t22 -8t22.5 6.5zM148 346q-9 -7 -27 -13.5t-33 -6.5q-53 0 -80 38q-8 13 -8 31q0 55 66 77q29 10 62.5 4.5t58.5 -21.5q24 -14 35.5 -38t10.5 -43q0 -59 -56 -84q-34 -16 -68.5 -16t-50.5 4l-24 6q-34 8 -34 23q0 17 22 14q8 -1 17 -4.5t24 -7.5t41 -4.5t46 10.5
q40 23 40 58q0 8 -2 15l-3 18q-3 -13 -8 -27.5t-29 -32.5zM88 411q-22 -15 -22 -33q0 -9 7.5 -14t22.5 -4q22 7 31 27t8 33q-30 0 -47 -9z" />
    <glyph glyph-name="U0C15_U0C3F_U0C37_U0C4D.akhn" horiz-adv-x="387" 
d="M274 -72q-21 -29 -57 -29q-22 0 -37.5 9.5t-30.5 27.5q-33 -35 -72 -35q-27 0 -52 21.5t-25 45.5t13 24q8 0 12 -6.5t9 -13.5q16 -20 43 -20q37 0 72 35q15 -20 28.5 -29t39.5 -9q34 0 48 34q3 9 10.5 9t10.5 -10.5t7.5 -32t22.5 -28.5q21 -12 17 -28.5t-22 -18.5t-29 18
q-8 17 -8 36zM185 365q-35 -21 -55.5 -21t-35.5 5t-28 13q-28 17 -28 53q0 56 65 76q28 9 62 3.5t57.5 -20.5t35 -38.5t11.5 -41.5q0 -60 -57 -86q-83 -34 -179 10q-23 10 -23 23q0 15 16 15q3 0 21.5 -9t42.5 -16t50 -7t46 10q39 20 39 59q0 14 -4 32q-3 -14 -8 -28
t-28 -32zM170 438q-47 0 -62 -23q-5 -9 -5 -17.5t6.5 -14.5t26 -1.5t28.5 24.5t6 32zM279 146q16 -16 16 -45.5t-14.5 -48t-36.5 -30.5q-40 -22 -95 -22q-75 0 -114.5 30.5t-34.5 109.5h26q5 -46 111 -46t106 33q0 12 -22.5 19t-53.5 11.5t-60.5 8.5t-45.5 9
q-26 10 -43.5 24t-17.5 39t15.5 41t38.5 26q44 19 90 19t90 -21t56 -60q4 -20 -12 -22q-17 -3 -25 10q-19 22 -55 32t-71.5 8.5t-61.5 -12.5t-26 -30q0 -15 30.5 -23t60.5 -13.5t57 -8.5t51.5 -12.5t40.5 -25.5z" />
    <glyph glyph-name="U0C15_U0C40.abvs" horiz-adv-x="345" 
d="M161 494q1 -3 -2.5 -5t-9.5 -3.5l-12 -3t-7 -0.5q-20 16 -20 46t21.5 46t47.5 16t47 -15t22 -39q3 -21 -4 -24.5t-22 -3.5q0 12 -12 21.5t-24 9.5q-29 0 -32 -13t7 -32zM185 365q-35 -21 -55.5 -21t-35.5 5t-28 13q-28 17 -28 53q0 56 65 76q28 9 62 3.5t57.5 -20.5
t35 -38.5t11.5 -41.5q0 -60 -57 -86q-83 -34 -179 10q-23 10 -23 23q0 15 16 15q3 0 21.5 -9t42.5 -16t50 -7t46 10q39 20 39 59q0 14 -4 32q-3 -14 -8 -28t-28 -32zM170 438q-47 0 -62 -23q-5 -9 -5 -17.5t6.5 -14.5t26 -1.5t28.5 24.5t6 32zM279 146q16 -16 16 -45.5
t-14.5 -48t-36.5 -30.5q-40 -22 -95 -22q-75 0 -114.5 30.5t-34.5 109.5h26q5 -46 111 -46t106 33q0 12 -22.5 19t-53.5 11.5t-60.5 8.5t-45.5 9q-26 10 -43.5 24t-17.5 39t15.5 41t38.5 26q44 19 90 19t90 -21t56 -60q4 -20 -12 -22q-17 -3 -25 10q-19 22 -55 32t-71.5 8.5
t-61.5 -12.5t-26 -30q0 -15 30.5 -23t60.5 -13.5t57 -8.5t51.5 -12.5t40.5 -25.5z" />
    <glyph glyph-name="U0C16_U0C40.abvs" horiz-adv-x="496" 
d="M240 -56q0 -17 -13 -25.5t-27.5 -8.5t-27.5 8.5t-13 25.5q0 27 44 81q37 -50 37 -81zM219 533q-15 0 -15 12q0 7 -10.5 13.5t-22.5 8t-22.5 -4.5t-10.5 -21q-2 -15 4.5 -21.5t21.5 -11.5q65 3 117 -24.5t89 -73t56.5 -103t19.5 -117.5q0 -70 -36 -127
q-17 -28 -44.5 -45.5t-63.5 -17.5q-55 0 -98 55q-42 -55 -105 -55q-99 0 -99 84q0 41 29 58.5t69 17.5t96 -33q9 9 17.5 31.5t8.5 36.5q0 45 -34 79t-79 34q-28 0 -38 -5q34 0 57 -16q29 -18 29 -45q2 -30 -22 -48.5t-47.5 -21.5t-42 5t-31 25.5t-12.5 45.5q0 39 32.5 62.5
t73 23.5t65.5 -13t46 -38q38 -45 38 -101q0 -22 -6 -45t-14 -36q18 -9 58.5 -9t66 27t34.5 64.5t4.5 79t-18.5 71.5q-25 52 -63 83q-40 35 -108 39q7 -10 7 -35t-24 -42.5t-54.5 -17.5t-53.5 19.5t-23 49.5q0 46 65 72q-33 19 -29 53q3 26 23 39.5t44 13.5t47.5 -15.5
t23.5 -38.5q0 -11 -5 -16t-11 -5zM173 402.5q9 9.5 9 21.5q0 20 -3 30q-17 2 -31 -7q-26 -17 -26 -31t9 -20.5t21 -4.5t21 11.5zM84 218q10 9 10 23t-10.5 22.5t-25 8.5t-22 -10t-7.5 -21.5t7 -21.5t22.5 -10t25.5 9zM166 105q-41 30 -78 30q-10 0 -25 -4.5t-15 -17.5
q0 -21 59 -21q28 0 59 13z" />
    <glyph glyph-name="U0C17_U0C40.abvs" horiz-adv-x="394" 
d="M287 278q88 -95 35 -259q-10 -16 -32 -17q-44 -4 -66 23q-10 13 0 31q18 30 32 56.5t17 62.5q6 56 -27 91q-32 37 -74.5 39t-75.5 -37q-33 -40 -16 -110q11 -44 46 -106q0 -26 -14.5 -37t-32 -13t-33 2.5t-19.5 11.5q-27 39 -27 89q0 121 83 195q-22 9 -34.5 29.5
t-12.5 42.5q0 56 82 74q-8 4 -18 16t-10 37t20 40.5t47.5 15.5t49.5 -15.5t22 -39.5q0 -10 -4.5 -16t-10.5 -7q-14 -2 -16 12q0 5 -11.5 11t-24.5 6q-33 2 -33 -21q0 -17 10 -25.5t22 -13.5q72 -17 101 -57q25 -34 25 -111zM133 326q26 7 45 7q44 0 82 -28q-3 34 -26 61
t-57 27q-36 0 -55 -20q-8 -9 -6.5 -21.5t17.5 -25.5z" />
    <glyph glyph-name="U0C18_U0C40.abvs" horiz-adv-x="726" 
d="M125 491q1 -2 -3 -4t-10 -4q-16 -6 -18 -3q-20 15 -20 45t21.5 46.5t47.5 16.5t47 -15t22.5 -38t-4.5 -27q-8 -2 -22 -2q0 11 -12.5 21t-24.5 10q-28 0 -31.5 -13t7.5 -33zM148 363q-9 -7 -27 -14t-33 -7q-53 0 -80 38q-8 13 -8 31q0 56 66 78q29 9 62.5 3t58.5 -21
q22 -15 34.5 -38.5t11.5 -41.5q0 -60 -58 -86q-60 -26 -130 -7q-26 6 -35.5 12t-9.5 20t13 14q6 -1 11.5 -5t27.5 -10q56 -19 103 5q35 20 35 56q0 10 -5 32q-3 -14 -8 -27.5t-29 -31.5zM88 428q-22 -15 -22 -34q0 -8 7.5 -14t26 -1.5t27.5 25t8 31.5q-30 0 -47 -7zM252 -56
q0 -17 -13 -25.5t-28 -8.5t-28 8.5t-13 25.5q0 30 46 81q36 -48 36 -81zM398 274q43 -50 43 -117t-33 -109q-19 -25 -47 -36t-56.5 -9.5t-54 14.5t-38.5 35q-13 -26 -31.5 -39t-44.5 -13t-42 8t-28 22q-28 29 -25.5 73.5t28.5 67.5t56 21q64 -3 97 -65q12 -20 41 -28.5
t60 -3t55 28t24 64t-33.5 70.5t-77.5 25q-18 -1 -28 7t-11 16.5t6.5 16t33.5 5.5q68 -5 106 -54zM162 150.5q-13 10.5 -34 10.5t-33 -10.5t-13 -23.5t9 -23t36 -10t38.5 10t11 23t-14.5 23.5zM664 79q-11 -34 -45 -56.5t-66 -22.5t-55.5 10.5t-41 28t-29 37.5t-11.5 47l6 26
q7 14 17 29q2 -6 2 -12l1 -14q3 -17 13 -30t23 -19q24 -11 50 -11t44 7.5t32 18.5q33 26 33 64q0 46 -47 74q-42 26 -87 21q-8 -1 -13.5 3.5t-9.5 7.5q-7 6 -7 19.5t8 18t32.5 4.5t57.5 -14t54 -37t30 -44t13.5 -40.5t5.5 -32.5q5 -44 -10 -83z" />
    <glyph glyph-name="U0C19_U0C40.abvs" horiz-adv-x="465" 
d="M303 507q1 -3 -3 -5t-10 -4q-17 -4 -18 -3q-20 16 -20 46t21.5 46t47.5 16t47 -15t22 -39q3 -21 -4 -25q-8 -3 -22 -3q0 12 -12.5 21.5t-23.5 9.5q-29 0 -32.5 -13t7.5 -32zM326 378q-9 -6 -27 -13.5t-33 -7.5q-29 0 -58 18t-29 53q0 56 65 76q29 9 63 3.5t57 -20.5
t35.5 -38.5t11.5 -41.5q0 -60 -57 -86q-63 -26 -130 -8q-26 7 -41 14t-15 19q0 15 14 15q4 0 15 -5t35 -13q53 -18 101 7q26 13 33 45q7 29 -3 43q-3 -14 -8 -28t-29 -32zM266 443q-22 -13 -22 -33q0 -8 6.5 -14t22.5 -3q23 6 32.5 26t6.5 32q-29 0 -46 -8zM394 166
q19 -26 20 -54.5t-11.5 -54t-38 -41.5t-59.5 -16q-63 0 -96 51q-31 -51 -97 -51q-50 0 -81 26t-31 75q0 57 65 79q51 18 77.5 31t26.5 27q0 21 -21 29.5t-38 8.5q-65 0 -74 -46q0 -22 -18 -22t-18 37t31 59t69 22t67 -18t36 -52h63q-16 22 -24 32.5t-8 22t13 18t28.5 6
t28.5 -7t13 -17.5t-8.5 -21.5t-22.5 -32.5h51q15 0 15 -24.5t-15 -24.5h-141q-8 -13 -24.5 -21t-37 -14.5t-40.5 -12.5q-45 -13 -48 -35q-1 -11 9 -20q7 -8 28 -11t43.5 0.5t43 16t26.5 36.5q3 11 5.5 15.5t9 6t10.5 -5.5t8 -16q13 -30 28 -42t37 -12t37 4.5t25 13.5
q23 21 12 50z" />
    <glyph glyph-name="U0C1A_U0C40.abvs" horiz-adv-x="511" 
d="M53 108q0 57 65 93q-16 -1 -39 -11q-43 -17 -52 -17q-27 0 -27 28q0 41 42 41h127q-1 -5 -1 -29q-59 -41 -59 -70q0 -20 10 -34.5t29 -14.5q33 0 55.5 15.5t26.5 47.5q0 11 0.5 16.5t11 5.5t12 -5.5t3.5 -16.5q7 -27 28.5 -45t48.5 -18q35 0 54.5 37t19.5 80.5t-11 76.5
t-32 58q-46 53 -123 53q6 -16 5 -31q-1 -40 -30.5 -52.5t-58 -7.5t-46.5 20t-18 41q0 48 63 73q-19 16 -24.5 34.5t0.5 34t23 26t41.5 10.5t45.5 -17t21 -37.5t-14 -20.5q-12 0 -16 9.5t-15 15t-22.5 5.5t-20 -6.5t-8.5 -18.5q2 -23 27 -29q121 0 195 -78q71 -75 71 -195
q0 -111 -65 -158q-24 -17 -56 -17q-70 0 -98 58q-20 -32 -46 -45q-66 -32 -116 19q-27 28 -27 76zM155 361q2 -20 20.5 -25.5t30.5 7t13.5 23.5t-3 19t-15.5 10.5t-24 -3.5q-22 -9 -22 -31z" />
    <glyph glyph-name="U0C1B_U0C40.abvs" horiz-adv-x="511" 
d="M278 -56q0 -17 -13 -25.5t-28 -8.5t-28 8.5t-13 25.5q0 30 46 81q36 -48 36 -81zM53 108q0 57 65 93q-16 -1 -39 -11q-43 -17 -52 -17q-27 0 -27 28q0 41 42 41h127q-1 -5 -1 -29q-59 -41 -59 -70q0 -20 10 -34.5t29 -14.5q33 0 55.5 15.5t26.5 47.5q0 11 0.5 16.5
t11 5.5t12 -5.5t3.5 -16.5q7 -27 28.5 -45t48.5 -18q35 0 54.5 37t19.5 80.5t-11 76.5t-32 58q-46 53 -123 53q6 -16 5 -31q-1 -40 -30.5 -52.5t-58 -7.5t-46.5 20t-18 41q0 48 63 73q-19 16 -24.5 34.5t0.5 34t23 26t41.5 10.5t45.5 -17t21 -37.5t-14 -20.5q-12 0 -16 9.5
t-15 15t-22.5 5.5t-20 -6.5t-8.5 -18.5q2 -23 27 -29q121 0 195 -78q71 -75 71 -195q0 -111 -65 -158q-24 -17 -56 -17q-70 0 -98 58q-20 -32 -46 -45q-66 -32 -116 19q-27 28 -27 76zM155 361q2 -20 20.5 -25.5t30.5 7t13.5 23.5t-3 19t-15.5 10.5t-24 -3.5q-22 -9 -22 -31
z" />
    <glyph glyph-name="U0C1C_U0C40.abvs" horiz-adv-x="497" 
d="M291 441q56 10 99 -22q44 -32 52 -81q10 -65 -28 -112t-101 -47q-28 0 -57.5 15t-43.5 39q-7 -38 -74 -54q-90 -21 -90 -46q0 -17 27 -29q22 -10 41 -10q75 0 89 58q3 16 14 17t18 -16q22 -59 88 -59q42 0 59 29q7 11 7 28q-2 19 13 19q17 0 26 -30q5 -18 5 -41
q-6 -48 -36.5 -73t-77.5 -25q-65 0 -100 51q-23 -25 -46 -38.5t-66.5 -13.5t-76 28t-32.5 71t22 62q22 22 54 30t61 17t36.5 22t1 24.5t-24 20t-34 8.5t-29.5 -3.5t-24 -11.5q-27 -18 -27 -39q0 -13 -17 -13q-19 0 -19 30q0 41 35 67q33 23 75 21q45 -1 72 -26
q13 -12 25.5 -26t26.5 -26q32 -27 70.5 -27t68 29t29.5 71q0 23 -19.5 40.5t-41.5 19.5q14 -11 12 -33.5t-17 -37.5q-28 -28 -60.5 -28t-56.5 20t-21.5 46t15.5 43.5t43 33.5q-26 18 -26 47.5t21.5 44t47.5 14.5t47 -16.5t23 -41.5q1 -7 -4.5 -12.5t-17.5 -5.5t-13 11
q-1 19 -27 19q-35 0 -35 -22q0 -19 19 -30zM263.5 325q6.5 -5 14.5 -5q19 2 34 23q12 21 0 40q-18 0 -36.5 -14t-18.5 -26.5t6.5 -17.5z" />
    <glyph glyph-name="U0C1D_U0C40.abvs" horiz-adv-x="864" 
d="M610 -38q0 -15 -13 -23.5t-28 -8.5t-28 7.5t-13 24.5q0 28 44 81q38 -50 38 -81zM351 155q0 -72 -49 -115q-49 -40 -123 -40t-126.5 44t-52.5 118q0 88 83 140q-47 19 -47 61q0 26 25 48t55 26q-24 23 -24 49.5t18.5 41.5t46.5 15t48 -13.5t21 -42.5q0 -19 -15 -19
q-13 0 -13 10q-13 17 -33 17q-34 0 -34 -20.5t31 -37.5q64 -18 91 -49q35 -40 28 -96q70 -54 70 -137zM147 321l27 3q42 0 78 -15q1 33 -19.5 52.5t-46.5 24.5t-48 -3.5t-22 -28.5t31 -33zM260 266q-35 30 -84.5 30t-88.5 -31t-39 -77q0 -45 41 -72q41 -26 89 -22
q42 0 80 26q41 29 41 72t-39 74zM802 218.5q12 -32.5 12 -64.5t-8 -58.5t-24 -47.5q-34 -48 -92 -48q-43 0 -73.5 22.5t-44.5 59.5q-10 -37 -44 -59.5t-66 -22.5t-55.5 10.5t-41 28t-29 37.5t-11.5 47l6 26q7 14 17 29q2 -6 2 -12v-20q3 -39 62 -50q17 -4 34 -4t35 7.5
t33 18.5q32 26 32 64q0 23 -14.5 41.5t-34.5 30.5q-41 23 -85 18q-13 -3 -22 13q-8 13 -8 24.5t8 16t32.5 4.5t57.5 -14t54 -37t29 -44t12.5 -41t7.5 -38t13 -32q23 -32 80 -32q39 0 70 26t31 64q0 23 -13.5 41.5t-33.5 30.5q-40 23 -87 18q-15 -3 -23 10.5t-8 24.5
q0 23 37 23t67.5 -15t52 -39.5t33.5 -57z" />
    <glyph glyph-name="U0C1E_U0C40.abvs" horiz-adv-x="647" 
d="M487 500q2 -2 -2 -4t-10 -4q-17 -6 -19 -3q-19 15 -19 45t22 46.5t47.5 16.5t46 -15t22.5 -37t-3 -28q-10 -2 -22 -2q0 11 -12.5 21t-25.5 10q-27 0 -31 -13.5t6 -32.5zM512 372q-9 -8 -28 -14.5t-32 -6.5q-31 0 -59.5 17.5t-28.5 51.5q0 57 65 77q29 10 63 4
q69 -12 93 -60q12 -24 12 -42q-2 -58 -58 -84q-30 -15 -71 -15q-39 0 -53 7q-12 2 -21 5.5t-9 17.5t14 14q4 0 10 -2.5t18 -6.5t39 -4.5t47 10t29.5 24t9.5 27.5q0 23 -5 38q-2 -13 -6.5 -26.5t-28.5 -31.5zM452 435q-11 -5 -17 -14t-6 -17.5t7 -14.5t23 -4q22 6 31.5 27
t7.5 33q-29 0 -46 -10zM395 196q-4 -48 -44 -108q47 -61 47 -83q0 -12 -8 -18.5t-18 -6.5q-27 -2 -34 28l-12 56q-80 -64 -174 -64q-43 0 -72 19.5t-41 46t-3 54t44.5 44.5t89.5 17q74 0 141 -51q26 19 38 60q11 39 -11 57.5t-50 17t-51 -14.5q-30 -16 -30 -36
q0 -14 -12.5 -14t-12.5 16q0 24 -24 36t-52 12t-52 -12t-24 -32q0 -11 -6 -14q-18 -8 -22 13q-4 20 0 37q10 41 42 62q24 16 53.5 17.5t52 -13t48.5 -43.5q11 30 41 44.5t62 11t58.5 -24.5t33.5 -64h70q-16 22 -19 28t-9 17q-7 17 5 27.5t32.5 10.5t34 -10t5.5 -25l-6 -12
q-2 -4 -5 -8t-7.5 -10.5t-12.5 -17.5h53q11 0 13.5 -6.5t2.5 -19t-1.5 -18.5t-14.5 -6h-139zM282 113q-49 43 -117 43h-22q-33 0 -51 -14q-10 -8 -9 -22q3 -19 25 -22.5t47 -3.5q37 -2 75.5 6t51.5 13z" />
    <glyph glyph-name="U0C1F_U0C40.abvs" horiz-adv-x="513" 
d="M342 477q1 -3 -3 -4.5t-9 -3.5q-17 -6 -19 -4q-20 16 -20 46t22 46t47.5 16t46.5 -15t23 -37t-4 -27q-10 -3 -22 -3q0 12 -12 22t-25 10q-28 0 -32 -14t7 -32zM367 348q-10 -7 -28.5 -13.5t-31.5 -6.5q-31 0 -60 17.5t-29 50.5q0 58 67 77q27 11 61 5t58 -21t35.5 -39
t11.5 -42q-1 -59 -57 -85q-34 -15 -64 -14.5t-65 8.5q-22 5 -21 17q4 16 15 15q42 -10 55 -11q28 -2 50.5 10t32.5 25.5t10 31.5t-5 34q-3 -13 -7.5 -26.5t-27.5 -32.5zM307 412q-12 -5 -18 -14t-6 -17.5t7.5 -14.5t22.5 -5q22 7 32 27.5t7 32.5q-28 0 -45 -9zM274 300
q9 8 36 8t58.5 -13t53.5 -37q46 -52 36 -137q-7 -48 -37 -84.5t-84 -36.5q-34 0 -60.5 18t-37.5 38q-15 -22 -39.5 -39t-62.5 -17t-68 19.5t-47 51.5q-32 74 -12 149q23 90 116 109q-6 12 -12.5 30t-10.5 29t-6 18q-3 20 10.5 29.5t31 9.5t32 -9.5t10.5 -24.5
q-9 -32 -28 -82q40 -2 56 -20q17 -15 20.5 -35.5t-4 -38.5t-23 -32.5t-36.5 -17.5q-23 -6 -46 4t-33 35q-13 28 3 58q-20 -21 -29 -52.5t-4 -62.5t24 -53t53.5 -22t58 23.5t34.5 57.5h16q10 -34 29 -57.5t57 -23.5t63 23t29.5 53t-13 59t-60.5 42q-7 1 -19.5 4t-24.5 5
q-30 6 -32 8q-7 6 2 14zM121.5 289.5q-11.5 -8.5 -11.5 -30t13 -32t28 -7.5q28 4 28 39q0 17 -9.5 28t-23 11t-25 -8.5z" />
    <glyph glyph-name="U0C20_U0C40.abvs" horiz-adv-x="401" 
d="M198.5 229q10.5 -9 10.5 -23.5t-10.5 -25t-24.5 -10.5t-25 10.5t-11 25t11 23.5t25 9t24.5 -9zM351 155q0 -73 -51 -115q-48 -40 -121 -40q-75 0 -125 43q-54 46 -54 119q0 89 83 141q-47 17 -47 61q0 26 25.5 47.5t54.5 25.5q-24 23 -24 50.5t19 42.5t46.5 15t47.5 -14
t21 -44q0 -18 -13 -21q-5 -1 -9.5 2.5t-5.5 9.5q-16 20 -40 18q-10 -1 -18.5 -6.5t-8.5 -15.5q0 -20 31 -37q94 -23 116 -90q7 -23 3 -55q70 -54 70 -137zM174 324q40 0 79 -13q3 31 -33 62q-26 20 -64 15q-16 -2 -27.5 -10.5t-11.5 -23.5q0 -20 31 -32zM288.5 144.5
q11.5 17.5 11.5 48.5t-22.5 56t-55 37t-69 7.5t-61.5 -23.5q-50 -41 -44 -84q5 -52 48 -75q31 -17 81 -17q45 0 81 22q19 11 30.5 28.5z" />
    <glyph glyph-name="U0C21_U0C40.abvs" horiz-adv-x="476" 
d="M238 500q4 -4 -24 -12q-6 -1 -7 1q-20 15 -20 45.5t21.5 47t47.5 16.5t47 -15t22 -41q3 -21 -4 -25q-4 -1 -22 -1q0 12 -12.5 21.5t-23.5 9.5q-29 0 -32.5 -13.5t7.5 -33.5zM261 372q-9 -7 -27 -13.5t-33 -6.5q-33 0 -58 17q-29 20 -29 52q0 56 65 77q29 9 63 3t58 -20
q22 -14 34 -38t12 -43q0 -59 -57 -84q-60 -28 -130 -9q-26 6 -49 16.5t-23 23.5q0 16 16 16q2 0 21 -9.5t43 -16.5t50 -7q48 0 75 35q10 13 10 30.5t-4 36.5q-3 -15 -8 -28.5t-29 -31.5zM201 437q-22 -15 -22 -33q0 -20 29 -18q23 7 32.5 27t6.5 33q-25 0 -46 -9zM403 203.5
q23 -31.5 23 -81t-33.5 -86t-88.5 -36.5q-30 0 -54 10.5t-45 44.5q-10 -30 -37.5 -42.5t-53.5 -12.5t-47.5 11.5t-36.5 30.5q-30 40 -30 93q0 83 63 138.5t152 55.5q102 0 144 -42q4 -4 1 -11q-5 -13 -21 -10q-6 3 -11.5 7.5t-11.5 8.5q-37 18 -111 18q-54 0 -103 -34
q-51 -35 -51 -91q0 -33 18 -58t52 -25q54 0 70 68q4 17 14 17q8 0 12 -16q7 -34 31.5 -51.5t59.5 -17.5t53.5 13t25.5 29q-13 -16 -35 -22.5t-43.5 -2.5t-37.5 18.5t-16 36t7 33.5t18 20q23 17 50 17q50 1 73 -30.5zM317.5 152q8.5 -9 25 -8.5t24 10.5t7 21.5t-10 20.5
t-25.5 8t-23.5 -11t-6.5 -21t9.5 -20z" />
    <glyph glyph-name="U0C22_U0C40.abvs" horiz-adv-x="476" 
d="M321 517l-22 -1q0 12 -10 23t-27.5 7.5t-26 -15t2.5 -29.5q1 -3 -3 -5.5t-9 -4.5q-16 -5 -19 -2q-20 13 -20 44t21.5 47.5t47.5 16.5t47 -15t22 -37.5t-4 -28.5zM261 372q-9 -7 -27 -13.5t-33 -6.5q-33 0 -58 17q-29 20 -29 52q0 56 65 77q29 10 63 4.5t57 -20.5t35 -39
t12 -43q0 -59 -57 -84q-61 -29 -130 -8q-72 19 -72 39q0 16 16 16q2 0 21 -8.5t43 -16.5t50 -8t45 11q40 22 40 59q0 13 -4 32q-3 -13 -8 -27.5t-29 -32.5zM201 437q-22 -15 -22 -33q0 -20 29 -18q23 7 32.5 27t6.5 33q-29 0 -46 -9zM403 203.5q23 -31.5 23 -81t-33.5 -86
t-88.5 -36.5q-30 0 -54 10.5t-45 44.5q-10 -30 -37.5 -42.5t-53.5 -12.5t-47.5 11.5t-36.5 30.5q-30 40 -30 93q0 83 63 138.5t152 55.5q102 0 144 -42q4 -4 1 -11q-5 -13 -21 -10q-6 3 -11.5 7.5t-11.5 8.5q-37 18 -111 18q-54 0 -103 -34q-51 -35 -51 -91q0 -33 18 -58
t52 -25q54 0 70 68q4 17 14 17q8 0 12 -16q7 -34 31.5 -51.5t59.5 -17.5t53.5 13t25.5 29q-13 -16 -35 -22.5t-43.5 -2.5t-37.5 18.5t-16 36t7 33.5t18 20q23 17 50 17q50 1 73 -30.5zM317.5 152q8.5 -9 25 -8.5t24 10.5t7 21.5t-10 20.5t-25.5 8t-23.5 -11t-6.5 -21
t9.5 -20zM244 -52q0 -17 -13 -25.5t-28 -8.5t-28 8.5t-13 25.5q0 29 45 81q37 -49 37 -81z" />
    <glyph glyph-name="U0C23_U0C40.abvs" horiz-adv-x="511" 
d="M417 508l-22 -1q0 12 -12.5 21.5t-25.5 9.5q-27 0 -31 -13.5t7 -31.5q1 -3 -3 -5.5t-10 -4.5q-15 -5 -18 -2q-20 16 -20 45.5t22 46t47.5 16.5t46.5 -15t22.5 -36.5t-3.5 -29.5zM357 363q-9 -7 -27.5 -13.5t-31.5 -6.5q-32 0 -60.5 17t-28.5 52q0 55 65 77q29 10 62.5 4
t58 -20.5t36 -39t11.5 -42.5q-1 -60 -57 -84q-60 -28 -130 -8q-26 6 -32 11.5t-8.5 13t2.5 11.5t11 4t32.5 -9t52 -9t45.5 11t30 24.5t10 27.5q0 16 -5 38q-3 -13 -7.5 -27t-28.5 -32zM343 437q-46 0 -63 -25q-6 -9 -6 -17.5t7.5 -13.5t22.5 -4q22 6 32 26.5t7 33.5zM43 160
q-43 10 -43 62q2 49 42 78q40 28 88 20q62 -7 88 -51q13 26 42 39t62 13q64 0 101.5 -46t37.5 -113q0 -48 -20 -84q-42 -78 -113 -78q-61 0 -88 40q-11 18 -13 39t6.5 42t28 34t41 13.5t40 -10.5t25 -30t5.5 -35t-9 -31q-16 -31 -47 -35q48 0 78 39q26 32 26 78t-29 74.5
t-76.5 28.5t-72.5 -22q-8 -10 -12 -21.5t-6.5 -15t-9.5 -3.5t-9.5 3.5t-3.5 9.5q-5 18 -15 27q-22 18 -77 18q-27 0 -44 -9t-22.5 -21t1.5 -23.5t21.5 -14t28.5 -2t34 -0.5q19 -3 19 -16.5t-19 -13.5h-47q-24 -3 -33 -14t-5 -22q9 -33 54 -35q19 -1 38 4t36.5 16t26.5 5.5
t9 -16.5q-3 -38 -36 -59.5t-69.5 -21.5t-69.5 22.5t-33 64.5q0 52 43 73zM307.5 53.5q8.5 10.5 8 28.5t-10.5 26.5t-20.5 8.5t-19.5 -9t-8.5 -28t10.5 -28t21 -9t19.5 10.5z" />
    <glyph glyph-name="U0C24_U0C40.abvs" horiz-adv-x="480" 
d="M400 259q30 -26 30 -71.5t-18.5 -86t-48.5 -61.5q-61 -40 -148.5 -40t-145.5 38q-69 43 -69 124q0 69 35 101t84 32t67 -21t15.5 -46t-22.5 -45.5t-49 -19t-49.5 16.5t-20.5 45q0 15 8 27q-36 -26 -24 -72q5 -20 18 -37q37 -49 147 -49q79 0 130 33q57 39 52 98
q-18 -30 -42.5 -43t-48.5 -11.5t-38.5 15.5t-18.5 32.5t3 36.5t30 29q37 18 98 -5q-10 55 -57.5 96t-96.5 45q4 -42 -13 -66q-15 -23 -43 -27.5t-52 6.5q-29 11 -36.5 32.5t-2 43t22 38t35.5 18.5q-15 13 -20.5 31.5t0 35.5t20.5 28t40 11t47 -13t25 -39q1 -13 -3.5 -18.5
t-11 -5.5t-11.5 4t-5 10.5t-9 13.5t-21 8t-22.5 -5.5t-11.5 -22.5t6.5 -24t15.5 -8q106 7 168 -52q62 -62 62 -160zM149 357q22 -4 33 23q10 21 4 40q-21 -3 -34 -13q-12 -11 -16.5 -28.5t13.5 -21.5zM369 252q-22 13 -39 13t-25.5 -8.5t-9 -19.5t6.5 -19.5t22 -8.5
q23 0 45 43zM107 265q-14 -8 -16 -32q0 -13 6.5 -23.5t19 -9.5t17.5 11t4.5 21.5t-8.5 21.5t-23 11z" />
    <glyph glyph-name="U0C25_U0C40.abvs" horiz-adv-x="482" 
d="M250 -48q0 -17 -13 -25.5t-28 -8.5t-28 8.5t-13 25.5q0 25 45 80q37 -48 37 -80zM239 259.5q12 -9.5 12 -24t-12 -24.5t-26 -10t-24 10t-10 24.5t10 24t24 9.5t26 -9.5zM213 57q-31 -57 -90 -57t-91 36.5t-32 93.5q0 122 112 177q-24 15 -30.5 36t0 40.5t24 35.5t43.5 24
q-20 18 -20 44t20.5 41t46.5 17t46.5 -13.5t20.5 -40t-13 -24.5q-6 0 -11 6q-15 24 -36 24q-21 -2 -24.5 -17t8.5 -32q32 -5 55 -15q82 -38 82 -134q45 -27 76.5 -70t31.5 -98q0 -51 -30 -89q-33 -42 -85 -42q-36 0 -64 17.5t-40 39.5zM175 326q11 3 46.5 3t70.5 -16
q-2 33 -27.5 56.5t-57.5 23.5q-50 0 -50 -39q0 -17 18 -28zM123 95q69 0 82 82h20q9 -31 30 -56.5t54 -25.5t52 22.5t19 52.5q0 55 -59 94q-49 36 -107.5 36t-108.5 -34q-24 -18 -38 -46.5t-14 -56.5t17 -48t53 -20z" />
    <glyph glyph-name="U0C26_U0C40.abvs" horiz-adv-x="482" 
d="M213 57q-31 -57 -90 -57t-91 36.5t-32 93.5q0 122 112 177q-24 15 -30.5 36t0 40.5t24 35.5t43.5 24q-20 18 -20 44t20.5 41t46.5 17t46.5 -13.5t20.5 -40t-13 -24.5q-6 0 -11 6q-15 24 -36 24q-21 -2 -24.5 -17t8.5 -32q32 -5 55 -15q82 -38 82 -134q45 -27 76.5 -70
t31.5 -98q0 -51 -30 -89q-33 -42 -85 -42q-36 0 -64 17.5t-40 39.5zM175 326q11 3 46.5 3t70.5 -16q-2 33 -27.5 56.5t-57.5 23.5q-50 0 -50 -39q0 -17 18 -28zM123 95q69 0 82 82h20q9 -31 30 -56.5t54 -25.5t52 22.5t19 52.5q0 55 -59 94q-49 36 -107.5 36t-108.5 -34
q-24 -18 -38 -46.5t-14 -56.5t17 -48t53 -20z" />
    <glyph glyph-name="U0C27_U0C40.abvs" horiz-adv-x="482" 
d="M250 -48q0 -17 -13 -25.5t-28 -8.5t-28 8.5t-13 25.5q0 25 45 80q37 -48 37 -80zM213 57q-31 -57 -90 -57t-91 36.5t-32 93.5q0 122 112 177q-24 15 -30.5 36t0 40.5t24 35.5t43.5 24q-20 18 -20 44t20.5 41t46.5 17t46.5 -13.5t20.5 -40t-13 -24.5q-6 0 -11 6
q-15 24 -36 24q-21 -2 -24.5 -17t8.5 -32q32 -5 55 -15q82 -38 82 -134q45 -27 76.5 -70t31.5 -98q0 -51 -30 -89q-33 -42 -85 -42q-36 0 -64 17.5t-40 39.5zM175 326q11 3 46.5 3t70.5 -16q-2 33 -27.5 56.5t-57.5 23.5q-50 0 -50 -39q0 -17 18 -28zM123 95q69 0 82 82h20
q9 -31 30 -56.5t54 -25.5t52 22.5t19 52.5q0 55 -59 94q-49 36 -107.5 36t-108.5 -34q-24 -18 -38 -46.5t-14 -56.5t17 -48t53 -20z" />
    <glyph glyph-name="U0C28_U0C40.abvs" horiz-adv-x="449" 
d="M399 192q0 -70 -28 -124q-35 -68 -98 -68q-74 0 -112 83q-14 29 -33 47t-36.5 24t-30 -0.5t-12.5 -23.5t9.5 -28.5t21 -22t22 -18.5t11.5 -13q14 -28 -9 -42q-9 -6 -22 -6t-25 5q-57 27 -57 95q0 39 17 58t42 21.5t54.5 -8t53.5 -30t44 -33t39 -13.5q33 0 58 24t38 59.5
t11 74.5t-22 69q-52 84 -154 86q7 -9 6 -29t-10 -35.5t-31.5 -25t-45.5 -3.5q-57 13 -56 75q1 19 14 37t39 24q-22 16 -24.5 40t14.5 43.5t47 19.5t51.5 -15t21.5 -37t-13 -21.5t-16 12.5q-4 9 -14.5 13.5t-22 4t-20 -6.5t-8.5 -20.5t23 -25.5q95 2 168 -55q95 -75 95 -211z
M153 408q-18 0 -30.5 -7.5t-18 -18t-3 -21t14 -15.5t22 0t16.5 16t6 23.5t-7 22.5z" />
    <glyph glyph-name="U0C2A_U0C40.abvs" horiz-adv-x="484" 
d="M123 468q2 -1 -2 -4t-10 -4.5t-11.5 -3t-7.5 -0.5q-19 16 -19 46.5t21.5 46.5t47.5 16t46.5 -14.5t23.5 -40.5q0 -21 -4 -25q-5 -1 -23 -1q0 11 -12 21t-25 10q-27 0 -31 -14t6 -33zM148 339q-10 -6 -28.5 -12.5t-33.5 -6.5t-29.5 4t-27.5 13q-29 20 -29 52q0 56 65 76
q29 9 62.5 3.5t57.5 -20t36 -38.5t10 -42q0 -60 -56 -85q-61 -28 -131 -9q-26 7 -35 12.5t-9 16.5q0 18 14 15q5 0 10 -3t29 -10t50 -7t45.5 11t29.5 24t10 27q0 24 -5 39q-2 -13 -7.5 -27.5t-27.5 -32.5zM134 413q-47 0 -63 -24q-6 -9 -6 -17.5t7 -14t23 -3.5q22 6 31 26
t8 33zM304 0q-30 0 -52 6.5t-47 44.5q-11 -19 -32.5 -35t-51.5 -16q-43 0 -66 28.5t-23 63.5q-1 35 20.5 64.5t67.5 31.5q37 5 66 -22q15 -13 21.5 -26t14.5 -23t22.5 -17.5t53.5 -7.5t68 20.5t28.5 67.5t-33.5 75t-78 28q-10 0 -23 3t-12 22q0 20 30 20q68 0 113 -55
q43 -51 43 -116t-34 -111t-96 -46zM117 94q31 -2 44.5 8.5t12.5 23t-14.5 23t-37 10.5t-35.5 -10t-12.5 -22.5t10 -22.5t32.5 -10z" />
    <glyph glyph-name="U0C2B_U0C40.abvs" horiz-adv-x="484" 
d="M242 -52q0 -16 -13 -24.5t-28 -8.5t-28 8t-13 25q0 26 45 82q37 -48 37 -82zM123 468q2 -1 -2 -4t-10 -4.5t-11.5 -3t-7.5 -0.5q-19 16 -19 46.5t21.5 46.5t47.5 16t46.5 -14.5t23.5 -40.5q0 -21 -4 -25q-5 -1 -23 -1q0 11 -12 21t-25 10q-27 0 -31 -14t6 -33zM148 339
q-10 -6 -28.5 -12.5t-33.5 -6.5t-29.5 4t-27.5 13q-29 20 -29 52q0 56 65 76q29 9 62.5 3.5t57.5 -20t36 -38.5t10 -42q0 -60 -56 -85q-61 -28 -131 -9q-26 7 -35 12.5t-9 16.5q0 18 14 15q5 0 10 -3t29 -10t50 -7t45.5 11t29.5 24t10 27q0 24 -5 39q-2 -13 -7.5 -27.5
t-27.5 -32.5zM134 413q-47 0 -63 -24q-6 -9 -6 -17.5t7 -14t23 -3.5q22 6 31 26t8 33zM304 0q-30 0 -52 6.5t-47 44.5q-11 -19 -32.5 -35t-51.5 -16q-43 0 -66 28.5t-23 63.5q-1 35 20.5 64.5t67.5 31.5q37 5 66 -22q15 -13 21.5 -26t14.5 -23t22.5 -17.5t53.5 -7.5t68 20.5
t28.5 67.5t-33.5 75t-78 28q-10 0 -23 3t-12 22q0 20 30 20q68 0 113 -55q43 -51 43 -116t-34 -111t-96 -46zM117 94q31 -2 44.5 8.5t12.5 23t-14.5 23t-37 10.5t-35.5 -10t-12.5 -22.5t10 -22.5t32.5 -10z" />
    <glyph glyph-name="U0C2C_U0C40.abvs" horiz-adv-x="496" 
d="M105 92q83 0 98 57q0 8 9.5 10t13.5 -8q33 -59 81 -59q40 0 72 40q30 37 30 80q-1 86 -49.5 136.5t-135.5 59.5q7 -10 7 -35.5t-24 -41t-53 -15.5t-53 15.5t-24 46.5q0 50 63 73q-27 21 -27 47.5t21.5 42t46 15.5t43 -16t24.5 -41q3 -9 -2.5 -13.5t-13.5 -4.5
q-10 0 -25 22q-16 11 -30.5 8t-20 -8.5t-5 -15.5t7 -15t20.5 -14q162 0 232 -130q35 -65 35 -142q0 -72 -28 -124q-15 -27 -40.5 -44.5t-61.5 -17.5q-70 0 -100 51q-18 -28 -52 -39.5t-55 -11.5t-40.5 6.5t-34.5 17.5q-34 27 -34 68q0 44 44 65q18 9 39.5 15t41.5 13
q43 13 43 39q0 16 -13 23.5t-31.5 8t-36.5 -4t-27 -11.5q-21 -11 -26 -40q-3 -8 -12 -8q-22 -2 -21.5 29t19.5 48t45 23t54.5 3t48.5 -14q37 -21 35 -53t-39 -50q-4 -4 -21.5 -9t-38.5 -11.5t-37 -15t-16 -21.5t14 -21t40 -8zM187 404q-24 4 -45 -25q-9 -12 -4.5 -22
t15.5 -13t22.5 2.5t16.5 18.5q10 30 -5 39z" />
    <glyph glyph-name="U0C2D_U0C40.abvs" horiz-adv-x="496" 
d="M252 -52q0 -16 -13 -24.5t-28 -8.5t-28 8t-13 25q0 29 44 82q38 -50 38 -82zM105 92q83 0 98 57q0 8 9.5 10t13.5 -8q33 -59 81 -59q40 0 72 40q30 37 30 80q-1 86 -49.5 136.5t-135.5 59.5q7 -10 7 -35.5t-24 -41t-53 -15.5t-53 15.5t-24 46.5q0 50 63 73
q-27 21 -27 47.5t21.5 42t46 15.5t43 -16t24.5 -41q3 -9 -2.5 -13.5t-13.5 -4.5q-10 0 -25 22q-16 11 -30.5 8t-20 -8.5t-5 -15.5t7 -15t20.5 -14q162 0 232 -130q35 -65 35 -142q0 -72 -28 -124q-15 -27 -40.5 -44.5t-61.5 -17.5q-70 0 -100 51q-18 -28 -52 -39.5
t-55 -11.5t-40.5 6.5t-34.5 17.5q-34 27 -34 68q0 44 44 65q18 9 39.5 15t41.5 13q43 13 43 39q0 16 -13 23.5t-31.5 8t-36.5 -4t-27 -11.5q-21 -11 -26 -40q-3 -8 -12 -8q-22 -2 -21.5 29t19.5 48t45 23t54.5 3t48.5 -14q37 -21 35 -53t-39 -50q-4 -4 -21.5 -9t-38.5 -11.5
t-37 -15t-16 -21.5t14 -21t40 -8zM187 404q-24 4 -45 -25q-9 -12 -4.5 -22t15.5 -13t22.5 2.5t16.5 18.5q10 30 -5 39z" />
    <glyph glyph-name="U0C2E_U0C40.abvs" horiz-adv-x="700" 
d="M398 289.5q17 -49.5 17 -92t-7.5 -76t-23.5 -60.5q-35 -61 -105 -61q-33 0 -60.5 15.5t-40.5 37.5q-29 -53 -88 -53q-38 0 -64 29t-26 63.5t17 55.5t41 30.5t50.5 6t43 -20t25.5 -28t19 -21.5q23 -21 56 -21t55 11t37 29q32 38 32 95q0 78 -50 119.5t-128 45.5
q14 -46 -9 -69t-58 -23t-57.5 18.5t-22.5 48t20 47t43 23.5q-30 24 -30 52t19.5 44t51 16t49.5 -18t18 -43q0 -20 -16 -22q-14 -1 -18 12q-3 19 -15.5 25t-24.5 2q-24 -8 -26 -30q0 -16 27 -31h15q58 0 107 -21.5t79.5 -53.5t47.5 -81.5zM107 359q0 -13 9 -21.5t21 -7.5
t21 10q23 23 7 56q-18 7 -31 2t-20 -15.5t-7 -23.5zM144 126q-14 31 -54 31q-22 0 -34 -9.5t-12.5 -22t10 -22t30.5 -9.5t39 8t21 24zM638 79q-11 -34 -45 -56.5t-66 -22.5t-55.5 10.5t-41 28t-29 37.5t-11.5 47l6 26q7 14 17 29q2 -6 2 -12l1 -14q3 -17 13 -30t23 -19
q24 -11 50 -11t44 7.5t32 18.5q33 26 33 64q0 46 -47 74q-42 26 -87 21q-8 -1 -13.5 3.5t-9.5 7.5q-7 6 -7 19.5t8 18t32.5 4.5t57.5 -14t54 -37t30 -44t13.5 -40.5t5.5 -32.5q5 -44 -10 -83z" />
    <glyph glyph-name="U0C2F_U0C40.abvs" horiz-adv-x="1022" 
d="M304 43.5q-47 -43.5 -125 -43.5q-74 0 -125 42q-54 44 -54 119q0 71 46 118q48 50 126 50q76 0 128 -48q51 -47 51 -120.5t-47 -117zM172 92q71 0 106 41q13 16 17 43t-4.5 49t-25.5 37q-36 33 -90 33q-56 0 -95 -37q-42 -41 -27 -94q8 -35 41 -53.5t78 -18.5zM846 347
q114 0 124 -84q2 -41 -17.5 -61.5t-47.5 -22.5t-43.5 10t-21 29t-4 32.5t7.5 21.5h-210q-10 0 -20.5 8.5t-10.5 28t8.5 28.5t34.5 9zM917.5 219.5q10.5 6.5 10.5 21.5t-9.5 23.5t-22 8.5t-23 -7t-10.5 -22t10 -22.5t22 -8t22.5 6zM612 287q0 24 35 24t66.5 -14t54.5 -38
q47 -51 47 -124q0 -54 -30.5 -94.5t-91.5 -40.5q-43 0 -72.5 23.5t-47.5 59.5q-10 -36 -42 -59.5t-68 -23.5q-56 0 -92.5 38.5t-36.5 92.5v20q4 20 14 40q2 -8 4.5 -24t12 -33t30 -29.5t55.5 -12.5q49 0 72.5 30t19.5 66t-34.5 65.5t-87.5 29.5q-17 0 -25.5 8t-8.5 16
q0 23 38.5 23t67 -13.5t47.5 -36.5q34 -41 43 -112q6 -25 22 -42q32 -34 81 -34t70.5 28t15 62t-39 62t-86.5 28q-33 0 -33 15z" />
    <glyph glyph-name="U0C30_U0C40.abvs" horiz-adv-x="401" 
d="M351 155q0 -73 -51 -115q-48 -40 -121 -40q-75 0 -125 43q-54 46 -54 119q0 89 83 141q-47 17 -47 61q0 26 25.5 47.5t54.5 25.5q-24 23 -24 50.5t19 42.5t46.5 15t47.5 -14t21 -44q0 -18 -13 -21q-5 -1 -9.5 2.5t-5.5 9.5q-16 20 -40 18q-10 -1 -18.5 -6.5t-8.5 -15.5
q0 -20 31 -37q94 -23 116 -90q7 -23 3 -55q70 -54 70 -137zM174 324q40 0 79 -13q3 31 -33 62q-26 20 -64 15q-16 -2 -27.5 -10.5t-11.5 -23.5q0 -20 31 -32zM288.5 144.5q11.5 17.5 11.5 48.5t-22.5 56t-55 37t-69 7.5t-61.5 -23.5q-50 -41 -44 -84q5 -52 48 -75
q31 -17 81 -17q45 0 81 22q19 11 30.5 28.5z" />
    <glyph glyph-name="U0C31_U0C40.abvs" horiz-adv-x="544" 
d="M380 494q1 -1 -3.5 -4t-10.5 -4.5t-11 -3t-7 -0.5q-19 16 -19 46.5t21.5 46.5t46.5 16t46 -14.5t24 -40.5q1 -20 -4 -25q-5 -1 -22 -1q0 11 -12.5 21t-25.5 10q-27 0 -30.5 -14t7.5 -33zM403 365q-9 -6 -28 -12.5t-33 -6.5t-30 4t-28 13q-29 22 -29 52q0 54 66 76
q29 9 62 3q70 -11 93 -58q11 -24 11 -42q-1 -61 -57 -85q-61 -27 -130 -9q-39 10 -39 28q0 5 3.5 11.5t10 4t8.5 -4t26 -8.5t49 -7t45.5 11t30 24t9.5 31.5t-5 34.5q-3 -14 -7.5 -28t-27.5 -32zM389 439q-25 0 -41.5 -7.5t-22 -16.5t-5.5 -17.5t7 -14t23 -3.5q22 6 31.5 26
t7.5 33zM238 48q-40 -48 -100 -48q-65 0 -104 53q-34 47 -34 115q0 62 37 106q41 50 99 50q36 0 66.5 -17t30.5 -57q0 -24 -14 -40t-34 -24t-42 -6.5t-39 11.5t-24 30.5t2 51.5q-46 -26 -46 -81q0 -43 30.5 -70t73.5 -28q22 0 41 1.5t30 10t15.5 18t12 8t11 -10t14.5 -14.5
q14 -11 35 -13t30.5 -1t23.5 1t34 6.5t35 19.5q36 30 36 67t-18 59.5t-43 22.5t-39 -13t-14 -36q0 -31 52 -53q15 -6 15 -15.5t-6 -11t-12 -1.5l-280 -1q-6 -2 -13.5 3t-7.5 11q0 14 21 14h215q-59 32 -59 74t30.5 63t67.5 21q57 0 92 -44.5t35 -101.5q0 -73 -41 -124
q-44 -54 -110 -54t-105 48zM160 225.5q9 12.5 9 28.5t-10 26t-22 10t-22 -10t-10 -29.5t9 -28.5t23 -9t23 12.5z" />
    <glyph glyph-name="U0C32_U0C40.abvs" horiz-adv-x="483" 
d="M433 227q0 -100 -59 -164q-57 -63 -162 -63q-91 0 -150 49q-62 53 -62 141q0 58 37.5 96.5t96.5 38.5q32 0 57 -20t26 -49.5t-14.5 -47.5t-38 -24.5t-46.5 0.5t-40 30q-7 11 -9.5 30.5t5.5 33.5q-35 -23 -35 -73q0 -55 57 -85q45 -24 107 -26q76 -4 133 40q60 47 60 119
q0 84 -58 141q-34 34 -101 40q16 -30 -3 -59q-9 -14 -26 -23t-41 -9t-47.5 17t-18.5 51q3 21 19 40.5t39 25.5q-28 20 -28 47t20.5 44t44.5 17t41.5 -15t22.5 -41q1 -12 -3 -17.5t-9 -5.5t-10 3.5t-4.5 12t-12.5 14.5q-21 10 -39 -4q-16 -13 -8 -30q3 -9 16 -17
q96 6 165 -63q78 -78 78 -195zM158 374q7 -6 19.5 -3.5t19 10.5t9.5 17.5t3 18.5t-1 15q-34 -9 -50 -26q-7 -7 -7 -16.5t7 -15.5zM105.5 270.5q-2.5 -15.5 2 -30t15 -19t20 -2t14.5 12.5q12 24 -15 50q-12 13 -28 12q-6 -8 -8.5 -23.5z" />
    <glyph glyph-name="U0C33_U0C40.abvs" horiz-adv-x="463" 
d="M42 294q36 28 89 28q60 0 88 -36q10 -13 10 -34t-22 -36.5t-47.5 -16.5t-42 7t-23.5 23q-13 32 14 69q-21 -6 -40 -24t-19 -39q0 -63 82 -80q83 -18 146 6q36 13 61 41t34 61t-1 67.5t-42 60.5q-42 31 -98 39q4 -43 -20 -64.5t-58 -23.5q-28 -2 -52 18t-22 49
q3 23 21 41.5t44 26.5q-14 7 -23 30q-9 31 10.5 51t45.5 22t46.5 -10t28.5 -38q3 -9 -1 -15.5t-10 -8.5t-13 1.5t-10.5 13t-13.5 12.5t-21 2t-19.5 -7.5t-8.5 -19t22 -28.5q115 -5 180 -70q36 -35 46 -78t-1 -83t-41.5 -72.5t-78.5 -47.5q21 -26 21 -51t-9 -40t-24 -24
q-24 -16 -70 -16q-42 0 -64 26q-24 29 -1 69q-50 2 -91 33q-44 34 -44 84.5t42 81.5zM194 430q-15 7 -30.5 1.5t-24 -16.5t-6 -21.5t10.5 -15.5q22 -15 41 2q10 7 12 23t-3 27zM163.5 232.5q10.5 6.5 10.5 21t-6.5 26.5t-18.5 16q-16 -4 -24.5 -15.5t-8.5 -25t8.5 -21
t18.5 -8t20.5 6zM221 78q-1 9 -11.5 13.5t-23 3.5t-22 -8.5t-9.5 -23t11.5 -23.5t24.5 -6.5t23 12.5t7 32z" />
    </font>
</defs>
</svg>
