<svg width="24" height="24" viewBox="0 0 24 24" fill="none" xmlns="http://www.w3.org/2000/svg">
<path fill-rule="evenodd" clip-rule="evenodd" d="M21.5858 3.30392H13.9882V1.51367L1.5 3.44117V20.3364L13.9882 22.4874V19.8339H21.5858C21.8159 19.846 22.0415 19.7662 22.2129 19.6121C22.3844 19.458 22.4876 19.2421 22.5 19.0119V4.12517C22.4874 3.89513 22.3841 3.67947 22.2127 3.52551C22.0413 3.37155 21.8158 3.29186 21.5858 3.30392ZM21.7057 19.1484H13.9628L13.95 17.7317H15.8153V16.0817H13.9357L13.9268 15.1067H15.8153V13.4567H13.9125L13.9035 12.4817H15.8153V10.8317H13.8975V9.85667H15.8153V8.20667H13.8975V7.23167H15.8153V5.58167H13.8975V4.08167H21.7057V19.1484Z" fill="#20744A"/>
<path d="M16.8652 5.5791H20.1075V7.2291H16.8652V5.5791ZM16.8652 8.20485H20.1075V9.85485H16.8652V8.20485ZM16.8652 10.8306H20.1075V12.4806H16.8652V10.8306ZM16.8652 13.4564H20.1075V15.1064H16.8652V13.4564ZM16.8652 16.0821H20.1075V17.7321H16.8652V16.0821Z" fill="#20744A"/>
<path fill-rule="evenodd" clip-rule="evenodd" d="M4.76019 8.00482L6.36969 7.91257L7.38144 10.6943L8.57694 7.79782L10.1864 7.70557L8.23194 11.6551L10.1864 15.6143L8.48469 15.4996L7.33569 12.4816L6.18594 15.3848L4.62219 15.2468L6.43869 11.7496L4.76019 8.00482Z" fill="white"/>
</svg>
