<svg width="24" height="24" viewBox="0 0 24 24" fill="none" xmlns="http://www.w3.org/2000/svg">
<path d="M15.75 2.82444C15.75 2.64044 15.943 2.52345 16.086 2.63845C16.2073 2.73645 16.315 2.85045 16.409 2.98045L19.422 7.17744C19.49 7.27345 19.416 7.39744 19.298 7.39744H16C15.9337 7.39744 15.8701 7.37111 15.8232 7.32422C15.7763 7.27734 15.75 7.21375 15.75 7.14744V2.82444Z" fill="#696969"/>
<path d="M13.9268 2.07322C13.9737 2.12011 14 2.1837 14 2.25V7.897C14 8.09591 14.079 8.28668 14.2197 8.42733C14.3603 8.56798 14.5511 8.647 14.75 8.647H19.25C19.3163 8.647 19.3799 8.67334 19.4268 8.72022C19.4737 8.76711 19.5 8.8307 19.5 8.897V18.75C19.5 19.4793 19.2103 20.1788 18.6945 20.6945C18.1788 21.2103 17.4793 21.5 16.75 21.5H6.75C6.02065 21.5 5.32118 21.2103 4.80546 20.6945C4.28973 20.1788 4 19.4793 4 18.75V4.75C4 4.02065 4.28973 3.32118 4.80546 2.80546C5.32118 2.28973 6.02065 2 6.75 2H13.75C13.8163 2 13.8799 2.02634 13.9268 2.07322Z" fill="#696969"/>
<path d="M11 10V16M11 16L9 14M11 16L13 14" stroke="#D5DAE0" stroke-linecap="round" stroke-linejoin="round"/>
</svg>
