<svg width="16" height="20" viewBox="0 0 16 20" fill="none" xmlns="http://www.w3.org/2000/svg">
<path d="M7.79085 7.00097L9.98117 8.94753C10.3904 9.31141 10.5954 9.49357 10.6707 9.70873C10.7369 9.89742 10.7369 10.103 10.6707 10.2917C10.5954 10.5065 10.3904 10.6886 9.98117 11.0525L7.79085 12.9995C7.60517 13.1645 7.51189 13.2472 7.43313 13.2503C7.39927 13.2516 7.36557 13.245 7.33466 13.2311C7.30375 13.2172 7.27646 13.1964 7.25493 13.1702C7.20477 13.1091 7.20477 12.985 7.20477 12.7364V11.5088C6.13645 11.5088 5.00829 11.852 4.18417 12.4609C3.75517 12.7777 3.54089 12.9361 3.45905 12.9304C3.42362 12.9298 3.389 12.9196 3.35882 12.9011C3.32863 12.8825 3.30399 12.8562 3.28745 12.8248C3.24521 12.7544 3.28305 12.5353 3.35785 12.0975C3.84361 9.25245 5.80161 8.49125 7.20477 8.49125V7.26365C7.20477 7.01505 7.20477 6.89097 7.25493 6.82981C7.27651 6.80372 7.30381 6.78296 7.33472 6.76915C7.36563 6.75533 7.39931 6.74884 7.43313 6.75017C7.51233 6.75281 7.60473 6.83553 7.79085 7.00097Z" fill="white"/>
<path fill-rule="evenodd" clip-rule="evenodd" d="M8.95993 6.47576C8.9894 6.44398 9.02483 6.41831 9.06422 6.40022C9.10361 6.38214 9.14617 6.37199 9.18948 6.37035C9.23279 6.36872 9.276 6.37563 9.31664 6.3907C9.35728 6.40576 9.39455 6.42869 9.42633 6.45816L11.7214 8.58952C11.9329 8.78596 12.1005 9.02498 12.213 9.29084C12.3256 9.5567 12.3805 9.84338 12.3743 10.132C12.368 10.4206 12.3008 10.7047 12.1768 10.9654C12.0529 11.2262 11.8752 11.4578 11.6554 11.6449L9.41577 13.5514C9.38293 13.5806 9.3446 13.6029 9.30301 13.6171C9.26143 13.6313 9.21743 13.637 9.1736 13.634C9.12977 13.6309 9.08699 13.6192 9.04777 13.5994C9.00855 13.5796 8.97367 13.5521 8.9452 13.5187C8.91672 13.4852 8.89521 13.4464 8.88193 13.4045C8.86865 13.3626 8.86387 13.3185 8.86786 13.2748C8.87186 13.231 8.88455 13.1885 8.90519 13.1497C8.92584 13.1109 8.95402 13.0767 8.98809 13.0489L11.2277 11.1424C11.3766 11.0157 11.497 10.8589 11.581 10.6823C11.6649 10.5057 11.7105 10.3133 11.7147 10.1178C11.719 9.92233 11.6818 9.72816 11.6056 9.54808C11.5293 9.36801 11.4159 9.20613 11.2726 9.07308L8.97665 6.94216C8.9449 6.91266 8.91926 6.8772 8.90122 6.8378C8.88317 6.79839 8.87306 6.75582 8.87147 6.71251C8.86987 6.6692 8.87683 6.626 8.89193 6.58538C8.90703 6.54476 8.92999 6.50751 8.95949 6.47576" fill="white"/>
<path d="M2.9998 1H14C14.2651 1 14.5195 1.10534 14.707 1.29285C14.8945 1.48035 14.9998 1.73467 14.9998 1.99984V18.0002C14.9998 18.2653 14.8945 18.5196 14.707 18.7072C14.5195 18.8947 14.2651 19 14 19H1.99996C1.73479 19 1.48047 18.8947 1.29297 18.7072C1.10546 18.5196 1.00012 18.2653 1.00012 18.0002V3.00016M2.9998 1L1.00012 3.00016M2.9998 1V3.00016H1.00012" stroke="white" stroke-linecap="round" stroke-linejoin="round"/>
</svg>
