<?xml version="1.0" standalone="no"?>
<!DOCTYPE svg PUBLIC "-//W3C//DTD SVG 1.1//EN" "http://www.w3.org/Graphics/SVG/1.1/DTD/svg11.dtd" >
<svg xmlns="http://www.w3.org/2000/svg" xmlns:xlink="http://www.w3.org/1999/xlink" version="1.1">
<metadata>
Created by FontForge 20201107 at Fri Jan 21 14:53:38 2005
 By 
Generated by Fontographer 4.1.5
</metadata>
<defs>
<font id="Sujatha" horiz-adv-x="10" >
  <font-face 
    font-family="Sujatha"
    font-weight="400"
    font-stretch="normal"
    units-per-em="1480"
    panose-1="0 0 4 0 0 0 0 0 0 0"
    ascent="980"
    descent="-500"
    bbox="-601 -487 909 980"
    underline-thickness="20"
    underline-position="-143"
    unicode-range="U+F020-F0FF"
  />
<missing-glyph horiz-adv-x="740" 
d="M93 0v980h555v-980h-555zM185 93h370v794h-370v-794z" />
    <glyph glyph-name=".notdef" horiz-adv-x="740" 
d="M93 0v980h555v-980h-555zM185 93h370v794h-370v-794z" />
    <glyph glyph-name=".null" horiz-adv-x="0" 
 />
    <glyph glyph-name="nonmarkingreturn" horiz-adv-x="170" 
 />
    <glyph glyph-name="space" unicode="&#xf020;" horiz-adv-x="170" 
 />
    <glyph glyph-name="exclam" unicode="&#xf021;" horiz-adv-x="201" 
d="M148 490q0 -67 -27.5 -156t-27.5 -139q0 -26 4 -49h-60q-14 -2 -14 46t8 124t8 118q0 93 -34 134h131q12 -36 12 -78zM146 46q0 -29 -20.5 -48.5t-53.5 -19.5q-29 0 -50.5 19t-21.5 49q0 70 75 70q71 0 71 -70z" />
    <glyph glyph-name="quotedbl" unicode="&#xf022;" horiz-adv-x="314" 
d="M227 0q-16 -1 -35 -1q-22 0 -59 2t-51 2q-46 0 -58 -15q1 3 8 21q6 14 6 22q0 9 -19 77.5t-19 123.5q0 117 54 184q58 71 164 71q58 0 58 -42q0 -43 -51 -43q-71 0 -111 -35.5t-40 -92.5q0 -47 41.5 -77.5t104 -30.5t62.5 -80q0 -33 -15 -58.5t-40 -27.5z" />
    <glyph glyph-name="numbersign" unicode="&#xf023;" horiz-adv-x="479" 
d="M444 205q0 -205 -114 -205q-10 0 -21 2.5t-18 2.5q-8 0 -40 -12q15 31 -1 65q-5 -36 -41 -51q-13 -6 -34 -7q-14 -1 -40 0q-31 2 -42 2q-3 0 -29 -15q10 38 10 36q0 14 -13.5 57.5t-13.5 70.5q0 89 54 123h-58q-22 0 -43 -12v87h215v-74q-6 4 -29 4q-19 0 -37 -13
q-20 -16 -20 -37q0 -50 50 -50q57 0 52 50h41q-2 -8 -2 -14q0 -37 46 -37q70 0 70 86q0 137 -85 137h-149v86h143q149 0 149 -282z" />
    <glyph glyph-name="dollar" unicode="&#xf024;" horiz-adv-x="426" 
d="M391 240q0 -185 -71 -226q-25 -15 -91 -15q-12 0 -26 -8q4 22 4 24q0 34 -5 44q-10 -29 -43 -53q-15 -11 -115 -11q-7 0 -25 -15q8 17 8 35q0 15 -13.5 64.5t-13.5 92.5q0 150 119 150q75 0 96 -75q8 -26 17.5 -52t35.5 -26q60 0 60 101q0 157 -82 188q3 -14 3 -26
q0 -81 -111 -81q-107 0 -107 83q0 40 36 66q40 29 113 29q86 0 143 -66q68 -78 68 -223zM198 441q0 25 -30 25q-33 0 -33 -26q0 -25 32 -25q31 0 31 26zM164 219q0 40 -40 40q-45 0 -45 -44q0 -43 40 -43q45 0 45 47z" />
    <glyph glyph-name="percent" unicode="&#xf025;" horiz-adv-x="459" 
d="M181 482q0 -96 -52 -129q-21 -13 -69 -13q-31 0 -41 -10l-2 2q1 10 1 19q0 19 -9 56t-9 61q0 50 22 83q25 41 75 41q84 0 84 -110zM382 593l-323 -593h-62l324 593h61zM407 148q0 -147 -114 -147q-4 0 -12.5 1t-12.5 1q-21 0 -28 -11l-2 2q2 11 2 21q0 16 -8 49t-8 60
q0 54 26.5 90.5t72.5 36.5q84 0 84 -103zM132 514q0 39 -33 39q-40 0 -40 -38q0 -37 36 -37q37 0 37 36zM360 176q0 35 -37 35t-37 -40q0 -33 40 -33q34 0 34 38z" />
    <glyph glyph-name="ampersand" unicode="&#xf026;" horiz-adv-x="413" 
d="M378 186q0 -145 -95 -180q-16 -6 -56 -6q-22 0 -36 -13q17 38 0 72q-24 -49 -60 -58q-4 -1 -68 -1q-21 0 -36 -13q1 5 4 13t3 15q0 8 -17 78t-17 150q0 244 183 244q64 0 106.5 -35t39.5 -102l-74 18q-1 40 -73 40q-48 0 -79.5 -36.5t-31.5 -92.5q0 -101 60 -101
q41 0 46 38h40q10 -42 45 -42q54 0 52 67q-30 -24 -59 -24q-84 0 -84 63q0 65 91 65q116 0 116 -159zM291 280q0 16 -29 16q-14 0 -14 -19q0 -15 16 -15q27 0 27 18z" />
    <glyph glyph-name="quotesingle" unicode="&#xf027;" horiz-adv-x="225" 
d="M190 389q0 -43 -28 -75.5t-70 -32.5q-38 0 -65 30.5t-27 76.5q0 43 28 75.5t72 32.5q90 0 90 -107zM190 134q0 -135 -109 -135q-58 0 -68 -9q2 9 2 19q0 14 -7.5 50t-7.5 58q0 126 101 126q89 0 89 -109zM123 377q0 30 -25 30q-28 0 -28 -33q0 -36 28 -36q25 3 25 39z
M125 153q0 27 -26 27q-28 0 -28 -32q0 -29 22 -29q32 0 32 34z" />
    <glyph glyph-name="parenleft" unicode="&#xf028;" horiz-adv-x="259" 
d="M295 659q-188 -94 -188 -386q0 -114 44 -212q50 -112 141 -160l-27 -46q-82 44 -154 128q-111 129 -111 298q0 301 268 425z" />
    <glyph glyph-name="parenright" unicode="&#xf029;" horiz-adv-x="180" 
d="M148 281q0 -169 -111 -298q-72 -84 -154 -128l-27 46q91 48 141 160q44 98 44 212q0 292 -188 386l27 47q268 -124 268 -425z" />
    <glyph glyph-name="asterisk" unicode="&#xf02a;" horiz-adv-x="431" 
d="M396 267q0 -194 -97 -254q-17 -11 -62 -13q-31 -2 -84 1q-62 3 -68 3q-30 0 -42 -10q2 12 2 26q0 26 -22.5 90.5t-22.5 107.5q0 75 31 118.5t87 43.5q96 0 96 -87q0 -46 -32 -71q-25 -21 -58 -21q-27 0 -60 23q11 -59 129 -59q137 0 137 147q0 74 -24 132q-26 63 -66 63
q1 -5 3 -13.5t2 -13.5q0 -80 -109 -80q-111 0 -111 83q0 36 40 63t97 27q234 0 234 -306zM195 487q0 27 -32 27t-32 -27q0 -25 32 -24t32 24zM125 274q0 21 -22 21q-24 0 -24 -24q0 -18 21 -18q25 0 25 21z" />
    <glyph glyph-name="plus" unicode="&#xf02b;" horiz-adv-x="397" 
d="M361 244q0 -244 -166 -244q-24 0 -63 2.5t-52 2.5q-44 0 -57 -17q1 3 8 21q6 14 6 22q0 10 -18.5 79.5t-18.5 125.5q0 261 187 261q174 0 174 -253zM297 291q0 119 -104 119q-122 0 -122 -130q0 -110 116 -110q110 0 110 121z" />
    <glyph glyph-name="comma" unicode="&#xf02c;" horiz-adv-x="199" 
d="M147 60q0 -53 -48 -92q-36 -21 -73 -43l-24 40q26 8 63 36q-27 1 -46 21.5t-19 46.5q0 30 21 49.5t54 19.5q72 0 72 -78z" />
    <glyph glyph-name="hyphen" unicode="&#xf02d;" horiz-adv-x="378" 
d="M323 283q10 -67 -6 -83q-85 -12 -243 2q-32 1 -50 -18l-2 1q4 18 4 24q0 11 -2 37q-3 23 -2 33z" />
    <glyph glyph-name="period" unicode="&#xf02e;" horiz-adv-x="201" 
d="M146 68q0 -68 -74 -68q-29 0 -50.5 19t-21.5 49q0 69 75 69q71 0 71 -69z" />
    <glyph glyph-name="slash" unicode="&#xf02f;" horiz-adv-x="216" 
d="M237 695l-246 -844h-62l247 844h61z" />
    <glyph glyph-name="zero" unicode="&#xf030;" horiz-adv-x="368" 
d="M334 325q0 -325 -183 -325q-13 0 -35 3t-35 3q-36 0 -53 -11l-2 2q7 9 7 31q0 36 -16.5 118.5t-16.5 159.5q0 293 178 293q156 0 156 -274zM267 348q0 163 -94 163q-106 0 -106 -158q0 -170 94 -170q106 0 106 165z" />
    <glyph glyph-name="one" unicode="&#xf031;" horiz-adv-x="227" 
d="M175 460q0 -78 -19.5 -196.5t-19.5 -160.5q0 -86 17 -103h-129q-24 13 -24 73t42.5 204.5t41.5 200.5l-59 -48l-34 44q62 27 84 120h85q15 -84 15 -134z" />
    <glyph glyph-name="two" unicode="&#xf032;" horiz-adv-x="392" 
d="M339 102q0 -102 -55 -102h-285q13 16 13 50q0 33 -6 65.5t-6 54.5q0 103 66 145q1 1 122 46q65 24 65 84q0 65 -79 65q-95 0 -95 -81q0 -17 7 -32l-65 -20q-15 31 -15 61q0 163 185 163q67 0 104 -40.5t37 -100.5q0 -118 -139 -161q-58 -18 -78 -33q-36 -26 -36 -78
q0 -4 2 -12h141q58 0 58 57h59q-5 -17 -5 -40q0 -18 2.5 -48t2.5 -43z" />
    <glyph glyph-name="three" unicode="&#xf033;" horiz-adv-x="405" 
d="M352 203q0 -89 -48 -146t-126 -57q-12 0 -30.5 1t-28.5 1q-69 0 -90 -15l-3 2q9 14 9 33q0 28 -17.5 81.5t-17.5 95.5q0 43 12 87h67q-8 -17 -8 -32q0 -38 30 -60q27 -20 64 -20q43 0 72 20.5t29 56.5q0 72 -78 72q-21 0 -38 -10v71q14 -4 28 -4q69 0 69 59q0 72 -81 72
q-36 0 -61 -20q-28 -22 -28 -62q0 -9 4 -33l-62 -16q-14 18 -14 64q0 73 51 116q48 40 121 40q65 0 107 -38.5t42 -96.5q0 -70 -37 -111q63 -49 63 -151z" />
    <glyph glyph-name="four" unicode="&#xf034;" horiz-adv-x="429" 
d="M377 195q0 -72 -48 -72h-32q-2 -26 -2 -38q0 -49 10 -79q-69 -6 -59 -6h-71q-13 40 -13 76q0 18 2 48h-108q-42 0 -46 -7l-4 1q3 12 3 23q0 17 -4.5 50t-4.5 50q0 71 43 137q18 28 88 106q56 63 72 107h109q21 0 21 -142q0 -53 -15 -160h14q28 0 43 10l2 -1
q-3 -18 -3 -27q0 -13 1.5 -38t1.5 -38zM244 477q0 32 -9 43q-3 -23 -70.5 -98t-77.5 -130q79 0 115 -1q42 127 42 186z" />
    <glyph glyph-name="five" unicode="&#xf035;" horiz-adv-x="407" 
d="M353 245q0 -123 -52 -187q-47 -58 -125 -58q-14 0 -37.5 1t-38.5 1q-51 0 -63 -14l-4 2q4 11 4 29q0 36 -18.5 97t-18.5 92q0 49 11 60h65q-2 -45 26 -71.5t69 -26.5q53 0 83 31q28 28 28 73q0 110 -98 110q-70 0 -103 -58l-65 26q-1 30 5 77q7 54 7 107q0 48 -13 53v3
h311v-90h-229q1 -9 1 -24q0 -31 -7 -57q38 29 102 29q76 0 118 -56t42 -149z" />
    <glyph glyph-name="six" unicode="&#xf036;" horiz-adv-x="388" 
d="M335 230q0 -105 -48.5 -167.5t-133.5 -62.5q-13 0 -34.5 2t-35.5 2q-43 0 -52 -10l-3 1q8 10 8 29q0 25 -18 113.5t-18 165.5q0 294 181 294q125 0 134 -143l-59 -18q-9 73 -76 73q-97 0 -109 -148q36 61 121 61q66 0 104.5 -51t38.5 -141zM258 268q0 37 -20.5 60
t-53.5 23q-93 0 -93 -91q0 -36 22.5 -59.5t57.5 -23.5q87 0 87 91z" />
    <glyph glyph-name="seven" unicode="&#xf037;" horiz-adv-x="398" 
d="M363 566q0 -56 -48 -140q-88 -152 -90 -156q-49 -101 -49 -199q0 -41 16 -71h-141q-14 7 -14 49q0 92 104 230q114 151 128 224h-189q-9 -26 -9 -42q0 -19 7 -37l-72 10q-6 9 -6 29q0 25 8 55t8 47q0 9 -5 29h349q3 -10 3 -28z" />
    <glyph glyph-name="eight" unicode="&#xf038;" horiz-adv-x="403" 
d="M350 200q0 -200 -182 -200q-168 0 -168 191q0 118 63 165q-44 43 -44 105q0 67 43.5 106.5t116.5 39.5q68 0 107.5 -36.5t39.5 -99.5q0 -71 -40 -110q64 -45 64 -161zM251 451q0 61 -72 61q-80 0 -80 -67q0 -63 79 -63q73 0 73 69zM262 260q0 70 -78 70q-91 0 -91 -79
q0 -36 25 -56.5t60 -20.5q39 0 61.5 25t22.5 61z" />
    <glyph glyph-name="nine" unicode="&#xf039;" horiz-adv-x="407" 
d="M354 299q0 -299 -177 -299q-17 0 -43.5 2t-43.5 2q-37 0 -58 -14l-3 1q3 23 3 40q0 31 -16 84.5t-16 92.5q0 56 15 72h71q-6 -19 -6 -34q0 -33 25.5 -54.5t62.5 -21.5q61 0 90 48t23 127q-24 -59 -121 -59q-64 0 -106 35q-48 40 -48 114q0 78 44.5 121t122.5 43
q104 0 148 -90q33 -70 33 -210zM252 436q0 74 -75 74q-81 0 -81 -69q0 -75 75 -75q81 0 81 70z" />
    <glyph glyph-name="colon" unicode="&#xf03a;" horiz-adv-x="201" 
d="M146 338q0 -68 -74 -68q-29 0 -50.5 19.5t-21.5 48.5q0 70 75 70q71 0 71 -70zM146 68q0 -68 -74 -68q-29 0 -50.5 19t-21.5 49q0 69 75 69q71 0 71 -69z" />
    <glyph glyph-name="semicolon" unicode="&#xf03b;" horiz-adv-x="444" 
d="M413 555q0 -40 -17 -60l-42 15q7 7 7 17q0 24 -26 24q-24 0 -24 -20q0 -19 12 -38q86 -47 86 -257q0 -186 -92 -228q-19 -9 -93 -9q-16 0 -26 -6q13 30 2 74q-8 -17 -34 -48q-20 -15 -109 -15q-7 0 -40 -11q11 24 11 30q0 22 -14 65.5t-14 82.5q0 66 36 106q16 17 66 47
q36 21 36 42q0 45 -33 45q-30 0 -30 -35q0 -12 6 -28l-62 -33q-17 41 -17 68q0 112 104 112q103 0 103 -97q0 -58 -30 -89q-3 -2 -57 -37q-31 -20 -31 -52q0 -41 49 -41q43 0 43 34q0 10 -3 22h39q-2 -9 -2 -18q0 -45 55 -45q80 0 80 103v36q-19 -27 -49 -27q-37 0 -59 37
q-19 31 -19 76q0 75 53 95q-24 27 -24 59q0 37 22 62t57 25q80 0 80 -83zM341 374q0 34 -26 34q-22 0 -22 -31q0 -35 28 -35q20 0 20 32z" />
    <glyph glyph-name="less" unicode="&#xf03c;" horiz-adv-x="428" 
d="M393 217q0 -177 -104 -213q-8 -3 -52 -3q-8 0 -17 -4q-13 -6 -14 -6q5 34 -4 64q-26 -56 -87 -56q-9 0 -25.5 1.5t-23.5 1.5q-22 0 -44 -19q15 28 15 36q0 -2 -18.5 73t-18.5 162q0 233 202 233q62 0 86 -11q105 -47 105 -259zM320 289q0 120 -118 120q-124 0 -124 -124
q0 -114 65 -114q46 0 41 55h36q-2 -55 41 -55q59 0 59 118z" />
    <glyph glyph-name="equal" unicode="&#xf03d;" horiz-adv-x="263" 
d="M227 249q0 -206 -99 -249q-16 -7 -94 -7q-11 0 -25 -13q5 16 5 52q0 28 -8.5 75.5t-8.5 86.5q0 115 108 115q39 0 61 -32q2 47 -16 82q-22 43 -64 43q-83 0 -78 -71h-37q-9 208 -233 208q-111 0 -111 -35q0 -17 33 -17h67v-86h-70q-42 0 -67.5 26t-25.5 72q0 124 179 124
q204 0 252 -180q35 45 99 45q73 0 108 -90q25 -64 25 -149zM142 208q0 38 -39 38q-37 0 -37 -40q0 -35 39 -35q37 0 37 37z" />
    <glyph glyph-name="greater" unicode="&#xf03e;" horiz-adv-x="412" 
d="M376 293q0 -79 -11.5 -158t-11.5 -94q0 -32 12 -41h-108q-18 24 -18 57q0 30 25 113.5t25 153.5q0 45 -26.5 76t-68.5 31q-44 0 -73 -28q-32 -32 -32 -91q0 -60 27.5 -156t27.5 -127q0 -29 -33 -29h-93q12 5 12 37q0 9 -15 87t-15 137q0 85 37 144q52 82 162 82
q177 0 177 -194z" />
    <glyph glyph-name="question" unicode="&#xf03f;" horiz-adv-x="373" 
d="M319 411q0 -71 -75.5 -145.5t-75.5 -135.5h-77q0 71 39 117q36 33 72 65q39 36 39 83q0 71 -82 71q-38 0 -62 -21t-24 -53q0 -23 13 -46l-58 -20q-28 25 -28 81q0 153 164 153q66 0 110.5 -41.5t44.5 -107.5zM204 30q0 -30 -19.5 -50t-51.5 -20q-30 0 -49.5 18.5
t-19.5 46.5q0 32 21.5 51.5t51.5 19.5q67 0 67 -66z" />
    <glyph glyph-name="at" unicode="&#xf040;" horiz-adv-x="437" 
d="M172 661l-3 -50h-37q-32 0 -32 -36q0 -19 14.5 -58t14.5 -58q0 -33 -16 -42q-8 -6 -63 -6q-7 0 -20 -5t-21 -6q15 9 15 37q0 13 -4.5 43t-4.5 44q0 48 28 88q37 52 95 52q21 0 34 -3zM402 223q0 -155 -57 -202q-21 -18 -49 -20q5 0 -59 0q-11 0 -29 -9q20 28 1 61
q-25 -53 -69 -53q-9 0 -32 1h-38q-23 0 -47 -12q8 13 8 30q0 12 -15.5 62.5t-15.5 91.5q0 155 124 155q78 0 98 -85q5 -25 11.5 -49t38.5 -24q43 0 56 43q7 23 7 78q0 77 -32 138q-38 71 -99 71q-39 0 -53 -14q10 26 24 100q11 1 21 1q95 0 151 -104q55 -100 55 -260z
M164 219q0 39 -37 39q-47 0 -47 -44q0 -40 43 -40q41 0 41 45z" />
    <glyph glyph-name="A" unicode="&#xf041;" horiz-adv-x="686" 
d="M651 234q0 -183 -86 -229q-21 -11 -56 -11q-45 1 -57 -1t-19 -10q4 24 4 49q0 30 -7.5 76.5t-7.5 61.5q0 138 102 138q43 0 65 -23q-5 66 -23 88q-21 28 -78 28h-142q50 -84 50 -196q0 -134 -53 -186q-22 -22 -63 -22q-7 0 -21 1h-20q-29 0 -44 -11q19 42 -1 89
q-27 -58 -71 -76q-12 -5 -77 -5q-31 0 -48 -12q5 21 5 46q0 24 -6.5 71t-6.5 70q0 138 105 138q40 0 63 -23q-3 42 -8 58q-7 26 -25 42t-71 16h-188q-29 0 -48 -21l1 107h235q78 0 121.5 -68.5t43.5 -183.5q0 -68 47 -68q54 0 54 101q0 118 -61 118q-21 0 -36 -13v114h269
q67 0 111 -63q48 -69 48 -190zM576 208q0 43 -42 43q-46 0 -46 -43q0 -39 45 -39q43 0 43 39zM143 208q0 43 -42 43q-46 0 -46 -41q0 -43 44 -43t44 41z" />
    <glyph glyph-name="B" unicode="&#xf042;" horiz-adv-x="406" 
d="M370 216q0 -147 -60 -195q-30 -24 -123 -24q0 48 -5 63q-22 -61 -81 -61q-9 0 -26 1.5t-24 1.5q-13 0 -33 -12q7 14 7 24q0 17 -12.5 83.5t-12.5 101.5q0 84 54 159q-45 26 -45 76q0 86 136 88q-14 18 -14 41q0 92 78 92q77 0 77 -79q0 -30 -15 -55l-39 17q2 4 2 9
q0 23 -26 23q-24 0 -24 -24q0 -13 7 -28q83 -16 131 -96t48 -206zM179 426q0 26 -31 26q-33 3 -33 -29q0 -23 33 -23q31 0 31 26zM308 245q0 148 -85 201q5 -15 5 -30q0 -77 -95 -77q-10 0 -26 2q-29 -39 -29 -95q0 -76 53 -76q46 0 43 49h37q2 -52 40 -52q22 0 39.5 21
t17.5 57z" />
    <glyph glyph-name="C" unicode="&#xf043;" horiz-adv-x="435" 
d="M400 156q0 -109 -70 -145q-21 -11 -85 -11q-26 0 -44 -17q8 20 7 42q-4 51 -4 42q-11 -44 -41 -58q-21 -10 -69 -10q-53 0 -69 -13q1 6 4.5 14t3.5 15q0 26 -16 69t-16 74q0 78 36 117q11 12 66 45q36 21 36 56q0 36 -30 36q-34 0 -34 -32q0 -22 8 -33l-62 -36
q-21 27 -21 80q0 48 30 78.5t80 30.5q52 0 76 -36q16 -33 31 -66q18 -36 55 -36q25 0 25 16q0 14 -20 23v86h3q52 0 79 -36q20 -25 20 -50q0 -105 -100 -105q-49 0 -78 51q-7 -38 -56.5 -64.5t-49.5 -60.5q0 -47 47 -47q45 0 45 37q0 11 -5 24h50q2 -58 44 -58q46 0 46 51
q0 24 -18 48l51 23q45 -53 45 -144z" />
    <glyph glyph-name="D" unicode="&#xf044;" horiz-adv-x="436" 
d="M401 239q0 -198 -99 -237q-7 -3 -61 -3q-30 0 -41 -8q7 22 7 29q0 35 -11 88t-11 93q0 104 88 104q43 0 63 -24q2 8 2 17q0 36 -21 64q-24 32 -61 32q-57 0 -57 -40q0 -8 3 -18h-46q3 10 3 19q0 36 -43 36q-47 0 -47 -44q0 -41 45 -41q12 0 23 5v-50q-10 5 -21 5
q-46 0 -46 -51q0 -42 31 -42t31 30q0 9 -4 16h36q-1 -31 2 -61q4 -34 4 -51q0 -90 -51 -105q-13 -4 -41 -1q-23 2 -46 -10q5 18 5 17q0 24 -18 79t-18 98q0 75 42 98q-43 29 -43 88q0 48 32.5 82t87.5 34q32 0 63 -27q27 30 71 30q147 0 147 -251zM325 203q2 42 -40 42
q-44 0 -44 -40q0 -38 42 -38q41 0 42 36z" />
    <glyph glyph-name="E" unicode="&#xf045;" horiz-adv-x="571" 
d="M537 386q0 -42 -27 -66.5t-66 -24.5q-54 0 -78 48q-23 -49 -81 -49q-57 0 -84 51q-5 -36 -55.5 -63t-50.5 -57q0 -51 46 -51t46 39q0 10 -4 21h50q-6 -57 43 -57q45 0 45 53q0 22 -17 45q10 6 26.5 12.5t25.5 11.5q43 -54 43 -150q0 -102 -68 -137q-23 -12 -91 -12
q-20 0 -40 -20q10 28 4 89q-11 -53 -54 -65q-15 -4 -85 -4q-16 0 -40 -11q8 13 8 30q0 18 -16 67.5t-16 80.5q0 89 65 132q25 14 50 29.5t25 41.5q0 43 -32 43t-32 -36q0 -19 7 -32l-63 -33q-21 39 -21 75q0 46 29 79t77 33q57 0 85 -34q17 -30 34 -61q20 -34 57 -34
q35 0 35 35q0 34 -43 34q-27 0 -41 -17v81q17 2 33 2q102 0 112 -87q26 -47 61 -47q40 0 40 34q0 35 -40 35q-30 0 -43 -16v77q12 1 24 1q117 0 117 -116z" />
    <glyph glyph-name="F" unicode="&#xf046;" horiz-adv-x="459" 
d="M424 240q0 -130 -49 -194q-43 -46 -88 -46h-67q-17 0 -35 -10q13 21 13 30v48q-26 -48 -64 -61q-21 -7 -55.5 -5.5t-43.5 -2.5q-5 -2 -12 -7q6 12 6 32t-14.5 62.5t-14.5 81.5q0 148 116 148q27 0 53 -19q-15 106 -60 106q-40 0 -40 -33q0 -24 10 -34l-61 -23
q-18 24 -18 65q0 109 112 109q91 0 116 -160q6 -39 9 -79q4 -45 9 -57q10 -23 44 -23q77 0 77 109q0 13 -2 27q-14 -28 -47 -28q-39 0 -61 35q-20 30 -20 77q0 67 37 88q-23 28 -23 72q0 33 24 55.5t60 22.5q33 0 54 -21.5t21 -54.5q0 -37 -19 -60l-47 20q6 6 6 14
q0 21 -22 21q-24 0 -24 -29q0 -10 10 -30h2q108 0 108 -246zM229 -91q0 -50 -65 -50q-24 0 -34 -10q11 14 11 27q0 9 -2 20t-2 21q0 31 19 60q22 35 26 51q-1 -29 23 -63.5t24 -55.5zM353 367q0 32 -24 32t-24 -33q0 -32 27 -32q21 0 21 33zM162 222q0 43 -40 43
q-44 0 -44 -48q0 -45 42 -45t42 50z" />
    <glyph glyph-name="G" unicode="&#xf047;" horiz-adv-x="583" 
d="M525 294q8 -69 -89 -69h-128q-19 -92 -19 -203q0 -27 13 -37l-3 -2q-12 4 -26 4q-9 0 -23 -1t-23 -1q-47 0 -47 39q0 122 26 204q-74 2 -155 2q-32 0 -50 -18l-2 1q4 16 4 24q0 11 -2.5 30.5t-1.5 29.5l227 -1q8 32 8 154q0 48 -13 79h66q29 -61 29 -232v-2z" />
    <glyph glyph-name="H" unicode="&#xf048;" horiz-adv-x="436" 
d="M401 232q0 -185 -84 -220q-31 -13 -125 -13q-9 0 -32 -12q11 16 11 29q0 16 -6 45.5t-6 47.5q0 12 2.5 33t2.5 30q0 64 -31 64q-16 0 -27.5 -16.5t-11.5 -36.5q0 -21 15 -75t15 -78q0 -21 -8 -35h-108q12 15 12 22q0 13 -10 65t-10 91q0 55 33.5 87.5t87.5 32.5
q67 0 91 -47q11 -25 22.5 -50t39.5 -25q61 0 61 100q0 130 -117 130h-109v86h92q78 0 108 -18q46 -27 71 -104q21 -63 21 -133z" />
    <glyph glyph-name="I" unicode="&#xf049;" horiz-adv-x="514" 
d="M467 61l-1 -4q-10 -5 -20.5 -16t-31 -32.5t-34.5 -21.5q-13 0 -28 15q-87 90 -126 162q-78 -75 -111 -108q-22 -22 -22 -48l-2 -1q-4 7 -14 20q-16 13 -46 40l162 160q-20 32 -103 114q-34 35 -65 47l47 47q69 -26 183 -144q1 -1 2 -1l149 147q26 -22 26 -46
q0 -26 -40 -67l-91 -90q54 -81 131 -157q18 -18 35 -16z" />
    <glyph glyph-name="J" unicode="&#xf04a;" horiz-adv-x="436" 
d="M417 575q0 -40 -17 -60l-42 15q7 7 7 18q0 23 -26 23q-24 0 -24 -20q0 -19 12 -38q74 -15 74 -108q0 -48 -31.5 -78.5t-76.5 -30.5q-67 0 -91 49q-10 -38 -60 -65q-46 -24 -46 -59q0 -46 49 -46q43 0 43 40q0 11 -5 21h50q-1 -59 46 -59q42 0 42 50q0 33 -17 50l53 22
q44 -55 44 -145q0 -53 -23 -94q-20 -37 -49 -49q-22 -10 -91 -10q-18 0 -36 -20q6 26 6 32q0 26 -6 53q-7 -47 -49 -59q-19 -6 -86 -6q-27 0 -43 -15q9 31 9 37q0 15 -15 59t-15 89q0 85 63 126q25 15 49.5 30.5t24.5 43.5q0 41 -35 41q-29 0 -29 -33q0 -17 6 -32l-60 -34
q-22 29 -22 74q0 112 112 112q53 0 80 -35l36 -64q23 -35 65 -35q22 0 40 12t17 32q-27 -27 -57 -27q-73 0 -73 63q0 53 62 67q-24 27 -24 59q0 37 22 62t57 25q80 0 80 -83zM324 438q0 21 -19 21q-22 0 -22 -17q0 -19 22 -19q19 0 19 15z" />
    <glyph glyph-name="K" unicode="&#xf04b;" horiz-adv-x="425" 
d="M390 239q0 -122 -44 -188q-33 -52 -84 -52h-41q-17 -2 -27 -15q-1 6 1 18t2 16q0 3 -1 10.5t-1 11.5l3 12q2 9 -2 15q-4 -15 -26 -37q-25 -22 -46 -27q-4 -1 -80 -1q-11 0 -29 -14q7 14 7 30q0 18 -11 63.5t-11 87.5q0 71 36 110q31 35 80 35q26 0 52 -16
q-17 106 -63 106q-39 0 -39 -36q0 -18 12 -32l-63 -29q-15 34 -15 75q0 105 108 105q58 0 93 -66q31 -60 31 -145q0 -48 3 -64q9 -41 39 -41q52 0 52 90q0 58 -16.5 95t-39.5 37q-27 0 -38 -14v107q78 4 119 -68q39 -65 39 -179zM219 -82q0 -28 -17.5 -41t-76.5 -15
q4 14 4 22v16q-1 8 -1 14q0 26 10 46q19 22 41 75q-1 -30 19.5 -66.5t20.5 -50.5zM159 218q0 43 -39 43q-41 0 -41 -46q0 -42 38 -42q42 0 42 45z" />
    <glyph glyph-name="L" unicode="&#xf04c;" horiz-adv-x="431" 
d="M395 226q0 -123 -54 -183q-38 -43 -86 -43q-8 0 -24 1t-24 1q-20 0 -41 -15q8 23 8 51q0 18 -5.5 59.5t-5.5 67.5q0 139 100 139q49 0 70 -26q-7 69 -26 97t-60 28h-153q47 -67 47 -181q0 -220 -140 -220q-24 0 -30 2.5t-8 2.5q-13 0 -27 -8q7 24 7 41q0 42 -22 64
l25 141q29 -77 72 -77q58 0 58 123q0 112 -63 112q-18 0 -27 -6v90h211q87 0 125 -32q73 -61 73 -229zM314 208q0 36 -40 36q-38 0 -38 -37q0 -36 31 -36q47 0 47 37z" />
    <glyph glyph-name="M" unicode="&#xf04d;" horiz-adv-x="426" 
d="M391 240q0 -185 -71 -226q-25 -15 -91 -15q-12 0 -26 -8q4 22 4 24q0 34 -5 44q-10 -29 -43 -53q-15 -11 -115 -11q-7 0 -25 -15q8 17 8 35q0 15 -13.5 64.5t-13.5 92.5q0 150 119 150q75 0 96 -75q8 -26 17.5 -52t35.5 -26q60 0 60 101q0 157 -82 188q3 -14 3 -26
q0 -81 -111 -81q-107 0 -107 83q0 89 134 95q-9 22 -9 49q0 35 23 59t60 24q30 0 50.5 -21.5t20.5 -48.5q0 -31 -18 -62l-40 19q3 8 3 14q0 22 -20 22q-28 0 -28 -32q0 -8 4 -26q77 -13 124 -78q56 -77 56 -208zM198 441q0 25 -30 25q-33 0 -33 -26q0 -25 32 -25q31 0 31 26
zM164 219q0 40 -40 40q-45 0 -45 -44q0 -43 40 -43q45 0 45 47z" />
    <glyph glyph-name="N" unicode="&#xf04e;" horiz-adv-x="482" 
d="M447 239q0 -131 -29 -185.5t-83 -54.5q-6 0 -17.5 2t-16.5 2q-30 0 -49 -10q9 32 9 27q0 14 -9 38q-17 -58 -91 -58q-83 0 -52 1q-30 -1 -41 -13q8 40 8 31q0 15 -14.5 62.5t-14.5 68.5q0 97 56 124h-65q-10 0 -38 -13v87h215v-72q-12 3 -23 3q-61 0 -61 -53
q0 -46 51 -46q52 0 49 48h40q-1 -5 -1 -10q0 -40 47 -40q65 0 65 110q0 157 -89 197q3 -14 3 -31q0 -83 -121 -83q-46 0 -73.5 25t-27.5 62q0 80 139 93q-21 19 -21 57q0 80 85 80q76 0 76 -73q0 -33 -15 -55l-44 12q5 11 0 24q-6 14 -20 14q-26 0 -26 -29q0 -15 13 -33
q186 -38 186 -309zM243 461q0 27 -29 27q-34 0 -34 -26q0 -27 34 -27q29 0 29 26z" />
    <glyph glyph-name="O" unicode="&#xf04f;" horiz-adv-x="431" 
d="M395 226q0 -123 -54 -183q-38 -43 -86 -43q-8 0 -24 1t-24 1q-20 0 -41 -15q8 23 8 51q0 18 -5.5 59.5t-5.5 67.5q0 139 100 139q49 0 70 -26q-7 69 -26 97t-60 28h-153q47 -67 47 -181q0 -220 -140 -220q-24 0 -30 2.5t-8 2.5q-13 0 -27 -8q7 24 7 41q0 42 -21 63
l33 138q9 -53 31 -66q12 -7 32 -7q58 0 58 123q0 112 -63 112q-18 0 -27 -6v90h211q87 0 125 -32q73 -61 73 -229zM314 208q0 36 -40 36q-38 0 -38 -37q0 -36 31 -36q47 0 47 37z" />
    <glyph glyph-name="P" unicode="&#xf050;" horiz-adv-x="365" 
d="M332 215q0 -74 -13 -114q-19 -57 -72 -89q-24 -14 -56 -14q-8 0 -22 1t-20 1q-25 0 -36 -15q7 25 7 48q0 8 -8 59.5t-8 82.5q0 125 102 125q37 0 62 -24q-4 81 -51 112q-18 12 -71 12h-127q62 -107 62 -251q0 -114 -11 -167q-21 -94 -86 -135q-34 -22 -101 -23
q-36 1 -72 1q-34 0 -46 -17q10 20 10 37q0 15 -14 66q-14 47 -11 78h54q-2 -29 27 -45q24 -13 57 -13q60 0 93.5 62t33.5 171q0 227 -71 236v87h231q75 0 118 -82q39 -74 39 -190zM248 203q0 37 -35 37q-41 0 -41 -36q0 -37 42 -37q34 0 34 36z" />
    <glyph glyph-name="Q" unicode="&#xf051;" horiz-adv-x="429" 
d="M393 221q0 -86 -12 -123q-32 -96 -105 -96q-13 0 -35 2.5t-27 2.5q-12 0 -27 -8q7 24 7 41q0 19 -6 36q-23 -52 -58 -67q-28 -12 -102 -12q-16 0 -29 -10q5 37 5 54q0 29 -7 74.5t-7 73.5q0 126 98 126q43 0 69 -28q-3 70 -25 92t-87 22h-162q-55 0 -65 -21v113
q11 -6 27 -6h218q74 0 116 -71q39 -66 39 -168q0 -16 -2 -46q18 -34 53 -34q61 0 61 112q0 39 -15 71q-20 41 -54 41q-15 0 -30 -13v104q37 2 71 -17q45 -26 69 -99q22 -65 22 -146zM135 206q0 42 -40 42q-38 0 -38 -33q0 -40 40 -40q38 0 38 31z" />
    <glyph glyph-name="R" unicode="&#xf052;" horiz-adv-x="437" 
d="M385 392q8 -60 -6 -73q-31 -4 -85 -4q-98 0 -243 12q-31 1 -50 -18l-2 1q4 18 4 24q0 11 -2.5 31t-1.5 30zM385 210q8 -59 -6 -73q-30 -4 -81 -4q-99 0 -247 13q-30 1 -50 -19l-2 2q4 16 4 23q0 11 -2.5 31t-1.5 30z" />
    <glyph glyph-name="S" unicode="&#xf053;" horiz-adv-x="431" 
d="M395 226q0 -123 -54 -183q-38 -43 -86 -43q-8 0 -24 1t-24 1q-20 0 -41 -15q8 23 8 51q0 18 -5.5 59.5t-5.5 67.5q0 139 100 139q49 0 70 -26q-7 69 -26 97t-60 28h-153q47 -67 47 -181q0 -220 -140 -220q-24 0 -30 2.5t-8 2.5q-13 0 -27 -8q7 24 7 41q0 42 -22 64
l25 141q29 -77 72 -77q58 0 58 123q0 112 -63 112q-18 0 -27 -6v90h211q87 0 125 -32q73 -61 73 -229zM314 208q0 36 -40 36q-38 0 -38 -37q0 -36 31 -36q47 0 47 37z" />
    <glyph glyph-name="T" unicode="&#xf054;" horiz-adv-x="179" 
d="M141 221q0 -86 -12 -123q-31 -96 -104 -96q-13 0 -35 2.5t-27 2.5q-13 0 -27 -8q7 24 7 41q0 47 -21 68l33 138q13 -78 63 -78q61 0 61 112q0 39 -16 71q-19 41 -53 41q-16 0 -30 -13v104q37 2 71 -17q44 -26 69 -99q21 -65 21 -146z" />
    <glyph glyph-name="U" unicode="&#xf055;" horiz-adv-x="425" 
d="M390 239q0 -122 -44 -188q-33 -52 -84 -52h-41q-17 -2 -27 -15q-1 6 1 18t2 16q0 3 -1 10.5t-1 11.5l3 12q2 9 -2 15q-4 -15 -26 -37q-25 -22 -46 -27q-4 -1 -80 -1q-11 0 -29 -14q7 14 7 30q0 18 -11 63.5t-11 87.5q0 71 36 110q31 35 80 35q26 0 52 -16
q-17 106 -63 106q-39 0 -39 -36q0 -18 12 -32l-63 -29q-15 34 -15 75q0 105 108 105q58 0 93 -66q31 -60 31 -145q0 -48 3 -64q9 -41 39 -41q52 0 52 90q0 130 -59 138v87q123 5 123 -247zM219 -82q0 -28 -17.5 -41t-76.5 -15q4 14 4 22v16q-1 8 -1 14q0 26 10 46
q19 22 41 75q-1 -30 19.5 -66.5t20.5 -50.5zM159 218q0 43 -39 43q-41 0 -41 -46q0 -42 38 -42q42 0 42 45z" />
    <glyph glyph-name="V" unicode="&#xf056;" horiz-adv-x="426" 
d="M391 225q0 -182 -70 -212q-23 -10 -90 -10q-22 0 -30 -14q16 46 1 72q-2 -22 -23 -40q-23 -21 -58 -21q-14 0 -32.5 2t-27.5 2q-30 0 -44 -12q7 23 7 32q0 8 -12 60t-12 102q0 61 33 101.5t80 40.5q89 0 107 -78q5 -27 10 -55q9 -26 37 -26q55 0 55 102q0 127 -54 129v86
q123 1 123 -261zM162 219q0 42 -43 42q-39 0 -39 -41q0 -43 42 -43q40 0 40 42z" />
    <glyph glyph-name="W" unicode="&#xf057;" horiz-adv-x="482" 
d="M447 440q0 -141 -107 -141q-9 0 -20.5 1t-23.5 1q-29 0 -51 -15q1 18 -7.5 57.5t-8.5 63.5q0 116 95 116q47 0 72 -36q0 22 -20 39t-48 17h-140q17 -14 17 -36q0 -21 -24 -35q33 -33 33 -90q0 -52 -32 -81q-27 -17 -54 -35q-30 -21 -30 -56q0 -39 47 -39q57 0 50 54h43
q-1 -7 -1 -14q0 -39 48 -39q47 0 47 49q0 43 -30 53q24 13 60 14q16 -9 29 -45q16 -42 16 -92q0 -79 -44 -118q-36 -33 -123 -33q-19 0 -34 -16q11 20 1 95q0 -37 -22.5 -58t-53.5 -21q-27 0 -42.5 1.5t-16.5 1.5q-25 0 -45 -13q9 20 9 21q0 29 -12.5 75.5t-12.5 76.5
q0 70 39 113q6 7 57 43q30 21 30 52q0 33 -29 33q-32 0 -32 -31q0 -28 11 -44l-65 -31q-22 35 -22 80q0 55 36 86q29 27 69 27q32 0 32 24q0 28 -28 28h-64v87h276q126 0 126 -190zM375 429q0 34 -39 34q-43 0 -43 -39q0 -33 42 -33q40 0 40 38z" />
    <glyph glyph-name="X" unicode="&#xf058;" horiz-adv-x="450" 
d="M415 187q0 -112 -85 -168q-26 -18 -83 -20q27 1 -106 1q-21 0 -42 -12q6 14 6 27q0 15 -15.5 51t-15.5 70q0 80 77 127q17 11 63.5 24t64.5 24q-29 7 -57 7q-46 0 -80 -18q-42 -22 -42 -64q0 -5 1 -10q-35 -14 -94 -37q-7 18 -7 43q0 130 196 130q80 0 117 -20q7 15 7 26
q0 28 -28 32v87q85 0 85 -100q0 -36 -17 -68q55 -59 55 -132zM330 231q0 30 -13 44q-14 -12 -76 -37q-48 -20 -48 -40q0 -33 57 -33q34 0 57 18.5t23 47.5z" />
    <glyph glyph-name="Y" unicode="&#xf059;" 
d="M-13 580q-24 4 -52 4h-210q-30 0 -30 -12q0 -15 36 -15h161v-47l-176 1q-22 0 -22 -11q0 -13 16 -13h117v-86h-122q-74 0 -74 76q0 37 27 58q-27 20 -27 64q0 32 19.5 53.5t48.5 21.5h267q12 0 21 6v-100z" />
    <glyph glyph-name="Z" unicode="&#xf05a;" 
d="M-121 -173q0 -50 -6.5 -95t-6.5 -59q0 1 7 -31h-67q-13 13 -13 37q0 17 14 78t14 96q0 76 -51 76q-28 0 -44.5 -19.5t-16.5 -44.5q0 -53 20 -118.5t20 -82.5q0 -20 -15 -22q-24 0 -71 -5q9 7 9 27q0 13 -10.5 61t-10.5 85q0 67 30 108q33 46 94 46q104 0 104 -137z" />
    <glyph glyph-name="bracketleft" unicode="&#xf05b;" horiz-adv-x="429" 
d="M394 418q0 -92 -62 -135q38 -57 38 -116q0 -79 -54 -125q-51 -42 -132 -42q-19 0 -50.5 2.5t-40.5 2.5q-22 0 -52 -11q11 15 11 34q0 14 -11 57t-11 74q0 70 53 120q-34 7 -58.5 40.5t-24.5 74.5q0 80 74 97q33 -53 88 -53q16 0 33 5q6 -24 6 -36q0 -35 -24 -56.5
t-60 -21.5q-11 0 -22 2q42 -25 98 -25q135 0 135 113q0 52 -17 92q-20 45 -54 50q10 -26 10 -38q0 -35 -29.5 -55t-70.5 -20q-93 0 -93 91q0 43 37 72t97 29q89 0 139 -65q47 -60 47 -157zM205 539q0 28 -30 28q-34 0 -34 -33q0 -20 30 -20q34 0 34 25zM129 397q0 29 -28 29
q-26 0 -26 -25q0 -26 26 -26q28 0 28 22zM272 217q0 41 -66 41q-65 0 -65 -41t64 -41q67 0 67 41z" />
    <glyph glyph-name="backslash" unicode="&#xf05c;" horiz-adv-x="429" 
d="M394 223q0 -223 -194 -223q-20 0 -56 2t-51 2q-42 0 -63 -15q9 20 9 39q0 13 -19.5 78.5t-19.5 140.5q0 97 33 162q39 77 113 77q72 0 72 -88q0 -66 -35 -100q-28 -27 -61 -27q-37 0 -60 25q-3 -11 -3 -22q0 -42 35 -72.5t86 -30.5q141 0 141 134q0 43 -19 69
q-17 23 -36 23q-12 0 -27 -13v100q11 1 21 1q134 0 134 -262zM145 371q0 30 -28 30t-28 -37q0 -30 24 -30q32 0 32 37z" />
    <glyph glyph-name="bracketright" unicode="&#xf05d;" horiz-adv-x="378" 
d="M342 224q0 -72 -9 -106q-19 -65 -82 -104q-21 -13 -72 -14q72 1 -89 1q-44 0 -60 -14l13 35q0 4 -21.5 68.5t-21.5 136.5q0 69 45 137q-40 26 -40 67q0 95 124 95q115 0 170 -100q43 -79 43 -202zM157 430q0 30 -26 30q-34 0 -34 -32q0 -26 30 -26t30 28zM269 295
q0 64 -23 113t-54 49q13 -23 13 -37q0 -69 -87 -69q-12 0 -25 1q-16 -26 -16 -75q0 -107 87 -107q105 0 105 125z" />
    <glyph glyph-name="asciicircum" unicode="&#xf05e;" horiz-adv-x="388" 
d="M352 289q0 -79 -12.5 -156t-12.5 -92q0 -27 14 -43h-110q-19 24 -19 58q0 32 26 119.5t26 157.5q0 109 -80 109q-94 0 -94 -120q0 -62 28 -162.5t28 -130.5q0 -31 -35 -31h-95q15 8 15 38q0 8 -15.5 86t-15.5 137q0 160 98 209q-24 11 -57 31l72 32q3 -12 26.5 -25
t45.5 -13q56 0 63 59q-19 -22 -67 -22q-114 0 -114 74q0 71 102 78q-25 31 -25 63q0 80 85 80q32 0 51 -22t19 -57q0 -28 -13 -46l-42 12q3 4 3 10q0 26 -23 26q-24 0 -24 -29q0 -17 18 -37q92 -22 92 -113q0 -64 -48 -94q90 -36 90 -186zM237 599q0 24 -43 24
q-31 0 -31 -19q0 -18 32 -18q10 0 42 13z" />
    <glyph glyph-name="underscore" unicode="&#xf05f;" horiz-adv-x="444" 
d="M409 236q0 -186 -92 -228q-19 -9 -93 -9q-16 0 -26 -6q13 30 2 74q-8 -17 -34 -48q-20 -15 -109 -15q-7 0 -40 -11q11 24 11 30q0 22 -14 65.5t-14 82.5q0 66 36 106q16 17 66 47q36 21 36 42q0 45 -33 45q-30 0 -30 -35q0 -12 6 -28l-62 -33q-17 41 -17 68
q0 112 104 112q103 0 103 -97q0 -58 -30 -89q-3 -2 -57 -37q-31 -20 -31 -52q0 -41 49 -41q43 0 43 34q0 10 -3 22h39q-2 -9 -2 -18q0 -45 55 -45q80 0 80 103v36q-19 -27 -49 -27q-37 0 -59 37q-19 31 -19 76q0 98 73 98q111 0 111 -259zM341 374q0 34 -26 34
q-22 0 -22 -31q0 -35 28 -35q20 0 20 32z" />
    <glyph glyph-name="grave" unicode="&#xf060;" horiz-adv-x="378" 
d="M323 283q10 -67 -6 -83q-85 -12 -243 2q-32 1 -50 -18l-2 1q4 18 4 24q0 11 -2 37q-3 23 -2 33z" />
    <glyph glyph-name="a" unicode="&#xf061;" horiz-adv-x="353" 
d="M320 221q0 -86 -12 -123q-31 -96 -104 -96q-13 0 -35 2.5t-27 2.5q-12 0 -27 -8q7 24 7 41q0 13 -4 32q-35 -70 -93 -70q-13 0 -35 2.5t-27 2.5q-13 0 -27 -8q7 24 7 41q0 42 -17 59l33 138q6 -38 15 -50q12 -19 44 -19q61 0 61 112q0 39 -16 71q-19 41 -53 41
q-16 0 -30 -13v104q37 2 71 -17q44 -26 69 -99q21 -65 21 -146q12 -53 56 -53q61 0 61 112q0 39 -15 71q-20 41 -54 41q-16 0 -30 -13v104q37 2 71 -17q44 -26 69 -99q21 -65 21 -146zM152 -91q0 -38 -23 -48q-11 -5 -47 -5q-17 0 -40 -10q19 17 19 70q0 35 16 58
q26 35 31 49q5 -35 26 -67q18 -29 18 -47z" />
    <glyph glyph-name="b" unicode="&#xf062;" horiz-adv-x="433" 
d="M398 211q0 -164 -79 -205q-13 -7 -85 -7q-19 0 -29 -10q11 22 2 64q-16 -34 -49 -51q-19 -4 -52 -3q-38 1 -53 -1q-23 -3 -35 -14q13 20 13 32q0 11 -15.5 66t-15.5 95q0 58 28 99q32 48 90 48q77 0 100 -85l12 -50q10 -22 45 -22q53 0 53 103q0 119 -36.5 193.5
t-96.5 74.5q-32 0 -55 -18q5 6 27 103q113 9 174 -114q57 -111 57 -298zM162 215q0 37 -42 37t-42 -41q0 -39 40 -39q44 0 44 43z" />
    <glyph glyph-name="c" unicode="&#xf063;" horiz-adv-x="447" 
d="M442 -78q-22 -4 -78 -16q-42 24 -42 82q0 9 1 19q-30 -7 -52 -7q-7 0 -16.5 1t-16.5 1t-15 -3.5t-15 -4.5q14 25 1 69q-9 -31 -42 -50q-15 -9 -31 -12q-11 -2 -30 -1q-29 2 -36 2q-37 0 -51 -16q8 17 8 33q0 20 -13.5 70t-13.5 86q0 153 123 153q81 0 102 -86l12 -48
q10 -22 39 -22q65 0 65 128q0 242 -126 242q-28 0 -45 -10l22 101q9 1 18 1q72 0 121 -64q81 -104 81 -279q0 -68 -12 -151t-12 -105q0 -82 54 -113zM170 222q0 44 -43 44q-48 0 -48 -44q0 -43 45 -43q46 0 46 43z" />
    <glyph glyph-name="d" unicode="&#xf064;" horiz-adv-x="429" 
d="M394 222q0 -178 -66 -211q-22 -11 -54 -12q45 1 -76 1q-16 0 -41 -14q13 23 13 42q0 7 -5.5 30.5t-5.5 47.5q0 12 2.5 37.5t2.5 36.5q0 49 -35 49q-36 0 -36 -58q0 -21 14 -68t14 -75q0 -26 -11 -32q-6 -2 -73 -2q-13 0 -26 -8q11 23 11 31q0 23 -11 67t-11 76
q0 137 127 137q57 0 81 -38q12 -30 23.5 -61t40.5 -31q39 0 51 33q7 21 7 81q0 113 -60 113q-18 0 -37 -17v103q50 4 72 -9q89 -53 89 -249z" />
    <glyph glyph-name="e" unicode="&#xf065;" horiz-adv-x="427" 
d="M392 226q0 -157 -64 -205q-30 -23 -102 -23q-15 0 -34 -14q19 38 9 76q-13 -29 -43 -51q-18 -10 -90 -10q-40 0 -51 -12q7 13 7 38q0 17 -12 66.5t-12 92.5q0 140 119 140q89 0 104 -95q7 -40 8 -42q7 -18 32 -18q56 0 56 91q0 53 -15 91q-20 50 -61 50h-213
q-21 0 -30 -12v98h162q-26 29 -26 83q0 78 83 78h48q32 0 41 16v-114q-9 9 -30 9h-43q-41 0 -41 -32q0 -23 16 -40h26q156 0 156 -261zM165 212q0 43 -39 43q-48 0 -48 -43q0 -15 13 -28t31 -13q43 0 43 41z" />
    <glyph glyph-name="f" unicode="&#xf066;" horiz-adv-x="433" 
d="M398 233q0 -233 -140 -233q-39 0 -52 -9q12 39 -3 86q-24 -75 -86 -75q-7 0 -18 1t-14 1q-23 0 -44 -12q5 14 5 30t-23 56t-23 99q0 111 32 160q21 32 77 59q-44 18 -44 47q0 57 43 57q33 0 43 7q-7 -9 -7 -24q0 -10 3.5 -26t3.5 -19q0 -9 -22 -42q85 -6 85 -100
q0 -99 -101 -99q-32 0 -55 20q-2 -11 -2 -20q0 -47 69 -47q64 0 57 52h37q-7 -52 39 -52q29 0 50.5 40.5t21.5 90.5q0 111 -55 119v87q63 2 95 -77q28 -67 28 -177zM145 277q0 27 -26 27q-31 0 -31 -26q0 -27 32 -27q25 0 25 26z" />
    <glyph glyph-name="g" unicode="&#xf067;" horiz-adv-x="429" 
d="M292 547q-6 10 -21 10h-63q-37 0 -37 -40q0 -11 8.5 -24t8.5 -27q0 -41 -32 -58q-3 -2 -85 -2q-49 0 -56 -17v98h124q-27 36 -27 84q0 74 79 74h72q17 0 29 6v-104zM394 228q0 -168 -59 -212q-22 -17 -65 -17q-10 0 -31 1t-30 1q-36 0 -53 -13q13 14 14 35
q0 10 -5.5 36.5t-5.5 43.5q0 11 2 38.5t2 38.5q0 48 -34 48q-36 0 -36 -55q0 -23 13.5 -68t13.5 -69q0 -40 -26 -40h-23q-16 1 -23 1q-25 0 -38 -11q10 14 10 37q0 17 -10 64t-10 73q0 136 128 136q68 0 94 -67q7 -21 13 -43q10 -21 39 -21q57 0 57 116q0 46 -19.5 83
t-45.5 37q-17 0 -40 -24v110q168 12 168 -259zM301 -71q0 -55 -52 -55h-138q-14 0 -29 -11v63q4 -5 17 -5h117q-11 4 -11 25q0 40 43 40q53 0 53 -57zM377 -87q0 -120 -99 -164q-30 -14 -84 -14q-18 0 -54 2t-53 2q-66 0 -86 -27q8 25 8 49q0 18 -7 54.5t-7 59.5q0 33 2 52
l48 -2q-2 -82 139 -82q150 0 150 99q0 8 -1 17h44v-46zM269 -58q0 13 -17 13q-16 0 -18 -14q-1 -18 18 -18q17 0 17 19z" />
    <glyph glyph-name="h" unicode="&#xf068;" horiz-adv-x="445" 
d="M297 547q-6 10 -21 10h-63q-37 0 -37 -40q0 -11 8.5 -24t8.5 -27q0 -41 -32 -58q-3 -2 -85 -2q-49 0 -56 -17v98h124q-27 36 -27 84q0 74 79 74h72q17 0 29 6v-104zM445 -75q-7 -3 -78 -18q-42 27 -41 99q-46 -7 -52 -7q-51 0 -65 -7q15 21 2 75q-7 -30 -37 -52
q-20 -15 -60 -15q-8 0 -24 1h-23q-31 0 -50 -19q12 15 12 34t-14.5 72.5t-14.5 89.5q0 150 123 150q78 0 101 -72q7 -29 16 -57t40 -28q60 0 60 105q0 123 -68 123q-15 0 -25 -11v98q10 1 20 1q70 0 109 -80q34 -69 34 -172q0 -62 -9 -122t-9 -75q0 -87 53 -113zM383 -126
q2 -22 2 -43q0 -89 -46.5 -137t-131.5 -48q-20 0 -60 3t-54 3q-69 0 -85 -32q7 39 7 66q0 7 -7.5 45.5t-7.5 72.5q0 7 2 18t2 17h49q-1 -39 28 -60q4 9 4 18t-8.5 35t-8.5 51q0 38 20 64q22 31 64 31q51 0 51 -52q0 -58 -54 -58q-15 0 -27 8q-3 -15 8 -26.5t27 -11.5
q30 0 28 38h31q-1 -36 31 -36q35 0 35 43q0 45 -36 45q-16 0 -29 -10v64q107 5 107 -100q0 -69 -45 -95q-15 -9 -44 -9h-6q-28 0 -41 -9q10 11 11 26t-8 19q-10 -30 -42 -33t-63 -5q35 -21 115 -21q149 0 141 114zM173 224q0 41 -48 41q-43 0 -43 -40q0 -45 41 -45
q50 0 50 44zM159 -81q0 16 -16 16q-20 0 -20 -20q0 -15 15 -15q21 0 21 19z" />
    <glyph glyph-name="i" unicode="&#xf069;" horiz-adv-x="443" 
d="M408 270q0 -111 -37 -187q-29 -62 -67 -77q-15 -6 -83 -6q-4 0 -28 -11q8 20 8 38q0 8 -3 21.5t-3 23.5q-14 -30 -17 -35q-10 -16 -26 -26q-12 -8 -27 -10q-10 -1 -28 0q-27 1 -32 1q-7 0 -29 -10q0 3 2.5 11t2.5 13q0 27 -20.5 101t-20.5 145q0 225 131 225q38 0 59 -30
q18 -26 18 -63q0 -71 -41 -101h-66v-16q-37 12 -44 33q-3 -18 -3 -35q0 -95 70 -95q38 0 51 27h39q16 -29 47 -29q83 0 83 117q0 97 -43 97q-25 0 -25 -48q0 -49 28 -60v-71h-195v72h133q-24 47 -24 103q0 101 80 101q59 0 88 -79q22 -59 22 -140zM141 369q0 29 -27 29
q-28 0 -28 -29q0 -37 30 -37q25 0 25 37z" />
    <glyph glyph-name="j" unicode="&#xf06a;" horiz-adv-x="650" 
d="M615 232q0 -177 -105 -218q-24 -16 -82 -16q-24 0 -62 3t-48 3q-16 0 -36 -13q14 31 5 80q-21 -34 -55 -57q-16 -11 -48 -14q-23 -2 -62 0q-47 3 -53 3q-32 0 -53 -16q16 31 16 49q0 14 -16 74t-16 143q0 233 173 233q149 0 149 -210q0 -115 117 -115q111 0 111 110
q0 130 -117 130h-110v86h93q77 0 108 -18q45 -27 70 -104q21 -63 21 -133zM257 305q0 95 -92 95q-98 0 -98 -116q0 -49 27 -80.5t70 -31.5q93 0 93 133z" />
    <glyph glyph-name="k" unicode="&#xf06b;" horiz-adv-x="432" 
d="M397 308q0 -260 -74 -295q-18 -9 -35 -12q-12 -2 -33 -1q-31 2 -42 2q-37 0 -57 -13q13 26 13 38q0 4 -5.5 28t-5.5 53q0 11 1.5 34t1.5 34q0 51 -34 51q-35 0 -35 -52q0 -35 12.5 -74t12.5 -75q0 -31 -23 -31q-8 0 -26.5 1t-27.5 1q-10 0 -28 -8q8 35 8 34q0 27 -10 67
t-10 66q0 136 122 136q56 0 80 -33q2 -3 25 -62q13 -33 43 -33q45 0 59 64q5 28 5 97q0 106 -24 170q-23 59 -56 59q-18 0 -36 -19v105q9 1 18 1q81 0 123 -98q38 -88 38 -235z" />
    <glyph glyph-name="l" unicode="&#xf06c;" horiz-adv-x="556" 
d="M415 182q0 -111 -83 -165q-26 -18 -68 -19q33 1 -90 1q-51 0 -75 -17q7 16 7 30t-14.5 49t-14.5 68q0 79 54 117q26 18 148 64q-30 6 -57 6q-61 0 -93 -27t-27 -66l-92 -36q-10 24 -10 47q0 54 49 89q54 38 151 38q77 0 112 -17q12 22 12 50q0 48 -39 66q2 -8 2 -15
q0 -69 -95 -69q-37 0 -69 18q-36 21 -36 51q0 79 128 79q-17 26 -17 58q0 36 23.5 58t56.5 22q74 0 74 -73q0 -23 -18 -59l-42 17q5 13 5 17q0 18 -21 18q-25 0 -25 -27q0 -19 7 -34q120 -20 120 -135q0 -39 -16 -67q53 -52 53 -137zM521 129q0 -202 -125 -263
q-45 -22 -115 -22q-23 0 -81.5 3.5t-94.5 3.5q-68 0 -91 -23v137q35 14 81 14q26 0 81 -6t84 -6q65 0 117 23q80 36 80 175q0 112 -68 167l50 28q82 -102 82 -231zM235 446q0 24 -28 24q-32 0 -32 -24q0 -26 29 -26q31 0 31 26zM332 231q0 29 -13 44q-13 -10 -77 -37
q-47 -20 -47 -40q0 -34 55 -34q35 0 58.5 19t23.5 48z" />
    <glyph glyph-name="m" unicode="&#xf06d;" horiz-adv-x="437" 
d="M402 223q0 -155 -57 -202q-21 -18 -49 -20q5 0 -59 0q-11 0 -29 -9q20 28 1 61q-25 -53 -69 -53q-9 0 -32 1h-38q-23 0 -47 -12q8 13 8 30q0 12 -15.5 62.5t-15.5 91.5q0 155 124 155q78 0 98 -85q5 -25 11.5 -49t38.5 -24q43 0 56 43q7 23 7 78q0 77 -32 138
q-38 71 -99 71q-39 0 -53 -14q10 26 24 100q11 1 21 1q95 0 151 -104q55 -100 55 -260zM164 219q0 39 -37 39q-47 0 -47 -44q0 -40 43 -40q41 0 41 45z" />
    <glyph glyph-name="n" unicode="&#xf06e;" horiz-adv-x="429" 
d="M394 257q0 -125 -40 -185q-46 -72 -136 -72q-15 0 -55.5 2.5t-62.5 2.5q-33 -1 -56 -8q2 7 2 16q0 18 -23 100.5t-23 137.5q0 118 37 184q33 60 84 60q72 0 72 -91q0 -119 -88 -119q-25 0 -41 16q-2 -11 -2 -21q0 -50 35.5 -78t94.5 -28q64 0 97 25h-187v76h149
q-46 26 -46 117q0 105 76 105q113 0 113 -240zM333 317q0 93 -36 93q-32 0 -32 -56q0 -54 32 -76v-72q36 33 36 111zM128 387q0 26 -26 26q-27 0 -27 -34q0 -40 22 -40q31 0 31 48z" />
    <glyph glyph-name="o" unicode="&#xf06f;" horiz-adv-x="450" 
d="M415 182q0 -111 -83 -165q-26 -18 -68 -19q33 1 -90 1q-51 0 -75 -17q7 16 7 30t-14.5 49t-14.5 68q0 79 54 117q26 18 148 64q-30 6 -57 6q-61 0 -93 -27t-27 -66l-92 -36q-10 24 -10 47q0 54 49 89q54 38 151 38q77 0 112 -17q12 22 12 50q0 48 -39 66q2 -8 2 -15
q0 -69 -95 -69q-37 0 -69 18q-36 21 -36 51q0 79 128 79q-17 26 -17 58q0 36 23.5 58t56.5 22q74 0 74 -73q0 -23 -18 -59l-42 17q5 13 5 17q0 18 -21 18q-25 0 -25 -27q0 -19 7 -34q120 -20 120 -135q0 -39 -16 -67q53 -52 53 -137zM235 446q0 24 -28 24q-32 0 -32 -24
q0 -26 29 -26q31 0 31 26zM332 231q0 29 -13 44q-13 -10 -77 -37q-47 -20 -47 -40q0 -34 55 -34q35 0 58.5 19t23.5 48z" />
    <glyph glyph-name="p" unicode="&#xf070;" horiz-adv-x="740" 
d="M705 203q0 -123 -55 -174q-37 -34 -117 -34q-22 0 -40 -16q4 32 4 38q0 30 -10 77t-10 88q0 119 105 119q35 0 63 -29q-5 102 -42 142q-26 27 -74 17q10 -20 10 -45q0 -38 -28.5 -64.5t-66.5 -26.5q-54 0 -78 48q-23 -49 -81 -49q-57 0 -84 51q-5 -36 -55.5 -63
t-50.5 -57q0 -51 46 -51t46 39q0 10 -4 21h50q-6 -57 43 -57q45 0 45 53q0 22 -17 45q10 6 26.5 12.5t25.5 11.5q43 -54 43 -150q0 -102 -68 -137q-23 -12 -91 -12q-20 0 -40 -20q10 28 4 89q-11 -53 -54 -65q-15 -4 -85 -4q-16 0 -40 -11q8 13 8 30q0 18 -16 67.5t-16 80.5
q0 89 65 132q25 14 50 29.5t25 41.5q0 43 -32 43t-32 -36q0 -19 7 -32l-63 -33q-21 39 -21 75q0 46 29 79t77 33q57 0 85 -34q17 -30 34 -61q20 -34 57 -34q35 0 35 35q0 34 -43 34q-27 0 -41 -17v81q17 2 33 2q102 0 112 -87q26 -47 61 -47q40 0 40 34q0 35 -40 35
q-30 0 -43 -16v79h177q63 0 100 -98q32 -85 32 -202zM620 204q0 36 -36 36q-38 0 -38 -35q0 -37 38 -37q36 0 36 36z" />
    <glyph glyph-name="q" unicode="&#xf071;" horiz-adv-x="434" 
d="M399 218q0 -79 -9 -114q-15 -63 -64 -90q-20 -11 -42 -14q-17 -3 -43 -1q-37 2 -45 2q-4 0 -31 -12q11 26 11 31t-6.5 32t-6.5 61q0 16 2 41.5t2 40.5q0 41 -33 41q-37 0 -37 -57q0 -39 14.5 -76.5t14.5 -78.5q0 -30 -26 -30h-15q-13 1 -25 1q-26 0 -47 -4q8 24 8 30
q0 17 -10.5 64.5t-10.5 76.5q0 133 122 133q58 0 93 -59q10 -19 19 -39q15 -26 37 -26q63 0 63 104q0 126 -110 126h-162q-41 0 -63 -12l1 107q16 -9 41 -9h106q-31 40 -31 69q0 48 26.5 67t91.5 19q26 0 50 8v-89q-10 4 -48 4q-57 0 -57 -38q0 -26 18 -40h47q71 0 113 -73
t42 -196z" />
    <glyph glyph-name="r" unicode="&#xf072;" horiz-adv-x="427" 
d="M392 218q0 -118 -55 -175q-41 -43 -98 -43q-18 0 -75 1h-74q-35 0 -47 -7q3 12 3 24q0 25 -23 86t-23 119q0 62 23 102q29 52 86 52q83 0 83 -95q0 -32 -24 -54.5t-57 -22.5q-31 0 -51 19q8 -60 130 -60q138 0 149 76q-31 -36 -63 -36q-33 0 -54 25.5t-21 58.5
q0 94 76 94q14 0 27 -6q-18 107 -46 117q4 -12 4 -25q0 -74 -104 -74q-115 0 -115 88q0 80 137 82q-23 29 -23 60q0 79 86 79q71 0 71 -80q0 -27 -13 -45l-43 9q7 10 1 24q-7 15 -20 15q-26 0 -26 -27q0 -20 21 -42q67 -20 102 -90q30 -61 30 -140q26 -33 26 -109zM211 477
q0 27 -32 27q-31 0 -31 -23q0 -27 30 -27q33 0 33 23zM315 275q0 20 -19 20q-21 0 -21 -21q0 -18 24 -18q16 0 16 19zM123 271q0 22 -23 22t-23 -19q0 -21 23 -21t23 18z" />
    <glyph glyph-name="s" unicode="&#xf073;" horiz-adv-x="412" 
d="M376 240q0 -240 -173 -240q-25 0 -65.5 2.5t-54.5 2.5q-45 0 -59 -17q1 3 8 21q6 14 6 22q0 9 -19 77.5t-19 123.5q0 255 194 255q182 0 182 -247zM309 285q0 117 -108 117q-127 0 -127 -128q0 -108 120 -108q115 0 115 119z" />
    <glyph glyph-name="t" unicode="&#xf074;" 
d="M-65 577q-9 3 -32 3h-247q-23 0 -23 -15q0 -14 19 -14h178v-44h-177q-20 0 -20 -12q0 -13 16 -13h68q12 0 24 10v-90h-101q-73 0 -73 75q0 29 31 53q-35 24 -35 67q0 31 23.5 51.5t59.5 20.5h259q22 0 30 9v-101z" />
    <glyph glyph-name="u" unicode="&#xf075;" horiz-adv-x="431" 
d="M396 233q0 -234 -147 -234q-42 0 -50 -7l4 34q2 19 -5 38q-30 -64 -84 -64q-10 0 -26.5 2.5t-28.5 2.5q-20 0 -43 -13q10 30 10 35q0 22 -13 64t-13 78q0 70 36 108q13 14 67 45q36 21 36 48q0 33 -34 33q-29 0 -29 -36q0 -18 6 -29l-60 -32q-19 33 -19 69q0 112 108 112
q99 0 99 -113q0 -47 -59.5 -83.5t-59.5 -68.5q0 -45 47 -45q45 0 45 36q0 10 -5 20h41q-3 -10 -3 -19q0 -41 44 -41q73 0 73 99q0 129 -61 129v86q124 -17 124 -254z" />
    <glyph glyph-name="v" unicode="&#xf076;" horiz-adv-x="429" 
d="M394 161q0 -125 -78 -155q-23 -9 -85 -9q-26 0 -36 -18q-1 6 3 15.5t4 19.5q0 4 -3 22q-2 14 0 28l-14 -30q-10 -18 -24 -24q-24 -11 -98 -11q-23 0 -41 -9q6 15 6 41q0 4 -14 54.5t-14 81.5q0 89 77 133q41 24 44 26q16 14 16 38q0 41 -29 41q-32 0 -32 -35q0 -16 5 -30
q-34 -15 -63 -33q-18 38 -18 72q0 48 29.5 80.5t72.5 32.5q66 0 94 -43h62v43h57v-43h46v-87h-46v-44h-57v44h-52q-3 -47 -40 -70q-24 -14 -48 -29q-25 -18 -25 -47q0 -44 51 -44q39 0 39 37q0 10 -3 21h51q-7 -56 41 -56q43 0 43 47q0 22 -15 50l50 21q44 -54 44 -131z" />
    <glyph glyph-name="w" unicode="&#xf077;" horiz-adv-x="445" 
d="M445 -82q-24 -7 -83 -17q-43 24 -40 101q-32 -1 -97 -7q-9 -1 -18 -4q11 24 2 65q-12 -29 -40 -45q-15 -12 -119 -12q-20 0 -32 -18q1 10 5 17.5t4 13.5q0 18 -13.5 70.5t-13.5 87.5q0 156 121 156q83 0 106 -87q6 -23 11 -46q10 -25 40 -25q62 0 62 104q0 48 -15 81
q-18 41 -52 41q-13 0 -24 -11v99q9 1 18 1q71 0 110 -80q33 -69 33 -170q0 -53 -9 -116t-9 -87q0 -87 53 -112zM171 220q0 41 -47 41q-41 0 -41 -40q0 -44 39 -44q49 0 49 43z" />
    <glyph glyph-name="x" unicode="&#xf078;" horiz-adv-x="551" 
d="M516 358h-48v-45h-56v45h-41q12 -47 12 -92q45 -27 75.5 -76t30.5 -90q0 -48 -24.5 -75.5t-51.5 -27.5q-7 0 -22.5 1t-30.5 1q-6 0 -40 -4q78 45 78 130q0 42 -15 74q-20 -199 -174 -199q-38 0 -90 4t-54 4q-10 0 -23 -4q-17 -6 -23 -7q7 15 7 34q0 17 -10 59t-10 68
q0 146 191 146q70 0 119 -17q2 50 -15 84q-18 38 -51 38q-48 0 -50 -56h-40q2 57 -46 57q-42 0 -42 -43q0 -15 8 -29l-59 -25q-21 34 -21 68q0 106 101 106q44 0 72 -24q26 30 69 30q59 0 94 -51h76v44h56v-44h48v-84zM311 236q-40 15 -106 15q-90 0 -90 -36q0 -45 76 -45
q86 0 120 66z" />
    <glyph glyph-name="y" unicode="&#xf079;" horiz-adv-x="427" 
d="M392 226q0 -157 -64 -205q-30 -23 -102 -23q-15 0 -34 -14q19 38 9 76q-13 -29 -43 -51q-18 -10 -90 -10q-40 0 -51 -12q7 13 7 38q0 17 -12 66.5t-12 92.5q0 140 119 140q89 0 104 -95q7 -40 8 -42q7 -18 32 -18q56 0 56 91q0 53 -15 91q-20 50 -61 50h-143v86h136
q156 0 156 -261zM165 212q0 43 -39 43q-48 0 -48 -43q0 -15 13 -28t31 -13q43 0 43 41z" />
    <glyph glyph-name="z" unicode="&#xf07a;" horiz-adv-x="441" 
d="M407 150q0 -77 -44 -117q-36 -33 -121 -33q-23 0 -35 -18q11 22 1 95q0 -36 -26 -58q-22 -19 -52 -19q-27 0 -43.5 2t-18.5 2q-23 0 -43 -14q1 3 5.5 12t4.5 15q0 27 -12 71t-12 74q0 73 38 114q10 11 59 44q31 21 31 46q0 37 -28 37q-34 0 -34 -35q0 -24 12 -39l-66 -31
q-24 41 -24 75q0 106 101 119q-17 25 -17 62q0 82 82 82q72 0 72 -77q0 -35 -20 -58l-39 22q3 4 3 9q0 24 -21 24q-27 0 -27 -29q0 -22 15 -38q66 -19 66 -104q0 -52 -34 -84q-26 -17 -53 -35q-29 -21 -29 -54q0 -41 48 -41q50 0 50 41q0 6 -1 14h46q-4 -10 -4 -19
q0 -35 46 -35q50 0 50 50q0 15 -9.5 32t-19.5 21q26 12 58 14q16 -10 29 -46q16 -42 16 -93z" />
    <glyph glyph-name="braceleft" unicode="&#xf07b;" horiz-adv-x="433" 
d="M398 233q0 -233 -140 -233q-39 0 -52 -9q12 39 -3 86q-24 -75 -86 -75q-7 0 -18 1t-14 1q-23 0 -44 -12q5 14 5 30t-23 96.5t-23 139.5q0 112 32 167q23 39 77 65q-52 39 -52 68q0 22 15 38t36 16q31 0 44 9q-10 -12 -6 -40q5 -48 5 -36q0 -22 -22 -55q85 -6 85 -99
q0 -51 -28 -82t-73 -31q-32 0 -55 20q-2 -11 -2 -24q0 -37 16 -64q19 -32 53 -32q64 0 57 52h37q-7 -52 39 -52q31 0 51.5 27.5t20.5 75.5q0 111 -55 119v87q63 2 95 -77q28 -67 28 -177zM145 365q0 34 -26 34q-31 0 -31 -33q0 -34 32 -34q25 0 25 33z" />
    <glyph glyph-name="bar" unicode="&#xf07c;" horiz-adv-x="426" 
d="M391 225q0 -182 -70 -212q-23 -10 -90 -10q-22 0 -30 -14q16 46 1 72q-2 -22 -23 -40q-23 -21 -58 -21q-14 0 -32.5 2t-27.5 2q-30 0 -44 -12q7 23 7 32q0 8 -12 60t-12 102q0 61 33 101.5t80 40.5q89 0 107 -78q5 -27 10 -55q9 -26 37 -26q55 0 55 102q0 121 -59 121
q-15 0 -30 -13v101q49 10 86 -19q72 -57 72 -236zM162 219q0 42 -43 42q-39 0 -39 -41q0 -43 42 -43q40 0 40 42z" />
    <glyph glyph-name="braceright" unicode="&#xf07d;" horiz-adv-x="709" 
d="M339 638q-14 -19 -14 -37q0 -3 1.5 -13t1.5 -16q0 -46 -43 -85h-12q-3 18 -21 45q-16 24 -16 41q0 56 63 56q30 0 40 9zM228 636q-14 -15 -14 -24q0 -13 1.5 -23.5t1.5 -17.5q0 -27 -15 -51l-22 -34h-12q-3 8 -26 42q-16 25 -16 48q0 50 55 50q35 0 47 10zM674 151
q0 -67 -32 -111.5t-80 -44.5q-11 0 -24 3.5t-24 3.5q-28 0 -49 -17q6 14 6 37q0 7 -9 48.5t-9 71.5q0 61 27 101h-54q5 -28 5 -57q0 -124 -73 -171q-22 -15 -80 -15q-22 0 -38 -12q7 17 7 32q0 16 -7 41q-23 -61 -82 -61q-72 0 -46 1q-25 -1 -39 -13q9 22 9 33q0 5 -16 70
t-16 152h-50v72h55q25 173 178 173q154 0 151 -136l-77 22q3 38 -67 38q-98 0 -117 -97h107q25 33 77 33q56 0 87 -33h153q11 0 16 -1q28 20 28 48q0 39 -39 39q-34 0 -34 -31q0 -7 2 -15l-57 -18q-7 26 -7 49q0 49 30 77t75 28q94 0 94 -107q0 -53 -39 -89q58 -39 58 -144z
M607 208q0 35 -46 35h-14q-20 -18 -20 -39q0 -15 13 -25t27 -10q40 0 40 39zM345 278q0 20 -23 20q-22 0 -22 -18q0 -16 22 -16q23 0 23 14zM366 243h-1q-30 -25 -63 -25q-43 0 -67 25h-112q11 -64 63 -64q39 0 42 38h40q8 -41 46 -41q54 0 52 67z" />
    <glyph glyph-name="asciitilde" unicode="&#xf07e;" horiz-adv-x="406" 
d="M370 216q0 -147 -60 -195q-30 -24 -123 -24q0 48 -5 63q-22 -61 -81 -61q-9 0 -26 1.5t-24 1.5q-13 0 -33 -12q7 14 7 24q0 17 -12.5 83.5t-12.5 101.5q0 84 54 159q-45 26 -45 76q0 88 142 88q100 0 159.5 -82.5t59.5 -223.5zM179 426q0 26 -31 26q-33 3 -33 -29
q0 -23 33 -23q31 0 31 26zM308 245q0 148 -85 201q5 -15 5 -30q0 -77 -95 -77q-10 0 -26 2q-29 -39 -29 -95q0 -76 53 -76q46 0 43 49h37q2 -52 40 -52q22 0 39.5 21t17.5 57z" />
    <glyph glyph-name="DEL" unicode="&#xf07f;" horiz-adv-x="143" 
d="M117 -38q0 -238 -136 -238q-18 0 -37.5 3t-23.5 3q-35 0 -55 -16q5 18 5 30q0 23 -14.5 55.5t-14.5 69.5q0 110 97 110q65 0 65 -66q0 -63 -63 -63q-26 0 -43 15q9 -46 66 -46q97 0 97 184q0 125 -61 216l58 12q60 -113 60 -269zM-56 -87q0 19 -18 19t-18 -21
q0 -17 18 -17t18 19z" />
    <glyph glyph-name="Adieresis" unicode="&#xf080;" horiz-adv-x="431" 
d="M396 179q0 -102 -83 -157q-29 -20 -78 -22q43 2 -72 2q-20 0 -54 2q-26 1 -37 0q-17 -2 -33 -9q3 10 3 23q0 20 -21 94.5t-21 130.5q0 111 34 179q35 73 96 73q68 0 68 -93q0 -119 -88 -119q-29 0 -50 18q-2 -65 37 -100q35 -31 104 -31q115 0 128 79q-45 -48 -94 -48
h-134v72h185q-73 43 -73 121q0 100 72 100q97 0 97 -119q0 -48 -19 -84q33 -35 33 -112zM327 375q0 34 -28 34t-28 -33q0 -46 42 -62q14 25 14 61zM133 381q0 34 -27 34q-32 0 -32 -39q0 -33 27 -33q32 0 32 38z" />
    <glyph glyph-name="Aring" unicode="&#xf081;" 
d="M431 -260q0 -85 -13 -118q-15 -37 -67 -68q-23 -13 -68 -17q-33 -3 -89 -2q-85 2 -87 2q-58 0 -78 -24q5 30 5 45q0 11 -7 45t-7 71q0 22 2 36h61q6 -72 134 -72q56 0 108 27q58 31 54 75h52z" />
    <glyph glyph-name="Ccedilla" unicode="&#xf082;" horiz-adv-x="526" 
d="M491 103q0 -48 -22 -76.5t-53 -28.5q-74 0 -97 -7q82 44 82 139q0 43 -16 70q0 -35 -17 -84q-20 -59 -53 -86q-29 -24 -85 -29h-82q-17 0 -43 3t-36 3q-28 0 -52 -14q8 14 8 35q0 17 -9.5 61t-9.5 69q0 149 186 149q72 0 124 -18q3 55 -17 90.5t-50 35.5q-48 0 -48 -61
h-42q0 59 -51 59q-38 0 -38 -47q0 -15 11 -26l-61 -23q-20 29 -20 65q0 109 99 109q46 0 75 -26q23 30 68 30q72 0 110 -70q33 -61 34 -159q39 -19 71 -66q34 -50 34 -97zM310 238q-55 16 -100 16q-99 0 -99 -40q0 -17 24 -29.5t57 -12.5q96 0 118 66z" />
    <glyph glyph-name="Eacute" unicode="&#xf083;" 
d="M-59 541q-9 13 -39 13h-33q-53 0 -53 -38q0 -16 12 -31.5t24 -29.5h-55q-38 62 -38 96q0 86 81 86h71q24 0 30 8v-104zM-255 608q-15 -17 -15 -59q0 -33 -14.5 -55.5t-14.5 -31.5q0 -8 5 -19h-27q-4 24 -24 58q-17 30 -17 49q0 50 72 50q20 0 35 8z" />
    <glyph glyph-name="Ntilde" unicode="&#xf084;" 
d="M-60 547q-9 9 -44 9q-27 0 -37 -6t-10 -26t23 -50h-13v-73h-30q-28 0 -43 -19v109q7 -5 30 -5q-25 28 -25 61q0 65 43 84q23 10 75 10q24 0 31 11v-105z" />
    <glyph glyph-name="Odieresis" unicode="&#xf085;" horiz-adv-x="251" 
d="M215 363q0 -168 -79 -213q-21 -12 -102 -12q-15 0 -29 -11q4 19 4 43q0 30 -9 82t-9 79q0 118 102 118q35 0 61 -19q-3 108 -82 108h-167q16 -18 16 -51q0 -39 -23.5 -62.5t-57.5 -23.5h-27v86h30q30 0 30 17q0 30 -34 30h-117q-17 0 -30 -11v99h359q164 0 164 -259z
M142 349q0 43 -41 43q-45 0 -45 -46q0 -39 42 -39q44 0 44 42z" />
    <glyph glyph-name="Udieresis" unicode="&#xf086;" horiz-adv-x="251" 
d="M217 248q0 -104 -29 -170q-24 -54 -59 -69q-27 -12 -102 -12q-16 0 -29 -10q5 37 5 54q0 29 -7 74.5t-7 73.5q0 126 98 126q43 0 69 -28q-3 70 -25 92t-87 22h-392q-56 0 -66 -21v113q11 -6 27 -6h449q74 0 116 -71q39 -66 39 -168zM134 206q0 42 -40 42q-38 0 -38 -33
q0 -40 40 -40q38 0 38 31z" />
    <glyph glyph-name="aacute" unicode="&#xf087;" horiz-adv-x="674" 
d="M639 157q0 -66 -32.5 -108.5t-70.5 -42.5q-12 0 -26 3t-25 3q-28 0 -51 -14q5 14 5 29q0 14 -9 52t-9 66q0 67 26 101h-38q3 -50 -14 -114q-21 -76 -60 -107q-29 -23 -86 -25q93 3 -93 3q-73 0 -43 1q-23 -1 -40 -14q10 16 10 41q0 17 -17.5 82t-18.5 133h-47v74h55
q14 112 80 146v14q-44 40 -44 67q0 14 12 28t30 14q43 0 57 6q-6 -9 -7 -21q-1 -8 1 -21q1 -17 1 -22q0 -28 -33 -57q34 18 89 12q-22 46 -22 73q0 34 19 53t43 19h79q26 0 32 17v-108q-6 12 -25 12h-56q-36 0 -36 -28q0 -21 15 -42q89 -32 113 -167h103q20 0 35.5 13.5
t15.5 32.5q0 41 -38 41q-35 0 -35 -33q0 -7 5 -12l-58 -18q-8 18 -8 52q0 42 27.5 70t77.5 28q92 0 92 -106q0 -62 -39 -81q58 -40 58 -145zM572 214q0 33 -37 33q-40 0 -40 -35q0 -37 38 -37q39 0 39 39zM340 318q-12 89 -106 89q-97 0 -116 -89h222zM337 246h-217
q4 -31 35.5 -54t69.5 -23q96 0 112 77z" />
    <glyph glyph-name="agrave" unicode="&#xf088;" horiz-adv-x="125" 
d="M120 -141q0 -113 -96 -113q-44 0 -53 -6q6 18 6 25q0 5 -8 36.5t-8 50.5q0 40 19 55h-365q-9 0 -18 -6v57h445q13 28 13 41q0 27 -25 27q-26 0 -26 -22q0 -13 5 -20l-42 -13q-7 15 -7 36q0 29 20 49.5t49 20.5q71 0 71 -69q0 -30 -16 -60q36 -26 36 -89zM69 -106
q0 25 -27 25t-27 -30q0 -27 26 -27q28 0 28 32z" />
    <glyph glyph-name="acircumflex" unicode="&#xf089;" 
d="M-91 -192q0 -128 -61 -156q-4 -2 -46 -2q-8 0 -24 -7q7 18 1 48q-16 -33 -41 -38q-5 -1 -50 -1q-11 0 -25 -9q6 10 6 21q0 18 -7 42t-7 51q0 94 75 94q21 0 37 -9q1 22 -10.5 45.5t-25.5 23.5q-30 0 -30 -24q0 -13 8 -20l-40 -16q-13 23 -13 43q0 70 78 70q73 0 73 -146
q0 -61 31 -61q32 0 32 62q0 84 -36 84q-15 0 -25 -11v69q44 5 70 -32q30 -40 30 -121zM-208 -406q0 -34 -35 -34q-3 0 -11.5 1t-14.5 1q3 2 3 34q0 20 16 41t19 37q-2 -20 10 -41q13 -24 13 -39zM-238 -210q0 31 -25 31q-30 0 -30 -33q0 -28 27 -28q28 0 28 30z" />
    <glyph glyph-name="adieresis" unicode="&#xf08a;" 
d="M-66 541q-9 13 -39 13h-33q-53 0 -53 -38q0 -16 12 -31.5t24 -29.5h-55q-38 62 -38 96q0 86 81 86h71q24 0 30 8v-104zM-262 608q-15 -17 -15 -59q0 -33 -14.5 -55.5t-14.5 -31.5q0 -8 5 -19h-27q-4 24 -24 58q-17 30 -17 49q0 50 72 50q20 0 35 8z" />
    <glyph glyph-name="atilde" unicode="&#xf08b;" horiz-adv-x="431" 
d="M396 233q0 -234 -147 -234q-42 0 -50 -7l4 34q2 19 -5 38q-30 -64 -84 -64q-10 0 -26.5 2.5t-28.5 2.5q-20 0 -43 -13q10 30 10 35q0 22 -13 64t-13 78q0 70 36 108q13 14 67 45q36 21 36 48q0 33 -34 33q-29 0 -29 -36q0 -18 6 -29l-60 -32q-19 33 -19 69q0 112 108 112
q99 0 99 -113q0 -47 -59.5 -83.5t-59.5 -68.5q0 -45 47 -45q45 0 45 36q0 10 -5 20h41q-3 -10 -3 -19q0 -41 44 -41q73 0 73 99q0 122 -62 122q-15 0 -31 -13v106q156 3 156 -254z" />
    <glyph glyph-name="aring" unicode="&#xf08c;" 
d="M-9 -261l-77 -10q-41 24 -32 74q-19 -4 -54 -4q-51 0 -67 -14q0 2 5.5 12t5.5 15q0 28 -9 45q-4 -39 -46 -54q-12 -4 -87 -4q-21 0 -41 -11q8 26 8 24q0 18 -9.5 43.5t-9.5 45.5q0 42 14 68l64 -8q-4 -6 -4 -12q0 -30 45 -30q58 0 58 34h39q-2 -30 43 -30q53 0 53 33
q0 4 -1 8l57 10q12 -44 12 -55q0 -22 -6 -57.5t-6 -53.5q0 -50 45 -69z" />
    <glyph glyph-name="ccedilla" unicode="&#xf08d;" 
d="M-115 570q0 -104 -127 -104q-69 0 -101.5 16t-40.5 16l75 37q18 -36 68 -36q23 0 42 15.5t21 40.5q-28 -22 -70 -22q-109 0 -109 74q0 79 118 79q124 0 124 -116zM-189 606q-8 20 -43 20q-29 0 -29 -21q0 -16 27 -16q25 0 45 17z" />
    <glyph glyph-name="eacute" unicode="&#xf08e;" 
d="M-42 580q-24 4 -52 4h-206q-30 0 -30 -12q0 -15 36 -15h161v-47l-176 1q-22 0 -22 -11q0 -13 16 -13h117v-86h-122q-75 0 -75 76q0 37 28 58q-28 20 -28 64q0 32 20 53.5t49 21.5h263q12 0 21 6v-100z" />
    <glyph glyph-name="egrave" unicode="&#xf08f;" horiz-adv-x="143" 
d="M117 -38q0 -238 -136 -238q-18 0 -37.5 3t-23.5 3q-35 0 -55 -16q5 18 5 30q0 23 -14.5 55.5t-14.5 69.5q0 110 97 110q65 0 65 -66q0 -63 -63 -63q-26 0 -43 15q9 -46 66 -46q97 0 97 184q0 125 -61 216l58 12q60 -113 60 -269zM-56 -87q0 19 -18 19t-18 -21
q0 -17 18 -17t18 19z" />
    <glyph glyph-name="ecircumflex" unicode="&#xf090;" horiz-adv-x="251" 
d="M217 248q0 -104 -29 -170q-24 -54 -59 -69q-27 -12 -102 -12q-16 0 -29 -10q5 37 5 54q0 29 -7 74.5t-7 73.5q0 126 98 126q43 0 69 -28q-3 70 -25 92t-87 22h-390q-56 0 -66 -21v113q11 -6 27 -6h447q74 0 116 -71q39 -66 39 -168zM134 206q0 42 -40 42q-38 0 -38 -33
q0 -40 40 -40q38 0 38 31z" />
    <glyph glyph-name="edieresis" unicode="&#xf091;" horiz-adv-x="257" 
d="M219 248q0 -104 -29 -170q-24 -54 -59 -69q-27 -12 -102 -12q-16 0 -29 -10q5 37 5 54q0 29 -7 74.5t-7 73.5q0 126 98 126q43 0 69 -28q-3 70 -25 92t-87 22h-409q-56 0 -66 -21v113q11 -6 27 -6h466q74 0 116 -71q39 -66 39 -168zM136 206q0 42 -40 42q-38 0 -38 -33
q0 -40 40 -40q38 0 38 31z" />
    <glyph glyph-name="iacute" unicode="&#xf092;" 
d="M-73 -196q0 -56 -21 -103t-49 -56q-10 -4 -36 -2t-34 -3q6 9 6 27q0 23 -5.5 49.5t-5.5 53.5q0 73 66 73q22 0 35 -17q1 6 1 14q0 61 -50 61q-45 0 -37 -34h-28q1 6 1 12q0 23 -27 23q-32 0 -32 -26q0 -28 29 -28q8 0 14 4v-34q-7 3 -15 3q-30 0 -30 -33q0 -27 21 -27
t18 31h25q-3 -7 -3 -69q0 -55 -27 -69q-8 -4 -45 -4q-14 0 -21 -8q6 18 6 20q0 12 -9.5 40.5t-9.5 55.5q0 59 27 78q-24 18 -24 52q0 77 77 77q26 0 44 -19q21 18 44 18q95 0 95 -160zM-124 -224q0 28 -27 28q-29 0 -29 -28q0 -24 28 -24t28 24z" />
    <glyph glyph-name="igrave" unicode="&#xf093;" horiz-adv-x="418" 
d="M383 232q0 -88 -10 -128q-16 -63 -63 -88q-26 -14 -115 -14q-16 0 -40 -12q12 15 12 28q0 14 -6 38.5t-6 52.5q0 108 2 82q-3 38 -29 38q-36 0 -36 -56q0 -25 13.5 -69.5t13.5 -73.5t-10 -34q-5 -2 -13 -2q-79 0 -86 -1q8 11 8 28q0 15 -9 62t-9 76q0 123 112 123
q50 0 79 -33q6 -7 30 -54q14 -30 40 -30q57 0 57 101q0 164 -90 192q7 -18 7 -33q0 -37 -37 -58q-31 -19 -72 -19q-110 0 -110 85q0 40 43 64.5t109 24.5q106 0 163 -87q52 -78 52 -203zM182 437q0 25 -30 25q-33 0 -32 -27q2 -25 33 -25q29 0 29 27z" />
    <glyph glyph-name="icircumflex" unicode="&#xf094;" horiz-adv-x="179" 
d="M141 221q0 -86 -12 -123q-31 -96 -104 -96q-13 0 -35 2.5t-27 2.5q-13 0 -27 -8q7 24 7 41q0 44 -21 65l25 142q27 -79 71 -79q61 0 61 112q0 39 -16 71q-19 41 -53 41q-16 0 -30 -13v104q37 2 71 -17q44 -26 69 -99q21 -65 21 -146z" />
    <glyph glyph-name="idieresis" unicode="&#xf095;" horiz-adv-x="127" 
d="M163 -181q0 -59 -38 -67q-5 -2 -44 -2q-3 0 -13 -3q-7 -1 -13 0q49 23 49 80q0 38 -11 50q-9 -80 -55 -114q-17 -13 -145 -13q-30 0 -40 -13q5 25 5 26q0 11 -10.5 40.5t-10.5 58.5q0 53 43 82q36 25 89 25t84 -8q0 123 -47 123q-8 0 -17 -4l18 81q96 -39 96 -193
q0 -15 -1 -32q61 -35 61 -117zM43 -89q-56 9 -69 9q-58 0 -58 -31q0 -25 43 -25q80 0 84 47z" />
    <glyph glyph-name="ntilde" unicode="&#xf096;" horiz-adv-x="460" 
d="M425 185q0 -80 -35.5 -132t-92.5 -52q-48 0 -61 -13q15 34 0 73q-26 -61 -81 -61l-31 2q-20 1 -32 -2q-17 -3 -26 -12q11 17 11 29q0 6 -18 80t-16 146h-43v74h50q26 171 174 171q-3 14 -24 48q-19 30 -19 50q0 48 45 48q41 0 56 9l3 -5q-12 -11 -12 -29q1 46 1 -33
q0 -32 -14 -54l-22 -33q68 0 106 -39t33 -99l-75 20q2 41 -64 41q-82 0 -122 -95h91v-74h-91q6 -67 64 -67q35 0 44 43h39q7 -45 44 -45q60 0 54 71q-28 -26 -61 -26q-82 0 -82 61q0 67 89 67q118 0 118 -162zM342 275q0 23 -26 23q-22 0 -22 -19q0 -14 23 -14q25 0 25 10z
" />
    <glyph glyph-name="oacute" unicode="&#xf097;" horiz-adv-x="179" 
d="M141 221q0 -86 -12 -123q-31 -96 -104 -96q-13 0 -35 2.5t-27 2.5q-13 0 -27 -8q7 24 7 41q0 43 -20 63l25 142q26 -77 70 -77q61 0 61 112q0 39 -16 71q-19 41 -53 41q-16 0 -30 -13v104q37 2 71 -17q44 -26 69 -99q21 -65 21 -146z" />
    <glyph glyph-name="ograve" unicode="&#xf098;" 
d="M-188 -91q0 -38 -23 -48q-12 -5 -47 -5q-17 0 -40 -10q19 17 19 70q0 35 16 58q25 35 31 49q4 -35 24 -65.5t20 -48.5z" />
    <glyph glyph-name="ocircumflex" unicode="&#xf099;" horiz-adv-x="20" 
d="M221 485q0 -64 -40 -91q-17 -12 -70 -12q-31 0 -41 -19v101q7 -4 25 -4h51q35 0 35 22q0 24 -24 24h-114q-20 0 -33 -11v103q8 -6 28 -6q122 4 128 -4q55 -22 55 -103z" />
    <glyph glyph-name="odieresis" unicode="&#xf09a;" horiz-adv-x="251" 
d="M214 363q0 -168 -79 -213q-21 -12 -102 -12q-15 0 -29 -11q4 19 4 43q0 30 -9 82t-9 79q0 118 102 118q35 0 61 -19q-3 108 -82 108h-179q16 -18 16 -51q0 -37 -18 -49q-14 -9 -51 -9h-91v53h82q30 0 30 22q0 30 -34 30h-204q-16 0 -30 -11v99h458q164 0 164 -259z
M141 349q0 43 -41 43q-45 0 -45 -46q0 -39 42 -39q44 0 44 42z" />
    <glyph glyph-name="otilde" unicode="&#xf09b;" horiz-adv-x="436" 
d="M401 154q0 -53 -23 -94q-20 -37 -49 -49q-22 -10 -91 -10q-18 0 -36 -20q6 26 6 32q0 26 -6 53q-7 -47 -49 -59q-19 -6 -86 -6q-27 0 -43 -15q9 31 9 37q0 15 -15 59t-15 89q0 85 63 126q25 15 49.5 30.5t24.5 43.5q0 41 -35 41q-29 0 -29 -33q0 -17 6 -32l-60 -34
q-22 29 -22 74q0 112 112 112q53 0 80 -35l36 -64q23 -35 65 -35q22 0 40 12t17 32q-27 -27 -57 -27q-73 0 -73 63q0 30 25 50t62 20q42 0 68 -29.5t26 -80.5q0 -48 -31.5 -78.5t-76.5 -30.5q-67 0 -91 49q-10 -38 -60 -65q-46 -24 -46 -59q0 -46 49 -46q43 0 43 40
q0 11 -5 21h50q-1 -59 46 -59q42 0 42 50q0 33 -17 50l53 22q44 -55 44 -145zM324 438q0 21 -19 21q-22 0 -22 -17q0 -19 22 -19q19 0 19 15z" />
    <glyph glyph-name="uacute" unicode="&#xf09c;" 
d="M-106 -198q0 -153 -98 -153h-26q-1 12 -4 43q-16 -34 -39 -40q-6 -1 -49 -1q-16 0 -24 -5q3 9 3 23q0 16 -7.5 61.5t-7.5 70.5q0 164 128 164q62 0 91 -33q33 -38 33 -130zM-208 -409q0 -35 -58 -32q-1 9 -2.5 20.5t-1.5 18.5q0 22 10 38q13 20 16 31q5 -18 22 -41
q14 -17 14 -35zM-150 -163q0 74 -77 74q-82 0 -82 -79q0 -71 42 -71q31 0 28 34h23q2 -34 25 -34q41 0 41 76zM-195 -151q0 -29 -35 -29q-33 0 -33 33q0 30 34 30t34 -34z" />
    <glyph glyph-name="ugrave" unicode="&#xf09d;" horiz-adv-x="20" 
d="M265 651q0 -34 -24 -63l-43 18q6 7 6 19q0 23 -22 23q-26 0 -26 -32q0 -15 10 -28q55 -22 55 -103q0 -64 -40 -91q-17 -12 -70 -12q-31 0 -41 -19v101q7 -4 25 -4h51q35 0 35 22q0 24 -24 24h-114q-20 0 -33 -11v103q8 -6 28 -6h83q-17 24 -17 52q0 82 84 82
q32 0 54.5 -21.5t22.5 -53.5z" />
    <glyph glyph-name="ucircumflex" unicode="&#xf09e;" 
d="M-115 570q0 -104 -127 -104q-69 0 -101.5 16t-40.5 16l75 37q18 -36 68 -36q23 0 42 15.5t21 40.5q-28 -22 -70 -22q-109 0 -109 74q0 75 106 77q-18 19 -18 48q0 89 81 89q72 0 72 -75q0 -27 -17 -52l-39 19q9 31 -18 31q-26 0 -26 -27q0 -7 5 -34q41 -1 68.5 -34
t27.5 -79zM-189 606q-8 20 -43 20q-29 0 -29 -21q0 -16 27 -16q25 0 45 17z" />
    <glyph glyph-name="udieresis" unicode="&#xf09f;" 
d="M-132 545q-26 4 -61 4q-59 0 -59 -30q0 -12 11 -26t11 -31q0 -59 -72 -59h-84q-21 0 -26 -9v93h125q-24 24 -24 74q0 27 24 53.5t59 26.5h96v-96z" />
    <glyph glyph-name="dagger" unicode="&#xf0a0;" horiz-adv-x="943" 
d="M908 236q0 -72 -23 -135q-25 -67 -64 -86q-28 -14 -102 -14q-12 0 -23 -11q0 10 2 24.5t2 24.5q0 30 -10 76.5t-10 73.5q0 124 101 124q37 0 67 -31q7 121 -85 121q-77 0 -70 -69h-41v63q0 144 -86 144q-67 0 -67 -40q0 -11 17 -17q28 -9 40 -16q88 -56 88 -220
q0 -104 -30 -170q-23 -54 -58 -69q-28 -12 -102 -12q-16 0 -29 -10q5 37 5 54q0 29 -7 74.5t-7 73.5q0 126 98 126q42 0 69 -28q-5 98 -60 110q-20 4 -52 4h-103q23 -65 23 -176q0 -182 -70 -212q-23 -10 -90 -10q-22 0 -30 -14q16 46 1 72q-2 -22 -23 -40q-23 -21 -58 -21
q-14 0 -32.5 2t-27.5 2q-30 0 -44 -12q7 23 7 32q0 8 -12 60t-12 102q0 61 33 101.5t80 40.5q89 0 107 -78q5 -27 10 -55q9 -26 37 -26q55 0 55 102q0 127 -45 127q-22 0 -34 -18v113q11 -6 27 -6h182q-1 7 -1 21q0 120 115 120q112 0 125 -171q30 31 82 31q68 0 104 -75
q31 -67 31 -177zM293 545q-26 4 -61 4q-59 0 -59 -30q0 -12 11 -26t11 -31q0 -61 -72 -61h-83q-22 0 -26 -7v93h124q-24 24 -24 74q0 27 24.5 53.5t58.5 26.5h96v-96zM823 214q0 36 -36 36q-38 0 -38 -37q0 -34 34 -34q40 0 40 35zM561 206q0 42 -40 42q-38 0 -38 -33
q0 -40 40 -40q38 0 38 31zM162 219q0 42 -43 42q-39 0 -39 -41q0 -43 42 -43q40 0 40 42z" />
    <glyph glyph-name="degree" unicode="&#xf0a1;" 
d="M-107 570q0 -104 -127 -104q-69 0 -101.5 16t-40.5 16l75 37q18 -36 68 -36q23 0 42 15.5t21 40.5q-28 -22 -70 -22q-109 0 -109 74q0 75 106 77q-18 19 -18 48q0 89 81 89q72 0 72 -75q0 -27 -17 -52l-39 19q9 31 -18 31q-26 0 -26 -27q0 -7 5 -34q41 -1 68.5 -34
t27.5 -79zM-181 606q-8 20 -43 20q-29 0 -29 -21q0 -16 27 -16q25 0 45 17z" />
    <glyph glyph-name="cent" unicode="&#xf0a2;" 
d="M-78 -127q0 -70 -48 -90q-14 -6 -44 -6q-16 0 -22 -10v84q12 -7 28 -7q45 0 44 31q-2 31 -46 31q-55 0 -55 -39q0 -7 4 -17q-21 2 -35 -3q4 8 4 22q0 36 -52 36q-44 0 -44 -35q0 -29 35 -29q19 0 33 6q6 -44 -9 -60q-8 -6 -62 -6q-8 0 -30 -14q4 17 4 26q0 11 -7 37
t-7 42q0 91 93 91q30 0 55 -20q21 24 63 24q41 0 69.5 -26t28.5 -68z" />
    <glyph glyph-name="sterling" unicode="&#xf0a3;" 
d="M-93 546q-5 9 -20 9h-43q-39 0 -39 -34t31 -54h-48q-44 45 -44 90q0 39 28 62q25 20 63 20h46q19 0 26 12v-105zM-279 605q-9 -16 -9 -36q0 -7 2.5 -19t2.5 -18q0 -17 -14 -38l-18 -28l-11 -5q-3 15 -27.5 39t-24.5 46q0 50 50 50q38 0 49 9z" />
    <glyph glyph-name="section" unicode="&#xf0a4;" horiz-adv-x="255" 
d="M220 236q0 -72 -23 -135q-25 -67 -64 -86q-28 -14 -102 -14q-12 0 -23 -11q0 10 2 24.5t2 24.5q0 30 -10 76.5t-10 73.5q0 124 101 124q38 0 67 -31q7 121 -85 121q-67 0 -60 -69h-41v63q0 144 -81 144q-62 0 -62 -40q0 -11 24 -15v-89q-72 19 -72 111q0 120 110 120
q107 0 120 -171q30 30 68 30q139 0 139 -251zM135 214q0 36 -36 36q-38 0 -38 -37q0 -34 34 -34q40 0 40 35z" />
    <glyph glyph-name="bullet" unicode="&#xf0a5;" horiz-adv-x="450" 
d="M415 182q0 -111 -83 -165q-26 -18 -68 -19q33 1 -90 1q-51 0 -75 -17q7 16 7 30t-14.5 49t-14.5 68q0 79 54 117q26 18 148 64q-30 6 -57 6q-61 0 -93 -27t-27 -66l-92 -36q-10 24 -10 47q0 54 49 89q54 38 151 38q77 0 112 -17q12 22 12 50q0 48 -39 66q2 -8 2 -15
q0 -69 -95 -69q-37 0 -69 18q-36 21 -36 51q0 79 128 79q163 0 163 -138q0 -39 -16 -67q53 -52 53 -137zM235 446q0 24 -28 24q-32 0 -32 -24q0 -26 29 -26q31 0 31 26zM332 231q0 29 -13 44q-13 -10 -77 -37q-47 -20 -47 -40q0 -34 55 -34q35 0 58.5 19t23.5 48z" />
    <glyph glyph-name="paragraph" unicode="&#xf0a6;" 
d="M-87 -235q0 -66 -36 -96q-21 -22 -61 -22q-15 0 -28 -10q12 26 2 47q-12 -23 -32 -33q-10 -5 -48 -5q-18 0 -32 -7q6 15 6 18q0 13 -11.5 56.5t-11.5 89.5q0 161 125 161q94 0 94 -86l-46 10q-3 25 -51 25q-74 0 -74 -88q0 -64 44 -64q27 0 27 26h29q6 -27 30 -27
q34 0 30 44q-21 -15 -39 -15q-53 0 -53 38q0 47 59 47q77 0 77 -109zM-144 -171q0 11 -12 11q-19 0 -15 -12q1 -9 15 -9q12 0 12 10z" />
    <glyph glyph-name="germandbls" unicode="&#xf0a7;" horiz-adv-x="179" 
d="M141 221q0 -86 -12 -123q-31 -96 -104 -96q-13 0 -35 2.5t-27 2.5q-13 0 -27 -8q7 24 7 41q0 42 -20 62l33 138q12 -72 62 -72q61 0 61 112q0 39 -16 71q-19 41 -53 41q-16 0 -30 -13v104q37 2 71 -17q44 -26 69 -99q21 -65 21 -146z" />
    <glyph glyph-name="registered" unicode="&#xf0a8;" 
d="M-89 -249q0 -89 -53 -109q-10 -4 -52 -4q-18 0 -28 -11q7 24 3 54q-9 -31 -40 -38q-9 -1 -59 -1q-7 0 -20 -5q5 15 5 25q0 13 -8.5 40t-8.5 46q0 47 24 71q5 5 47 29q25 15 25 39t-21 24t-21 -23q0 -15 6 -23q-24 -4 -42 -18q-12 27 -12 46q0 71 71 71q50 0 68.5 -43.5
t43.5 -43.5q27 0 27 23q0 20 -27 22q-17 1 -29 -9v50q10 2 20 2q73 0 73 -64q0 -72 -64 -72q-33 0 -50 34q-8 -22 -44 -41q-31 -16 -31 -43q0 -23 30 -23t30 20q0 7 -4 17h35q0 -40 29 -40t29 34q0 15 -12 30l36 13q24 -35 24 -79z" />
    <glyph glyph-name="copyright" unicode="&#xf0a9;" horiz-adv-x="431" 
d="M396 267q0 -194 -97 -254q-17 -11 -62 -13q-31 -2 -84 1q-62 3 -68 3q-30 0 -42 -10q2 12 2 26q0 26 -22.5 90.5t-22.5 107.5q0 75 31 118.5t87 43.5q96 0 96 -87q0 -46 -32 -71q-25 -21 -58 -21q-27 0 -60 23q11 -59 129 -59q137 0 137 147q0 74 -24 132q-26 63 -66 63
q1 -5 3 -13.5t2 -13.5q0 -80 -109 -80q-110 0 -110 83q0 34 36.5 61t90.5 29q2 0 6 1t5 1q-16 16 -16 40q0 92 78 92q77 0 77 -79q0 -29 -15 -55l-39 17q2 4 2 9q0 23 -26 23q-24 0 -24 -24q0 -12 7 -28q188 -34 188 -303zM195 487q0 27 -32 27t-32 -27q0 -25 32 -24t32 24z
M125 274q0 21 -22 21q-24 0 -24 -24q0 -18 21 -18q25 0 25 21z" />
    <glyph glyph-name="trademark" unicode="&#xf0aa;" horiz-adv-x="639" 
d="M352 453q0 -68 -36 -91q-14 -9 -49 -9q-22 0 -28 -7l-2 1q3 19 -4 47q-8 32 -8 49q0 87 68 87q59 0 59 -77zM586 292l-1 -66h-586l2 66h585zM352 111q0 -68 -36 -90q-14 -9 -49 -9q-22 0 -28 -7l-2 1q3 19 -4 47q-8 32 -8 48q0 87 68 87q59 0 59 -77z" />
    <glyph glyph-name="acute" unicode="&#xf0ab;" horiz-adv-x="141" 
d="M135 -117q0 -70 -49 -104q-15 -11 -41 -14q-19 -2 -47 -1q-40 2 -37 2q-17 0 -37 -13q3 6 3 13q0 10 -10 35.5t-10 41.5q0 51 62 66h-86q-12 0 -32 -10q5 14 3 36q-3 27 -2 33h192v-61q-50 6 -50 -28q0 -30 34 -30q55 0 55 56q0 58 -46.5 122.5t-46.5 118.5
q0 35 18.5 57.5t45.5 22.5q61 0 61 -63q0 -44 -15 -74l-37 16q10 14 10 32q0 22 -17 22q-19 0 -19 -32q0 -29 49 -99.5t49 -144.5z" />
    <glyph glyph-name="dieresis" unicode="&#xf0ac;" horiz-adv-x="944" 
d="M909 236q0 -72 -23 -135q-25 -67 -64 -86q-28 -14 -102 -14q-12 0 -23 -11q0 10 2 24.5t2 24.5q0 30 -10 76.5t-10 73.5q0 124 101 124q37 0 67 -31q7 121 -85 121q-77 0 -70 -69h-41v63q0 144 -86 144q-67 0 -67 -40q0 -11 24 -19q35 -12 59 -36q61 -62 61 -198
q0 -104 -30 -170q-23 -54 -58 -69q-28 -12 -102 -12q-16 0 -29 -10q5 37 5 54q0 29 -7 74.5t-7 73.5q0 126 98 126q42 0 69 -28q-4 70 -26 92t-86 22h-103q23 -65 23 -176q0 -182 -70 -212q-23 -10 -90 -10q-22 0 -30 -14q16 46 1 72q-2 -22 -23 -40q-23 -21 -58 -21
q-14 0 -32.5 2t-27.5 2q-30 0 -44 -12q7 23 7 32q0 8 -12 60t-12 102q0 61 33 101.5t80 40.5q89 0 107 -78q5 -27 10 -55q9 -26 37 -26q55 0 55 102q0 127 -46 127q-24 0 -33 -18v113q11 -6 27 -6h183q-1 7 -1 21q0 120 115 120q112 0 125 -171q25 24 55 29q-17 29 -17 60
q0 82 79 82q35 0 57.5 -19t22.5 -48q0 -42 -17 -63l-41 11q8 41 -21 41q-26 0 -26 -31q0 -16 8 -32q117 -20 117 -251zM293 545q-26 4 -61 4q-59 0 -59 -30q0 -12 11 -26t11 -31q0 -61 -72 -61h-83q-22 0 -26 -7v93h124q-24 24 -24 74q0 27 24.5 53.5t58.5 26.5h96v-96z
M824 214q0 36 -36 36q-38 0 -38 -37q0 -32 34 -32q40 0 40 33zM561 206q0 42 -40 42q-38 0 -38 -33q0 -40 40 -40q38 0 38 31zM162 219q0 42 -43 42q-39 0 -39 -41q0 -43 42 -43q40 0 40 42z" />
    <glyph glyph-name="notequal" unicode="&#xf0ad;" horiz-adv-x="353" 
d="M320 221q0 -86 -12 -123q-31 -96 -104 -96q-13 0 -35 2.5t-27 2.5q-12 0 -27 -8q7 24 7 41q0 13 -4 32q-35 -70 -93 -70q-13 0 -35 2.5t-27 2.5q-13 0 -27 -8q7 24 7 41q0 45 -20 65l33 138q12 -75 62 -75q61 0 61 112q0 39 -16 71q-19 41 -53 41q-16 0 -30 -13v104
q37 2 71 -17q44 -26 69 -99q21 -65 21 -146q12 -53 56 -53q61 0 61 112q0 39 -15 71q-20 41 -54 41q-16 0 -30 -13v104q37 2 71 -17q44 -26 69 -99q21 -65 21 -146z" />
    <glyph glyph-name="AE" unicode="&#xf0ae;" 
d="M-75 -225q-15 15 -34 15h-387q-105 0 -105 91q0 34 23 56.5t59 22.5q64 0 64 -58q0 -23 -11 -37h391v-90zM-498 -111q0 27 -24 27q-26 0 -26 -26q0 -24 26 -24q24 0 24 23z" />
    <glyph glyph-name="Oslash" unicode="&#xf0af;" horiz-adv-x="378" 
d="M342 224q0 -72 -9 -106q-19 -65 -82 -104q-21 -13 -72 -14q72 1 -89 1q-44 0 -60 -14l13 35q0 4 -21.5 68.5t-21.5 136.5q0 69 45 137q-40 26 -40 67q0 91 119 95q-13 15 -13 40q0 92 78 92q77 0 77 -79q0 -30 -15 -55l-39 17q2 4 2 9q0 23 -26 23q-24 0 -24 -24
q0 -9 6 -27q93 -17 137 -112q35 -75 35 -186zM157 430q0 30 -26 30q-34 0 -34 -32q0 -26 30 -26t30 28zM269 295q0 64 -23 113t-54 49q13 -23 13 -37q0 -69 -87 -69q-12 0 -25 1q-16 -26 -16 -75q0 -107 87 -107q105 0 105 125z" />
    <glyph glyph-name="infinity" unicode="&#xf0b0;" horiz-adv-x="429" 
d="M394 418q0 -92 -62 -135q38 -57 38 -116q0 -79 -54 -125q-51 -42 -132 -42q-19 0 -50.5 2.5t-40.5 2.5q-22 0 -52 -11q11 15 11 34q0 14 -11 57t-11 74q0 70 53 120q-34 7 -58.5 40.5t-24.5 74.5q0 80 74 97q33 -53 88 -53q16 0 33 5q6 -24 6 -36q0 -35 -24 -56.5
t-60 -21.5q-11 0 -22 2q42 -25 98 -25q135 0 135 113q0 52 -17 92q-20 45 -54 50q10 -26 10 -38q0 -35 -29.5 -55t-70.5 -20q-93 0 -93 91q0 38 30.5 66t80.5 34q-19 26 -19 66q0 33 23.5 55.5t60.5 22.5q33 0 53.5 -21.5t20.5 -54.5q0 -37 -19 -60l-46 20q5 7 5 14
q0 21 -21 21q-24 0 -24 -29q0 -8 12 -34q79 -9 122 -72q41 -59 41 -149zM205 539q0 28 -30 28q-34 0 -34 -33q0 -20 30 -20q34 0 34 25zM129 397q0 29 -28 29q-26 0 -26 -25q0 -26 26 -26q28 0 28 22zM272 217q0 41 -66 41q-65 0 -65 -41t64 -41q67 0 67 41z" />
    <glyph glyph-name="plusminus" unicode="&#xf0b1;" horiz-adv-x="251" 
d="M217 248q0 -104 -29 -170q-24 -54 -59 -69q-27 -12 -102 -12q-16 0 -29 -10q5 37 5 54q0 29 -7 74.5t-7 73.5q0 126 98 126q43 0 69 -28q-3 70 -25 92t-87 22h-390q-56 0 -66 -21v113q11 -6 27 -6h447q74 0 116 -71q39 -66 39 -168zM134 206q0 42 -40 42q-38 0 -38 -33
q0 -40 40 -40q38 0 38 31z" />
    <glyph glyph-name="lessequal" unicode="&#xf0b2;" horiz-adv-x="251" 
d="M218 248q0 -104 -29 -170q-24 -54 -59 -69q-27 -12 -102 -12q-16 0 -29 -10q5 37 5 54q0 29 -7 74.5t-7 73.5q0 126 98 126q43 0 69 -28q-3 70 -25 92t-87 22h-162q-55 0 -65 -21v113q11 -6 27 -6h218q74 0 116 -71q39 -66 39 -168zM135 206q0 42 -40 42q-38 0 -38 -33
q0 -40 40 -40q38 0 38 31z" />
    <glyph glyph-name="greaterequal" unicode="&#xf0b3;" horiz-adv-x="433" 
d="M398 233q0 -233 -140 -233q-39 0 -52 -9q12 39 -3 86q-24 -75 -86 -75q-7 0 -18 1t-14 1q-23 0 -44 -12q5 14 5 30t-23 96.5t-23 139.5q0 112 32 167q23 39 77 65q-52 39 -52 68q0 22 15 38t36 16q31 0 44 9q-10 -12 -6 -40q5 -48 5 -36q0 -22 -22 -55q85 -6 85 -99
q0 -51 -28 -82t-73 -31q-32 0 -55 20q-2 -11 -2 -24q0 -37 16 -64q19 -32 53 -32q64 0 57 52h37q-7 -52 39 -52q31 0 51.5 27.5t20.5 75.5q0 43 -16 79q-20 40 -50 40q-23 0 -33 -11v98h42q59 0 93 -78q32 -71 32 -176zM145 365q0 34 -26 34q-31 0 -31 -33q0 -34 32 -34
q25 0 25 33z" />
    <glyph glyph-name="yen" unicode="&#xf0b4;" 
d="M-26 580q-24 4 -52 4h-220q-30 0 -30 -12q0 -15 36 -15h161v-47l-176 1q-22 0 -22 -11q0 -13 16 -13h117v-54h-122q-38 0 -53 8q-22 11 -22 46q0 27 28 48q-28 20 -28 64q0 32 20 53.5t49 21.5h277q12 0 21 6v-100z" />
    <glyph glyph-name="mu" unicode="&#xf0b5;" horiz-adv-x="178" 
d="M149 470q0 -55 -48 -93q-7 -6 -73 -43l-24 41q26 8 63 35q-27 0 -46 21t-19 47q0 30 21 49.5t54 19.5q72 0 72 -77z" />
    <glyph glyph-name="partialdiff" unicode="&#xf0b6;" horiz-adv-x="612" 
d="M574 226q0 -123 -54 -183q-38 -43 -85 -43q-9 0 -25 1t-23 1q-21 0 -42 -15q8 23 8 51q0 18 -5.5 59.5t-5.5 67.5q0 139 101 139q48 0 70 -26q-8 69 -27 97t-59 28h-154q47 -67 47 -181q0 -220 -140 -220q-23 0 -29 2.5t-9 2.5q-12 0 -27 -8q7 24 7 41q0 13 -4 32
q-35 -70 -93 -70q-13 0 -35 2.5t-27 2.5q-13 0 -27 -8q7 24 7 41q0 44 -21 65l33 138q7 -45 24 -62q13 -13 39 -13q61 0 61 112q0 39 -16 71q-19 41 -53 41q-16 0 -30 -13v104q37 2 71 -17q44 -26 69 -99q21 -65 21 -146q12 -53 56 -53q58 0 58 123q0 112 -63 112
q-18 0 -27 -6v90h212q87 0 125 -32q72 -61 72 -229zM494 208q0 36 -40 36q-38 0 -38 -37q0 -36 31 -36q47 0 47 37z" />
    <glyph glyph-name="summation" unicode="&#xf0b7;" 
d="M-83 546q-5 9 -20 9h-43q-39 0 -39 -34t31 -54h-48q-44 45 -44 90q0 39 28 62q25 20 63 20h46q19 0 26 12v-105zM-269 605q-9 -16 -9 -36q0 -7 2.5 -19t2.5 -18q0 -17 -14 -38l-18 -28l-11 -5q-3 15 -27 39t-24 46q0 50 49 50q38 0 49 9z" />
    <glyph glyph-name="product" unicode="&#xf0b8;" 
d="M-184 289q0 -44 -50 -44q-20 0 -35.5 12.5t-15.5 30.5q0 49 49 49q52 0 52 -48zM-179 -84q0 -55 -71 -55q-17 0 -25 -6q5 18 5 23q0 9 -3.5 24.5t-3.5 24.5q0 31 20.5 56t18.5 48q6 -24 34 -64q25 -36 25 -51z" />
    <glyph glyph-name="pi" unicode="&#xf0b9;" 
d="M400 681q0 -28 -21 -49q-13 6 -40 19q19 34 -16 34q-27 0 -27 -33q0 -18 22 -38q42 -18 42 -80q0 -101 -81 -101h-63v54h61q27 0 27 28q0 25 -29 25h-230q-21 0 -35 -13v95h247q-13 21 -13 57q0 84 82 84q32 0 53 -24.5t21 -57.5z" />
    <glyph glyph-name="integral" unicode="&#xf0ba;" horiz-adv-x="482" 
d="M447 239q0 -131 -29 -185.5t-83 -54.5q-6 0 -17.5 2t-16.5 2q-30 0 -49 -10q9 32 9 27q0 14 -9 38q-17 -58 -91 -58q-83 0 -52 1q-30 -1 -41 -13q8 40 8 31q0 15 -14.5 62.5t-14.5 68.5q0 97 56 124h-65q-10 0 -38 -13v87h215v-72q-12 3 -23 3q-61 0 -61 -53
q0 -46 51 -46q52 0 49 48h40q-1 -5 -1 -10q0 -40 47 -40q65 0 65 110q0 157 -89 197q3 -14 3 -31q0 -83 -121 -83q-46 0 -73.5 25t-27.5 62t37 62q40 29 110 29q226 0 226 -310zM243 461q0 27 -29 27q-34 0 -34 -26q0 -27 34 -27q29 0 29 26z" />
    <glyph glyph-name="ordfeminine" unicode="&#xf0bb;" horiz-adv-x="178" 
d="M140 416q0 -30 -21 -50t-53 -20q-72 0 -72 78q0 54 48 92q4 4 72 43l24 -40q-25 -8 -62 -35q26 -1 45 -22t19 -46z" />
    <glyph glyph-name="ordmasculine" unicode="&#xf0bc;" 
d="M-87 -202q0 -113 -58 -143q-13 -7 -35 -7q-26 -1 -36 -4q10 21 -1 55q-13 -48 -69 -48q-25 0 -37 -8q4 9 4 21q0 10 -13 56.5t-13 99.5q0 52 17 92q22 53 66 53q55 0 55 -61q0 -77 -70 -77q-18 0 -32 16q-2 -11 -2 -20q0 -61 46 -61q34 0 37 35h23q-1 -35 31 -35
q42 0 42 78q0 66 -42 66q-11 0 -21 -8v65q56 7 85 -50q23 -46 23 -115zM-251 -111q0 18 -19 18q-20 0 -20 -22q0 -21 20 -21q19 0 19 25z" />
    <glyph glyph-name="Omega" unicode="&#xf0bd;" 
d="M118 -185q0 -138 -71 -155q-8 -2 -41 -1q-26 1 -34 -9q5 14 5 32q0 16 -5 44.5t-5 38.5q0 97 66 97q24 0 46 -15q0 77 -50 77h-105q26 -64 26 -121q0 -103 -40 -132q-11 -8 -62 -8q-23 0 -28 -8q10 22 2 45q-13 -28 -37 -38q-10 -3 -48 -1q-33 2 -43 -8q6 9 6 24
q0 12 -7 44.5t-7 50.5q0 102 82 102q54 0 66 -54q6 -28 9 -33q7 -14 27 -14q36 0 36 60q0 80 -41 80q-11 0 -24 -8v73h170q51 0 79 -44.5t28 -118.5zM69 -202q0 28 -28 28q-30 0 -30 -28q0 -26 32 -26q26 0 26 26zM-204 -197q0 28 -27 28q-29 0 -29 -26q0 -29 29 -29
q27 0 27 27z" />
    <glyph glyph-name="ae" unicode="&#xf0be;" 
d="M-221 482q0 -118 -117 -118q-57 0 -114 39l56 37q16 -25 55 -25q19 0 38 14q23 16 19 41q-28 -20 -58 -20q-97 0 -97 75q0 76 108 76q110 0 110 -119zM-295 520q-7 21 -36 21q-23 0 -23 -19t22 -19q30 0 37 17z" />
    <glyph glyph-name="oslash" unicode="&#xf0bf;" horiz-adv-x="411" 
d="M376 177q0 -120 -79 -160q-33 -17 -99 -17q-31 0 -63.5 1.5t-43.5 1.5q-31 0 -59 -14q8 11 8 34q0 24 -20.5 80t-19.5 143h71q0 -75 117 -75q97 0 97 49q0 40 -74 40q-132 0 -75 -1q-46 1 -74 15q-53 28 -53 93q0 63 41 90q45 30 154 30q76 0 112 -40q26 -29 26 -70
q0 -26 -12 -56l-56 23q2 7 2 13q0 51 -87 51q-102 0 -102 -50q0 -45 94 -45q112 0 142 -21q53 -36 53 -115z" />
    <glyph glyph-name="questiondown" unicode="&#xf0c0;" 
d="M-117 -185q0 -130 -57 -169q-16 -11 -60 -11q-11 0 -23 -9q4 12 4 28q0 5 -1.5 14t-1.5 16q-11 -31 -24.5 -39t-39.5 -7.5t-38 -6.5l3 15q0 12 -13.5 66t-13.5 108q0 60 23 99t62 39q50 0 50 -68q0 -42 -22 -57q-9 -6 -47 -2v-12q-21 7 -30 22q-2 -11 -2 -21
q0 -65 46 -65q32 0 32 18h27q10 -20 36 -20q49 0 49 72q0 68 -26 68q-18 0 -18 -34q0 -26 18 -34v-49h-127v48h89q-18 23 -18 64q0 70 54 70q32 0 50.5 -42.5t18.5 -100.5zM-289 -123q0 20 -17 20q-19 0 -19 -20q0 -21 19 -21q17 0 17 21z" />
    <glyph glyph-name="exclamdown" unicode="&#xf0c1;" 
d="M-81 546q-5 9 -20 9h-43q-39 0 -39 -34t31 -54h-48q-44 45 -44 90q0 39 28 62q25 20 63 20h46q19 0 26 12v-105zM-267 605q-9 -16 -9 -36q0 -7 2.5 -19t2.5 -18q0 -17 -14 -38l-18 -28l-11 -5q-3 15 -27 39t-24 46q0 50 49 50q38 0 49 9z" />
    <glyph glyph-name="logicalnot" unicode="&#xf0c2;" 
d="M360 534q0 -101 -81 -101h-63v54h61q27 0 27 28q0 25 -29 25h-230q-21 0 -35 -13v95h267q83 0 83 -88z" />
    <glyph glyph-name="radical" unicode="&#xf0c3;" horiz-adv-x="263" 
d="M227 249q0 -206 -99 -249q-16 -7 -94 -7q-11 0 -25 -13q5 16 5 52q0 28 -8.5 75.5t-8.5 86.5q0 115 108 115q39 0 61 -32q2 47 -16 82q-22 43 -64 43q-83 0 -78 -71h-37q-9 208 -233 208q-111 0 -111 -35q0 -17 33 -17h67v-86h-70q-42 0 -67.5 26t-25.5 72q0 124 179 124
q204 0 252 -180q28 37 75 44q-17 27 -17 59q0 82 79 82q35 0 57.5 -19t22.5 -48q0 -42 -17 -63l-41 11q8 41 -21 41q-26 0 -26 -31q0 -16 8 -33q61 -13 91 -98q21 -62 21 -139zM142 208q0 38 -39 38q-37 0 -37 -40q0 -35 39 -35q37 0 37 37z" />
    <glyph glyph-name="florin" unicode="&#xf0c4;" 
d="M-167 290q0 -44 -50 -44q-20 0 -35.5 12.5t-15.5 30.5q0 49 49 49q52 0 52 -48z" />
    <glyph glyph-name="approxequal" unicode="&#xf0c5;" horiz-adv-x="411" 
d="M376 177q0 -120 -79 -160q-33 -17 -99 -17q-31 0 -63.5 1.5t-43.5 1.5q-31 0 -59 -14q8 11 8 34q0 24 -20.5 80t-19.5 143h71q0 -75 117 -75q97 0 97 49q0 40 -74 40q-132 0 -75 -1q-46 1 -74 15q-53 28 -53 93q0 63 41 90q45 30 154 30q76 0 112 -40q26 -29 26 -70
q0 -26 -12 -56l-56 23q2 7 2 13q0 51 -87 51q-102 0 -102 -50q0 -45 94 -45q112 0 142 -21q53 -36 53 -115z" />
    <glyph glyph-name="Delta" unicode="&#xf0c6;" 
d="M-106 -198q0 -153 -98 -153h-26q-1 12 -4 43q-16 -34 -39 -40q-6 -1 -49 -1q-16 0 -24 -5q3 9 3 23q0 16 -7.5 61.5t-7.5 70.5q0 164 128 164q62 0 91 -33q33 -38 33 -130zM-208 -409q0 -35 -58 -32q-1 9 -2.5 20.5t-1.5 18.5q0 22 10 38q13 20 16 31q5 -18 22 -41
q14 -17 14 -35zM-150 -163q0 74 -77 74q-82 0 -82 -79q0 -71 42 -71q31 0 28 34h23q2 -34 25 -34q41 0 41 76z" />
    <glyph glyph-name="guillemotleft" unicode="&#xf0c7;" horiz-adv-x="141" 
d="M154 -126q0 -81 -48 -106q-11 -6 -67 -6q-6 0 -13 -4.5t-13 -5.5q10 24 9 62q-13 -36 -44 -48q-20 -6 -67 -6q-12 0 -26 -8q5 13 5 25q0 10 -8 38t-8 54q0 99 85 99q46 0 68 -63q4 -14 9 -26.5t26 -12.5q34 0 34 46q0 33 -23 69q-23 32 -46 65q-37 56 -37 105q0 73 71 73
q55 0 55 -78q0 -34 -11 -56l-38 17q7 12 7 28q0 21 -16 21q-19 0 -19 -24q0 -31 57.5 -109t57.5 -149zM-19 -100q0 26 -26 26q-28 0 -28 -29q0 -27 28 -27q26 0 26 30z" />
    <glyph glyph-name="guillemotright" unicode="&#xf0c8;" horiz-adv-x="435" 
d="M400 156q0 -109 -70 -145q-21 -11 -85 -11q-26 0 -44 -17q8 20 7 42q-4 51 -4 42q-11 -44 -41 -58q-21 -10 -69 -10q-53 0 -69 -13q1 6 4.5 14t3.5 15q0 26 -16 69t-16 74q0 78 36 117q11 12 66 45q36 21 36 56q0 36 -30 36q-34 0 -34 -32q0 -22 8 -33l-62 -36
q-21 27 -21 80q0 48 30 78.5t80 30.5q52 0 79 -34q18 -31 35 -62q21 -34 58 -34q32 0 32 38q0 33 -39 33q-29 0 -42 -19v82q15 2 29 2q117 0 117 -105t-100 -105q-49 0 -78 51q-7 -38 -56.5 -64.5t-49.5 -60.5q0 -47 47 -47q45 0 45 37q0 11 -5 24h50q2 -58 44 -58
q46 0 46 51q0 24 -18 48l51 23q45 -53 45 -144z" />
    <glyph glyph-name="ellipsis" unicode="&#xf0c9;" 
d="M-48 534q0 -54 -23 -93.5t-58 -39.5h-63v86h61q27 0 27 28q0 25 -29 25h-230q-21 0 -36 -13v95h268q83 0 83 -88z" />
    <glyph glyph-name="nonbreakingspace" unicode="&#xf0ca;" horiz-adv-x="685" 
d="M630 -1h-98l-83 88q-81 -87 -200 -87q-98 0 -172 57q-77 61 -77 149q0 140 160 198q-62 49 -62 111q0 57 43 95q48 42 129 42q55 0 95.5 -36t40.5 -87q0 -91 -130 -153l125 -134q30 39 30 77q0 6 -9 35h61q20 -72 20 -114q0 -47 -15 -88zM313 503q0 47 -43 47
q-64 0 -64 -51q0 -31 31 -73q25 15 49 30q27 20 27 47zM340 202l-138 152q-36 -39 -36 -68q0 -43 39 -69q34 -24 83 -24q33 0 52 9z" />
    <glyph glyph-name="Agrave" unicode="&#xf0cb;" horiz-adv-x="255" 
d="M220 236q0 -72 -23 -135q-25 -67 -64 -86q-28 -14 -102 -14q-12 0 -23 -11q0 10 2 24.5t2 24.5q0 30 -10 76.5t-10 73.5q0 124 101 124q38 0 67 -31q7 121 -85 121q-67 0 -60 -69h-41v63q0 144 -81 144q-62 0 -62 -40q0 -11 24 -15v-89q-72 19 -72 111q0 120 110 120
q107 0 120 -171q16 16 21 19q10 8 24 10q-17 29 -17 60q0 82 79 82q35 0 57.5 -19t22.5 -48q0 -42 -17 -63l-41 11q8 41 -21 41q-26 0 -26 -31q0 -16 8 -32q117 -20 117 -251zM135 214q0 36 -36 36q-38 0 -38 -37q0 -34 34 -34q40 0 40 35z" />
    <glyph glyph-name="Atilde" unicode="&#xf0cc;" horiz-adv-x="115" 
d="M100 -98q0 -83 -22 -126q-19 -38 -60 -38t-49 -4q3 28 -3 38q-15 -35 -62 -35q-53 0 -62 -9q1 5 5 11.5t4 13.5q0 5 -8.5 33t-8.5 46q0 60 37 83h-42q-15 0 -25 -8v61h139v-52q-8 2 -16 2q-40 0 -40 -33q0 -31 35 -31q38 0 32 32h28q-3 -5 -3 -11q0 -22 35 -22
q41 0 41 81q0 55 -22.5 92.5t-57.5 31.5l20 71q105 -49 105 -227z" />
    <glyph glyph-name="Otilde" unicode="&#xf0cd;" horiz-adv-x="251" 
d="M213 237q0 -187 -85 -227q-24 -11 -95 -11q-21 0 -35 -11q4 19 4 41q0 26 -8 79t-8 79q0 121 102 121q36 0 64 -22q-8 115 -97 115h-483v86h478q78 0 123 -79q40 -69 40 -171zM137 209q0 41 -42 41q-43 0 -43 -44q0 -14 14 -25t30 -11q41 0 41 39z" />
    <glyph glyph-name="OE" unicode="&#xf0ce;" horiz-adv-x="115" 
d="M104 -121q0 -44 -15.5 -83.5t-39.5 -52.5q-14 -8 -41.5 -6.5t-36.5 -6.5q13 15 2 41q-11 -23 -26 -30q-9 -6 -34 -6h-37q-16 -2 -25 -8q4 10 4 23q0 14 -8 47.5t-8 50.5q0 98 78 98q47 0 61 -44q4 -20 8 -38t30 -18q45 0 45 75q0 127 -69 127q-13 0 -18 -4l14 65
q54 -11 79 -65q37 -80 37 -165zM-56 -127q1 27 -24 27q-28 0 -28 -29q0 -9 9 -17t19 -7q23 2 24 26z" />
    <glyph glyph-name="oe" unicode="&#xf0cf;" horiz-adv-x="459" 
d="M424 240q0 -130 -49 -194q-43 -46 -88 -46h-67q-17 0 -35 -10q13 21 13 30v48q-26 -48 -64 -61q-21 -7 -55.5 -5.5t-43.5 -2.5q-5 -2 -12 -7q6 12 6 32t-14.5 62.5t-14.5 81.5q0 148 116 148q27 0 53 -19q-15 106 -60 106q-40 0 -40 -33q0 -24 10 -34l-61 -23
q-18 24 -18 65q0 109 112 109q91 0 116 -160q6 -39 9 -79q4 -45 9 -57q10 -23 44 -23q77 0 77 109q0 13 -2 27q-14 -28 -47 -28q-39 0 -61 35q-20 30 -20 77q0 98 79 98q108 0 108 -246zM229 -91q0 -50 -65 -50q-24 0 -34 -10q11 14 11 27q0 9 -2 20t-2 21q0 31 19 60
q22 35 26 51q-1 -29 23 -63.5t24 -55.5zM353 367q0 32 -24 32t-24 -33q0 -32 27 -32q21 0 21 33zM162 222q0 43 -40 43q-44 0 -44 -48q0 -45 42 -45t42 50z" />
    <glyph glyph-name="endash" unicode="&#xf0d0;" horiz-adv-x="388" 
d="M352 289q0 -79 -12.5 -156t-12.5 -92q0 -27 14 -43h-110q-19 24 -19 58q0 32 26 119.5t26 157.5q0 109 -80 109q-94 0 -94 -120q0 -62 28 -162.5t28 -130.5q0 -31 -35 -31h-95q15 8 15 38q0 8 -15.5 86t-15.5 137q0 160 98 209q-24 11 -57 31l72 32q3 -12 26.5 -25
t45.5 -13q56 0 63 59q-19 -22 -67 -22q-114 0 -114 74q0 79 120 79q123 0 123 -114q0 -64 -48 -94q90 -36 90 -186zM237 599q0 24 -43 24q-31 0 -31 -19q0 -18 32 -18q10 0 42 13z" />
    <glyph glyph-name="emdash" unicode="&#xf0d1;" horiz-adv-x="201" 
d="M146 338q0 -68 -74 -68q-29 0 -50.5 19.5t-21.5 48.5q0 70 75 70q71 0 71 -70zM147 60q0 -53 -48 -92q-36 -21 -73 -43l-24 40q26 8 63 36q-27 1 -46 21.5t-19 46.5q0 30 21 49.5t54 19.5q72 0 72 -78z" />
    <glyph glyph-name="quotedblleft" unicode="&#xf0d2;" horiz-adv-x="115" 
d="M97 -97q0 -174 -104 -174q-10 0 -21 1v46q-18 -32 -30.5 -38t-62.5 -6q-6 0 -26 -8q5 13 5 27q0 10 -9 21.5t-9 30.5q0 32 23 56q10 11 43 27q25 12 25 26q0 24 -22 22q-19 -2 -19 -13q0 -8 3 -12q-23 -14 -39 -20q-10 19 -10 34q0 64 69 64q64 0 64 -63q0 -38 -34 -62
q-15 -7 -29.5 -14.5t-14.5 -24.5q0 -8 31 -8q30 0 30 28q0 5 -1 11h22q-5 -39 27 -39q25 0 39 40q11 31 11 71q0 54 -20 86q-18 29 -46 29q-10 0 -20 -8l22 75q60 -24 83 -73q20 -44 20 -132z" />
    <glyph glyph-name="quotedblright" unicode="&#xf0d3;" 
d="M-215 667q0 -37 -19 -66l-42 16q9 13 9 23q0 21 -24 21t-24 -25q0 -28 15 -38q79 -23 79 -116q0 -118 -117 -118q-57 0 -114 39l56 37q16 -25 55 -25q19 0 38 14q23 16 19 41q-28 -20 -58 -20q-97 0 -97 75q0 34 30 55q25 19 58 21q-23 28 -23 60q0 35 21.5 60t58.5 25
q79 0 79 -79zM-295 520q-7 21 -36 21q-23 0 -23 -19t22 -19q30 0 37 17z" />
    <glyph glyph-name="quoteleft" unicode="&#xf0d4;" horiz-adv-x="433" 
d="M398 214q0 -70 -28.5 -126t-68.5 -74q-31 -14 -110 -14q-9 0 -48 2q-35 3 -55 2q-30 -1 -45 -8q2 14 2 23q0 27 -22.5 91t-22.5 104q0 171 114 171q83 0 83 -91q0 -41 -26 -63.5t-65 -22.5q-23 0 -43 20q-1 -61 133 -61q58 0 98 16q50 20 48 58q-27 -35 -58 -35
q-34 0 -56.5 24.5t-22.5 63.5q0 92 72 92q23 0 38 -9q-8 24 -48 24h-161v86h137q122 0 132 -153q23 -55 23 -120zM321 278q0 21 -18 21q-24 0 -24 -20q0 -21 24 -21q18 0 18 20zM126 278q0 21 -22 21q-24 0 -24 -20q0 -22 21 -22q25 0 25 21z" />
    <glyph glyph-name="quoteright" unicode="&#xf0d5;" 
d="M-29 -225q-15 15 -34 15h-286q-106 0 -106 91q0 34 23.5 56.5t58.5 22.5q65 0 65 -58q0 -23 -11 -37h290v-90zM-351 -111q0 27 -25 27q-26 0 -26 -26q0 -24 26 -24q25 0 25 23z" />
    <glyph glyph-name="divide" unicode="&#xf0d6;" horiz-adv-x="431" 
d="M395 226q0 -123 -54 -183q-38 -43 -86 -43q-8 0 -24 1t-24 1q-20 0 -41 -15q8 23 8 51q0 18 -5.5 59.5t-5.5 67.5q0 139 100 139q49 0 70 -26q-7 69 -26 97t-60 28h-153q47 -67 47 -181q0 -220 -140 -220q-24 0 -30 2.5t-8 2.5q-13 0 -27 -8q7 24 7 41q0 45 -21 66
l33 138q7 -40 20.5 -58t42.5 -18q58 0 58 123q0 112 -63 112q-18 0 -27 -6v90h211q87 0 125 -32q73 -61 73 -229zM314 208q0 36 -40 36q-38 0 -38 -37q0 -36 31 -36q47 0 47 37z" />
    <glyph glyph-name="lozenge" unicode="&#xf0d7;" horiz-adv-x="433" 
d="M398 227q0 -136 -43 -191q-27 -36 -91 -36q-50 0 -62 -12l-4 2q10 14 10 33q0 22 -4 30q-15 -43 -50 -51q-4 -1 -74 -1q-47 0 -61 -12q8 18 8 29q0 22 -13.5 66t-13.5 83q0 58 33 96t85 38q76 0 99 -74q6 -20 11 -40q9 -18 36 -18q65 0 65 108q0 48 -21.5 84.5
t-56.5 36.5q-47 0 -47 -55h-45q0 58 -45 58q-19 0 -31 -14.5t-12 -28.5q0 -17 9 -26l-59 -24q-19 27 -19 70q0 55 33 85q29 27 75 27q49 0 74 -30q34 32 71 32q143 0 143 -265zM162 202q0 41 -43 41t-43 -42q0 -37 47 -37q19 0 31 16q8 12 8 22z" />
    <glyph glyph-name="ydieresis" unicode="&#xf0d8;" horiz-adv-x="161" 
d="M226 -113q-4 12 -19 12h-52q26 -26 26 -65q0 -35 -30.5 -61t-69.5 -26q-8 0 -22 2t-23 2q-26 0 -51 -23q5 15 5 29q0 6 -15 37.5t-15 69.5q0 73 66.5 148.5t66.5 117.5q0 30 -24 30q-32 0 -32 -43q0 -13 5 -21l-37 -5q-15 13 -15 51q0 33 22.5 56.5t53.5 23.5t50 -21.5
t19 -54.5q0 -62 -57 -134t-57 -120q0 -52 52 -52q34 0 34 35q0 26 -26 26q-11 0 -20 -8v65h137q23 0 28 8v-79z" />
    <glyph glyph-name="Ydieresis" unicode="&#xf0d9;" 
d="M-21 591h-126q-14 0 -14 -14q0 -13 21 -13h68v-46h-66q-29 0 -29 -18q0 -14 32 -14v-85h-13q-33 0 -52 26.5t-19 64.5q0 35 24 50q-33 26 -33 63q0 73 74 73h133v-87z" />
    <glyph glyph-name="fraction" unicode="&#xf0da;" horiz-adv-x="125" 
d="M91 151q0 -103 -14 -160q-23 -99 -92 -143q-35 -23 -102 -24q-36 1 -72 1q-34 0 -46 -17q10 20 10 37q0 15 -14 66q-14 47 -11 78h54q-3 -58 84 -58q71 0 109 67q33 58 33 145q0 174 -85 258l42 28q104 -90 104 -278z" />
    <glyph glyph-name="currency" unicode="&#xf0db;" 
d="M-122 -327q0 -32 -36 -32q-15 0 -27 -6q7 12 7 20q0 6 -2 15t-2 15q0 14 5 22q11 15 12 18q3 8 11 24q3 -23 17.5 -45.5t14.5 -30.5z" />
    <glyph glyph-name="guilsinglleft" unicode="&#xf0dc;" horiz-adv-x="427" 
d="M392 218q0 -118 -55 -175q-41 -43 -98 -43q-18 0 -75 1h-74q-35 0 -47 -7q3 12 3 24q0 25 -23 86t-23 119q0 62 23 102q29 52 86 52q83 0 83 -95q0 -32 -24 -54.5t-57 -22.5q-31 0 -51 19q8 -60 130 -60q138 0 149 76q-31 -36 -63 -36q-33 0 -54 25.5t-21 58.5
q0 94 76 94q14 0 27 -6q-18 107 -46 117q4 -12 4 -25q0 -74 -104 -74q-115 0 -115 88q0 82 141 82q92 0 141 -78q41 -65 41 -159q26 -33 26 -109zM211 477q0 27 -32 27q-31 0 -31 -23q0 -27 30 -27q33 0 33 23zM315 275q0 20 -19 20q-21 0 -21 -21q0 -18 24 -18q16 0 16 19z
M123 271q0 22 -23 22t-23 -19q0 -21 23 -21t23 18z" />
    <glyph glyph-name="guilsinglright" unicode="&#xf0dd;" 
d="M-106 -198q0 -153 -98 -153h-26q-1 12 -4 43q-16 -34 -39 -40q-6 -1 -49 -1q-16 0 -24 -5q3 9 3 23q0 16 -7.5 61.5t-7.5 70.5q0 164 128 164q62 0 91 -33q33 -38 33 -130zM-150 -163q0 74 -77 74q-82 0 -82 -79q0 -71 42 -71q31 0 28 34h23q2 -34 25 -34q41 0 41 76z
" />
    <glyph glyph-name="fi" unicode="&#xf0de;" horiz-adv-x="420" 
d="M385 389q0 -77 -59 -104q47 -39 47 -117q0 -79 -51 -124.5t-131 -45.5q-22 0 -57.5 4t-49.5 4q-27 0 -39 -10q7 12 7 28q0 14 -11 58t-11 78q0 63 49 120q-35 9 -57 40.5t-22 73.5q0 48 30.5 76t75.5 28q96 0 96 -89q0 -36 -23.5 -58.5t-56.5 -22.5q-10 0 -29 7
q31 -32 106 -32q110 0 110 64q0 34 -46 34v86h38q37 0 62 -36q22 -31 22 -62zM124 398q0 25 -23 25q-27 0 -27 -24q0 -22 24 -22q26 0 26 21zM274 217q0 41 -69 41q-65 0 -65 -42q0 -40 65 -40q69 0 69 41z" />
    <glyph glyph-name="fl" unicode="&#xf0df;" horiz-adv-x="93" 
d="M71 -40q0 -33 -15.5 -66t-38.5 -45q28 -35 28 -76q0 -102 -106 -102q-13 0 -40 2t-40 2q-6 0 -13 -4.5t-12 -5.5q4 8 4 22q0 11 -5 39.5t-5 45.5q0 37 27 71q-46 37 -46 82q0 63 72 63q24 0 41.5 -15.5t17.5 -37.5q0 -55 -54 -55q20 -12 44 -12q94 0 94 93q0 73 -42 73
q-6 0 -12 -2v76q101 -19 101 -148zM-110 -73q0 12 -13 12q-20 0 -20 -18q0 -11 19 -11q14 0 14 17zM-16 -194q0 27 -44 27q-42 0 -42 -27q0 -25 44 -25q42 0 42 25z" />
    <glyph glyph-name="daggerdbl" unicode="&#xf0e0;" horiz-adv-x="118" 
d="M93 -23q0 -167 -57 -190q-16 -7 -35 -6q-53 3 -48 3q-4 0 -22 -5q8 9 8 22q0 4 -4 22t-4 28q0 7 2.5 23.5t2.5 24.5q0 33 -23 33q-24 0 -24 -31q0 -24 7.5 -53.5t7.5 -44.5q0 -22 -12 -22h-14q-9 1 -17 1q-16 0 -25 -6q6 9 6 19q0 18 -5 44.5t-5 41.5q0 87 76 87
q39 0 53 -26q8 -19 16 -36t23 -17q50 0 50 89q0 118 -59 109q6 46 17 83q41 -19 66 -89q19 -55 19 -104z" />
    <glyph glyph-name="periodcentered" unicode="&#xf0e1;" 
d="M-128 550q-9 9 -48 9q-57 0 -57 -35q0 -20 23 -50h-43v-73h-86q-29 0 -44 -19v109q6 -4 41 -4h74q-23 32 -23 63q0 65 43 84q23 10 85 10q27 0 35 11v-105z" />
    <glyph glyph-name="quotesinglbase" unicode="&#xf0e2;" 
d="M-17 681q0 -28 -21 -49q-13 6 -39 19q18 34 -16 34q-27 0 -27 -33q0 -18 23 -38q40 -19 40 -80q0 -54 -22.5 -93.5t-57.5 -39.5h-183v86h181q27 0 27 28q0 25 -29 25h-230q-21 0 -36 -13v95h248q-13 21 -13 57q0 84 82 84q31 0 52 -24.5t21 -57.5z" />
    <glyph glyph-name="quotedblbase" unicode="&#xf0e3;" 
d="M-18 -120h-29v-27h-38v27h-25q10 -32 5 -61q65 -39 65 -105q0 -67 -48 -67q-56 0 -61 -1q52 29 52 89q0 30 -10 39q-12 -123 -113 -123q-37 0 -63.5 3.5l-26.5 3.5q-16 0 -37 -7q5 10 5 24q0 11 -5.5 37t-5.5 41q0 94 130 94q49 0 73 -12q3 80 -42 80q-33 0 -31 -34
l-30 -1q1 5 1 11q0 24 -30 24q-25 0 -25 -24q0 -11 6 -20l-40 -14q-12 18 -12 42q0 64 67 64q30 0 45 -16q8 18 51 18q40 0 59 -32h46v27h38v-27h29v-53zM-153 -198q-26 11 -67 11q-62 0 -62 -24q0 -27 56 -27q53 0 73 40z" />
    <glyph glyph-name="perthousand" unicode="&#xf0e4;" horiz-adv-x="253" 
d="M218 253q0 -259 -139 -259q-22 0 -36.5 1t-16.5 1q-13 0 -28 -9q4 21 4 44q0 22 -7 68.5t-7 75.5q0 133 103 133q40 0 67 -24q-6 63 -22 87q-21 30 -72 30h-195q-24 0 -36 -7q-7 -6 -14 -11v104h225q11 0 16 -1q-15 21 -15 50q0 36 22.5 62t58.5 26t59 -23q20 -21 20 -48
q0 -34 -18 -64l-43 19q11 35 -19 35q-25 0 -25 -29q0 -22 14 -42q104 -50 104 -219zM142 211q0 35 -39 39q-46 5 -49 -35q-2 -19 12 -32.5t33 -13.5q43 0 43 42z" />
    <glyph glyph-name="Acircumflex" unicode="&#xf0e5;" horiz-adv-x="251" 
d="M215 227q0 -76 -22 -135q-25 -67 -69 -85q-12 -5 -101 -5q-10 0 -27 -13q5 28 5 46q0 29 -7.5 74t-7.5 74q0 135 102 135q43 0 67 -22q2 112 -79 112h-232q12 -20 12 -44q0 -69 -69 -85l-42 85q19 1 38.5 2.5t19.5 16.5q0 13 -5 25h-161q-47 0 -58 -19v98h498
q138 0 138 -260zM139 216q0 44 -39 44q-45 0 -45 -44q0 -41 40 -41q44 0 44 41z" />
    <glyph glyph-name="Ecircumflex" unicode="&#xf0e6;" horiz-adv-x="251" 
d="M217 237q0 -187 -85 -227q-24 -11 -95 -11q-21 0 -35 -11q4 19 4 41q0 26 -8 79t-8 79q0 121 102 121q36 0 64 -22q-8 115 -97 115h-425v86h420q78 0 123 -79q40 -69 40 -171zM141 209q0 41 -42 41q-43 0 -43 -44q0 -14 14 -25t30 -11q41 0 41 39z" />
    <glyph glyph-name="Aacute" unicode="&#xf0e7;" 
d="M431 -24q0 -85 -13 -117q-15 -38 -67 -68q-23 -14 -73 -18q-37 -3 -99 -2q-93 3 -92 3q-58 0 -78 -24q5 30 5 45q0 10 -7 44.5t-7 70.5q0 22 2 36h61q6 -72 144 -72q58 0 113 27q63 31 59 75h52z" />
    <glyph glyph-name="Edieresis" unicode="&#xf0e8;" 
d="M-57 534q0 -54 -22.5 -93.5t-57.5 -39.5h-183v86h181q27 0 27 28q0 25 -29 25h-230q-21 0 -36 -13v95h268q82 0 82 -88z" />
    <glyph glyph-name="Egrave" unicode="&#xf0e9;" 
d="M64 -198q0 -139 -101 -139q-34 0 -39 -6q4 11 1 38q-22 -33 -70 -33q-23 0 -33 -8q15 22 2 45q-11 -26 -24.5 -32t-45.5 -6q-43 0 -49 -11q6 16 6 22q0 11 -10 39.5t-10 64.5q0 42 21 69t59 27t54 -26q3 -6 15 -48q7 -25 26 -25q35 0 35 52q0 90 -36 90q-15 0 -23 -4v61
q73 9 94 -101q4 -33 10 -65t34 -32q41 0 41 61q0 82 -43 82q-10 0 -27 -6v67q113 1 113 -176zM-153 -399q0 -34 -40 -34q-19 0 -24 -4q5 15 5 18q0 4 -1 10.5t-1 13.5q0 17 15.5 39.5t17.5 39.5q-1 -22 13.5 -46t14.5 -37zM-203 -201q0 28 -26 28q-31 0 -31 -25
q0 -29 28 -29q29 0 29 26z" />
    <glyph glyph-name="Iacute" unicode="&#xf0ea;" horiz-adv-x="251" 
d="M214 363q0 -168 -79 -213q-21 -12 -102 -12q-15 0 -29 -11q4 19 4 43q0 30 -9 82t-9 79q0 118 102 118q35 0 61 -19q-3 108 -82 108h-179q16 -18 16 -51q0 -37 -18 -49q-14 -9 -51 -9h-91v58h82q30 0 30 17q0 30 -34 30h-173q-17 0 -31 -11v99h428q164 0 164 -259z
M141 349q0 43 -41 43q-45 0 -45 -46q0 -39 42 -39q44 0 44 42z" />
    <glyph glyph-name="Icircumflex" unicode="&#xf0eb;" 
d="M42 -287q0 -59 -38 -75q-7 -3 -54 -3q-10 0 -18 -8q4 11 4 24q0 10 -4 28t-4 30q0 17 5 31l26 2l-40 44h70q13 11 13 28q0 22 -22 22q-27 0 -16 -29l-29 -8q-3 8 -3 23q0 18 14 33.5t37 15.5q49 0 49 -51q0 -15 -13 -43q23 -21 23 -64zM-58 -250l-59 -10q-32 24 -25 74
q-15 -4 -41 -4q-39 0 -51 -14q7 24 7 27q0 26 -5 45q-4 -39 -36 -54q-9 -4 -66 -4q-16 0 -31 -11q7 23 7 24q0 18 -8 43.5t-8 45.5q0 40 12 68l48 -8q-3 -6 -3 -12q0 -30 34 -30q43 0 43 34h31q-2 -30 33 -30q41 0 41 33q0 4 -1 8l43 10q9 -40 9 -55q0 -22 -4.5 -57.5
t-4.5 -53.5q0 -50 35 -69zM-143 -247h-230v33h222q0 -21 8 -33zM7 -261q0 20 -18 20q-22 0 -22 -24q0 -21 20 -21t20 25z" />
    <glyph glyph-name="Idieresis" unicode="&#xf0ec;" 
d="M-107 570q0 -104 -127 -104q-69 0 -101.5 16t-40.5 16l75 37q18 -36 68 -36q23 0 42 15.5t21 40.5q-28 -22 -70 -22q-109 0 -109 74q0 79 118 79q124 0 124 -116zM-181 606q-8 20 -43 20q-29 0 -29 -21q0 -16 27 -16q25 0 45 17z" />
    <glyph glyph-name="Igrave" unicode="&#xf0ed;" 
d="M-9 -446q-15 15 -34 15h-306q-106 0 -106 92q0 34 23.5 56.5t58.5 22.5q65 0 65 -58q0 -23 -11 -37h310v-91zM-351 -331q0 27 -25 27q-26 0 -26 -26q0 -24 26 -24q25 0 25 23z" />
    <glyph glyph-name="Oacute" unicode="&#xf0ee;" 
d="M-70 534q0 -81 -81 -81h-147v34h145q27 0 27 28q0 25 -29 25h-231q-20 0 -35 -13v95h268q83 0 83 -88z" />
    <glyph glyph-name="Ocircumflex" unicode="&#xf0ef;" 
d="M-6 -109q0 -91 -105 -91h-285q-19 0 -34 -15v90h289q-11 14 -11 37q0 58 64 58q36 0 59 -22.5t23 -56.5zM-59 -100q0 26 -26 26q-24 0 -24 -27q0 -23 24 -23q26 0 26 24z" />
    <glyph glyph-name="apple" unicode="&#xf0f0;" horiz-adv-x="268" 
d="M242 20q0 -42 -22 -67q-18 -19 -37 -19q-18 0 -36 12q2 -12 2 -45q0 -111 -47 -136q-14 -8 -41.5 -6.5t-36.5 -6.5q13 15 2 41q-11 -23 -26 -30q-9 -6 -34 -6q-35 1 -37 0q-16 -1 -25 -8q4 10 4 23q0 14 -8 47.5t-8 50.5q0 98 78 98q47 0 61 -44q4 -20 8.5 -38t29.5 -18
q37 0 37 75q0 48 -19 86q-23 47 -65 47q-23 0 -32 -8l14 65q75 9 111 -67q9 -20 19 -40.5t29 -20.5q23 0 23 33q0 43 -35 43q-7 0 -25 -13l16 68q47 3 75 -33q25 -33 25 -83zM-3 -105q1 27 -24 27q-28 0 -28 -29q0 -9 9 -17t19 -7q23 2 24 26z" />
    <glyph glyph-name="Ograve" unicode="&#xf0f1;" 
d="M-9 681q0 -28 -21 -49q-13 6 -39 19q18 34 -16 34q-27 0 -27 -33q0 -18 22 -38q42 -18 42 -80q0 -54 -23 -93.5t-58 -39.5h-63v86h61q27 0 27 28q0 25 -29 25h-230q-21 0 -36 -13v95h248q-13 21 -13 57q0 84 82 84q31 0 52 -24.5t21 -57.5z" />
    <glyph glyph-name="Uacute" unicode="&#xf0f2;" horiz-adv-x="245" 
d="M209 363q0 -168 -79 -213q-21 -12 -102 -12q-15 0 -29 -11q4 19 4 43q0 30 -9 82t-9 79q0 118 102 118q35 0 61 -19q-3 108 -82 108h-167q16 -18 16 -51q0 -39 -23.5 -62.5t-57.5 -23.5h-27v86h30q30 0 30 17q0 30 -34 30h-29q-17 0 -30 -11v99h271q164 0 164 -259z
M136 349q0 43 -41 43q-45 0 -45 -46q0 -39 42 -39q44 0 44 42z" />
    <glyph glyph-name="Ucircumflex" unicode="&#xf0f3;" 
d="M-190 -91q0 -38 -23 -48q-12 -5 -47 -5q-17 0 -40 -10q19 17 19 70q0 35 16 58q25 35 31 49q4 -35 24 -65.5t20 -48.5z" />
    <glyph glyph-name="Ugrave" unicode="&#xf0f4;" horiz-adv-x="121" 
d="M104 -152q0 -67 -54 -99q-19 -11 -104 -11q-37 0 -46 -6q0 3 1.5 10t1.5 10q0 13 -7.5 28.5t-7.5 43.5q0 42 30 65q22 18 93 45q-15 8 -38 8q-60 0 -61 -52l-74 -25q-2 9 -2 17q0 96 138 96q41 0 65 -17q16 36 16 63q0 72 -44 72q-9 0 -21 -9l15 85q93 -33 93 -136
q0 -60 -29 -97q35 -31 35 -91zM51 -116q0 15 -8 28q-10 -11 -47 -28q-29 -13 -29 -26q0 -17 30 -17q54 0 54 43z" />
    <glyph glyph-name="dotlessi" unicode="&#xf0f5;" horiz-adv-x="281" 
d="M247 215q0 -187 -90 -221q-23 -9 -84 -9q-20 0 -36 -14q3 20 3 41q0 31 -9.5 86.5t-9.5 82.5q0 117 94 117q41 0 72 -30q0 121 -87 121q-35 0 -54 -21.5t-17 -50.5h-40q0 51 -12 63q-8 8 -29 8h-354q-23 0 -30 -13v104q9 -7 24 -7h346q43 0 81 -46q28 47 101 47
q60 0 95.5 -69t35.5 -189zM162 194q0 40 -38 40q-37 0 -37 -35q0 -40 40 -40q35 0 35 35z" />
    <glyph glyph-name="circumflex" unicode="&#xf0f6;" horiz-adv-x="160" 
d="M107 38q0 -24 -6 -31t-31 -7q-8 0 -22.5 1t-23.5 1q-15 0 -26 -4l-3 2q13 13 13 37q0 151 2 338h66q-13 -32 -13 -81q44 -193 44 -256z" />
    <glyph glyph-name="tilde" unicode="&#xf0f7;" 
d="M-102 -196q0 -116 -59 -145q-16 -8 -113 -8q-35 0 -50 -11q9 24 9 23q0 9 -10.5 56.5t-10.5 82.5q0 162 115 162q119 0 119 -160zM-146 -161q0 73 -71 73q-77 0 -77 -79q0 -77 76 -77q72 0 72 83zM-187 -163q0 -29 -34 -29q-32 0 -32 27q0 33 35 33q31 0 31 -31z" />
    <glyph glyph-name="macron" unicode="&#xf0f8;" 
d="M-93 553h-82q-35 0 -35 -35q0 -16 12 -31h44v-86h-150q-47 0 -66 -14v100h124q-23 30 -23 71q0 32 21 55t51 23h70q23 0 34 12v-95z" />
    <glyph glyph-name="breve" unicode="&#xf0f9;" 
d="M-20 580q-24 4 -52 4h-220q-30 0 -30 -12q0 -15 36 -15h161v-47l-176 1q-22 0 -22 -11q0 -13 16 -13h117v-74h-122q-75 0 -75 64q0 37 28 58q-28 20 -28 64q0 32 20 53.5t49 21.5h277q12 0 21 6v-100z" />
    <glyph glyph-name="dotaccent" unicode="&#xf0fa;" horiz-adv-x="418" 
d="M383 232q0 -88 -10 -128q-16 -63 -63 -88q-26 -14 -115 -14q-16 0 -40 -12q12 15 12 28q0 14 -6 38.5t-6 52.5q0 108 2 82q-3 38 -29 38q-36 0 -36 -56q0 -25 13.5 -69.5t13.5 -73.5t-10 -34q-5 -2 -13 -2q-79 0 -86 -1q8 11 8 28q0 15 -9 62t-9 76q0 123 112 123
q50 0 79 -33q6 -7 30 -54q14 -30 40 -30q57 0 57 101q0 164 -90 192q7 -18 7 -33q0 -37 -37 -58q-31 -19 -72 -19q-110 0 -110 85q0 77 126 88q-25 31 -25 63q0 80 85 80q32 0 51 -22t19 -57q0 -29 -13 -46l-42 12q3 4 3 10q0 26 -23 26q-24 0 -24 -29q0 -16 16 -37
q96 -9 147 -94q47 -76 47 -195zM182 437q0 25 -30 25q-33 0 -32 -27q2 -25 33 -25q29 0 29 27z" />
    <glyph glyph-name="ring" unicode="&#xf0fb;" 
d="M-31 681q0 -28 -21 -49q-13 6 -39 19q18 34 -16 34q-27 0 -27 -33q0 -18 22 -38q42 -18 42 -80q0 -81 -81 -81h-147v34h145q27 0 27 28q0 25 -29 25h-231q-20 0 -35 -13v95h248q-13 21 -13 57q0 84 82 84q31 0 52 -24.5t21 -57.5z" />
    <glyph glyph-name="cedilla" unicode="&#xf0fc;" horiz-adv-x="121" 
d="M115 -299q-15 -3 -53 -9q-35 16 -25 65q-31 2 -76 -7q10 17 2 48q-4 -15 -25 -33q-15 -8 -63 -8q-30 0 -38 -13q5 17 5 31q0 12 -7.5 39.5t-7.5 53.5q0 101 82 101q54 0 66 -57q4 -16 9 -32t26 -16q31 0 39 42q3 17 3 68q0 101 -53 101q-5 0 -10 -1q4 32 19 74
q51 -23 68 -59q20 -45 20 -164q0 -48 -8.5 -91t-8.5 -56q0 -57 36 -77zM-60 -101q0 29 -31 29q-29 0 -29 -29q0 -26 27 -26q33 0 33 26z" />
    <glyph glyph-name="hungarumlaut" unicode="&#xf0fd;" horiz-adv-x="430" 
d="M395 224q0 -157 -98 -206q-26 -13 -50 -16q-19 -3 -60 -1q-64 2 -96 2q-37 0 -57 -15q5 21 5 38q0 20 -19.5 84.5t-19.5 143.5q0 91 33 156q40 78 112 78q77 0 77 -87q0 -129 -108 -129q-23 0 -51 21q-1 -7 -1 -15q0 -43 32.5 -74t84.5 -31q144 0 144 134q0 71 -51 94v86
h3q120 0 120 -263zM147 374q0 29 -26 29q-33 0 -33 -41q0 -25 30 -25q29 0 29 37z" />
    <glyph glyph-name="ogonek" unicode="&#xf0fe;" horiz-adv-x="281" 
d="M247 215q0 -187 -90 -221q-23 -9 -84 -9q-20 0 -36 -14q3 20 3 41q0 31 -9.5 86.5t-9.5 82.5q0 117 94 117q41 0 72 -30q0 121 -87 121q-35 0 -54 -21.5t-17 -50.5h-40q0 51 -12 63q-8 8 -29 8h-354q-23 0 -30 -13v104q9 -7 24 -7h346q43 0 81 -46q23 37 71 45
q-15 26 -15 57q0 82 79 82q35 0 57.5 -19t22.5 -48q0 -42 -17 -63l-41 11q8 41 -21 41q-26 0 -26 -31q0 -16 6 -29q54 -9 85 -77t31 -180zM162 194q0 40 -38 40q-37 0 -37 -35q0 -40 40 -40q35 0 35 35z" />
    <glyph glyph-name="caron" unicode="&#xf0ff;" horiz-adv-x="442" 
d="M407 151q0 -79 -44 -118q-36 -33 -123 -33q-19 0 -34 -16q11 20 1 95q0 -37 -22.5 -58t-53.5 -21q-27 0 -42.5 1.5t-16.5 1.5q-25 0 -45 -13q9 20 9 21q0 29 -12.5 75.5t-12.5 76.5q0 70 39 113q6 7 57 43q30 21 30 52q0 33 -29 33q-32 0 -32 -31q0 -28 11 -44l-65 -31
q-22 35 -22 80q0 53 33 84q30 29 76 29q105 0 105 -109q0 -52 -32 -81q-27 -17 -54 -35q-30 -21 -30 -56q0 -39 47 -39q57 0 50 54h43q-1 -7 -1 -14q0 -39 48 -39q47 0 47 49q0 43 -30 53q24 13 60 14q16 -9 29 -45q16 -42 16 -92z" />
    <glyph glyph-name="Lslash" horiz-adv-x="1482" 
 />
    <glyph glyph-name="lslash" horiz-adv-x="1482" 
 />
    <glyph glyph-name="Scaron" horiz-adv-x="1482" 
 />
    <glyph glyph-name="scaron" horiz-adv-x="1482" 
 />
    <glyph glyph-name="Zcaron" horiz-adv-x="1482" 
 />
    <glyph glyph-name="zcaron" horiz-adv-x="1482" 
 />
    <glyph glyph-name="brokenbar" horiz-adv-x="1482" 
 />
    <glyph glyph-name="Eth" horiz-adv-x="1482" 
 />
    <glyph glyph-name="eth" horiz-adv-x="1482" 
 />
    <glyph glyph-name="Yacute" horiz-adv-x="1482" 
 />
    <glyph glyph-name="Thorn" horiz-adv-x="1482" 
 />
    <glyph glyph-name="thorn" horiz-adv-x="1482" 
 />
    <glyph glyph-name="minus" horiz-adv-x="1482" 
 />
    </font>
</defs>
</svg>
