<?xml version="1.0" encoding="UTF-8"?>
<svg version="1.1" xmlns="http://www.w3.org/2000/svg" width="360" height="360">
<path d="M0 0 C2.33586709 3.50380063 2.25069373 5.16736415 2.375 9.3125 C2.60680851 14.76517756 2.60680851 14.76517756 5.1875 19.375 C7 22 7 22 6.375 25.6875 C5 29 5 29 3 32 C4.4540625 31.9690625 4.4540625 31.9690625 5.9375 31.9375 C9 32 9 32 10 33 C9.93621032 34.67012983 9.79971885 36.33780985 9.625 38 C9.53476562 38.9075 9.44453125 39.815 9.3515625 40.75 C9 43 9 43 8 44 C7.76712992 45.68183948 7.58735834 47.3712416 7.4375 49.0625 C7.35371094 49.98160156 7.26992188 50.90070313 7.18359375 51.84765625 C7.12300781 52.55792969 7.06242187 53.26820313 7 54 C7.99 54 8.98 54 10 54 C10.125 61.625 10.125 61.625 9 65 C8.77202438 67.73289293 8.58331813 70.45042204 8.4375 73.1875 C8.39431641 73.93708984 8.35113281 74.68667969 8.30664062 75.45898438 C8.20077315 77.30578375 8.0999024 79.15286834 8 81 C8.99 81 9.98 81 11 81 C10.85930804 83.12534659 10.71229079 85.25027529 10.5625 87.375 C10.48128906 88.55835938 10.40007812 89.74171875 10.31640625 90.9609375 C10 94 10 94 9 96 C9.06358729 98.87009919 9.18809065 101.7004506 9.375 104.5625 C9.44074219 105.75262695 9.44074219 105.75262695 9.5078125 106.96679688 C9.39811469 110.79883337 9.39811469 110.79883337 11 114 C11.23529412 119.52941176 11.23529412 119.52941176 10 122 C9.83329727 125.04173894 9.83329727 125.04173894 10 128 C10.33 128.33 10.66 128.66 11 129 C11.23527773 131.34987262 11.41386417 133.70556039 11.5625 136.0625 C11.68818359 137.99802734 11.68818359 137.99802734 11.81640625 139.97265625 C11.87699219 140.97167969 11.93757813 141.97070312 12 143 C15.72460257 141.15980511 15.72460257 141.15980511 17.8125 137.8125 C17.874375 137.214375 17.93625 136.61625 18 136 C18.66 136 19.32 136 20 136 C20.268125 136.804375 20.53625 137.60875 20.8125 138.4375 C21.204375 139.283125 21.59625 140.12875 22 141 C22.99 141.33 23.98 141.66 25 142 C25.103125 141.21625 25.20625 140.4325 25.3125 139.625 C26 137 26 137 29 135 C29.50946665 132.76728821 29.50946665 132.76728821 29.51171875 130.15234375 C29.56525513 128.6667395 29.56525513 128.6667395 29.61987305 127.15112305 C29.64218994 126.09062744 29.66450684 125.03013184 29.6875 123.9375 C29.73547729 122.32258667 29.73547729 122.32258667 29.78442383 120.67504883 C29.87335785 117.4501716 29.93933193 114.2255189 30 111 C30.03287109 109.6397168 30.03287109 109.6397168 30.06640625 108.25195312 C30.12121343 105.89707115 30.15947587 103.54283675 30.1875 101.1875 C30.20719849 100.1500061 30.20719849 100.1500061 30.22729492 99.09155273 C30.23325673 95.47823998 30.06902232 94.10353348 28 91 C27.92094936 88.66800612 27.91201231 86.33167378 28 84 C29.32 84 30.64 84 32 84 C31.67 80.04 31.34 76.08 31 72 C29.68 72 28.36 72 27 72 C27 71.34 27 70.68 27 70 C27.61875 69.566875 28.2375 69.13375 28.875 68.6875 C31.42439402 66.66298122 31.87357024 65.00381268 33 62 C34.375 60.1875 34.375 60.1875 36 59 C37.32 59 38.64 59 40 59 C40 57.02 40 55.04 40 53 C40.99 53 41.98 53 43 53 C43 54.98 43 56.96 43 59 C43.763125 59.0825 44.52625 59.165 45.3125 59.25 C49.49350265 60.41679144 50.45981043 63.07087393 52.5625 66.6875 C53.7908468 69.11355864 53.7908468 69.11355864 56 70 C56 70.66 56 71.32 56 72 C54.515 72.495 54.515 72.495 53 73 C51.85185003 75.29629994 51.69230191 77.07698086 51.4375 79.625 C51.35371094 80.44226563 51.26992188 81.25953125 51.18359375 82.1015625 C51.12300781 82.72804688 51.06242187 83.35453125 51 84 C52.32 84 53.64 84 55 84 C55.25 90.625 55.25 90.625 53 94 C52.71171335 96.0382954 52.71171335 96.0382954 52.77294922 98.2878418 C52.77310028 99.14850754 52.77325134 100.00917328 52.77340698 100.8959198 C52.78372955 101.82100845 52.79405212 102.74609711 52.8046875 103.69921875 C52.8075174 104.64940384 52.81034729 105.59958893 52.81326294 106.5785675 C52.82446285 109.61500615 52.84956712 112.65115042 52.875 115.6875 C52.88503004 117.74543845 52.89415585 119.80338152 52.90234375 121.86132812 C52.92440158 126.9076656 52.95893018 131.95378288 53 137 C54.32 137 55.64 137 57 137 C57 139.31 57 141.62 57 144 C56.34 144 55.68 144 55 144 C55.33 147.3 55.66 150.6 56 154 C57.258125 153.175 58.51625 152.35 59.8125 151.5 C63.625 149 63.625 149 67 149 C67.66 147.02 68.32 145.04 69 143 C69.66 143.99 70.32 144.98 71 146 C72.95127271 148.36206697 74.70161772 149.39545726 77.4375 150.9375 C82.51829334 153.81483349 84.93559026 156.2526874 86.8125 161.875 C87.92126603 165.90470878 88.18480207 168.90704739 87 173 C89.31 173 91.62 173 94 173 C94 191.15 94 209.3 94 228 C83.88810448 225.75291211 83.88810448 225.75291211 79.25 222.5625 C78.36828125 221.96566406 77.4865625 221.36882812 76.578125 220.75390625 C74.97177839 219.66110379 73.37269167 218.55745444 71.78515625 217.4375 C67.76017544 215.36009055 63.58157083 214.46245986 59.1875 213.4375 C58.32318359 213.22931641 57.45886719 213.02113281 56.56835938 212.80664062 C54.84524598 212.39179295 53.12036578 211.98421547 51.39379883 211.58398438 C49.35513132 211.08663683 47.34136693 210.48897126 45.3359375 209.87109375 C38.27458704 208.09444697 30.61547562 208.63963222 23.36401367 208.61914062 C11.73435371 208.56404334 -2.06726002 208.40121006 -11 200 C-11.4125 199.13375 -11.825 198.2675 -12.25 197.375 C-14.29546071 194.5990176 -14.93166174 194.54286426 -18.1875 193.875 C-18.90292969 193.76929688 -19.61835938 193.66359375 -20.35546875 193.5546875 C-23 193 -23 193 -26.50256348 191.48760986 C-31.54266133 189.58240225 -36.26680041 189.59228618 -41.60351562 189.64355469 C-42.63546555 189.64151031 -43.66741547 189.63946594 -44.7306366 189.63735962 C-48.12269137 189.6343654 -51.51425343 189.65279017 -54.90625 189.671875 C-57.27461629 189.67493546 -59.64298439 189.6768094 -62.01135254 189.67755127 C-66.96743698 189.68214603 -71.92335819 189.69653958 -76.87939453 189.71875 C-83.2210346 189.74703137 -89.56254632 189.75796286 -95.90424347 189.7624321 C-100.79251377 189.76659628 -105.68075836 189.77642211 -110.5690155 189.78830719 C-112.90691423 189.79399008 -115.24481538 189.79875524 -117.5827179 189.80257416 C-120.85401705 189.80947706 -124.12521723 189.82312851 -127.39648438 189.83886719 C-128.83528206 189.84054398 -128.83528206 189.84054398 -130.30314636 189.84225464 C-135.61649975 189.87597511 -140.76583763 190.03711077 -146 191 C-148.17477572 193.34346271 -148.17477572 193.34346271 -150 196 C-151.98166034 197.0358679 -153.98473831 198.03112419 -156 199 C-157.13349752 199.94826744 -158.25763993 200.90776981 -159.375 201.875 C-170.5983789 210.48530213 -187.50383278 211.80725753 -201.09155273 212.28271484 C-210.50173572 212.61724406 -219.78740633 213.3914308 -229.125 214.625 C-230.23834717 214.75310059 -231.35169434 214.88120117 -232.4987793 215.01318359 C-239.71028423 216.03853653 -244.71599467 218.16987013 -250.67407227 222.36914062 C-255.59745842 225.82124722 -260.0008389 227.00013982 -266 228 C-266 209.85 -266 191.7 -266 173 C-263.69 173 -261.38 173 -259 173 C-259.2475 172.05125 -259.495 171.1025 -259.75 170.125 C-260.47417093 164.87476074 -258.60082708 160.4977266 -256 156 C-253.13829841 152.70532228 -250.27327471 150.48101489 -246.1875 148.9375 C-243.72779896 148.16209725 -243.72779896 148.16209725 -242.6875 145.375 C-242.3471875 144.199375 -242.3471875 144.199375 -242 143 C-240.5 144.3125 -240.5 144.3125 -239 146 C-239 146.99 -239 147.98 -239 149 C-238.29875 149.0825 -237.5975 149.165 -236.875 149.25 C-233.34727053 150.17027725 -230.93888386 151.88126977 -228 154 C-227.97311849 152.35425434 -227.95365877 150.70838587 -227.9375 149.0625 C-227.92589844 148.14597656 -227.91429687 147.22945312 -227.90234375 146.28515625 C-227.74050951 144.03406673 -227.74050951 144.03406673 -229 143 C-229.04080783 141.00041636 -229.04254356 138.99954746 -229 137 C-227.68 137 -226.36 137 -225 137 C-224.9506067 130.93108308 -224.91428357 124.86228287 -224.89013672 118.79321289 C-224.88007165 116.728088 -224.86641846 114.66297737 -224.84912109 112.59790039 C-224.82489507 109.63163736 -224.81352203 106.66556256 -224.8046875 103.69921875 C-224.79436493 102.7741301 -224.78404236 101.84904144 -224.77340698 100.8959198 C-224.77325592 100.03525406 -224.77310486 99.17458832 -224.77294922 98.2878418 C-224.76628738 97.15199898 -224.76628738 97.15199898 -224.75949097 95.99320984 C-224.88637902 93.68181571 -224.88637902 93.68181571 -227 91 C-227.07905064 88.66800612 -227.08798769 86.33167378 -227 84 C-225.68 84 -224.36 84 -223 84 C-223.33 80.04 -223.66 76.08 -224 72 C-225.32 72 -226.64 72 -228 72 C-228 71.34 -228 70.68 -228 70 C-226.02 69.505 -226.02 69.505 -224 69 C-223.7525 67.906875 -223.505 66.81375 -223.25 65.6875 C-221.97804103 61.93522105 -221.44233272 60.77332292 -218 59 C-217.01 59 -216.02 59 -215 59 C-215.04125 58.05125 -215.0825 57.1025 -215.125 56.125 C-215 53 -215 53 -213 51 C-211.64560332 53.70879335 -211.93498549 56.00933268 -212 59 C-211.236875 59.103125 -210.47375 59.20625 -209.6875 59.3125 C-206.72455494 60.07046269 -205.80895352 60.58806197 -204 63 C-203.505 64.2684375 -203.505 64.2684375 -203 65.5625 C-202.13727591 68.31238322 -202.13727591 68.31238322 -199 70 C-199 70.66 -199 71.32 -199 72 C-200.32 72 -201.64 72 -203 72 C-203 75.63 -203 79.26 -203 83 C-201.02 83.99 -201.02 83.99 -199 85 C-200.875 91.75 -200.875 91.75 -202 94 C-202.08918777 95.38909304 -202.11759541 96.78236907 -202.11352539 98.17431641 C-202.11344986 99.03505768 -202.11337433 99.89579895 -202.11329651 100.78262329 C-202.10813522 101.71287323 -202.10297394 102.64312317 -202.09765625 103.6015625 C-202.09553383 105.02896255 -202.09553383 105.02896255 -202.09336853 106.48519897 C-202.08776012 109.53183097 -202.07520619 112.57839013 -202.0625 115.625 C-202.05748608 117.68749894 -202.05292299 119.74999903 -202.04882812 121.8125 C-202.03778796 126.87502817 -202.02051767 131.93750173 -202 137 C-200.68 137 -199.36 137 -198 137 C-198 138.98 -198 140.96 -198 143 C-195.46115547 141.84434349 -195.46115547 141.84434349 -193 140 C-192.11341534 137.40877257 -192.11341534 137.40877257 -192 135 C-190 137 -190 137 -189.125 139 C-187.97665378 141.47859758 -187.97665378 141.47859758 -184 143 C-183.67 138.05 -183.34 133.1 -183 128 C-181.68 128 -180.36 128 -179 128 C-179.33 126.824375 -179.66 125.64875 -180 124.4375 C-180.9969533 120.4988324 -181.16869203 117.04860871 -181 113 C-180.34 113 -179.68 113 -179 113 C-178.94595551 110.24973583 -178.90630694 107.50053797 -178.875 104.75 C-178.84986328 103.58404297 -178.84986328 103.58404297 -178.82421875 102.39453125 C-178.7889154 98.26403958 -178.97954643 95.66207209 -181 92 C-181.1953125 89.203125 -181.1953125 89.203125 -181.125 86.25 C-181.10695313 85.26515625 -181.08890625 84.2803125 -181.0703125 83.265625 C-181.04710937 82.51796875 -181.02390625 81.7703125 -181 81 C-180.01 81 -179.02 81 -178 81 C-178.14053872 78.37461716 -178.28718947 75.74982573 -178.4375 73.125 C-178.47681641 72.37863281 -178.51613281 71.63226563 -178.55664062 70.86328125 C-178.71573624 66.80013136 -178.71573624 66.80013136 -180 63 C-180.06950541 61.45976004 -180.08452357 59.91665012 -180.0625 58.375 C-180.05347656 57.55773437 -180.04445313 56.74046875 -180.03515625 55.8984375 C-180.02355469 55.27195313 -180.01195312 54.64546875 -180 54 C-179.01 54 -178.02 54 -177 54 C-177.11487748 52.41590006 -177.24234508 50.83271037 -177.375 49.25 C-177.47941406 47.92742187 -177.47941406 47.92742187 -177.5859375 46.578125 C-178.00232972 43.9854942 -178.81707034 42.31360138 -180 40 C-180.1875 36.3125 -180.1875 36.3125 -180 33 C-179 32 -179 32 -176.4375 31.9375 C-175.2309375 31.9684375 -175.2309375 31.9684375 -174 32 C-174.515625 30.948125 -175.03125 29.89625 -175.5625 28.8125 C-176.98172917 25.50542825 -177.29082411 23.47529567 -176 20 C-175.34 19.34 -174.68 18.68 -174 18 C-173.53340269 15.27530214 -173.16400746 12.61820198 -172.875 9.875 C-172.74544922 8.74384766 -172.74544922 8.74384766 -172.61328125 7.58984375 C-172.40110739 5.72742873 -172.19954237 3.86381069 -172 2 C-171.01 2 -170.02 2 -169 2 C-168.93941406 2.97582031 -168.87882812 3.95164062 -168.81640625 4.95703125 C-168.73261719 6.22933594 -168.64882812 7.50164062 -168.5625 8.8125 C-168.48128906 10.07707031 -168.40007812 11.34164062 -168.31640625 12.64453125 C-168.12815453 15.99181893 -168.12815453 15.99181893 -167 19 C-166.34 19 -165.68 19 -165 19 C-163.53154579 24.47332932 -164.55961274 27.11922548 -167 32 C-165.7934375 31.9690625 -165.7934375 31.9690625 -164.5625 31.9375 C-162 32 -162 32 -161 33 C-160.64272475 39.31186284 -160.64272475 39.31186284 -162.00390625 41.93359375 C-163.1840739 44.38186311 -163.20440041 46.05038608 -163.125 48.75 C-163.10695313 49.54921875 -163.08890625 50.3484375 -163.0703125 51.171875 C-163.04710937 51.77515625 -163.02390625 52.3784375 -163 53 C-162.34 53.33 -161.68 53.66 -161 54 C-160.9729957 55.45823212 -160.95360213 56.91660675 -160.9375 58.375 C-160.92589844 59.18710938 -160.91429687 59.99921875 -160.90234375 60.8359375 C-161 63 -161 63 -162 65 C-162.2322646 67.71262116 -162.41936235 70.40773126 -162.5625 73.125 C-162.62727539 74.25615234 -162.62727539 74.25615234 -162.69335938 75.41015625 C-162.7994832 77.27321888 -162.90025001 79.13658524 -163 81 C-162.01 81 -161.02 81 -160 81 C-159.94540227 82.56210161 -159.90693899 84.12477089 -159.875 85.6875 C-159.85179687 86.55761719 -159.82859375 87.42773438 -159.8046875 88.32421875 C-160 91 -160 91 -161.03125 93.28125 C-162.4275726 97.1999618 -161.96845791 100.71504716 -161.625 104.8125 C-161.56828125 105.60076172 -161.5115625 106.38902344 -161.453125 107.20117188 C-161.31249026 109.13489961 -161.15766112 111.06758595 -161 113 C-160.61328125 112.51789063 -160.2265625 112.03578125 -159.828125 111.5390625 C-159.30734375 110.90742188 -158.7865625 110.27578125 -158.25 109.625 C-157.73953125 108.99851562 -157.2290625 108.37203125 -156.703125 107.7265625 C-155 106 -155 106 -152.875 105 C-150.55156306 104.03407721 -150.55156306 104.03407721 -149.75 100.375 C-149.5025 99.26125 -149.255 98.1475 -149 97 C-147.515 97.99 -147.515 97.99 -146 99 C-144.55611429 97.78571012 -144.55611429 97.78571012 -144.90234375 94.18359375 C-144.90901911 92.60153318 -144.92098125 91.01948841 -144.9375 89.4375 C-144.94201172 88.63119141 -144.94652344 87.82488281 -144.95117188 86.99414062 C-144.96299482 84.99606244 -144.98093086 82.99802217 -145 81 C-144.34 81 -143.68 81 -143 81 C-143.0407666 80.18845459 -143.0815332 79.37690918 -143.12353516 78.54077148 C-143.30266146 74.84014882 -143.4639877 71.13895322 -143.625 67.4375 C-143.72167969 65.52227539 -143.72167969 65.52227539 -143.8203125 63.56835938 C-144.30707097 51.85573358 -144.30707097 51.85573358 -142 46 C-142.66 46 -143.32 46 -144 46 C-143.00475043 41.35550201 -142.03925611 38.69283741 -138 36 C-136.80767387 33.94996045 -136.80767387 33.94996045 -136 32 C-132.22641509 37.53459119 -132.22641509 37.53459119 -130.875 40.3125 C-130.11181389 42.1891646 -130.11181389 42.1891646 -128 43 C-128.165 44.155 -128.33 45.31 -128.5 46.5 C-129.75969324 57.94521289 -129.09587459 69.57159359 -128 81 C-127.01 79.35 -126.02 77.7 -125 76 C-123.67321483 78.65357035 -123.40467993 81.1973391 -122.9375 84.125 C-122.67259766 85.76855469 -122.67259766 85.76855469 -122.40234375 87.4453125 C-122.26957031 88.28835937 -122.13679687 89.13140625 -122 90 C-120.68 90.33 -119.36 90.66 -118 91 C-118.04640625 90.0821875 -118.0928125 89.164375 -118.140625 88.21875 C-118.44307092 77.93558882 -117.40519222 72.40885813 -110.375 64.9375 C-106.66186301 61.40414246 -102.63457822 58.5343641 -98.41015625 55.6484375 C-93.28679777 52.29694003 -93.28679777 52.29694003 -89 48 C-88.49874717 44.33142278 -88.49874717 44.33142278 -89 41 C-88.67 40.34 -88.34 39.68 -88 39 C-87.64080679 37.00448218 -87.30503431 35.00451121 -87 33 C-85.45703125 34.15625 -85.45703125 34.15625 -84 36 C-84.19921875 38.53125 -84.19921875 38.53125 -84.6875 41.5 C-84.7828517 44.6618623 -84.842062 46.95436257 -82.80029297 49.48974609 C-79.41944666 52.59655585 -75.61566744 55.14909708 -71.82568359 57.72705078 C-64.89471049 62.55963887 -57.38608029 68.59365561 -55 77 C-54.62124546 82.04501041 -54.70032897 86.94554855 -55 92 C-51.72607812 90.29268684 -51.72607812 90.29268684 -51.1875 87 C-51.125625 86.01 -51.06375 85.02 -51 84 C-51.66 83.34 -52.32 82.68 -53 82 C-52.625 79.375 -52.625 79.375 -52 77 C-50.68 77 -49.36 77 -48 77 C-48.99 78.98 -48.99 78.98 -50 81 C-49.34 81.33 -48.68 81.66 -48 82 C-47.896875 83.27875 -47.79375 84.5575 -47.6875 85.875 C-47.54152866 88.03331923 -47.54152866 88.03331923 -47 90 C-44.59256899 92.06454002 -44.59256899 92.06454002 -42 93 C-42.23396484 91.82630859 -42.23396484 91.82630859 -42.47265625 90.62890625 C-42.66730469 89.61699219 -42.86195313 88.60507813 -43.0625 87.5625 C-43.25972656 86.55316406 -43.45695313 85.54382813 -43.66015625 84.50390625 C-43.82837891 83.26447266 -43.82837891 83.26447266 -44 82 C-43.67 81.67 -43.34 81.34 -43 81 C-41.8142532 74.95598504 -41.91824817 69.0145625 -42 62.875 C-42.02562809 60.93495325 -42.04661882 58.99483852 -42.0625 57.0546875 C-42.07410156 56.20374512 -42.08570313 55.35280273 -42.09765625 54.47607422 C-42 52 -42 52 -41.453125 49.30517578 C-40.80297424 47.03279627 -40.80297424 47.03279627 -41.6875 45.0625 C-42 43 -42 43 -40.3125 40.0625 C-38.25269117 37.33464506 -36.17294372 34.63857451 -34 32 C-33.38125 33.051875 -33.38125 33.051875 -32.75 34.125 C-31.00281227 37.0889556 -31.00281227 37.0889556 -28.75 40.0625 C-27 43 -27 43 -27.3125 44.875 C-27.6528125 45.926875 -27.6528125 45.926875 -28 47 C-27.77570313 48.61261719 -27.77570313 48.61261719 -27.546875 50.2578125 C-26.69377265 56.48102153 -26.89447491 62.73157605 -26.9375 69 C-26.94201172 70.25167969 -26.94652344 71.50335938 -26.95117188 72.79296875 C-26.96288585 75.86202941 -26.97928927 78.93098907 -27 82 C-26.34 82 -25.68 82 -25 82 C-25.16113281 82.53753906 -25.32226562 83.07507813 -25.48828125 83.62890625 C-26.09593065 86.44450308 -26.16934073 89.05743997 -26.1875 91.9375 C-26.20167969 92.95714844 -26.21585938 93.97679687 -26.23046875 95.02734375 C-25.99444914 98.07159667 -25.28252995 100.24737643 -24 103 C-24 101.35 -24 99.7 -24 98 C-22.68 98 -21.36 98 -20 98 C-20 98.886875 -20 99.77375 -20 100.6875 C-18.8543377 104.48250636 -18.32993319 104.72835253 -15.0625 106.625 C-14.35222656 106.98851562 -13.64195312 107.35203125 -12.91015625 107.7265625 C-10.66898294 109.22067804 -9.99391016 110.53343763 -9 113 C-8.9730499 110.06243881 -8.95318526 107.12512445 -8.9375 104.1875 C-8.92912109 103.35412109 -8.92074219 102.52074219 -8.91210938 101.66210938 C-8.90888672 100.85966797 -8.90566406 100.05722656 -8.90234375 99.23046875 C-8.89710693 98.49207764 -8.89187012 97.75368652 -8.88647461 96.99291992 C-8.92476787 94.78942591 -8.92476787 94.78942591 -10 92 C-10.0685495 90.10529184 -10.08480372 88.2083166 -10.0625 86.3125 C-10.05347656 85.31863281 -10.04445312 84.32476562 -10.03515625 83.30078125 C-10.02355469 82.54152344 -10.01195312 81.78226562 -10 81 C-9.01 81 -8.02 81 -7 81 C-7.14058476 78.54126232 -7.28722999 76.08314825 -7.4375 73.625 C-7.47681641 72.92632812 -7.51613281 72.22765625 -7.55664062 71.5078125 C-7.74280134 67.62639508 -7.74280134 67.62639508 -9 64 C-9.06996014 62.29297265 -9.08440154 60.58331997 -9.0625 58.875 C-9.05347656 57.96492188 -9.04445313 57.05484375 -9.03515625 56.1171875 C-9.01775391 55.06917969 -9.01775391 55.06917969 -9 54 C-8.34 54 -7.68 54 -7 54 C-6.94583812 52.39620659 -6.90713362 50.79188594 -6.875 49.1875 C-6.84019531 47.84751953 -6.84019531 47.84751953 -6.8046875 46.48046875 C-6.81714173 43.74597286 -6.81714173 43.74597286 -9 41 C-9.1953125 38.73828125 -9.1953125 38.73828125 -9.125 36.3125 C-9.10695313 35.50425781 -9.08890625 34.69601563 -9.0703125 33.86328125 C-9.03550781 32.94095703 -9.03550781 32.94095703 -9 32 C-7.02 32 -5.04 32 -3 32 C-3.495 30.948125 -3.99 29.89625 -4.5 28.8125 C-5.82779788 25.74547391 -6.30715006 23.37865064 -6 20 C-5.01 19.67 -4.02 19.34 -3 19 C-2.95101563 18.04738281 -2.90203125 17.09476563 -2.8515625 16.11328125 C-2.77679688 14.85902344 -2.70203125 13.60476562 -2.625 12.3125 C-2.55539062 11.07113281 -2.48578125 9.82976562 -2.4140625 8.55078125 C-2.03577906 5.30682228 -1.38020024 2.93432815 0 0 Z M-175 46 C-175 48.31 -175 50.62 -175 53 C-174.34 53 -173.68 53 -173 53 C-173 50.69 -173 48.38 -173 46 C-173.66 46 -174.32 46 -175 46 Z M-171 46 C-171 48.64 -171 51.28 -171 54 C-170.67 54 -170.34 54 -170 54 C-170 51.36 -170 48.72 -170 46 C-170.33 46 -170.66 46 -171 46 Z M-168 46 C-168 48.31 -168 50.62 -168 53 C-167.67 53 -167.34 53 -167 53 C-167 50.69 -167 48.38 -167 46 C-167.33 46 -167.66 46 -168 46 Z M-138 46 C-138 47.98 -138 49.96 -138 52 C-137.67 52 -137.34 52 -137 52 C-137 50.02 -137 48.04 -137 46 C-137.33 46 -137.66 46 -138 46 Z M-34 46 C-34 47.65 -34 49.3 -34 51 C-33.67 51 -33.34 51 -33 51 C-33 49.35 -33 47.7 -33 46 C-33.33 46 -33.66 46 -34 46 Z M-4 46 C-4 48.31 -4 50.62 -4 53 C-3.34 53 -2.68 53 -2 53 C-2 50.69 -2 48.38 -2 46 C-2.66 46 -3.32 46 -4 46 Z M0 46 C0 48.31 0 50.62 0 53 C0.33 53 0.66 53 1 53 C1 50.69 1 48.38 1 46 C0.67 46 0.34 46 0 46 Z M3 46 C3 48.64 3 51.28 3 54 C5.34973818 52.10244856 5.34973818 52.10244856 5.125 48.875 C5.063125 47.451875 5.063125 47.451875 5 46 C4.34 46 3.68 46 3 46 Z M-140 47 C-140 48.65 -140 50.3 -140 52 C-139.67 52 -139.34 52 -139 52 C-139 50.35 -139 48.7 -139 47 C-139.33 47 -139.66 47 -140 47 Z M-136 47 C-135 51 -135 51 -135 51 Z M-133 47 C-132 51 -132 51 -132 51 Z M-38 47 C-37 51 -37 51 -37 51 Z M-36 47 C-35 51 -35 51 -35 51 Z M-32 49 C-31 51 -31 51 -31 51 Z M-171 69 C-173.24324836 70.81193006 -173.24324836 70.81193006 -173.1953125 73.3828125 C-173.17210937 74.28773438 -173.14890625 75.19265625 -173.125 76.125 C-173.10695313 77.03507812 -173.08890625 77.94515625 -173.0703125 78.8828125 C-173.04710937 79.58148438 -173.02390625 80.28015625 -173 81 C-171.35 81 -169.7 81 -168 81 C-168 77.37 -168 73.74 -168 70 C-168.99 69.67 -169.98 69.34 -171 69 Z M-1 69 C-2.28612676 70.05978933 -2.28612676 70.05978933 -2.09765625 72.50390625 C-2.08605469 73.51324219 -2.07445312 74.52257812 -2.0625 75.5625 C-2.05347656 76.57441406 -2.04445313 77.58632812 -2.03515625 78.62890625 C-2.02355469 79.41136719 -2.01195312 80.19382812 -2 81 C-0.68 81 0.64 81 2 81 C2 77.37 2 73.74 2 70 C1.01 69.67 0.02 69.34 -1 69 Z M-127 83 C-129.29013653 86.4352048 -129.17842973 87.985331 -129 92 C-127.68 91.34 -126.36 90.68 -125 90 C-125 87.69 -125 85.38 -125 83 C-125.66 83 -126.32 83 -127 83 Z M-171 100 C-171.99 100.495 -171.99 100.495 -173 101 C-173 104.63 -173 108.26 -173 112 C-171.35 112 -169.7 112 -168 112 C-167.91868537 110.56344146 -167.86066441 109.1255517 -167.8125 107.6875 C-167.77769531 106.88699219 -167.74289063 106.08648437 -167.70703125 105.26171875 C-168.06198392 102.52148416 -168.89366282 101.70828921 -171 100 Z M0 100 C-0.99 100.495 -0.99 100.495 -2 101 C-2 104.63 -2 108.26 -2 112 C-0.35 112 1.3 112 3 112 C3.08090971 110.37581255 3.13914995 108.75048255 3.1875 107.125 C3.23970703 105.76761719 3.23970703 105.76761719 3.29296875 104.3828125 C3.14794922 103.20332031 3.14794922 103.20332031 3 102 C2.01 101.34 1.02 100.68 0 100 Z M-94.515625 132.41796875 C-100.8401949 138.99114595 -103.14589555 145.71753134 -103.09765625 154.73828125 C-103.09515869 155.70032471 -103.09266113 156.66236816 -103.09008789 157.65356445 C-103.08098389 158.86101318 -103.07187988 160.06846191 -103.0625 161.3125 C-103.041875 165.169375 -103.02125 169.02625 -103 173 C-91.78 173 -80.56 173 -69 173 C-68.938125 169.41125 -68.87625 165.8225 -68.8125 162.125 C-68.78518799 161.01527832 -68.75787598 159.90555664 -68.72973633 158.76220703 C-68.65465618 149.65409753 -70.05892333 141.19182966 -76 134 C-84.9840634 125.16978918 -84.9840634 125.16978918 -94.515625 132.41796875 Z M-136.0625 142.9375 C-140.2255428 146.76792856 -142.24057104 151.72171311 -144 157 C-144.07056698 159.74082159 -144.09336154 162.44846977 -144.0625 165.1875 C-144.041875 167.765625 -144.02125 170.34375 -144 173 C-135.75 173 -127.5 173 -119 173 C-116.38230682 167.76461363 -117.67504169 160.30274913 -119.0625 154.8125 C-120.79912557 149.66023646 -123.69688648 145.36345403 -128 142 C-131.85612702 140.72848816 -132.50519083 140.68695746 -136.0625 142.9375 Z M-44.5 141.9375 C-49.92777522 146.41541456 -52.42471924 151.13576757 -54 158 C-54.1301949 160.64295657 -54.17182738 163.29175297 -54.125 165.9375 C-54.08375 168.268125 -54.0425 170.59875 -54 173 C-45.42 173 -36.84 173 -28 173 C-27.71959452 157.11731023 -27.71959452 157.11731023 -35.45703125 144.3515625 C-38.57821375 141.61756467 -40.49815405 140.43680777 -44.5 141.9375 Z " fill="#000000" transform="translate(266,120)"/>
<path d="M0 0 C0.66 0.33 1.32 0.66 2 1 C2.37890625 4.0546875 2.37890625 4.0546875 2.5625 7.875 C2.79531842 13.02806026 2.79531842 13.02806026 4 18 C4.66 18 5.32 18 6 18 C6.625 20.8125 6.625 20.8125 7 24 C6.34 24.99 5.68 25.98 5 27 C4.01 26.01 3.02 25.02 2 24 C2.99 24 3.98 24 5 24 C4.67 22.68 4.34 21.36 4 20 C3.34 20 2.68 20 2 20 C0.66666667 20 -0.66666667 20 -2 20 C-1.67 21.65 -1.34 23.3 -1 25 C-2.98 25.99 -2.98 25.99 -5 27 C-5.6875 23.6875 -5.6875 23.6875 -6 20 C-5.53464844 19.59652344 -5.06929688 19.19304687 -4.58984375 18.77734375 C-2.06364517 15.95321511 -2.20058613 12.50751979 -1.875 8.875 C-1.10472973 1.10472973 -1.10472973 1.10472973 0 0 Z " fill="#0A0A0A" transform="translate(95,121)"/>
<path d="M0 0 C0.66 0.33 1.32 0.66 2 1 C1.67 3.64 1.34 6.28 1 9 C0.34 9 -0.32 9 -1 9 C-1.33 9.66 -1.66 10.32 -2 11 C-1.814375 10.236875 -1.62875 9.47375 -1.4375 8.6875 C-0.77180827 5.91032625 -0.77180827 5.91032625 -2 3 C-1.34 2.01 -0.68 1.02 0 0 Z " fill="#0A0A0A" transform="translate(46,185)"/>
<path d="M0 0 C0.99 0.33 1.98 0.66 3 1 C3 1.66 3 2.32 3 3 C2.34 3 1.68 3 1 3 C0.67 4.98 0.34 6.96 0 9 C-3 5.375 -3 5.375 -3 2 C-2.01 1.34 -1.02 0.68 0 0 Z " fill="#070707" transform="translate(300,185)"/>
<path d="M0 0 C2.125 0.375 2.125 0.375 4 1 C4 2.65 4 4.3 4 6 C2.68 5.67 1.36 5.34 0 5 C0 4.34 0 3.68 0 3 C-0.66 2.67 -1.32 2.34 -2 2 C-1.34 1.34 -0.68 0.68 0 0 Z " fill="#070707" transform="translate(140,257)"/>
<path d="M0 0 C0.66 0.33 1.32 0.66 2 1 C2.125 3.875 2.125 3.875 2 7 C1.34 7.66 0.68 8.32 0 9 C-1.36623674 6.26752652 -1.128426 4.01801098 -1 1 C-0.67 0.67 -0.34 0.34 0 0 Z " fill="#020202" transform="translate(95,121)"/>
<path d="M0 0 C2 2 2 2 2.125 5.125 C2.08375 6.07375 2.0425 7.0225 2 8 C1.01 8 0.02 8 -1 8 C-1.125 2.25 -1.125 2.25 0 0 Z " fill="#090909" transform="translate(52,171)"/>
<path d="M0 0 C0.66 0.33 1.32 0.66 2 1 C2 2.98 2 4.96 2 7 C1.01 7 0.02 7 -1 7 C-1.04254356 5.00045254 -1.04080783 2.99958364 -1 1 C-0.67 0.67 -0.34 0.34 0 0 Z " fill="#0A0A0A" transform="translate(307,172)"/>
<path d="M0 0 C1.17960932 2.35921863 1.6730244 4.38419521 2 7 C1.34 7.66 0.68 8.32 0 9 C0 8.34 0 7.68 0 7 C-0.66 7 -1.32 7 -2 7 C-2.125 4.625 -2.125 4.625 -2 2 C-1.34 1.34 -0.68 0.68 0 0 Z " fill="#060606" transform="translate(141,196)"/>
<path d="" fill="#000000" transform="translate(0,0)"/>
<path d="" fill="#000000" transform="translate(0,0)"/>
<path d="" fill="#000000" transform="translate(0,0)"/>
</svg>
