<?xml version="1.0" encoding="UTF-8"?>
<svg version="1.1" xmlns="http://www.w3.org/2000/svg" width="512" height="512">
<path d="M0 0 C1.63776161 -0.00967334 1.63776161 -0.00967334 3.30860931 -0.0195421 C5.09954136 -0.01489629 5.09954136 -0.01489629 6.92665386 -0.01015663 C8.1993498 -0.01468774 9.47204573 -0.01921886 10.78330821 -0.02388728 C14.31388368 -0.03612161 17.84436442 -0.03585631 21.37495625 -0.03349853 C25.18352445 -0.03309047 28.99206223 -0.04412846 32.80061626 -0.05361366 C40.26162701 -0.07022707 47.72260615 -0.07572336 55.18363384 -0.07683842 C61.24847777 -0.07778874 67.31331127 -0.08189826 73.37815189 -0.08823967 C90.5734 -0.10585311 107.76862314 -0.1150784 124.96388034 -0.11357872 C125.89089415 -0.11349881 126.81790797 -0.1134189 127.77301311 -0.11333656 C128.70115893 -0.1132548 129.62930475 -0.11317304 130.5855762 -0.1130888 C145.6275039 -0.1122759 160.66933146 -0.13141433 175.7112302 -0.1596133 C191.15644376 -0.18833986 206.60160847 -0.20215371 222.04684943 -0.20042574 C230.71805785 -0.19976176 239.38916129 -0.20525782 248.06034565 -0.22678185 C255.44328289 -0.24499066 262.82606758 -0.24934349 270.20901755 -0.235763 C273.97512075 -0.22923174 277.74093126 -0.2291215 281.50700665 -0.2464695 C285.59201629 -0.2650929 289.67634791 -0.25264992 293.76137066 -0.23720741 C294.9486332 -0.24749454 296.13589574 -0.25778167 297.35913593 -0.26838052 C305.88557468 -0.19706539 312.15973701 1.39176313 318.31689739 7.531744 C318.95317562 8.15674294 319.58945385 8.78174187 320.24501324 9.42568016 C321.24440174 10.43721405 321.24440174 10.43721405 322.26397991 11.46918297 C322.99024075 12.18843452 323.71650158 12.90768608 324.46477032 13.64873314 C326.84708422 16.01353616 329.21457597 18.39255836 331.58136272 20.77289391 C333.24128107 22.43011539 334.90179262 24.0867429 336.56286907 25.74280357 C340.035699 29.20974775 343.50122052 32.68379388 346.96173382 36.16303062 C351.38883126 40.61291617 355.83364479 45.04460179 360.28410244 49.47110939 C363.71435857 52.88688311 367.13499562 56.31216198 370.55283642 59.74035454 C372.18770642 61.37788503 373.82553138 63.01247103 375.46639538 64.64399529 C377.76162971 66.92902463 380.04357519 69.22656886 382.32257366 71.52777672 C383.33410755 72.52716522 383.33410755 72.52716522 384.36607647 73.54674339 C385.30357487 74.50116074 385.30357487 74.50116074 386.26001263 75.47485924 C386.7990107 76.01536541 387.33800877 76.55587158 387.89334011 77.11275673 C394.34313657 85.5408024 394.10307238 93.45862471 394.04242229 103.65472984 C394.04703375 105.33885677 394.05338831 107.02297968 394.06133127 108.70709419 C394.07801416 113.32552654 394.06978295 117.94362785 394.0573864 122.56206131 C394.048334 127.54646474 394.06230659 132.53081135 394.07330608 137.51520348 C394.09109383 147.275904 394.08725016 157.0364815 394.07565552 166.79718685 C394.06662249 174.72981399 394.06539664 182.66240665 394.06975079 190.59503746 C394.07036372 191.72399114 394.07097665 192.85294483 394.07160816 194.01610923 C394.07288706 196.30954712 394.07418391 198.60298499 394.07549852 200.89642286 C394.08690507 222.40269398 394.07378942 243.90889691 394.05229706 265.41515684 C394.03442602 283.8690721 394.03753011 302.32288671 394.0559721 320.77680016 C394.07737747 342.20604294 394.08580643 363.63522594 394.07352304 385.06447792 C394.07224885 387.34948539 394.07099136 389.63449286 394.06975079 391.91950035 C394.06882513 393.60590744 394.06882513 393.60590744 394.06788078 395.32638335 C394.06442688 403.24960817 394.07025709 411.17279508 394.079669 419.09601402 C394.09088663 428.75160377 394.08785382 438.40706344 394.06654602 448.06263828 C394.05603251 452.98920603 394.05191901 457.91555688 394.06514263 462.84212303 C394.07706598 467.35247178 394.07050487 471.86240269 394.04923242 476.37271357 C394.04476613 478.00382655 394.04703327 479.63497487 394.05673558 481.26606512 C394.11107522 491.16070085 393.75792682 498.09528779 387.28448772 506.00726891 C378.98028424 512.80161721 371.39286999 512.83052727 361.12408733 512.76520348 C359.54720484 512.76981557 357.97032665 512.77617057 356.39345741 512.78411245 C352.07145834 512.80078658 347.74981327 512.79256819 343.42781305 512.78016758 C338.76242951 512.77111155 334.09710653 512.78508956 329.43173504 512.79608727 C320.29668197 512.81387115 311.16176038 512.81003307 302.02670217 512.7984367 C294.60227425 512.78940215 287.17788318 512.78817848 279.75345135 512.79253197 C278.69665706 512.7931449 277.63986277 512.79375783 276.5510444 512.79438934 C274.40416852 512.79566824 272.25729264 512.7969651 270.11041677 512.7982797 C249.98045705 512.80968512 229.85057019 512.79657238 209.72062242 512.77507824 C192.44923113 512.7572073 175.17794738 512.76031142 157.90655804 512.77875328 C137.84849464 512.80016065 117.7904951 512.80858649 97.73242188 512.79630423 C95.59345596 512.79503003 93.45449004 512.79377255 91.3155241 512.79253197 C90.26311958 512.79191487 89.21071505 512.79129776 88.12641948 512.79066196 C80.71114693 512.78720867 73.29591489 512.79303698 65.88064861 512.80245018 C56.84355842 512.81367004 47.8066072 512.81063034 38.76953292 512.7893272 C34.15890177 512.77881666 29.54850231 512.77469507 24.93787289 512.78792381 C20.71617981 512.79985341 16.49493293 512.79327592 12.27328026 512.7720136 C10.74714667 512.76754994 9.2209753 512.76980857 7.69486606 512.77951676 C-1.47399031 512.83336375 -8.5022668 512.60659377 -15.70769978 506.29242516 C-20.93752392 499.97409694 -22.66407743 495.88274674 -22.82879353 487.65961266 C-22.37972168 484.68994401 -21.61135375 483.35077279 -19.46551228 481.25726891 C-17.30926228 480.76117516 -17.30926228 480.76117516 -14.96551228 480.81976891 C-14.19207478 480.82105797 -13.41863728 480.82234703 -12.62176228 480.82367516 C-9.93078591 481.3647954 -9.10145837 482.07277115 -7.46551228 484.25726891 C-6.58660603 486.44867516 -6.58660603 486.44867516 -5.90301228 488.81976891 C-4.86372274 492.40966454 -4.86372274 492.40966454 -2.46551228 495.25726891 C0.91170039 496.45756419 4.20246004 496.38365318 7.75990486 496.38590336 C9.04667513 496.3891278 10.3334454 496.39235225 11.65920871 496.39567441 C13.090327 496.39420322 14.5214452 496.39263549 15.95256329 496.39098167 C17.47037915 496.39284936 18.98819454 496.39514989 20.50600916 496.397847 C24.68310334 496.40397658 28.86017754 496.40383005 33.0372752 496.40265262 C37.53973156 496.40244891 42.04218145 496.40796451 46.54463482 496.41271019 C55.36770015 496.42102341 64.19075881 496.42376532 73.01382773 496.42432257 C80.18331366 496.42479737 87.35279737 496.42685029 94.5222826 496.43002319 C114.83753326 496.43883123 135.15277864 496.44344228 155.46803122 496.44269272 C157.11148993 496.44263279 157.11148993 496.44263279 158.78814983 496.44257164 C160.43360885 496.44251032 160.43360885 496.44251032 162.11230946 496.44244776 C179.89810071 496.44204114 197.6838708 496.45161431 215.46965592 496.46571001 C233.72063849 496.48006058 251.97161073 496.48698093 270.22259909 496.48611623 C280.47374144 496.48578383 290.7248616 496.48854991 300.97599888 496.49929428 C309.70251471 496.5083819 318.42899829 496.51058885 327.1555168 496.50378486 C331.60974769 496.50051097 336.06391667 496.50049417 340.51814175 496.50913811 C344.5935299 496.51696571 348.66880664 496.51561022 352.74419195 496.50685398 C354.22059891 496.50531071 355.69701402 496.50716603 357.17341136 496.51271405 C359.17667291 496.51974493 361.1799683 496.51330286 363.18322945 496.50615788 C364.85397409 496.50648393 364.85397409 496.50648393 366.55847114 496.50681657 C370.75748817 496.15471676 373.54281157 495.24894506 376.53448772 492.25726891 C376.84357068 489.38668735 376.84357068 489.38668735 376.79620075 485.95163345 C376.80019681 485.29423678 376.80419288 484.6368401 376.80831003 483.95952231 C376.81936383 481.73520022 376.81607197 479.51112363 376.81296062 477.2867794 C376.81795899 475.68462787 376.82383343 474.08247886 376.83051336 472.48033345 C376.846383 468.06102872 376.84974784 463.64178743 376.85116196 459.22245765 C376.85484392 454.46305689 376.86999328 449.70369143 376.88377666 444.94431114 C376.90609134 436.69280807 376.92107927 428.44131748 376.93114376 420.18979073 C376.94570598 408.25935287 376.97123581 396.32895851 376.99947505 384.39854611 C377.04498783 365.04401078 377.08158405 345.6894692 377.11261272 326.33490562 C377.14277992 307.52955592 377.17712174 288.72422151 377.21710491 269.91889 C377.21956646 268.76046116 377.22202801 267.60203232 377.22456415 266.40849958 C377.2369384 260.59722106 377.249395 254.78594271 377.26189256 248.97466445 C377.3655275 200.73555394 377.45470855 152.49642436 377.53448772 104.25726891 C376.16718769 104.26726166 376.16718769 104.26726166 374.77226543 104.27745628 C366.16552983 104.3376648 357.55886536 104.38329281 348.95196724 104.41270542 C344.52747808 104.42833529 340.10316352 104.44952439 335.67877483 104.48358727 C331.40586483 104.51627659 327.13312237 104.53414206 322.86009693 104.54190063 C321.23306995 104.547427 319.60605173 104.55821864 317.97909641 104.57445908 C315.69324362 104.59636115 313.40807571 104.59923058 311.12213421 104.59784508 C309.82307644 104.60450691 308.52401867 104.61116875 307.18559551 104.61803246 C300.53152171 103.96054782 295.87182652 101.46207545 291.53448772 96.25726891 C289.40903731 92.10578459 289.25999268 88.28347693 289.30743694 83.71307945 C289.30714489 82.97107796 289.30685284 82.22907646 289.30655193 81.46459007 C289.3079397 79.02426823 289.3234746 76.58425583 289.33917522 74.14398766 C289.34290733 72.44719675 289.34575337 70.75040368 289.34775066 69.05360985 C289.3553716 64.59675668 289.37500683 60.14003473 289.39715862 55.68323326 C289.41765025 51.13175799 289.42675947 46.58026143 289.43683147 42.02875328 C289.4582542 33.10486764 289.49237153 24.1810792 289.53448772 15.25726891 C252.93006413 15.33900538 216.32568163 15.43115931 179.72132053 15.53732052 C175.40163754 15.54983966 171.08195431 15.56227239 166.76227093 15.57465172 C165.90228543 15.57711771 165.04229992 15.57958371 164.15625425 15.58212443 C150.22427817 15.62186797 136.29229395 15.65460825 122.3602942 15.68476872 C108.06897877 15.71586263 93.77769789 15.75446318 79.48642129 15.80005896 C70.66514422 15.82796551 61.84389248 15.84998915 53.02258309 15.86453141 C46.97672501 15.87505866 40.93091593 15.89286529 34.88509474 15.91643594 C31.39492717 15.92982674 27.90482839 15.93996985 24.41463375 15.94148254 C20.63277761 15.94479279 16.85116156 15.96023708 13.06935406 15.97879601 C11.4103107 15.9758939 11.4103107 15.9758939 9.71775132 15.97293317 C8.70457816 15.98039867 7.69140499 15.98786416 6.6475296 15.99555588 C5.77455256 15.9978342 4.90157552 16.00011252 4.00214463 16.00245988 C0.06995254 16.40849608 -2.66645553 17.45821216 -5.46551228 20.25726891 C-5.76848521 22.25354206 -5.76848521 22.25354206 -5.71884537 24.5811491 C-5.72726846 25.95147147 -5.72726846 25.95147147 -5.73586172 27.34947711 C-5.73188062 28.35966928 -5.72789953 29.36986146 -5.7237978 30.41066551 C-5.7274735 31.47873725 -5.73114921 32.54680899 -5.7349363 33.64724654 C-5.74496966 37.25013042 -5.7407549 40.85286158 -5.73675251 44.45575523 C-5.74113651 47.02918729 -5.74643746 49.60261793 -5.75259113 52.17604637 C-5.76465239 57.72978116 -5.76974492 63.28348722 -5.77047253 68.8372345 C-5.77179643 76.87253327 -5.78689299 84.90776214 -5.8059677 92.94303628 C-5.83683215 105.98600427 -5.86098657 119.02897403 -5.87884235 132.07196617 C-5.87991503 132.85306469 -5.88098771 133.6341632 -5.8820929 134.43893137 C-5.89391066 143.15171144 -5.90411568 151.86449222 -5.91253376 160.57727623 C-5.91560754 163.73533696 -5.91869635 166.89339767 -5.9218111 170.05145836 C-5.92257644 170.83069874 -5.92334178 171.60993912 -5.92413031 172.41279284 C-5.93720844 185.40240212 -5.96184436 198.39196093 -5.99555451 211.38153285 C-6.01585696 219.39684892 -6.02613219 227.41205708 -6.0235653 235.42739906 C-6.02240863 241.56869826 -6.03654676 247.70987374 -6.05637455 253.85113907 C-6.06198807 256.37268652 -6.06244649 258.89425137 -6.05743694 261.41580009 C-6.05132535 264.85170153 -6.063474 268.28706672 -6.08024311 271.72292137 C-6.0740313 272.72642138 -6.06781948 273.72992139 -6.06141943 274.76383048 C-6.10551603 279.70468487 -6.13812742 283.29974339 -9.46551228 287.25726891 C-12.55724979 288.80313766 -15.0598078 288.55086412 -18.46551228 288.25726891 C-20.67644978 286.62836266 -20.67644978 286.62836266 -22.46551228 284.25726891 C-22.85613728 281.24164391 -22.85613728 281.24164391 -22.71551228 278.00726891 C-22.67941853 276.92961266 -22.64332478 275.85195641 -22.60613728 274.74164391 C-22.55973103 273.92180016 -22.51332478 273.10195641 -22.46551228 272.25726891 C-25.67483882 272.33873989 -28.88234667 272.45152636 -32.09051228 272.56976891 C-32.99414509 272.5923275 -33.8977779 272.61488609 -34.82879353 272.63812828 C-40.07276652 272.84865274 -43.94141042 273.32616066 -48.46551228 276.25726891 C-52.91133149 281.18371722 -53.8163821 284.2086567 -53.75066853 290.71430016 C-53.22977972 295.35948663 -50.80662015 298.07871956 -47.40301228 301.06976891 C-44.27606348 302.98628591 -41.70613094 303.38276354 -38.12346172 303.38755417 C-37.2312896 303.39117852 -36.33911748 303.39480286 -35.41990983 303.39853704 C-34.43870467 303.39746879 -33.45749951 303.39640054 -32.44656086 303.39529991 C-31.40495827 303.39812119 -30.36335569 303.40094247 -29.29018939 303.40384924 C-25.78270494 303.41221498 -22.27525199 303.41353519 -18.76775837 303.41498375 C-16.2597822 303.41965057 -13.75180688 303.42479391 -11.24383259 303.43037987 C-5.83363987 303.44167302 -0.42345374 303.45015208 4.98674679 303.4564991 C13.5419371 303.46682548 22.09708857 303.48739005 30.65225506 303.50961876 C33.57954871 303.51709874 36.50684252 303.52451247 39.43413639 303.53190613 C40.16574614 303.53375669 40.89735589 303.53560726 41.65113563 303.5375139 C49.98122708 303.55844539 58.31132282 303.57727052 66.64142132 303.59515953 C67.4029614 303.59679771 68.16450148 303.59843589 68.94911854 303.60012372 C81.28097384 303.62638999 93.61283213 303.64504343 105.94470353 303.66175143 C118.60892608 303.67918662 131.27309003 303.70804852 143.93726575 303.7466408 C151.74610822 303.77001212 159.55485514 303.78403279 167.36373286 303.78596844 C173.35342858 303.78833179 179.34297532 303.80622836 185.3326292 303.8298378 C187.78637896 303.83703053 190.24014979 303.8391319 192.69390774 303.83573532 C196.04735543 303.83183528 199.40024916 303.84631339 202.75363445 303.86527061 C203.72145528 303.85974092 204.68927612 303.85421122 205.68642485 303.84851396 C213.43577524 303.92397291 221.30770991 305.13300544 227.19808578 310.64179134 C233.24405986 317.95032268 234.26251069 325.43643514 234.16559124 334.63251305 C234.1763242 336.42718262 234.1763242 336.42718262 234.18727398 338.25810814 C234.20119595 341.51045143 234.19294628 344.76174756 234.17318368 348.01403165 C234.1566757 351.43442854 234.16562664 354.85477787 234.17070293 358.27519798 C234.17520985 364.01553001 234.1594403 369.7555347 234.13141155 375.4957943 C234.09935038 382.11250409 234.0993857 388.72862436 234.11662632 395.34537607 C234.13254194 401.73772187 234.12572668 408.12985355 234.10868931 414.52219009 C234.10185447 417.23053764 234.10281413 419.93871169 234.11023426 422.64705658 C234.11570331 426.43554513 234.09525497 430.22304364 234.06793499 434.0114193 C234.07772381 435.67855476 234.07772381 435.67855476 234.08771038 437.37936974 C233.99263156 445.15991769 232.66515951 451.52909316 227.56964397 457.59711266 C226.91866741 458.12433922 226.26769085 458.65156578 225.59698772 459.19476891 C224.94858929 459.74004234 224.30019085 460.28531578 223.63214397 460.84711266 C217.92069752 464.68665115 212.69246179 464.54533286 206.01600933 464.52469444 C204.94481859 464.52922556 203.87362786 464.53375667 202.76997679 464.53842509 C199.17426558 464.55110303 195.57870517 464.5494465 191.98297405 464.54779625 C189.40735968 464.55377944 186.8317471 464.5605845 184.25613689 464.56815147 C177.98158516 464.58475799 171.70707102 464.5902609 165.43249915 464.59137623 C160.33020031 464.59232707 155.22791385 464.59643917 150.12561893 464.60277748 C135.65204005 464.62039058 121.17849081 464.62961649 106.70490114 464.62811653 C105.92477555 464.62803662 105.14464996 464.62795671 104.34088421 464.62787437 C103.55980314 464.62779261 102.77872206 464.62771085 101.97397187 464.62762661 C89.32276864 464.62681416 76.6716846 464.64594127 64.02051584 464.67415111 C51.02289814 464.70290411 38.02533851 464.71669001 25.02768821 464.71496356 C17.73357084 464.71430038 10.43957836 464.71976031 3.14548969 464.74131966 C-3.71719924 464.76147411 -10.57962072 464.760833 -17.44232273 464.74628639 C-19.95855755 464.74419585 -22.47480881 464.7489137 -24.99101543 464.76100731 C-28.43169103 464.77647049 -31.87145925 464.76714327 -35.31211567 464.75174522 C-36.30289606 464.76203235 -37.29367645 464.77231948 -38.31448048 464.78291833 C-47.20744624 464.69524698 -55.24641456 462.24811323 -61.86394978 456.10101891 C-67.858223 449.20029461 -70.57950164 442.80455504 -70.6126833 433.76259422 C-70.61635998 433.11215824 -70.62003667 432.46172225 -70.62382478 431.79157609 C-70.63483039 429.61387254 -70.63870013 427.43621676 -70.64251423 425.25848961 C-70.64878127 423.6961661 -70.65542829 422.13384407 -70.66242695 420.57152367 C-70.68344227 415.442043 -70.69382743 410.31256213 -70.70379353 405.18305016 C-70.70784212 403.41506179 -70.71195907 401.64707359 -70.71614361 399.87908554 C-70.73519025 391.57157374 -70.74942201 383.26407079 -70.75775558 374.95654136 C-70.76752436 365.3772513 -70.79383666 355.79819253 -70.83425647 346.21898395 C-70.8644499 338.80820629 -70.87922754 331.39749481 -70.88253659 323.98665684 C-70.88488351 319.5636421 -70.8937972 315.1408746 -70.91899776 310.71792603 C-70.94233994 306.55392904 -70.94648721 302.39034102 -70.93623638 298.22629547 C-70.93574239 296.70296681 -70.9420224 295.17961759 -70.95579243 293.65635109 C-71.05518248 282.00417884 -69.48720923 273.73460197 -61.38738728 265.04633141 C-52.88530478 257.1317912 -44.25348039 255.9423781 -33.02801228 256.13226891 C-32.01029743 256.14129234 -30.99258259 256.15031578 -29.9440279 256.15961266 C-27.45094072 256.18302192 -24.95835368 256.2158119 -22.46551228 256.25726891 C-22.46919945 255.03290123 -22.47288662 253.80853355 -22.47668552 252.54706383 C-22.56334623 223.47281429 -22.62928899 194.39857682 -22.66977359 165.32422894 C-22.67477633 161.74445428 -22.67995362 158.16467988 -22.68523884 154.58490562 C-22.68628808 153.87224718 -22.68733732 153.15958873 -22.68841836 152.42533457 C-22.70581615 140.89118023 -22.73735037 129.35710575 -22.77412346 117.82299876 C-22.81155035 105.98495521 -22.83375181 94.14695344 -22.84186625 82.30885315 C-22.84685873 75.66081249 -22.85934821 69.01292036 -22.8884325 62.36493492 C-22.91558741 56.10724763 -22.92395695 49.84981596 -22.917943 43.59207535 C-22.91904319 41.29591482 -22.92699635 38.99974573 -22.94233418 36.70363617 C-22.96226266 33.56633391 -22.95744038 30.42999427 -22.94653034 27.2926693 C-22.95818171 26.38603539 -22.96983307 25.47940147 -22.98183751 24.54529381 C-22.91624632 17.55758122 -21.13851553 12.3075748 -16.50066853 7.01508141 C-15.84969196 6.47625328 -15.1987154 5.93742516 -14.52801228 5.38226891 C-13.87961384 4.82797203 -13.2312154 4.27367516 -12.56316853 3.70258141 C-8.49378231 0.89872125 -4.90598931 0.0073409 0 0 Z M305.53448772 19.25726891 C305.53448772 42.02726891 305.53448772 64.79726891 305.53448772 88.25726891 C328.30448772 88.25726891 351.07448772 88.25726891 374.53448772 88.25726891 C370.51918347 83.57274728 366.5310688 79.10862365 362.17779827 74.77118492 C361.57380703 74.16544136 360.96981579 73.5596978 360.34752178 72.93559837 C358.37457056 70.95828832 356.39803533 68.98460793 354.42120647 67.01117516 C353.04197608 65.63127053 351.66289411 64.25121755 350.28395367 62.87102318 C347.40676545 59.99236655 344.52779065 57.11551212 341.64752483 54.23993492 C337.94726193 50.54540109 334.25154966 46.84635267 330.55713463 43.14597225 C327.71691641 40.30215268 324.87433595 37.46070402 322.03101826 34.61998367 C320.66625564 33.25588984 319.30224016 31.89104809 317.93897343 30.52545929 C316.04311801 28.62708089 314.14411579 26.73190922 312.24420452 24.83759117 C311.67748028 24.2688427 311.11075603 23.70009422 310.52685833 23.11411095 C308.38627013 20.46364212 308.38627013 20.46364212 305.53448772 19.25726891 Z M-54.46551228 316.25726891 C-54.55846278 331.91277467 -54.62953582 347.56819319 -54.67276096 363.22390652 C-54.69336664 370.49350462 -54.72144876 377.76292888 -54.76727009 385.03241539 C-54.80719934 391.37016543 -54.8329596 397.70778953 -54.84186625 404.04566187 C-54.84707081 407.40008382 -54.85926091 410.75414558 -54.8884325 414.10845184 C-54.9174725 417.85757485 -54.92146783 421.6059519 -54.91961384 425.3551693 C-54.93399494 426.46144173 -54.94837605 427.56771416 -54.96319294 428.70750999 C-54.92899818 435.0987363 -54.52106358 439.19671745 -50.46551228 444.25726891 C-44.61504218 448.47159258 -40.03018074 448.83203845 -32.93862629 448.7719326 C-31.89078374 448.77887813 -30.84294119 448.78582366 -29.76334584 448.79297966 C-26.25873963 448.81124889 -22.75481037 448.80098518 -19.25018024 448.79071617 C-16.73511975 448.79777451 -14.22006351 448.80651916 -11.70501423 448.81682396 C-5.58741965 448.83699666 0.52992546 448.83834428 6.64754046 448.83019841 C11.61922176 448.82389364 16.59084883 448.82503979 21.56252956 448.83147049 C22.62468021 448.83282297 22.62468021 448.83282297 23.70828845 448.83420278 C25.14684107 448.836054 26.58539368 448.83791656 28.02394627 448.83979034 C41.50497715 448.85635876 54.98590329 448.84765683 68.46692787 448.83080476 C80.80132908 448.81609931 93.13548688 448.83074965 105.46985675 448.85957492 C118.13869812 448.88896126 130.80742711 448.89994405 143.47630107 448.89039272 C144.90889317 448.88937017 146.34148528 448.88837556 147.77407742 448.88740921 C148.47892117 448.88693282 149.18376492 448.88645643 149.90996758 448.8859656 C154.87656772 448.88380096 159.84306148 448.89360782 164.80963802 448.90818024 C171.49267662 448.92751581 178.1751897 448.92063704 184.85823345 448.89598083 C187.31367419 448.8909584 189.76914925 448.89449954 192.22456264 448.90712929 C195.57075862 448.92298233 198.91544527 448.90818048 202.26156902 448.88545799 C203.23831274 448.89729372 204.21505646 448.90912945 205.22139847 448.92132384 C209.73003963 448.85891322 211.88841981 448.72022404 215.63728333 446.03388786 C217.66445928 443.0670514 218.16026482 441.74260019 218.16267681 438.2031765 C218.17533077 437.20921364 218.18798473 436.21525078 218.20102215 435.19116783 C218.18932995 434.11204124 218.17763775 433.03291466 218.16559124 431.92108727 C218.17274654 430.77586098 218.17990185 429.63063469 218.18727398 428.45070457 C218.20418077 424.66576803 218.18474607 420.88201243 218.16339397 417.09711266 C218.16422242 414.46825118 218.16668088 411.83938976 218.17070293 409.21053123 C218.17522046 403.70180216 218.15937416 398.19341303 218.13141155 392.68475914 C218.09934481 386.31855151 218.09938234 379.95295635 218.11662632 373.58670515 C218.13249548 367.45756888 218.12565904 361.32869291 218.10868931 355.19956207 C218.10349961 352.59320707 218.10399879 349.98683443 218.11023426 347.38048172 C218.11567265 343.7412846 218.09535383 340.10313397 218.06793499 336.46405602 C218.07446087 335.3829052 218.08098675 334.30175438 218.08771038 333.18784142 C218.1187377 327.52370804 218.1187377 327.52370804 215.62614727 322.61934471 C212.57716374 320.63386543 210.90404206 320.13178178 207.29986763 320.12698364 C206.40620316 320.1233593 205.51253869 320.11973495 204.59179348 320.11600077 C203.60378453 320.11706902 202.61577557 320.11813728 201.59782696 320.1192379 C200.03057939 320.11500598 200.03057939 320.11500598 198.43167025 320.11068857 C194.90726024 320.10231139 191.38288151 320.10100164 187.85846233 320.09955406 C185.34078158 320.09488805 182.82310166 320.08974484 180.30542278 320.08415794 C174.87120319 320.07285854 169.43699018 320.06438235 164.00276279 320.05803871 C155.40984709 320.04771815 146.81697013 320.02715475 138.22407818 320.00491905 C135.28455938 319.99743879 132.34504041 319.99002509 129.40552139 319.98263168 C128.67082303 319.98078112 127.93612467 319.97893055 127.17916272 319.97702391 C118.81136142 319.95608676 110.44355583 319.93726474 102.07574749 319.91937828 C100.92810319 319.91692101 100.92810319 319.91692101 99.75727416 319.91441409 C87.37038978 319.88815315 74.98350242 319.86949737 62.59660202 319.85278638 C49.87817068 319.83535117 37.15979769 319.80648835 24.44141299 319.76789701 C16.59808885 319.74452334 8.75485987 319.7305048 0.91150064 319.72856937 C-5.10538253 319.72620601 -11.1221174 319.70830934 -17.13895893 319.68470001 C-19.60399579 319.67750705 -22.06905362 319.67540602 -24.53409863 319.67880249 C-27.90292563 319.68270234 -31.27120113 319.66822498 -34.63996601 319.6492672 C-35.61235991 319.65479689 -36.58475381 319.66032659 -37.58661419 319.66602385 C-43.72029947 319.60656591 -48.77623994 318.5587813 -54.46551228 316.25726891 Z " fill="#fff" transform="translate(94.4655122756958,-0.25726890563964844)"/>
<path d="M0 0 C6.79652566 6.62225577 8.33846353 12.96650852 8.5078125 22.21484375 C8.24649256 35.3533457 5.85243598 48.96420517 1.75439453 61.45751953 C1.16147421 65.04518996 3.90525649 67.98376896 5.8125 70.875 C6.26931152 71.58479004 6.72612305 72.29458008 7.19677734 73.02587891 C11.32574493 79.36704828 15.76119093 85.42488828 20.4375 91.375 C21.07042969 92.1896875 21.70335937 93.004375 22.35546875 93.84375 C31.46193117 105.4873585 31.46193117 105.4873585 41.4375 116.375 C43.86008816 116.39652045 46.26629331 116.36582339 48.6875 116.3125 C55.62305544 116.2429425 62.46751847 116.56354647 69.375 117.1875 C70.22545898 117.25767334 71.07591797 117.32784668 71.95214844 117.40014648 C81.70059224 118.3482802 91.04378297 120.38753743 97.75 128 C101.08076354 132.68774128 101.13003506 136.7324132 100.4375 142.375 C98.26365648 148.86842052 95.21198145 153.67933187 89.4375 157.375 C80.92803251 160.62406941 73.71523337 159.5745924 65.4375 156.375 C56.71781537 152.43789203 48.08257535 146.8209261 41.82885742 139.48901367 C38.84370211 136.267947 36.79799036 134.49811792 32.3269043 134.09350586 C28.54601983 134.37627501 24.85526177 134.91183723 21.125 135.5625 C19.7532932 135.77313302 18.38121368 135.98135177 17.00878906 136.18725586 C4.69050066 138.09698657 -7.55243949 140.61923647 -19.64086914 143.65600586 C-21.61946119 144.14292435 -23.60945531 144.58529773 -25.60717773 144.98657227 C-31.81248845 146.26620579 -31.81248845 146.26620579 -36.25390625 150.45703125 C-36.91097886 151.68321273 -37.53381807 152.92822665 -38.125 154.1875 C-38.85152278 155.5457889 -39.5834497 156.90119885 -40.3203125 158.25390625 C-40.68543945 158.9411377 -41.05056641 159.62836914 -41.42675781 160.33642578 C-49.08077524 174.07482766 -60.27212687 188.73788246 -75.0625 194.8125 C-80.8089389 195.73603482 -85.45998158 195.36442043 -90.75 192.875 C-95.41930431 188.72450728 -99.45218432 183.72226228 -100.625 177.4375 C-100.97078419 169.84528194 -98.4187397 163.92273649 -93.5625 158.1875 C-88.75773479 153.23572909 -83.58744031 149.68989545 -77.5625 146.375 C-75.97115234 145.49714844 -75.97115234 145.49714844 -74.34765625 144.6015625 C-52.94855349 133.375 -52.94855349 133.375 -44.5625 133.375 C-44.32402344 132.57320312 -44.08554688 131.77140625 -43.83984375 130.9453125 C-42.26006808 126.52967041 -40.20408189 122.44791447 -38.125 118.25 C-33.91569145 109.58593082 -30.19931719 100.78084714 -26.6875 91.8125 C-26.23576416 90.66056152 -25.78402832 89.50862305 -25.31860352 88.32177734 C-24.03956476 85.01566822 -22.79641084 81.69818024 -21.5625 78.375 C-21.1406543 77.28719238 -20.71880859 76.19938477 -20.28417969 75.07861328 C-19.89907227 74.03302246 -19.51396484 72.98743164 -19.1171875 71.91015625 C-18.76897949 70.98726807 -18.42077148 70.06437988 -18.06201172 69.11352539 C-17.03236486 63.46858461 -20.43523583 58.44444446 -22.875 53.5 C-29.40448361 39.70048751 -34.731591 25.12593085 -30.8984375 9.703125 C-28.81621949 4.8868642 -25.19717228 1.74315492 -20.5625 -0.625 C-14.13580653 -2.77642528 -6.11270526 -2.78825152 0 0 Z M-15.5625 16.375 C-16.82931683 24.594579 -14.52766424 31.79000398 -11.5625 39.375 C-10.9025 39.375 -10.2425 39.375 -9.5625 39.375 C-7.03489642 26.85590641 -7.03489642 26.85590641 -8.5625 14.375 C-12.51707848 14.02676193 -12.51707848 14.02676193 -15.5625 16.375 Z M-6.5625 84.375 C-6.86430176 85.15512451 -7.16610352 85.93524902 -7.47705078 86.73901367 C-8.62559874 89.70189958 -9.77792288 92.66328388 -10.93261719 95.6237793 C-11.66622434 97.50785898 -12.3956749 99.39355548 -13.125 101.27929688 C-15.98908201 108.61366904 -19.05010578 115.76003608 -22.45654297 122.85668945 C-23.69653299 125.22178877 -23.69653299 125.22178877 -23.5625 127.375 C-22.83885254 127.23924561 -22.11520508 127.10349121 -21.36962891 126.96362305 C-7.12207925 124.29545378 7.1256578 121.67611973 21.4375 119.375 C18.5850081 115.49244158 15.68710786 111.66450746 12.6484375 107.92578125 C7.00509898 100.97804345 1.70897417 94.07552509 -3.0390625 86.47265625 C-3.79316406 85.43431641 -3.79316406 85.43431641 -4.5625 84.375 C-5.2225 84.375 -5.8825 84.375 -6.5625 84.375 Z M60.4375 133.375 C65.24774057 138.46755717 70.50217327 141.55695813 77.25 143.4375 C80.54040042 143.6954571 80.54040042 143.6954571 82.875 141.4375 C83.390625 140.756875 83.90625 140.07625 84.4375 139.375 C84.1075 138.385 83.7775 137.395 83.4375 136.375 C76.13431646 133.045406 68.30544293 133.00425923 60.4375 133.375 Z M-81.2421875 168.6328125 C-83.41850786 171.50452517 -83.5625 173.82028982 -83.5625 177.375 C-82.0775 178.365 -82.0775 178.365 -80.5625 179.375 C-74.50860151 176.10141045 -70.0302369 172.01922187 -65.625 166.8125 C-65.15280029 166.25860596 -64.68060059 165.70471191 -64.1940918 165.1340332 C-61.64889059 162.03779479 -59.80662887 159.19269832 -58.5625 155.375 C-65.21522515 155.375 -76.64307738 164.31243632 -81.2421875 168.6328125 Z " fill="#fff" transform="translate(280.5625,83.625)"/>
<path d="M0 0 C1.10730469 -0.00193359 2.21460938 -0.00386719 3.35546875 -0.00585938 C4.50402344 0.01798828 5.65257812 0.04183594 6.8359375 0.06640625 C7.96128906 0.05544922 9.08664063 0.04449219 10.24609375 0.03320312 C20.73027132 0.1241064 29.78753373 2.30579833 37.49609375 9.71484375 C45.30363965 18.42941662 48.62951449 29.56378711 48.42578125 41.19921875 C47.3531375 53.32984446 44.07535295 63.67280547 35.11328125 72.125 C27.29524649 78.3055819 19.49544679 78.89240756 9.81420898 78.97900391 C8.45531108 78.99558574 7.09650119 79.02290626 5.73803711 79.06103516 C3.77250132 79.11585184 1.80606326 79.13454991 -0.16015625 79.15234375 C-1.9225061 79.18207275 -1.9225061 79.18207275 -3.72045898 79.21240234 C-6.7890625 78.62890625 -6.7890625 78.62890625 -8.94750977 76.51309204 C-11.17600847 73.02288284 -11.30091108 71.01646947 -11.32250977 66.8984375 C-11.33543312 65.9145253 -11.33543312 65.9145253 -11.34861755 64.91073608 C-11.37122301 62.75388537 -11.36455043 60.59833961 -11.35546875 58.44140625 C-11.3607065 56.93594987 -11.36698353 55.43049677 -11.37425232 53.92504883 C-11.38464616 50.7744194 -11.38010968 47.62424191 -11.36547852 44.47363281 C-11.34828368 40.44149403 -11.37179773 36.41077935 -11.40696812 32.37879944 C-11.42895584 29.27142952 -11.42749765 26.16439975 -11.4192028 23.05697632 C-11.41838417 21.57065264 -11.42523088 20.08430376 -11.43997383 18.59805298 C-11.45744966 16.51760953 -11.44285932 14.43971704 -11.42016602 12.359375 C-11.41920425 11.17754639 -11.41824249 9.99571777 -11.41725159 8.77807617 C-10.16372965 2.49405493 -6.12358435 -0.00447122 0 0 Z M5.2109375 16.62890625 C5.2109375 31.80890625 5.2109375 46.98890625 5.2109375 62.62890625 C17.12652045 63.69257131 17.12652045 63.69257131 25.2109375 58.62890625 C30.96587638 52.39438913 32.11115609 45.89967655 32.2109375 37.62890625 C31.52247293 30.00115591 29.45197124 24.55374158 23.6484375 19.31640625 C17.41799511 15.00302305 14.16197187 16.62890625 5.2109375 16.62890625 Z " fill="#fff" transform="translate(165.7890625,344.37109375)"/>
<path d="M0 0 C1.05574219 -0.01611328 2.11148438 -0.03222656 3.19921875 -0.04882812 C13.49840718 -0.05520928 21.83059785 2.00760268 29.375 9.3125 C34.09196577 15.40116501 36.03094065 22.70358845 35.375 30.3125 C33.82991841 38.08004653 29.96133267 44.06071495 23.46875 48.6640625 C19.46427452 51.02263069 15.99802913 52.44500398 11.36328125 52.41015625 C10.22729492 52.40532227 10.22729492 52.40532227 9.06835938 52.40039062 C7.88983398 52.38782227 7.88983398 52.38782227 6.6875 52.375 C5.49157227 52.36823242 5.49157227 52.36823242 4.27148438 52.36132812 C2.30595743 52.3495585 0.34046915 52.33162348 -1.625 52.3125 C-1.60405273 53.01858398 -1.58310547 53.72466797 -1.56152344 54.45214844 C-1.47830702 57.65545376 -1.42632215 60.85853163 -1.375 64.0625 C-1.34148437 65.17367187 -1.30796875 66.28484375 -1.2734375 67.4296875 C-1.26054688 68.49960937 -1.24765625 69.56953125 -1.234375 70.671875 C-1.21342773 71.65639648 -1.19248047 72.64091797 -1.17089844 73.65527344 C-1.75540781 77.07559603 -2.89671802 78.2301664 -5.625 80.3125 C-9.34639364 80.77767421 -11.65875579 80.82104958 -15 79.0625 C-18.21344093 75.60187131 -17.75920526 71.4085593 -17.78613281 66.87915039 C-17.79574036 65.57422134 -17.8053479 64.2692923 -17.81524658 62.92481995 C-17.8200941 61.50326716 -17.82437304 60.08171235 -17.828125 58.66015625 C-17.83388038 57.19811502 -17.83963806 55.7360738 -17.84539795 54.27403259 C-17.8558896 51.21173757 -17.86174464 48.14946866 -17.86523438 45.0871582 C-17.87072328 41.16858779 -17.89476716 37.2503641 -17.92320633 33.3319025 C-17.94185176 30.31297298 -17.94703925 27.29412681 -17.94857025 24.27514458 C-17.95159169 22.83068376 -17.9596031 21.38622424 -17.97275543 19.94182014 C-17.98985809 17.91969839 -17.98608477 15.89743289 -17.98144531 13.87524414 C-17.98509094 12.72592911 -17.98873657 11.57661407 -17.99249268 10.39247131 C-17.57887707 6.92594178 -16.711678 5.08788576 -14.625 2.3125 C-10.02479025 -0.7543065 -5.41151092 -0.01616341 0 0 Z M-1.625 16.3125 C-1.72652799 23.0810324 -1.65526944 29.61574864 -0.625 36.3125 C8.18216464 37.25484267 8.18216464 37.25484267 16.125 34.25 C18.85013974 30.69217867 19.5321774 28.7920559 19.375 24.3125 C17.71145778 20.92143316 16.51193719 18.89771723 13.12109375 17.15234375 C9.96430182 16.18689529 7.35695778 16.11509433 4.0625 16.1875 C2.99386719 16.20554687 1.92523438 16.22359375 0.82421875 16.2421875 C-0.38814453 16.27699219 -0.38814453 16.27699219 -1.625 16.3125 Z " fill="#fff" transform="translate(104.625,343.6875)"/>
<path d="M0 0 C1.22783203 -0.01224609 2.45566406 -0.02449219 3.72070312 -0.03710938 C4.90470703 -0.03904297 6.08871094 -0.04097656 7.30859375 -0.04296875 C8.38810303 -0.04707764 9.4676123 -0.05118652 10.57983398 -0.05541992 C13.68236206 0.19726203 15.81199811 0.7432686 18.5625 2.1875 C21.04288907 5.9080836 21.02587203 7.78546571 20.5625 12.1875 C19.2109375 14.39453125 19.2109375 14.39453125 16.5625 16.1875 C12.96780284 16.68220062 9.43219983 16.56281584 5.8125 16.4375 C4.33716797 16.41042969 4.33716797 16.41042969 2.83203125 16.3828125 C0.40843659 16.33575241 -2.01465625 16.26401086 -4.4375 16.1875 C-4.4375 21.4675 -4.4375 26.7475 -4.4375 32.1875 C-2.44976562 32.11789062 -2.44976562 32.11789062 -0.421875 32.046875 C1.32289412 32.00935308 3.06768762 31.97295337 4.8125 31.9375 C5.68519531 31.90398437 6.55789062 31.87046875 7.45703125 31.8359375 C13.91562952 31.73733295 13.91562952 31.73733295 17.14453125 33.984375 C19.2108191 37.19480571 19.02949733 39.45152138 18.5625 43.1875 C16.80234869 46.3725357 16.06359084 47.02046972 12.5625 48.1875 C11.22724283 48.26723476 9.88837917 48.29521338 8.55078125 48.28515625 C7.41479492 48.28032227 7.41479492 48.28032227 6.25585938 48.27539062 C5.07733398 48.26282227 5.07733398 48.26282227 3.875 48.25 C2.67907227 48.24323242 2.67907227 48.24323242 1.45898438 48.23632812 C-0.50654257 48.2245585 -2.47203085 48.20662348 -4.4375 48.1875 C-4.42178955 48.91340332 -4.4060791 49.63930664 -4.38989258 50.38720703 C-4.32729645 53.69555788 -4.28843088 57.00378381 -4.25 60.3125 C-4.22486328 61.45460938 -4.19972656 62.59671875 -4.17382812 63.7734375 C-4.08037711 74.48915368 -4.08037711 74.48915368 -7.4375 79.1875 C-10.52923752 80.73336876 -13.03179552 80.48109521 -16.4375 80.1875 C-18.63270569 78.60646057 -18.63270569 78.60646057 -20.4375 76.1875 C-20.93870544 72.99327087 -20.93870544 72.99327087 -20.93920898 69.17163086 C-20.94461197 68.47360855 -20.95001495 67.77558624 -20.95558167 67.05641174 C-20.96806512 64.7546213 -20.95158386 62.45408252 -20.93359375 60.15234375 C-20.93374873 58.55098912 -20.93523757 56.94963411 -20.93800354 55.34828186 C-20.93938729 51.99495834 -20.9268326 48.64206268 -20.90405273 45.28881836 C-20.87564485 40.9888427 -20.87841177 36.68957666 -20.89114285 32.3895483 C-20.89809419 29.08413115 -20.89031744 25.77887831 -20.87788582 22.47348213 C-20.8733676 20.88783968 -20.87303775 19.30217962 -20.87695122 17.71653557 C-20.87985879 15.50197994 -20.86338076 13.2884062 -20.84155273 11.07397461 C-20.83614975 9.813629 -20.83074677 8.55328339 -20.82518005 7.25474548 C-20.4375 4.1875 -20.4375 4.1875 -19.02505493 2.29940796 C-13.79772731 -1.36176122 -6.05564931 0.00316884 0 0 Z " fill="#fff" transform="translate(249.4375,343.8125)"/>
</svg>
